<?xml version="1.0" encoding="utf-8" standalone="no"?>
<!DOCTYPE svg PUBLIC "-//W3C//DTD SVG 1.1//EN"
  "http://www.w3.org/Graphics/SVG/1.1/DTD/svg11.dtd">
<svg xmlns:xlink="http://www.w3.org/1999/xlink" width="460.8pt" height="345.6pt" viewBox="0 0 460.8 345.6" xmlns="http://www.w3.org/2000/svg" version="1.1">
 <metadata>
  <rdf:RDF xmlns:dc="http://purl.org/dc/elements/1.1/" xmlns:cc="http://creativecommons.org/ns#" xmlns:rdf="http://www.w3.org/1999/02/22-rdf-syntax-ns#">
   <cc:Work>
    <dc:type rdf:resource="http://purl.org/dc/dcmitype/StillImage"/>
    <dc:date>2022-03-22T12:51:06.917908</dc:date>
    <dc:format>image/svg+xml</dc:format>
    <dc:creator>
     <cc:Agent>
      <dc:title>Matplotlib v3.5.1, https://matplotlib.org/</dc:title>
     </cc:Agent>
    </dc:creator>
   </cc:Work>
  </rdf:RDF>
 </metadata>
 <defs>
  <style type="text/css">*{stroke-linejoin: round; stroke-linecap: butt}</style>
 </defs>
 <g id="figure_1">
  <g id="patch_1">
   <path d="M 0 345.6 
L 460.8 345.6 
L 460.8 0 
L 0 0 
z
" style="fill: #ffffff"/>
  </g>
  <g id="axes_1">
   <g id="patch_2">
    <path d="M 57.6 307.584 
L 414.72 307.584 
L 414.72 41.472 
L 57.6 41.472 
z
" style="fill: #ffffff"/>
   </g>
   <g id="matplotlib.axis_1">
    <g id="xtick_1">
     <g id="line2d_1">
      <defs>
       <path id="m049ed0a4de" d="M 0 0 
L 0 3.5 
" style="stroke: #000000; stroke-width: 0.8"/>
      </defs>
      <g>
       <use xlink:href="#m049ed0a4de" x="70.553388" y="307.584" style="stroke: #000000; stroke-width: 0.8"/>
      </g>
     </g>
     <g id="text_1">
      <!-- 0 -->
      <g transform="translate(67.372138 322.182437)scale(0.1 -0.1)">
       <defs>
        <path id="DejaVuSans-30" d="M 2034 4250 
Q 1547 4250 1301 3770 
Q 1056 3291 1056 2328 
Q 1056 1369 1301 889 
Q 1547 409 2034 409 
Q 2525 409 2770 889 
Q 3016 1369 3016 2328 
Q 3016 3291 2770 3770 
Q 2525 4250 2034 4250 
z
M 2034 4750 
Q 2819 4750 3233 4129 
Q 3647 3509 3647 2328 
Q 3647 1150 3233 529 
Q 2819 -91 2034 -91 
Q 1250 -91 836 529 
Q 422 1150 422 2328 
Q 422 3509 836 4129 
Q 1250 4750 2034 4750 
z
" transform="scale(0.015625)"/>
       </defs>
       <use xlink:href="#DejaVuSans-30"/>
      </g>
     </g>
    </g>
    <g id="xtick_2">
     <g id="line2d_2">
      <g>
       <use xlink:href="#m049ed0a4de" x="136.140165" y="307.584" style="stroke: #000000; stroke-width: 0.8"/>
      </g>
     </g>
     <g id="text_2">
      <!-- 20 -->
      <g transform="translate(129.777665 322.182437)scale(0.1 -0.1)">
       <defs>
        <path id="DejaVuSans-32" d="M 1228 531 
L 3431 531 
L 3431 0 
L 469 0 
L 469 531 
Q 828 903 1448 1529 
Q 2069 2156 2228 2338 
Q 2531 2678 2651 2914 
Q 2772 3150 2772 3378 
Q 2772 3750 2511 3984 
Q 2250 4219 1831 4219 
Q 1534 4219 1204 4116 
Q 875 4013 500 3803 
L 500 4441 
Q 881 4594 1212 4672 
Q 1544 4750 1819 4750 
Q 2544 4750 2975 4387 
Q 3406 4025 3406 3419 
Q 3406 3131 3298 2873 
Q 3191 2616 2906 2266 
Q 2828 2175 2409 1742 
Q 1991 1309 1228 531 
z
" transform="scale(0.015625)"/>
       </defs>
       <use xlink:href="#DejaVuSans-32"/>
       <use xlink:href="#DejaVuSans-30" x="63.623047"/>
      </g>
     </g>
    </g>
    <g id="xtick_3">
     <g id="line2d_3">
      <g>
       <use xlink:href="#m049ed0a4de" x="201.726942" y="307.584" style="stroke: #000000; stroke-width: 0.8"/>
      </g>
     </g>
     <g id="text_3">
      <!-- 40 -->
      <g transform="translate(195.364442 322.182437)scale(0.1 -0.1)">
       <defs>
        <path id="DejaVuSans-34" d="M 2419 4116 
L 825 1625 
L 2419 1625 
L 2419 4116 
z
M 2253 4666 
L 3047 4666 
L 3047 1625 
L 3713 1625 
L 3713 1100 
L 3047 1100 
L 3047 0 
L 2419 0 
L 2419 1100 
L 313 1100 
L 313 1709 
L 2253 4666 
z
" transform="scale(0.015625)"/>
       </defs>
       <use xlink:href="#DejaVuSans-34"/>
       <use xlink:href="#DejaVuSans-30" x="63.623047"/>
      </g>
     </g>
    </g>
    <g id="xtick_4">
     <g id="line2d_4">
      <g>
       <use xlink:href="#m049ed0a4de" x="267.313719" y="307.584" style="stroke: #000000; stroke-width: 0.8"/>
      </g>
     </g>
     <g id="text_4">
      <!-- 60 -->
      <g transform="translate(260.951219 322.182437)scale(0.1 -0.1)">
       <defs>
        <path id="DejaVuSans-36" d="M 2113 2584 
Q 1688 2584 1439 2293 
Q 1191 2003 1191 1497 
Q 1191 994 1439 701 
Q 1688 409 2113 409 
Q 2538 409 2786 701 
Q 3034 994 3034 1497 
Q 3034 2003 2786 2293 
Q 2538 2584 2113 2584 
z
M 3366 4563 
L 3366 3988 
Q 3128 4100 2886 4159 
Q 2644 4219 2406 4219 
Q 1781 4219 1451 3797 
Q 1122 3375 1075 2522 
Q 1259 2794 1537 2939 
Q 1816 3084 2150 3084 
Q 2853 3084 3261 2657 
Q 3669 2231 3669 1497 
Q 3669 778 3244 343 
Q 2819 -91 2113 -91 
Q 1303 -91 875 529 
Q 447 1150 447 2328 
Q 447 3434 972 4092 
Q 1497 4750 2381 4750 
Q 2619 4750 2861 4703 
Q 3103 4656 3366 4563 
z
" transform="scale(0.015625)"/>
       </defs>
       <use xlink:href="#DejaVuSans-36"/>
       <use xlink:href="#DejaVuSans-30" x="63.623047"/>
      </g>
     </g>
    </g>
    <g id="xtick_5">
     <g id="line2d_5">
      <g>
       <use xlink:href="#m049ed0a4de" x="332.900496" y="307.584" style="stroke: #000000; stroke-width: 0.8"/>
      </g>
     </g>
     <g id="text_5">
      <!-- 80 -->
      <g transform="translate(326.537996 322.182437)scale(0.1 -0.1)">
       <defs>
        <path id="DejaVuSans-38" d="M 2034 2216 
Q 1584 2216 1326 1975 
Q 1069 1734 1069 1313 
Q 1069 891 1326 650 
Q 1584 409 2034 409 
Q 2484 409 2743 651 
Q 3003 894 3003 1313 
Q 3003 1734 2745 1975 
Q 2488 2216 2034 2216 
z
M 1403 2484 
Q 997 2584 770 2862 
Q 544 3141 544 3541 
Q 544 4100 942 4425 
Q 1341 4750 2034 4750 
Q 2731 4750 3128 4425 
Q 3525 4100 3525 3541 
Q 3525 3141 3298 2862 
Q 3072 2584 2669 2484 
Q 3125 2378 3379 2068 
Q 3634 1759 3634 1313 
Q 3634 634 3220 271 
Q 2806 -91 2034 -91 
Q 1263 -91 848 271 
Q 434 634 434 1313 
Q 434 1759 690 2068 
Q 947 2378 1403 2484 
z
M 1172 3481 
Q 1172 3119 1398 2916 
Q 1625 2713 2034 2713 
Q 2441 2713 2670 2916 
Q 2900 3119 2900 3481 
Q 2900 3844 2670 4047 
Q 2441 4250 2034 4250 
Q 1625 4250 1398 4047 
Q 1172 3844 1172 3481 
z
" transform="scale(0.015625)"/>
       </defs>
       <use xlink:href="#DejaVuSans-38"/>
       <use xlink:href="#DejaVuSans-30" x="63.623047"/>
      </g>
     </g>
    </g>
    <g id="xtick_6">
     <g id="line2d_6">
      <g>
       <use xlink:href="#m049ed0a4de" x="398.487273" y="307.584" style="stroke: #000000; stroke-width: 0.8"/>
      </g>
     </g>
     <g id="text_6">
      <!-- 100 -->
      <g transform="translate(388.943523 322.182437)scale(0.1 -0.1)">
       <defs>
        <path id="DejaVuSans-31" d="M 794 531 
L 1825 531 
L 1825 4091 
L 703 3866 
L 703 4441 
L 1819 4666 
L 2450 4666 
L 2450 531 
L 3481 531 
L 3481 0 
L 794 0 
L 794 531 
z
" transform="scale(0.015625)"/>
       </defs>
       <use xlink:href="#DejaVuSans-31"/>
       <use xlink:href="#DejaVuSans-30" x="63.623047"/>
       <use xlink:href="#DejaVuSans-30" x="127.246094"/>
      </g>
     </g>
    </g>
    <g id="text_7">
     <!-- Bedieningstijd percentiel -->
     <g transform="translate(174.002969 335.860562)scale(0.1 -0.1)">
      <defs>
       <path id="DejaVuSans-42" d="M 1259 2228 
L 1259 519 
L 2272 519 
Q 2781 519 3026 730 
Q 3272 941 3272 1375 
Q 3272 1813 3026 2020 
Q 2781 2228 2272 2228 
L 1259 2228 
z
M 1259 4147 
L 1259 2741 
L 2194 2741 
Q 2656 2741 2882 2914 
Q 3109 3088 3109 3444 
Q 3109 3797 2882 3972 
Q 2656 4147 2194 4147 
L 1259 4147 
z
M 628 4666 
L 2241 4666 
Q 2963 4666 3353 4366 
Q 3744 4066 3744 3513 
Q 3744 3084 3544 2831 
Q 3344 2578 2956 2516 
Q 3422 2416 3680 2098 
Q 3938 1781 3938 1306 
Q 3938 681 3513 340 
Q 3088 0 2303 0 
L 628 0 
L 628 4666 
z
" transform="scale(0.015625)"/>
       <path id="DejaVuSans-65" d="M 3597 1894 
L 3597 1613 
L 953 1613 
Q 991 1019 1311 708 
Q 1631 397 2203 397 
Q 2534 397 2845 478 
Q 3156 559 3463 722 
L 3463 178 
Q 3153 47 2828 -22 
Q 2503 -91 2169 -91 
Q 1331 -91 842 396 
Q 353 884 353 1716 
Q 353 2575 817 3079 
Q 1281 3584 2069 3584 
Q 2775 3584 3186 3129 
Q 3597 2675 3597 1894 
z
M 3022 2063 
Q 3016 2534 2758 2815 
Q 2500 3097 2075 3097 
Q 1594 3097 1305 2825 
Q 1016 2553 972 2059 
L 3022 2063 
z
" transform="scale(0.015625)"/>
       <path id="DejaVuSans-64" d="M 2906 2969 
L 2906 4863 
L 3481 4863 
L 3481 0 
L 2906 0 
L 2906 525 
Q 2725 213 2448 61 
Q 2172 -91 1784 -91 
Q 1150 -91 751 415 
Q 353 922 353 1747 
Q 353 2572 751 3078 
Q 1150 3584 1784 3584 
Q 2172 3584 2448 3432 
Q 2725 3281 2906 2969 
z
M 947 1747 
Q 947 1113 1208 752 
Q 1469 391 1925 391 
Q 2381 391 2643 752 
Q 2906 1113 2906 1747 
Q 2906 2381 2643 2742 
Q 2381 3103 1925 3103 
Q 1469 3103 1208 2742 
Q 947 2381 947 1747 
z
" transform="scale(0.015625)"/>
       <path id="DejaVuSans-69" d="M 603 3500 
L 1178 3500 
L 1178 0 
L 603 0 
L 603 3500 
z
M 603 4863 
L 1178 4863 
L 1178 4134 
L 603 4134 
L 603 4863 
z
" transform="scale(0.015625)"/>
       <path id="DejaVuSans-6e" d="M 3513 2113 
L 3513 0 
L 2938 0 
L 2938 2094 
Q 2938 2591 2744 2837 
Q 2550 3084 2163 3084 
Q 1697 3084 1428 2787 
Q 1159 2491 1159 1978 
L 1159 0 
L 581 0 
L 581 3500 
L 1159 3500 
L 1159 2956 
Q 1366 3272 1645 3428 
Q 1925 3584 2291 3584 
Q 2894 3584 3203 3211 
Q 3513 2838 3513 2113 
z
" transform="scale(0.015625)"/>
       <path id="DejaVuSans-67" d="M 2906 1791 
Q 2906 2416 2648 2759 
Q 2391 3103 1925 3103 
Q 1463 3103 1205 2759 
Q 947 2416 947 1791 
Q 947 1169 1205 825 
Q 1463 481 1925 481 
Q 2391 481 2648 825 
Q 2906 1169 2906 1791 
z
M 3481 434 
Q 3481 -459 3084 -895 
Q 2688 -1331 1869 -1331 
Q 1566 -1331 1297 -1286 
Q 1028 -1241 775 -1147 
L 775 -588 
Q 1028 -725 1275 -790 
Q 1522 -856 1778 -856 
Q 2344 -856 2625 -561 
Q 2906 -266 2906 331 
L 2906 616 
Q 2728 306 2450 153 
Q 2172 0 1784 0 
Q 1141 0 747 490 
Q 353 981 353 1791 
Q 353 2603 747 3093 
Q 1141 3584 1784 3584 
Q 2172 3584 2450 3431 
Q 2728 3278 2906 2969 
L 2906 3500 
L 3481 3500 
L 3481 434 
z
" transform="scale(0.015625)"/>
       <path id="DejaVuSans-73" d="M 2834 3397 
L 2834 2853 
Q 2591 2978 2328 3040 
Q 2066 3103 1784 3103 
Q 1356 3103 1142 2972 
Q 928 2841 928 2578 
Q 928 2378 1081 2264 
Q 1234 2150 1697 2047 
L 1894 2003 
Q 2506 1872 2764 1633 
Q 3022 1394 3022 966 
Q 3022 478 2636 193 
Q 2250 -91 1575 -91 
Q 1294 -91 989 -36 
Q 684 19 347 128 
L 347 722 
Q 666 556 975 473 
Q 1284 391 1588 391 
Q 1994 391 2212 530 
Q 2431 669 2431 922 
Q 2431 1156 2273 1281 
Q 2116 1406 1581 1522 
L 1381 1569 
Q 847 1681 609 1914 
Q 372 2147 372 2553 
Q 372 3047 722 3315 
Q 1072 3584 1716 3584 
Q 2034 3584 2315 3537 
Q 2597 3491 2834 3397 
z
" transform="scale(0.015625)"/>
       <path id="DejaVuSans-74" d="M 1172 4494 
L 1172 3500 
L 2356 3500 
L 2356 3053 
L 1172 3053 
L 1172 1153 
Q 1172 725 1289 603 
Q 1406 481 1766 481 
L 2356 481 
L 2356 0 
L 1766 0 
Q 1100 0 847 248 
Q 594 497 594 1153 
L 594 3053 
L 172 3053 
L 172 3500 
L 594 3500 
L 594 4494 
L 1172 4494 
z
" transform="scale(0.015625)"/>
       <path id="DejaVuSans-6a" d="M 603 3500 
L 1178 3500 
L 1178 -63 
Q 1178 -731 923 -1031 
Q 669 -1331 103 -1331 
L -116 -1331 
L -116 -844 
L 38 -844 
Q 366 -844 484 -692 
Q 603 -541 603 -63 
L 603 3500 
z
M 603 4863 
L 1178 4863 
L 1178 4134 
L 603 4134 
L 603 4863 
z
" transform="scale(0.015625)"/>
       <path id="DejaVuSans-20" transform="scale(0.015625)"/>
       <path id="DejaVuSans-70" d="M 1159 525 
L 1159 -1331 
L 581 -1331 
L 581 3500 
L 1159 3500 
L 1159 2969 
Q 1341 3281 1617 3432 
Q 1894 3584 2278 3584 
Q 2916 3584 3314 3078 
Q 3713 2572 3713 1747 
Q 3713 922 3314 415 
Q 2916 -91 2278 -91 
Q 1894 -91 1617 61 
Q 1341 213 1159 525 
z
M 3116 1747 
Q 3116 2381 2855 2742 
Q 2594 3103 2138 3103 
Q 1681 3103 1420 2742 
Q 1159 2381 1159 1747 
Q 1159 1113 1420 752 
Q 1681 391 2138 391 
Q 2594 391 2855 752 
Q 3116 1113 3116 1747 
z
" transform="scale(0.015625)"/>
       <path id="DejaVuSans-72" d="M 2631 2963 
Q 2534 3019 2420 3045 
Q 2306 3072 2169 3072 
Q 1681 3072 1420 2755 
Q 1159 2438 1159 1844 
L 1159 0 
L 581 0 
L 581 3500 
L 1159 3500 
L 1159 2956 
Q 1341 3275 1631 3429 
Q 1922 3584 2338 3584 
Q 2397 3584 2469 3576 
Q 2541 3569 2628 3553 
L 2631 2963 
z
" transform="scale(0.015625)"/>
       <path id="DejaVuSans-63" d="M 3122 3366 
L 3122 2828 
Q 2878 2963 2633 3030 
Q 2388 3097 2138 3097 
Q 1578 3097 1268 2742 
Q 959 2388 959 1747 
Q 959 1106 1268 751 
Q 1578 397 2138 397 
Q 2388 397 2633 464 
Q 2878 531 3122 666 
L 3122 134 
Q 2881 22 2623 -34 
Q 2366 -91 2075 -91 
Q 1284 -91 818 406 
Q 353 903 353 1747 
Q 353 2603 823 3093 
Q 1294 3584 2113 3584 
Q 2378 3584 2631 3529 
Q 2884 3475 3122 3366 
z
" transform="scale(0.015625)"/>
       <path id="DejaVuSans-6c" d="M 603 4863 
L 1178 4863 
L 1178 0 
L 603 0 
L 603 4863 
z
" transform="scale(0.015625)"/>
      </defs>
      <use xlink:href="#DejaVuSans-42"/>
      <use xlink:href="#DejaVuSans-65" x="68.603516"/>
      <use xlink:href="#DejaVuSans-64" x="130.126953"/>
      <use xlink:href="#DejaVuSans-69" x="193.603516"/>
      <use xlink:href="#DejaVuSans-65" x="221.386719"/>
      <use xlink:href="#DejaVuSans-6e" x="282.910156"/>
      <use xlink:href="#DejaVuSans-69" x="346.289062"/>
      <use xlink:href="#DejaVuSans-6e" x="374.072266"/>
      <use xlink:href="#DejaVuSans-67" x="437.451172"/>
      <use xlink:href="#DejaVuSans-73" x="500.927734"/>
      <use xlink:href="#DejaVuSans-74" x="553.027344"/>
      <use xlink:href="#DejaVuSans-69" x="592.236328"/>
      <use xlink:href="#DejaVuSans-6a" x="620.019531"/>
      <use xlink:href="#DejaVuSans-64" x="647.802734"/>
      <use xlink:href="#DejaVuSans-20" x="711.279297"/>
      <use xlink:href="#DejaVuSans-70" x="743.066406"/>
      <use xlink:href="#DejaVuSans-65" x="806.542969"/>
      <use xlink:href="#DejaVuSans-72" x="868.066406"/>
      <use xlink:href="#DejaVuSans-63" x="906.929688"/>
      <use xlink:href="#DejaVuSans-65" x="961.910156"/>
      <use xlink:href="#DejaVuSans-6e" x="1023.433594"/>
      <use xlink:href="#DejaVuSans-74" x="1086.8125"/>
      <use xlink:href="#DejaVuSans-69" x="1126.021484"/>
      <use xlink:href="#DejaVuSans-65" x="1153.804688"/>
      <use xlink:href="#DejaVuSans-6c" x="1215.328125"/>
     </g>
    </g>
   </g>
   <g id="matplotlib.axis_2">
    <g id="ytick_1">
     <g id="line2d_7">
      <defs>
       <path id="ma20e626a9a" d="M 0 0 
L -3.5 0 
" style="stroke: #000000; stroke-width: 0.8"/>
      </defs>
      <g>
       <use xlink:href="#ma20e626a9a" x="57.6" y="307.584" style="stroke: #000000; stroke-width: 0.8"/>
      </g>
     </g>
     <g id="text_8">
      <!-- 0 -->
      <g transform="translate(44.2375 311.383219)scale(0.1 -0.1)">
       <use xlink:href="#DejaVuSans-30"/>
      </g>
     </g>
    </g>
    <g id="ytick_2">
     <g id="line2d_8">
      <g>
       <use xlink:href="#ma20e626a9a" x="57.6" y="263.232" style="stroke: #000000; stroke-width: 0.8"/>
      </g>
     </g>
     <g id="text_9">
      <!-- 5 -->
      <g transform="translate(44.2375 267.031219)scale(0.1 -0.1)">
       <defs>
        <path id="DejaVuSans-35" d="M 691 4666 
L 3169 4666 
L 3169 4134 
L 1269 4134 
L 1269 2991 
Q 1406 3038 1543 3061 
Q 1681 3084 1819 3084 
Q 2600 3084 3056 2656 
Q 3513 2228 3513 1497 
Q 3513 744 3044 326 
Q 2575 -91 1722 -91 
Q 1428 -91 1123 -41 
Q 819 9 494 109 
L 494 744 
Q 775 591 1075 516 
Q 1375 441 1709 441 
Q 2250 441 2565 725 
Q 2881 1009 2881 1497 
Q 2881 1984 2565 2268 
Q 2250 2553 1709 2553 
Q 1456 2553 1204 2497 
Q 953 2441 691 2322 
L 691 4666 
z
" transform="scale(0.015625)"/>
       </defs>
       <use xlink:href="#DejaVuSans-35"/>
      </g>
     </g>
    </g>
    <g id="ytick_3">
     <g id="line2d_9">
      <g>
       <use xlink:href="#ma20e626a9a" x="57.6" y="218.88" style="stroke: #000000; stroke-width: 0.8"/>
      </g>
     </g>
     <g id="text_10">
      <!-- 10 -->
      <g transform="translate(37.875 222.679219)scale(0.1 -0.1)">
       <use xlink:href="#DejaVuSans-31"/>
       <use xlink:href="#DejaVuSans-30" x="63.623047"/>
      </g>
     </g>
    </g>
    <g id="ytick_4">
     <g id="line2d_10">
      <g>
       <use xlink:href="#ma20e626a9a" x="57.6" y="174.528" style="stroke: #000000; stroke-width: 0.8"/>
      </g>
     </g>
     <g id="text_11">
      <!-- 15 -->
      <g transform="translate(37.875 178.327219)scale(0.1 -0.1)">
       <use xlink:href="#DejaVuSans-31"/>
       <use xlink:href="#DejaVuSans-35" x="63.623047"/>
      </g>
     </g>
    </g>
    <g id="ytick_5">
     <g id="line2d_11">
      <g>
       <use xlink:href="#ma20e626a9a" x="57.6" y="130.176" style="stroke: #000000; stroke-width: 0.8"/>
      </g>
     </g>
     <g id="text_12">
      <!-- 20 -->
      <g transform="translate(37.875 133.975219)scale(0.1 -0.1)">
       <use xlink:href="#DejaVuSans-32"/>
       <use xlink:href="#DejaVuSans-30" x="63.623047"/>
      </g>
     </g>
    </g>
    <g id="ytick_6">
     <g id="line2d_12">
      <g>
       <use xlink:href="#ma20e626a9a" x="57.6" y="85.824" style="stroke: #000000; stroke-width: 0.8"/>
      </g>
     </g>
     <g id="text_13">
      <!-- 25 -->
      <g transform="translate(37.875 89.623219)scale(0.1 -0.1)">
       <use xlink:href="#DejaVuSans-32"/>
       <use xlink:href="#DejaVuSans-35" x="63.623047"/>
      </g>
     </g>
    </g>
    <g id="ytick_7">
     <g id="line2d_13">
      <g>
       <use xlink:href="#ma20e626a9a" x="57.6" y="41.472" style="stroke: #000000; stroke-width: 0.8"/>
      </g>
     </g>
     <g id="text_14">
      <!-- 30 -->
      <g transform="translate(37.875 45.271219)scale(0.1 -0.1)">
       <defs>
        <path id="DejaVuSans-33" d="M 2597 2516 
Q 3050 2419 3304 2112 
Q 3559 1806 3559 1356 
Q 3559 666 3084 287 
Q 2609 -91 1734 -91 
Q 1441 -91 1130 -33 
Q 819 25 488 141 
L 488 750 
Q 750 597 1062 519 
Q 1375 441 1716 441 
Q 2309 441 2620 675 
Q 2931 909 2931 1356 
Q 2931 1769 2642 2001 
Q 2353 2234 1838 2234 
L 1294 2234 
L 1294 2753 
L 1863 2753 
Q 2328 2753 2575 2939 
Q 2822 3125 2822 3475 
Q 2822 3834 2567 4026 
Q 2313 4219 1838 4219 
Q 1578 4219 1281 4162 
Q 984 4106 628 3988 
L 628 4550 
Q 988 4650 1302 4700 
Q 1616 4750 1894 4750 
Q 2613 4750 3031 4423 
Q 3450 4097 3450 3541 
Q 3450 3153 3228 2886 
Q 3006 2619 2597 2516 
z
" transform="scale(0.015625)"/>
       </defs>
       <use xlink:href="#DejaVuSans-33"/>
       <use xlink:href="#DejaVuSans-30" x="63.623047"/>
      </g>
     </g>
    </g>
    <g id="text_15">
     <!-- Genormaliseerde omlooptijd -->
     <g transform="translate(31.795312 245.477219)rotate(-90)scale(0.1 -0.1)">
      <defs>
       <path id="DejaVuSans-47" d="M 3809 666 
L 3809 1919 
L 2778 1919 
L 2778 2438 
L 4434 2438 
L 4434 434 
Q 4069 175 3628 42 
Q 3188 -91 2688 -91 
Q 1594 -91 976 548 
Q 359 1188 359 2328 
Q 359 3472 976 4111 
Q 1594 4750 2688 4750 
Q 3144 4750 3555 4637 
Q 3966 4525 4313 4306 
L 4313 3634 
Q 3963 3931 3569 4081 
Q 3175 4231 2741 4231 
Q 1884 4231 1454 3753 
Q 1025 3275 1025 2328 
Q 1025 1384 1454 906 
Q 1884 428 2741 428 
Q 3075 428 3337 486 
Q 3600 544 3809 666 
z
" transform="scale(0.015625)"/>
       <path id="DejaVuSans-6f" d="M 1959 3097 
Q 1497 3097 1228 2736 
Q 959 2375 959 1747 
Q 959 1119 1226 758 
Q 1494 397 1959 397 
Q 2419 397 2687 759 
Q 2956 1122 2956 1747 
Q 2956 2369 2687 2733 
Q 2419 3097 1959 3097 
z
M 1959 3584 
Q 2709 3584 3137 3096 
Q 3566 2609 3566 1747 
Q 3566 888 3137 398 
Q 2709 -91 1959 -91 
Q 1206 -91 779 398 
Q 353 888 353 1747 
Q 353 2609 779 3096 
Q 1206 3584 1959 3584 
z
" transform="scale(0.015625)"/>
       <path id="DejaVuSans-6d" d="M 3328 2828 
Q 3544 3216 3844 3400 
Q 4144 3584 4550 3584 
Q 5097 3584 5394 3201 
Q 5691 2819 5691 2113 
L 5691 0 
L 5113 0 
L 5113 2094 
Q 5113 2597 4934 2840 
Q 4756 3084 4391 3084 
Q 3944 3084 3684 2787 
Q 3425 2491 3425 1978 
L 3425 0 
L 2847 0 
L 2847 2094 
Q 2847 2600 2669 2842 
Q 2491 3084 2119 3084 
Q 1678 3084 1418 2786 
Q 1159 2488 1159 1978 
L 1159 0 
L 581 0 
L 581 3500 
L 1159 3500 
L 1159 2956 
Q 1356 3278 1631 3431 
Q 1906 3584 2284 3584 
Q 2666 3584 2933 3390 
Q 3200 3197 3328 2828 
z
" transform="scale(0.015625)"/>
       <path id="DejaVuSans-61" d="M 2194 1759 
Q 1497 1759 1228 1600 
Q 959 1441 959 1056 
Q 959 750 1161 570 
Q 1363 391 1709 391 
Q 2188 391 2477 730 
Q 2766 1069 2766 1631 
L 2766 1759 
L 2194 1759 
z
M 3341 1997 
L 3341 0 
L 2766 0 
L 2766 531 
Q 2569 213 2275 61 
Q 1981 -91 1556 -91 
Q 1019 -91 701 211 
Q 384 513 384 1019 
Q 384 1609 779 1909 
Q 1175 2209 1959 2209 
L 2766 2209 
L 2766 2266 
Q 2766 2663 2505 2880 
Q 2244 3097 1772 3097 
Q 1472 3097 1187 3025 
Q 903 2953 641 2809 
L 641 3341 
Q 956 3463 1253 3523 
Q 1550 3584 1831 3584 
Q 2591 3584 2966 3190 
Q 3341 2797 3341 1997 
z
" transform="scale(0.015625)"/>
      </defs>
      <use xlink:href="#DejaVuSans-47"/>
      <use xlink:href="#DejaVuSans-65" x="77.490234"/>
      <use xlink:href="#DejaVuSans-6e" x="139.013672"/>
      <use xlink:href="#DejaVuSans-6f" x="202.392578"/>
      <use xlink:href="#DejaVuSans-72" x="263.574219"/>
      <use xlink:href="#DejaVuSans-6d" x="302.9375"/>
      <use xlink:href="#DejaVuSans-61" x="400.349609"/>
      <use xlink:href="#DejaVuSans-6c" x="461.628906"/>
      <use xlink:href="#DejaVuSans-69" x="489.412109"/>
      <use xlink:href="#DejaVuSans-73" x="517.195312"/>
      <use xlink:href="#DejaVuSans-65" x="569.294922"/>
      <use xlink:href="#DejaVuSans-65" x="630.818359"/>
      <use xlink:href="#DejaVuSans-72" x="692.341797"/>
      <use xlink:href="#DejaVuSans-64" x="731.705078"/>
      <use xlink:href="#DejaVuSans-65" x="795.181641"/>
      <use xlink:href="#DejaVuSans-20" x="856.705078"/>
      <use xlink:href="#DejaVuSans-6f" x="888.492188"/>
      <use xlink:href="#DejaVuSans-6d" x="949.673828"/>
      <use xlink:href="#DejaVuSans-6c" x="1047.085938"/>
      <use xlink:href="#DejaVuSans-6f" x="1074.869141"/>
      <use xlink:href="#DejaVuSans-6f" x="1136.050781"/>
      <use xlink:href="#DejaVuSans-70" x="1197.232422"/>
      <use xlink:href="#DejaVuSans-74" x="1260.708984"/>
      <use xlink:href="#DejaVuSans-69" x="1299.917969"/>
      <use xlink:href="#DejaVuSans-6a" x="1327.701172"/>
      <use xlink:href="#DejaVuSans-64" x="1355.484375"/>
     </g>
    </g>
   </g>
   <g id="line2d_14">
    <path d="M 109.464373 -1 
L 109.905455 6.051552 
L 113.184793 21.254311 
L 116.464132 28.534668 
L 119.743471 59.170961 
L 123.02281 61.445662 
L 126.302149 102.633872 
L 129.581488 108.252521 
L 132.860826 113.717887 
L 136.140165 125.634432 
L 139.419504 140.557804 
L 142.698843 144.251075 
L 145.978182 154.735299 
L 149.257521 162.293722 
L 152.53686 168.717325 
L 155.816198 170.276684 
L 159.095537 183.824923 
L 162.374876 174.790247 
L 165.654215 188.481961 
L 168.933554 193.275046 
L 172.212893 203.50278 
L 175.492231 198.683563 
L 178.77157 204.949551 
L 182.050909 207.866079 
L 185.330248 211.904127 
L 188.609587 221.247712 
L 191.888926 205.603314 
L 195.168264 217.662999 
L 198.447603 226.243522 
L 201.726942 225.442126 
L 205.006281 227.381322 
L 208.28562 231.280979 
L 211.564959 241.052795 
L 214.844298 233.695707 
L 218.123636 237.039985 
L 221.402975 236.93504 
L 224.682314 237.519405 
L 227.961653 237.863977 
L 231.240992 241.363081 
L 234.520331 243.740876 
L 237.799669 250.100796 
L 241.079008 244.858699 
L 244.358347 253.798341 
L 247.637686 251.038771 
L 250.917025 249.123548 
L 254.196364 252.811744 
L 257.475702 255.0097 
L 260.755041 258.875259 
L 264.03438 254.951983 
L 267.313719 256.548812 
L 270.593058 257.630587 
L 273.872397 258.782115 
L 277.151736 264.803389 
L 280.431074 261.260809 
L 283.710413 265.493336 
L 286.989752 267.970734 
L 290.269091 261.723519 
L 293.54843 266.689803 
L 296.827769 268.123222 
L 300.107107 269.506123 
L 303.386446 270.973113 
L 306.665785 270.521002 
L 309.945124 271.482544 
L 313.224463 272.772179 
L 316.503802 271.819781 
L 319.78314 275.248523 
L 323.062479 276.386009 
L 326.341818 273.927036 
L 329.621157 274.414537 
L 332.900496 275.281107 
L 336.179835 277.273006 
L 339.459174 277.74232 
L 342.738512 278.580252 
L 346.017851 277.871954 
L 349.29719 280.948767 
L 352.576529 279.954174 
L 355.855868 280.867649 
L 359.135207 283.392745 
L 362.414545 281.13321 
L 365.693884 283.393338 
L 368.973223 283.036477 
L 372.252562 282.91649 
L 375.531901 284.472424 
L 378.81124 284.814763 
L 382.090579 287.269637 
L 385.369917 288.250393 
L 388.649256 287.514787 
L 391.928595 288.541579 
L 395.207934 290.53696 
L 398.487273 292.071108 
" clip-path="url(#p66919ac87d)" style="fill: none; stroke: #1f77b4; stroke-width: 1.5; stroke-linecap: square"/>
   </g>
   <g id="line2d_15">
    <path d="M 81.796112 -1 
L 83.670744 70.949818 
L 86.950083 131.331813 
L 90.229421 151.922673 
L 93.50876 183.875712 
L 96.788099 205.378301 
L 100.067438 217.990496 
L 103.346777 225.415711 
L 106.626116 232.919908 
L 109.905455 237.156787 
L 113.184793 245.487333 
L 116.464132 239.854304 
L 119.743471 250.87529 
L 123.02281 250.943496 
L 126.302149 258.658584 
L 129.581488 260.271984 
L 132.860826 260.986679 
L 136.140165 259.77984 
L 139.419504 266.559802 
L 142.698843 267.574702 
L 145.978182 268.976307 
L 149.257521 268.901904 
L 152.53686 271.500128 
L 155.816198 272.539747 
L 159.095537 273.23123 
L 162.374876 274.043082 
L 165.654215 277.281338 
L 168.933554 278.794513 
L 172.212893 277.572308 
L 175.492231 278.084949 
L 178.77157 279.89181 
L 182.050909 278.533992 
L 185.330248 278.136422 
L 188.609587 280.173433 
L 191.888926 280.238489 
L 195.168264 282.038586 
L 198.447603 280.88951 
L 201.726942 280.429284 
L 205.006281 283.778863 
L 208.28562 283.362895 
L 211.564959 283.235684 
L 214.844298 283.5058 
L 218.123636 284.054333 
L 221.402975 285.022789 
L 224.682314 284.710741 
L 227.961653 285.150639 
L 231.240992 284.509832 
L 234.520331 285.364963 
L 237.799669 286.261472 
L 241.079008 285.43248 
L 244.358347 286.154478 
L 247.637686 286.893713 
L 250.917025 286.623841 
L 254.196364 286.903857 
L 257.475702 286.67636 
L 260.755041 286.499097 
L 264.03438 286.119209 
L 267.313719 286.258861 
L 270.593058 287.578274 
L 273.872397 286.798986 
L 277.151736 287.230363 
L 280.431074 286.893093 
L 283.710413 287.34196 
L 286.989752 286.705176 
L 290.269091 286.388951 
L 293.54843 286.640516 
L 296.827769 286.945987 
L 300.107107 287.66649 
L 303.386446 287.037397 
L 306.665785 287.008247 
L 309.945124 287.884398 
L 313.224463 287.2717 
L 316.503802 287.51618 
L 319.78314 287.724946 
L 323.062479 286.877183 
L 326.341818 286.706996 
L 329.621157 287.417558 
L 332.900496 285.893589 
L 336.179835 286.765084 
L 339.459174 286.559496 
L 342.738512 285.955754 
L 346.017851 285.446257 
L 349.29719 286.219987 
L 352.576529 286.577697 
L 355.855868 286.252306 
L 359.135207 285.316437 
L 362.414545 284.915772 
L 365.693884 283.820089 
L 368.973223 283.829181 
L 372.252562 282.453031 
L 375.531901 282.50634 
L 378.81124 281.149384 
L 382.090579 280.714696 
L 385.369917 279.981507 
L 388.649256 277.510311 
L 391.928595 274.309824 
L 395.207934 275.207707 
L 398.487273 274.412722 
" clip-path="url(#p66919ac87d)" style="fill: none; stroke: #ff7f0e; stroke-width: 1.5; stroke-linecap: square"/>
   </g>
   <g id="line2d_16">
    <path d="M 73.832727 298.660378 
L 77.112066 298.669248 
L 80.391405 298.589414 
L 83.670744 298.623418 
L 86.950083 298.558368 
L 90.229421 298.518451 
L 93.50876 298.423411 
L 96.788099 298.40567 
L 100.067438 298.357059 
L 103.346777 298.358587 
L 106.626116 298.44394 
L 109.905455 298.257984 
L 113.184793 298.216858 
L 116.464132 298.077563 
L 119.743471 298.243796 
L 123.02281 298.131871 
L 126.302149 298.135459 
L 129.581488 298.11394 
L 132.860826 297.838981 
L 136.140165 298.044134 
L 139.419504 298.05719 
L 142.698843 297.917803 
L 145.978182 297.75355 
L 149.257521 297.710057 
L 152.53686 297.711479 
L 155.816198 297.568772 
L 159.095537 297.648446 
L 162.374876 297.736963 
L 165.654215 297.388116 
L 168.933554 297.44236 
L 172.212893 297.554394 
L 175.492231 297.177797 
L 178.77157 297.266822 
L 182.050909 297.313461 
L 185.330248 297.386455 
L 188.609587 297.123792 
L 191.888926 297.027433 
L 195.168264 297.209587 
L 198.447603 297.091186 
L 201.726942 296.916847 
L 205.006281 297.209619 
L 208.28562 296.657795 
L 211.564959 296.732338 
L 214.844298 296.8261 
L 218.123636 296.222366 
L 221.402975 296.533516 
L 224.682314 296.227764 
L 227.961653 296.242914 
L 231.240992 296.348302 
L 234.520331 296.317234 
L 237.799669 296.465408 
L 241.079008 295.711403 
L 244.358347 295.923141 
L 247.637686 295.857495 
L 250.917025 296.034767 
L 254.196364 295.994909 
L 257.475702 295.684508 
L 260.755041 295.725085 
L 264.03438 295.654898 
L 267.313719 295.145619 
L 270.593058 295.38212 
L 273.872397 294.971655 
L 277.151736 294.585513 
L 280.431074 295.304177 
L 283.710413 294.478075 
L 286.989752 294.591332 
L 290.269091 294.479861 
L 293.54843 294.02062 
L 296.827769 294.032965 
L 300.107107 293.585055 
L 303.386446 293.29838 
L 306.665785 293.727835 
L 309.945124 293.305061 
L 313.224463 293.196312 
L 316.503802 293.253015 
L 319.78314 293.054781 
L 323.062479 292.088014 
L 326.341818 291.96468 
L 329.621157 291.541879 
L 332.900496 291.230672 
L 336.179835 290.713897 
L 339.459174 290.67715 
L 342.738512 290.545406 
L 346.017851 289.674173 
L 349.29719 288.71099 
L 352.576529 288.291011 
L 355.855868 288.352682 
L 359.135207 287.439939 
L 362.414545 286.777164 
L 365.693884 284.613434 
L 368.973223 284.493501 
L 372.252562 282.530067 
L 375.531901 282.689215 
L 378.81124 280.67156 
L 382.090579 278.735765 
L 385.369917 276.258202 
L 388.649256 273.943273 
L 391.928595 269.541841 
L 395.207934 265.508859 
L 398.487273 261.373137 
" clip-path="url(#p66919ac87d)" style="fill: none; stroke: #2ca02c; stroke-width: 1.5; stroke-linecap: square"/>
   </g>
   <g id="line2d_17">
    <path d="M 73.832727 244.071936 
L 77.112066 235.707149 
L 80.391405 266.930957 
L 83.670744 259.306848 
L 86.950083 262.707759 
L 90.229421 260.736461 
L 93.50876 264.318835 
L 96.788099 261.730051 
L 100.067438 263.865002 
L 103.346777 263.819418 
L 106.626116 260.83796 
L 109.905455 264.712685 
L 113.184793 261.238207 
L 116.464132 262.850378 
L 119.743471 261.484573 
L 123.02281 261.523209 
L 126.302149 264.826353 
L 129.581488 261.553264 
L 132.860826 261.496881 
L 136.140165 261.60599 
L 139.419504 263.022511 
L 142.698843 262.865374 
L 145.978182 262.191516 
L 149.257521 263.717876 
L 152.53686 262.201649 
L 155.816198 260.948999 
L 159.095537 263.614724 
L 162.374876 260.368954 
L 165.654215 260.975124 
L 168.933554 262.913351 
L 172.212893 264.771775 
L 175.492231 262.206352 
L 178.77157 263.620219 
L 182.050909 262.885881 
L 185.330248 264.712426 
L 188.609587 265.235135 
L 191.888926 258.297937 
L 195.168264 261.28496 
L 198.447603 263.89277 
L 201.726942 262.347996 
L 205.006281 263.788641 
L 208.28562 261.855631 
L 211.564959 266.111249 
L 214.844298 261.281093 
L 218.123636 262.401205 
L 221.402975 261.912912 
L 224.682314 261.538439 
L 227.961653 261.826386 
L 231.240992 262.720938 
L 234.520331 260.959315 
L 237.799669 265.090813 
L 241.079008 261.42037 
L 244.358347 265.612769 
L 247.637686 262.7925 
L 250.917025 261.256 
L 254.196364 262.554629 
L 257.475702 263.64418 
L 260.755041 265.775955 
L 264.03438 262.299439 
L 267.313719 261.766451 
L 270.593058 261.28118 
L 273.872397 261.125096 
L 277.151736 264.857112 
L 280.431074 262.324015 
L 283.710413 264.447189 
L 286.989752 266.086897 
L 290.269091 260.865665 
L 293.54843 263.262163 
L 296.827769 264.331506 
L 300.107107 263.904247 
L 303.386446 265.253449 
L 306.665785 263.63202 
L 309.945124 264.552081 
L 313.224463 264.264619 
L 316.503802 264.325198 
L 319.78314 265.773228 
L 323.062479 265.213471 
L 326.341818 261.399465 
L 329.621157 262.234165 
L 332.900496 262.222087 
L 336.179835 262.675245 
L 339.459174 263.076233 
L 342.738512 264.580995 
L 346.017851 263.033246 
L 349.29719 263.893814 
L 352.576529 262.901681 
L 355.855868 263.631173 
L 359.135207 265.856375 
L 362.414545 261.056952 
L 365.693884 263.174723 
L 368.973223 263.534772 
L 372.252562 261.596946 
L 375.531901 263.047896 
L 378.81124 261.726412 
L 382.090579 264.486182 
L 385.369917 264.856898 
L 388.649256 261.100322 
L 391.928595 262.378663 
L 395.207934 263.745819 
L 398.487273 263.245465 
" clip-path="url(#p66919ac87d)" style="fill: none; stroke: #d62728; stroke-width: 1.5; stroke-linecap: square"/>
   </g>
   <g id="line2d_18">
    <path d="M 73.832727 186.911078 
L 77.112066 170.731469 
L 80.391405 241.605965 
L 83.670744 261.962054 
L 86.950083 261.512029 
L 90.229421 249.251067 
L 93.50876 257.701517 
L 96.788099 263.120486 
L 100.067438 262.032771 
L 103.346777 257.675384 
L 106.626116 258.562299 
L 109.905455 265.581178 
L 113.184793 257.962641 
L 116.464132 258.590929 
L 119.743471 262.179421 
L 123.02281 261.377173 
L 126.302149 261.716379 
L 129.581488 261.081473 
L 132.860826 261.869086 
L 136.140165 258.974016 
L 139.419504 262.09126 
L 142.698843 263.447183 
L 145.978182 259.995942 
L 149.257521 262.81029 
L 152.53686 262.809929 
L 155.816198 259.101238 
L 159.095537 262.92827 
L 162.374876 260.824306 
L 165.654215 259.315521 
L 168.933554 262.784231 
L 172.212893 265.028751 
L 175.492231 260.800741 
L 178.77157 263.794924 
L 182.050909 262.694064 
L 185.330248 263.640298 
L 188.609587 265.711999 
L 191.888926 257.491638 
L 195.168264 260.987461 
L 198.447603 263.932709 
L 201.726942 261.685517 
L 205.006281 264.187287 
L 208.28562 261.000501 
L 211.564959 266.337811 
L 214.844298 260.94166 
L 218.123636 262.30391 
L 221.402975 261.902518 
L 224.682314 261.17914 
L 227.961653 261.98975 
L 231.240992 262.278915 
L 234.520331 261.22426 
L 237.799669 264.663668 
L 241.079008 261.648304 
L 244.358347 265.384193 
L 247.637686 262.889222 
L 250.917025 261.141172 
L 254.196364 262.437739 
L 257.475702 263.81565 
L 260.755041 265.511799 
L 264.03438 262.472603 
L 267.313719 261.63689 
L 270.593058 261.292511 
L 273.872397 261.235403 
L 277.151736 264.679221 
L 280.431074 262.489268 
L 283.710413 264.523548 
L 286.989752 265.971841 
L 290.269091 260.930735 
L 293.54843 263.411761 
L 296.827769 264.410964 
L 300.107107 263.900151 
L 303.386446 265.282215 
L 306.665785 263.632509 
L 309.945124 264.654758 
L 313.224463 264.369677 
L 316.503802 264.383276 
L 319.78314 265.869929 
L 323.062479 265.326078 
L 326.341818 261.461923 
L 329.621157 262.350901 
L 332.900496 262.368525 
L 336.179835 262.823904 
L 339.459174 263.179074 
L 342.738512 264.688804 
L 346.017851 263.127187 
L 349.29719 264.04896 
L 352.576529 263.022781 
L 355.855868 263.776363 
L 359.135207 265.976368 
L 362.414545 261.220134 
L 365.693884 263.327954 
L 368.973223 263.685754 
L 372.252562 261.731891 
L 375.531901 263.186821 
L 378.81124 261.895906 
L 382.090579 264.616922 
L 385.369917 265.016645 
L 388.649256 261.263102 
L 391.928595 262.54819 
L 395.207934 263.917196 
L 398.487273 263.394588 
" clip-path="url(#p66919ac87d)" style="fill: none; stroke: #9467bd; stroke-width: 1.5; stroke-linecap: square"/>
   </g>
   <g id="line2d_19">
    <path d="M 73.832727 77.39712 
L 77.112066 45.073382 
L 80.391405 184.258829 
L 83.670744 225.482534 
L 86.950083 238.239648 
L 90.229421 252.782077 
L 93.50876 260.383334 
L 96.788099 265.691318 
L 100.067438 258.001667 
L 103.346777 245.926047 
L 106.626116 246.861757 
L 109.905455 256.016198 
L 113.184793 257.188756 
L 116.464132 260.303111 
L 119.743471 263.681201 
L 123.02281 261.201396 
L 126.302149 255.639112 
L 129.581488 254.86078 
L 132.860826 256.688377 
L 136.140165 260.342131 
L 139.419504 263.39307 
L 142.698843 264.680228 
L 145.978182 255.825816 
L 149.257521 258.770644 
L 152.53686 258.846925 
L 155.816198 260.170397 
L 159.095537 264.080106 
L 162.374876 261.727317 
L 165.654215 256.069856 
L 168.933554 259.839109 
L 172.212893 262.786559 
L 175.492231 261.855675 
L 178.77157 264.679089 
L 182.050909 262.288774 
L 185.330248 261.432523 
L 188.609587 263.637094 
L 191.888926 257.698635 
L 195.168264 261.992302 
L 198.447603 264.10118 
L 201.726942 259.82912 
L 205.006281 262.417161 
L 208.28562 261.941824 
L 211.564959 267.157454 
L 214.844298 260.24881 
L 218.123636 260.814222 
L 221.402975 261.329891 
L 224.682314 262.012978 
L 227.961653 262.287436 
L 231.240992 261.019282 
L 234.520331 260.327785 
L 237.799669 265.557962 
L 241.079008 262.012565 
L 244.358347 264.390191 
L 247.637686 262.445892 
L 250.917025 261.988246 
L 254.196364 262.154131 
L 257.475702 262.9089 
L 260.755041 266.115856 
L 264.03438 262.855879 
L 267.313719 260.842217 
L 270.593058 261.275224 
L 273.872397 261.990411 
L 277.151736 264.309444 
L 280.431074 262.194708 
L 283.710413 265.268001 
L 286.989752 265.663087 
L 290.269091 260.904474 
L 293.54843 264.01772 
L 296.827769 263.894224 
L 300.107107 264.617571 
L 303.386446 265.167804 
L 306.665785 263.97341 
L 309.945124 264.882872 
L 313.224463 264.418558 
L 316.503802 264.701057 
L 319.78314 265.86093 
L 323.062479 265.780421 
L 326.341818 261.594133 
L 329.621157 262.572668 
L 332.900496 262.727725 
L 336.179835 262.852787 
L 339.459174 263.616347 
L 342.738512 264.972924 
L 346.017851 263.26641 
L 349.29719 264.330796 
L 352.576529 263.383843 
L 355.855868 264.076675 
L 359.135207 266.259308 
L 362.414545 261.45251 
L 365.693884 263.693786 
L 368.973223 264.014042 
L 372.252562 261.942731 
L 375.531901 263.516655 
L 378.81124 262.218956 
L 382.090579 264.973147 
L 385.369917 265.289243 
L 388.649256 261.633923 
L 391.928595 262.866177 
L 395.207934 264.253478 
L 398.487273 263.694037 
" clip-path="url(#p66919ac87d)" style="fill: none; stroke: #8c564b; stroke-width: 1.5; stroke-linecap: square"/>
   </g>
   <g id="line2d_20">
    <path d="M 82.688153 -1 
L 83.670744 26.404147 
L 86.950083 110.144863 
L 90.229421 134.675658 
L 93.50876 173.393856 
L 96.788099 191.29464 
L 100.067438 188.127062 
L 103.346777 205.878556 
L 106.626116 210.439572 
L 109.905455 218.026022 
L 113.184793 223.184191 
L 116.464132 219.688766 
L 119.743471 226.125955 
L 123.02281 229.835661 
L 126.302149 239.091293 
L 129.581488 239.515559 
L 132.860826 239.844928 
L 136.140165 239.884915 
L 139.419504 247.646883 
L 142.698843 248.699391 
L 145.978182 248.799777 
L 149.257521 248.703397 
L 152.53686 250.953067 
L 155.816198 251.741536 
L 159.095537 253.584 
L 162.374876 255.801719 
L 165.654215 255.771994 
L 168.933554 257.405996 
L 172.212893 259.734 
L 175.492231 257.168028 
L 178.77157 259.669728 
L 182.050909 259.737419 
L 185.330248 259.89772 
L 188.609587 262.599557 
L 191.888926 258.455756 
L 195.168264 261.480354 
L 198.447603 264.105906 
L 201.726942 262.445295 
L 205.006281 265.130834 
L 208.28562 264.654646 
L 211.564959 267.838108 
L 214.844298 265.260927 
L 218.123636 266.211319 
L 221.402975 265.380593 
L 224.682314 265.794105 
L 227.961653 266.23985 
L 231.240992 267.277308 
L 234.520331 267.479151 
L 237.799669 269.978635 
L 241.079008 267.319078 
L 244.358347 270.808138 
L 247.637686 270.552178 
L 250.917025 268.776515 
L 254.196364 269.481767 
L 257.475702 270.855616 
L 260.755041 272.991801 
L 264.03438 270.596067 
L 267.313719 271.719098 
L 270.593058 272.257751 
L 273.872397 270.533178 
L 277.151736 274.071783 
L 280.431074 272.287959 
L 283.710413 274.215691 
L 286.989752 276.002527 
L 290.269091 271.358221 
L 293.54843 273.605756 
L 296.827769 274.65018 
L 300.107107 275.524291 
L 303.386446 275.244891 
L 306.665785 274.652042 
L 309.945124 275.713568 
L 313.224463 276.237242 
L 316.503802 275.732467 
L 319.78314 277.680689 
L 323.062479 278.097073 
L 326.341818 276.018996 
L 329.621157 276.741977 
L 332.900496 276.692257 
L 336.179835 277.546074 
L 339.459174 278.357446 
L 342.738512 278.560967 
L 346.017851 277.54916 
L 349.29719 279.984926 
L 352.576529 279.16469 
L 355.855868 279.664579 
L 359.135207 281.343344 
L 362.414545 278.57566 
L 365.693884 280.727999 
L 368.973223 280.507562 
L 372.252562 280.04129 
L 375.531901 280.793408 
L 378.81124 280.971674 
L 382.090579 283.673524 
L 385.369917 284.021977 
L 388.649256 282.336101 
L 391.928595 283.756726 
L 395.207934 285.993953 
L 398.487273 286.953757 
" clip-path="url(#p66919ac87d)" style="fill: none; stroke: #e377c2; stroke-width: 1.5; stroke-linecap: square"/>
   </g>
   <g id="line2d_21">
    <path d="M 73.832727 26.143949 
L 76.931854 -1 
M 77.143769 -1 
L 80.391405 160.690176 
L 83.670744 204.17879 
L 86.950083 228.797107 
L 90.229421 246.193736 
L 93.50876 254.612506 
L 96.788099 257.49887 
L 100.067438 265.127555 
L 103.346777 270.224832 
L 106.626116 272.458345 
L 109.905455 274.890528 
L 113.184793 274.497977 
L 116.464132 276.987066 
L 119.743471 279.906092 
L 123.02281 280.404377 
L 126.302149 282.336117 
L 129.581488 284.606655 
L 132.860826 284.237896 
L 136.140165 284.708045 
L 139.419504 287.096987 
L 142.698843 287.450545 
L 145.978182 284.951297 
L 149.257521 273.846381 
L 152.53686 274.61338 
L 155.816198 276.368572 
L 159.095537 276.945085 
L 162.374876 277.35174 
L 165.654215 278.278491 
L 168.933554 280.039425 
L 172.212893 279.970658 
L 175.492231 280.423353 
L 178.77157 281.869059 
L 182.050909 281.673399 
L 185.330248 283.828662 
L 188.609587 284.962567 
L 191.888926 283.489423 
L 195.168264 283.944556 
L 198.447603 285.424978 
L 201.726942 285.833823 
L 205.006281 286.096346 
L 208.28562 285.741322 
L 211.564959 287.010945 
L 214.844298 287.439267 
L 218.123636 286.338448 
L 221.402975 288.18887 
L 224.682314 287.719276 
L 227.961653 287.862395 
L 231.240992 288.398641 
L 234.520331 288.654887 
L 237.799669 289.428654 
L 241.079008 289.187296 
L 244.358347 290.062351 
L 247.637686 267.975811 
L 250.917025 261.167486 
L 254.196364 263.752936 
L 257.475702 265.032287 
L 260.755041 267.521942 
L 264.03438 265.665248 
L 267.313719 264.727486 
L 270.593058 264.949032 
L 273.872397 267.959913 
L 277.151736 269.786983 
L 280.431074 269.856331 
L 283.710413 273.9013 
L 286.989752 272.301927 
L 290.269091 271.300223 
L 293.54843 272.910754 
L 296.827769 274.236127 
L 300.107107 275.482378 
L 303.386446 275.570143 
L 306.665785 276.642927 
L 309.945124 278.046931 
L 313.224463 278.456191 
L 316.503802 278.132411 
L 319.78314 280.610501 
L 323.062479 279.385607 
L 326.341818 278.55656 
L 329.621157 279.775519 
L 332.900496 280.633802 
L 336.179835 280.295645 
L 339.459174 281.34109 
L 342.738512 281.808947 
L 346.017851 237.259105 
L 349.29719 239.647837 
L 352.576529 243.908738 
L 355.855868 247.093191 
L 359.135207 249.306904 
L 362.414545 245.052565 
L 365.693884 251.423743 
L 368.973223 253.823042 
L 372.252562 252.403424 
L 375.531901 257.22837 
L 378.81124 258.731895 
L 382.090579 263.225188 
L 385.369917 266.043679 
L 388.649256 224.139054 
L 391.928595 229.860014 
L 395.207934 238.477534 
L 398.487273 248.930105 
" clip-path="url(#p66919ac87d)" style="fill: none; stroke: #7f7f7f; stroke-width: 1.5; stroke-linecap: square"/>
   </g>
   <g id="line2d_22">
    <path d="M 79.051404 -1 
L 80.391405 91.205376 
L 83.670744 156.720672 
L 86.950083 193.802492 
L 90.229421 214.921436 
L 93.50876 227.751245 
L 96.788099 238.971139 
L 100.067438 251.20423 
L 103.346777 256.709891 
L 106.626116 257.284155 
L 109.905455 264.592531 
L 113.184793 262.928701 
L 116.464132 264.567824 
L 119.743471 268.768376 
L 123.02281 270.392043 
L 126.302149 274.484711 
L 129.581488 276.41108 
L 132.860826 277.340018 
L 136.140165 277.033651 
L 139.419504 279.927145 
L 142.698843 281.620987 
L 145.978182 281.219343 
L 149.257521 281.383088 
L 152.53686 282.760749 
L 155.816198 284.186713 
L 159.095537 284.308376 
L 162.374876 285.08123 
L 165.654215 285.103086 
L 168.933554 286.40636 
L 172.212893 287.658236 
L 175.492231 287.068897 
L 178.77157 288.377186 
L 182.050909 287.629884 
L 185.330248 288.348301 
L 188.609587 289.069909 
L 191.888926 288.6497 
L 195.168264 289.27007 
L 198.447603 289.940203 
L 201.726942 284.741529 
L 205.006281 261.778057 
L 208.28562 262.783222 
L 211.564959 265.498145 
L 214.844298 264.369785 
L 218.123636 264.971314 
L 221.402975 268.220305 
L 224.682314 267.341427 
L 227.961653 265.744003 
L 231.240992 268.442114 
L 234.520331 270.81829 
L 237.799669 272.287296 
L 241.079008 271.274876 
L 244.358347 274.380724 
L 247.637686 274.849948 
L 250.917025 272.733038 
L 254.196364 275.409421 
L 257.475702 277.372983 
L 260.755041 278.707653 
L 264.03438 277.154248 
L 267.313719 276.514748 
L 270.593058 276.712831 
L 273.872397 278.017283 
L 277.151736 280.205275 
L 280.431074 279.580373 
L 283.710413 281.593725 
L 286.989752 281.308693 
L 290.269091 280.561156 
L 293.54843 281.428979 
L 296.827769 282.311111 
L 300.107107 283.068788 
L 303.386446 283.197506 
L 306.665785 283.496593 
L 309.945124 284.433321 
L 313.224463 285.099904 
L 316.503802 284.931893 
L 319.78314 286.215203 
L 323.062479 285.517328 
L 326.341818 285.404133 
L 329.621157 238.256423 
L 332.900496 235.715428 
L 336.179835 233.574544 
L 339.459174 240.525069 
L 342.738512 241.795131 
L 346.017851 244.176619 
L 349.29719 247.301562 
L 352.576529 248.810509 
L 355.855868 252.889334 
L 359.135207 255.644194 
L 362.414545 250.908018 
L 365.693884 256.069094 
L 368.973223 258.639552 
L 372.252562 257.197563 
L 375.531901 261.280375 
L 378.81124 262.602358 
L 382.090579 266.852761 
L 385.369917 269.487028 
L 388.649256 264.335731 
L 391.928595 225.313494 
L 395.207934 232.204491 
L 398.487273 250.987709 
" clip-path="url(#p66919ac87d)" style="fill: none; stroke: #bcbd22; stroke-width: 1.5; stroke-linecap: square"/>
   </g>
   <g id="patch_3">
    <path d="M 57.6 307.584 
L 57.6 41.472 
" style="fill: none; stroke: #000000; stroke-width: 0.8; stroke-linejoin: miter; stroke-linecap: square"/>
   </g>
   <g id="patch_4">
    <path d="M 414.72 307.584 
L 414.72 41.472 
" style="fill: none; stroke: #000000; stroke-width: 0.8; stroke-linejoin: miter; stroke-linecap: square"/>
   </g>
   <g id="patch_5">
    <path d="M 57.6 307.584 
L 414.72 307.584 
" style="fill: none; stroke: #000000; stroke-width: 0.8; stroke-linejoin: miter; stroke-linecap: square"/>
   </g>
   <g id="patch_6">
    <path d="M 57.6 41.472 
L 414.72 41.472 
" style="fill: none; stroke: #000000; stroke-width: 0.8; stroke-linejoin: miter; stroke-linecap: square"/>
   </g>
   <g id="text_16">
    <!-- Genormaliseerde omlooptijd in functie van bedieningstijd -->
    <g transform="translate(63.795938 35.472)scale(0.12 -0.12)">
     <defs>
      <path id="DejaVuSans-66" d="M 2375 4863 
L 2375 4384 
L 1825 4384 
Q 1516 4384 1395 4259 
Q 1275 4134 1275 3809 
L 1275 3500 
L 2222 3500 
L 2222 3053 
L 1275 3053 
L 1275 0 
L 697 0 
L 697 3053 
L 147 3053 
L 147 3500 
L 697 3500 
L 697 3744 
Q 697 4328 969 4595 
Q 1241 4863 1831 4863 
L 2375 4863 
z
" transform="scale(0.015625)"/>
      <path id="DejaVuSans-75" d="M 544 1381 
L 544 3500 
L 1119 3500 
L 1119 1403 
Q 1119 906 1312 657 
Q 1506 409 1894 409 
Q 2359 409 2629 706 
Q 2900 1003 2900 1516 
L 2900 3500 
L 3475 3500 
L 3475 0 
L 2900 0 
L 2900 538 
Q 2691 219 2414 64 
Q 2138 -91 1772 -91 
Q 1169 -91 856 284 
Q 544 659 544 1381 
z
M 1991 3584 
L 1991 3584 
z
" transform="scale(0.015625)"/>
      <path id="DejaVuSans-76" d="M 191 3500 
L 800 3500 
L 1894 563 
L 2988 3500 
L 3597 3500 
L 2284 0 
L 1503 0 
L 191 3500 
z
" transform="scale(0.015625)"/>
      <path id="DejaVuSans-62" d="M 3116 1747 
Q 3116 2381 2855 2742 
Q 2594 3103 2138 3103 
Q 1681 3103 1420 2742 
Q 1159 2381 1159 1747 
Q 1159 1113 1420 752 
Q 1681 391 2138 391 
Q 2594 391 2855 752 
Q 3116 1113 3116 1747 
z
M 1159 2969 
Q 1341 3281 1617 3432 
Q 1894 3584 2278 3584 
Q 2916 3584 3314 3078 
Q 3713 2572 3713 1747 
Q 3713 922 3314 415 
Q 2916 -91 2278 -91 
Q 1894 -91 1617 61 
Q 1341 213 1159 525 
L 1159 0 
L 581 0 
L 581 4863 
L 1159 4863 
L 1159 2969 
z
" transform="scale(0.015625)"/>
     </defs>
     <use xlink:href="#DejaVuSans-47"/>
     <use xlink:href="#DejaVuSans-65" x="77.490234"/>
     <use xlink:href="#DejaVuSans-6e" x="139.013672"/>
     <use xlink:href="#DejaVuSans-6f" x="202.392578"/>
     <use xlink:href="#DejaVuSans-72" x="263.574219"/>
     <use xlink:href="#DejaVuSans-6d" x="302.9375"/>
     <use xlink:href="#DejaVuSans-61" x="400.349609"/>
     <use xlink:href="#DejaVuSans-6c" x="461.628906"/>
     <use xlink:href="#DejaVuSans-69" x="489.412109"/>
     <use xlink:href="#DejaVuSans-73" x="517.195312"/>
     <use xlink:href="#DejaVuSans-65" x="569.294922"/>
     <use xlink:href="#DejaVuSans-65" x="630.818359"/>
     <use xlink:href="#DejaVuSans-72" x="692.341797"/>
     <use xlink:href="#DejaVuSans-64" x="731.705078"/>
     <use xlink:href="#DejaVuSans-65" x="795.181641"/>
     <use xlink:href="#DejaVuSans-20" x="856.705078"/>
     <use xlink:href="#DejaVuSans-6f" x="888.492188"/>
     <use xlink:href="#DejaVuSans-6d" x="949.673828"/>
     <use xlink:href="#DejaVuSans-6c" x="1047.085938"/>
     <use xlink:href="#DejaVuSans-6f" x="1074.869141"/>
     <use xlink:href="#DejaVuSans-6f" x="1136.050781"/>
     <use xlink:href="#DejaVuSans-70" x="1197.232422"/>
     <use xlink:href="#DejaVuSans-74" x="1260.708984"/>
     <use xlink:href="#DejaVuSans-69" x="1299.917969"/>
     <use xlink:href="#DejaVuSans-6a" x="1327.701172"/>
     <use xlink:href="#DejaVuSans-64" x="1355.484375"/>
     <use xlink:href="#DejaVuSans-20" x="1418.960938"/>
     <use xlink:href="#DejaVuSans-69" x="1450.748047"/>
     <use xlink:href="#DejaVuSans-6e" x="1478.53125"/>
     <use xlink:href="#DejaVuSans-20" x="1541.910156"/>
     <use xlink:href="#DejaVuSans-66" x="1573.697266"/>
     <use xlink:href="#DejaVuSans-75" x="1608.902344"/>
     <use xlink:href="#DejaVuSans-6e" x="1672.28125"/>
     <use xlink:href="#DejaVuSans-63" x="1735.660156"/>
     <use xlink:href="#DejaVuSans-74" x="1790.640625"/>
     <use xlink:href="#DejaVuSans-69" x="1829.849609"/>
     <use xlink:href="#DejaVuSans-65" x="1857.632812"/>
     <use xlink:href="#DejaVuSans-20" x="1919.15625"/>
     <use xlink:href="#DejaVuSans-76" x="1950.943359"/>
     <use xlink:href="#DejaVuSans-61" x="2010.123047"/>
     <use xlink:href="#DejaVuSans-6e" x="2071.402344"/>
     <use xlink:href="#DejaVuSans-20" x="2134.78125"/>
     <use xlink:href="#DejaVuSans-62" x="2166.568359"/>
     <use xlink:href="#DejaVuSans-65" x="2230.044922"/>
     <use xlink:href="#DejaVuSans-64" x="2291.568359"/>
     <use xlink:href="#DejaVuSans-69" x="2355.044922"/>
     <use xlink:href="#DejaVuSans-65" x="2382.828125"/>
     <use xlink:href="#DejaVuSans-6e" x="2444.351562"/>
     <use xlink:href="#DejaVuSans-69" x="2507.730469"/>
     <use xlink:href="#DejaVuSans-6e" x="2535.513672"/>
     <use xlink:href="#DejaVuSans-67" x="2598.892578"/>
     <use xlink:href="#DejaVuSans-73" x="2662.369141"/>
     <use xlink:href="#DejaVuSans-74" x="2714.46875"/>
     <use xlink:href="#DejaVuSans-69" x="2753.677734"/>
     <use xlink:href="#DejaVuSans-6a" x="2781.460938"/>
     <use xlink:href="#DejaVuSans-64" x="2809.244141"/>
    </g>
   </g>
   <g id="legend_1">
    <g id="patch_7">
     <path d="M 336.1825 181.575125 
L 407.72 181.575125 
Q 409.72 181.575125 409.72 179.575125 
L 409.72 48.472 
Q 409.72 46.472 407.72 46.472 
L 336.1825 46.472 
Q 334.1825 46.472 334.1825 48.472 
L 334.1825 179.575125 
Q 334.1825 181.575125 336.1825 181.575125 
z
" style="fill: #ffffff; opacity: 0.8; stroke: #cccccc; stroke-linejoin: miter"/>
    </g>
    <g id="line2d_23">
     <path d="M 338.1825 54.570438 
L 348.1825 54.570438 
L 358.1825 54.570438 
" style="fill: none; stroke: #1f77b4; stroke-width: 1.5; stroke-linecap: square"/>
    </g>
    <g id="text_17">
     <!-- FCFS -->
     <g transform="translate(366.1825 58.070438)scale(0.1 -0.1)">
      <defs>
       <path id="DejaVuSans-46" d="M 628 4666 
L 3309 4666 
L 3309 4134 
L 1259 4134 
L 1259 2759 
L 3109 2759 
L 3109 2228 
L 1259 2228 
L 1259 0 
L 628 0 
L 628 4666 
z
" transform="scale(0.015625)"/>
       <path id="DejaVuSans-43" d="M 4122 4306 
L 4122 3641 
Q 3803 3938 3442 4084 
Q 3081 4231 2675 4231 
Q 1875 4231 1450 3742 
Q 1025 3253 1025 2328 
Q 1025 1406 1450 917 
Q 1875 428 2675 428 
Q 3081 428 3442 575 
Q 3803 722 4122 1019 
L 4122 359 
Q 3791 134 3420 21 
Q 3050 -91 2638 -91 
Q 1578 -91 968 557 
Q 359 1206 359 2328 
Q 359 3453 968 4101 
Q 1578 4750 2638 4750 
Q 3056 4750 3426 4639 
Q 3797 4528 4122 4306 
z
" transform="scale(0.015625)"/>
       <path id="DejaVuSans-53" d="M 3425 4513 
L 3425 3897 
Q 3066 4069 2747 4153 
Q 2428 4238 2131 4238 
Q 1616 4238 1336 4038 
Q 1056 3838 1056 3469 
Q 1056 3159 1242 3001 
Q 1428 2844 1947 2747 
L 2328 2669 
Q 3034 2534 3370 2195 
Q 3706 1856 3706 1288 
Q 3706 609 3251 259 
Q 2797 -91 1919 -91 
Q 1588 -91 1214 -16 
Q 841 59 441 206 
L 441 856 
Q 825 641 1194 531 
Q 1563 422 1919 422 
Q 2459 422 2753 634 
Q 3047 847 3047 1241 
Q 3047 1584 2836 1778 
Q 2625 1972 2144 2069 
L 1759 2144 
Q 1053 2284 737 2584 
Q 422 2884 422 3419 
Q 422 4038 858 4394 
Q 1294 4750 2059 4750 
Q 2388 4750 2728 4690 
Q 3069 4631 3425 4513 
z
" transform="scale(0.015625)"/>
      </defs>
      <use xlink:href="#DejaVuSans-46"/>
      <use xlink:href="#DejaVuSans-43" x="57.519531"/>
      <use xlink:href="#DejaVuSans-46" x="127.34375"/>
      <use xlink:href="#DejaVuSans-53" x="183.113281"/>
     </g>
    </g>
    <g id="line2d_24">
     <path d="M 338.1825 69.248563 
L 348.1825 69.248563 
L 358.1825 69.248563 
" style="fill: none; stroke: #ff7f0e; stroke-width: 1.5; stroke-linecap: square"/>
    </g>
    <g id="text_18">
     <!-- SJF -->
     <g transform="translate(366.1825 72.748563)scale(0.1 -0.1)">
      <defs>
       <path id="DejaVuSans-4a" d="M 628 4666 
L 1259 4666 
L 1259 325 
Q 1259 -519 939 -900 
Q 619 -1281 -91 -1281 
L -331 -1281 
L -331 -750 
L -134 -750 
Q 284 -750 456 -515 
Q 628 -281 628 325 
L 628 4666 
z
" transform="scale(0.015625)"/>
      </defs>
      <use xlink:href="#DejaVuSans-53"/>
      <use xlink:href="#DejaVuSans-4a" x="63.476562"/>
      <use xlink:href="#DejaVuSans-46" x="92.96875"/>
     </g>
    </g>
    <g id="line2d_25">
     <path d="M 338.1825 83.926688 
L 348.1825 83.926688 
L 358.1825 83.926688 
" style="fill: none; stroke: #2ca02c; stroke-width: 1.5; stroke-linecap: square"/>
    </g>
    <g id="text_19">
     <!-- SRT -->
     <g transform="translate(366.1825 87.426688)scale(0.1 -0.1)">
      <defs>
       <path id="DejaVuSans-52" d="M 2841 2188 
Q 3044 2119 3236 1894 
Q 3428 1669 3622 1275 
L 4263 0 
L 3584 0 
L 2988 1197 
Q 2756 1666 2539 1819 
Q 2322 1972 1947 1972 
L 1259 1972 
L 1259 0 
L 628 0 
L 628 4666 
L 2053 4666 
Q 2853 4666 3247 4331 
Q 3641 3997 3641 3322 
Q 3641 2881 3436 2590 
Q 3231 2300 2841 2188 
z
M 1259 4147 
L 1259 2491 
L 2053 2491 
Q 2509 2491 2742 2702 
Q 2975 2913 2975 3322 
Q 2975 3731 2742 3939 
Q 2509 4147 2053 4147 
L 1259 4147 
z
" transform="scale(0.015625)"/>
       <path id="DejaVuSans-54" d="M -19 4666 
L 3928 4666 
L 3928 4134 
L 2272 4134 
L 2272 0 
L 1638 0 
L 1638 4134 
L -19 4134 
L -19 4666 
z
" transform="scale(0.015625)"/>
      </defs>
      <use xlink:href="#DejaVuSans-53"/>
      <use xlink:href="#DejaVuSans-52" x="63.476562"/>
      <use xlink:href="#DejaVuSans-54" x="125.708984"/>
     </g>
    </g>
    <g id="line2d_26">
     <path d="M 338.1825 98.604813 
L 348.1825 98.604813 
L 358.1825 98.604813 
" style="fill: none; stroke: #d62728; stroke-width: 1.5; stroke-linecap: square"/>
    </g>
    <g id="text_20">
     <!-- RR2 -->
     <g transform="translate(366.1825 102.104813)scale(0.1 -0.1)">
      <use xlink:href="#DejaVuSans-52"/>
      <use xlink:href="#DejaVuSans-52" x="69.482422"/>
      <use xlink:href="#DejaVuSans-32" x="138.964844"/>
     </g>
    </g>
    <g id="line2d_27">
     <path d="M 338.1825 113.282938 
L 348.1825 113.282938 
L 358.1825 113.282938 
" style="fill: none; stroke: #9467bd; stroke-width: 1.5; stroke-linecap: square"/>
    </g>
    <g id="text_21">
     <!-- RR4 -->
     <g transform="translate(366.1825 116.782938)scale(0.1 -0.1)">
      <use xlink:href="#DejaVuSans-52"/>
      <use xlink:href="#DejaVuSans-52" x="69.482422"/>
      <use xlink:href="#DejaVuSans-34" x="138.964844"/>
     </g>
    </g>
    <g id="line2d_28">
     <path d="M 338.1825 127.961063 
L 348.1825 127.961063 
L 358.1825 127.961063 
" style="fill: none; stroke: #8c564b; stroke-width: 1.5; stroke-linecap: square"/>
    </g>
    <g id="text_22">
     <!-- RR8 -->
     <g transform="translate(366.1825 131.461063)scale(0.1 -0.1)">
      <use xlink:href="#DejaVuSans-52"/>
      <use xlink:href="#DejaVuSans-52" x="69.482422"/>
      <use xlink:href="#DejaVuSans-38" x="138.964844"/>
     </g>
    </g>
    <g id="line2d_29">
     <path d="M 338.1825 142.639188 
L 348.1825 142.639188 
L 358.1825 142.639188 
" style="fill: none; stroke: #e377c2; stroke-width: 1.5; stroke-linecap: square"/>
    </g>
    <g id="text_23">
     <!-- HRRN -->
     <g transform="translate(366.1825 146.139188)scale(0.1 -0.1)">
      <defs>
       <path id="DejaVuSans-48" d="M 628 4666 
L 1259 4666 
L 1259 2753 
L 3553 2753 
L 3553 4666 
L 4184 4666 
L 4184 0 
L 3553 0 
L 3553 2222 
L 1259 2222 
L 1259 0 
L 628 0 
L 628 4666 
z
" transform="scale(0.015625)"/>
       <path id="DejaVuSans-4e" d="M 628 4666 
L 1478 4666 
L 3547 763 
L 3547 4666 
L 4159 4666 
L 4159 0 
L 3309 0 
L 1241 3903 
L 1241 0 
L 628 0 
L 628 4666 
z
" transform="scale(0.015625)"/>
      </defs>
      <use xlink:href="#DejaVuSans-48"/>
      <use xlink:href="#DejaVuSans-52" x="75.195312"/>
      <use xlink:href="#DejaVuSans-52" x="144.677734"/>
      <use xlink:href="#DejaVuSans-4e" x="214.160156"/>
     </g>
    </g>
    <g id="line2d_30">
     <path d="M 338.1825 157.317313 
L 348.1825 157.317313 
L 358.1825 157.317313 
" style="fill: none; stroke: #7f7f7f; stroke-width: 1.5; stroke-linecap: square"/>
    </g>
    <g id="text_24">
     <!-- MLFB25 -->
     <g transform="translate(366.1825 160.817313)scale(0.1 -0.1)">
      <defs>
       <path id="DejaVuSans-4d" d="M 628 4666 
L 1569 4666 
L 2759 1491 
L 3956 4666 
L 4897 4666 
L 4897 0 
L 4281 0 
L 4281 4097 
L 3078 897 
L 2444 897 
L 1241 4097 
L 1241 0 
L 628 0 
L 628 4666 
z
" transform="scale(0.015625)"/>
       <path id="DejaVuSans-4c" d="M 628 4666 
L 1259 4666 
L 1259 531 
L 3531 531 
L 3531 0 
L 628 0 
L 628 4666 
z
" transform="scale(0.015625)"/>
      </defs>
      <use xlink:href="#DejaVuSans-4d"/>
      <use xlink:href="#DejaVuSans-4c" x="86.279297"/>
      <use xlink:href="#DejaVuSans-46" x="141.992188"/>
      <use xlink:href="#DejaVuSans-42" x="199.511719"/>
      <use xlink:href="#DejaVuSans-32" x="268.115234"/>
      <use xlink:href="#DejaVuSans-35" x="331.738281"/>
     </g>
    </g>
    <g id="line2d_31">
     <path d="M 338.1825 171.995438 
L 348.1825 171.995438 
L 358.1825 171.995438 
" style="fill: none; stroke: #bcbd22; stroke-width: 1.5; stroke-linecap: square"/>
    </g>
    <g id="text_25">
     <!-- MLFB50 -->
     <g transform="translate(366.1825 175.495438)scale(0.1 -0.1)">
      <use xlink:href="#DejaVuSans-4d"/>
      <use xlink:href="#DejaVuSans-4c" x="86.279297"/>
      <use xlink:href="#DejaVuSans-46" x="141.992188"/>
      <use xlink:href="#DejaVuSans-42" x="199.511719"/>
      <use xlink:href="#DejaVuSans-35" x="268.115234"/>
      <use xlink:href="#DejaVuSans-30" x="331.738281"/>
     </g>
    </g>
   </g>
  </g>
 </g>
 <defs>
  <clipPath id="p66919ac87d">
   <rect x="57.6" y="41.472" width="357.12" height="266.112"/>
  </clipPath>
 </defs>
</svg>
