<?xml version="1.0" encoding="utf-8" standalone="no"?>
<!DOCTYPE svg PUBLIC "-//W3C//DTD SVG 1.1//EN"
  "http://www.w3.org/Graphics/SVG/1.1/DTD/svg11.dtd">
<svg xmlns:xlink="http://www.w3.org/1999/xlink" width="460.8pt" height="345.6pt" viewBox="0 0 460.8 345.6" xmlns="http://www.w3.org/2000/svg" version="1.1">
 <metadata>
  <rdf:RDF xmlns:dc="http://purl.org/dc/elements/1.1/" xmlns:cc="http://creativecommons.org/ns#" xmlns:rdf="http://www.w3.org/1999/02/22-rdf-syntax-ns#">
   <cc:Work>
    <dc:type rdf:resource="http://purl.org/dc/dcmitype/StillImage"/>
    <dc:date>2022-03-22T12:50:51.891165</dc:date>
    <dc:format>image/svg+xml</dc:format>
    <dc:creator>
     <cc:Agent>
      <dc:title>Matplotlib v3.5.1, https://matplotlib.org/</dc:title>
     </cc:Agent>
    </dc:creator>
   </cc:Work>
  </rdf:RDF>
 </metadata>
 <defs>
  <style type="text/css">*{stroke-linejoin: round; stroke-linecap: butt}</style>
 </defs>
 <g id="figure_1">
  <g id="patch_1">
   <path d="M 0 345.6 
L 460.8 345.6 
L 460.8 0 
L 0 0 
z
" style="fill: #ffffff"/>
  </g>
  <g id="axes_1">
   <g id="patch_2">
    <path d="M 57.6 307.584 
L 414.72 307.584 
L 414.72 41.472 
L 57.6 41.472 
z
" style="fill: #ffffff"/>
   </g>
   <g id="matplotlib.axis_1">
    <g id="xtick_1">
     <g id="line2d_1">
      <defs>
       <path id="m7518d5c33c" d="M 0 0 
L 0 3.5 
" style="stroke: #000000; stroke-width: 0.8"/>
      </defs>
      <g>
       <use xlink:href="#m7518d5c33c" x="70.553388" y="307.584" style="stroke: #000000; stroke-width: 0.8"/>
      </g>
     </g>
     <g id="text_1">
      <!-- 0 -->
      <g transform="translate(67.372138 322.182437)scale(0.1 -0.1)">
       <defs>
        <path id="DejaVuSans-30" d="M 2034 4250 
Q 1547 4250 1301 3770 
Q 1056 3291 1056 2328 
Q 1056 1369 1301 889 
Q 1547 409 2034 409 
Q 2525 409 2770 889 
Q 3016 1369 3016 2328 
Q 3016 3291 2770 3770 
Q 2525 4250 2034 4250 
z
M 2034 4750 
Q 2819 4750 3233 4129 
Q 3647 3509 3647 2328 
Q 3647 1150 3233 529 
Q 2819 -91 2034 -91 
Q 1250 -91 836 529 
Q 422 1150 422 2328 
Q 422 3509 836 4129 
Q 1250 4750 2034 4750 
z
" transform="scale(0.015625)"/>
       </defs>
       <use xlink:href="#DejaVuSans-30"/>
      </g>
     </g>
    </g>
    <g id="xtick_2">
     <g id="line2d_2">
      <g>
       <use xlink:href="#m7518d5c33c" x="136.140165" y="307.584" style="stroke: #000000; stroke-width: 0.8"/>
      </g>
     </g>
     <g id="text_2">
      <!-- 20 -->
      <g transform="translate(129.777665 322.182437)scale(0.1 -0.1)">
       <defs>
        <path id="DejaVuSans-32" d="M 1228 531 
L 3431 531 
L 3431 0 
L 469 0 
L 469 531 
Q 828 903 1448 1529 
Q 2069 2156 2228 2338 
Q 2531 2678 2651 2914 
Q 2772 3150 2772 3378 
Q 2772 3750 2511 3984 
Q 2250 4219 1831 4219 
Q 1534 4219 1204 4116 
Q 875 4013 500 3803 
L 500 4441 
Q 881 4594 1212 4672 
Q 1544 4750 1819 4750 
Q 2544 4750 2975 4387 
Q 3406 4025 3406 3419 
Q 3406 3131 3298 2873 
Q 3191 2616 2906 2266 
Q 2828 2175 2409 1742 
Q 1991 1309 1228 531 
z
" transform="scale(0.015625)"/>
       </defs>
       <use xlink:href="#DejaVuSans-32"/>
       <use xlink:href="#DejaVuSans-30" x="63.623047"/>
      </g>
     </g>
    </g>
    <g id="xtick_3">
     <g id="line2d_3">
      <g>
       <use xlink:href="#m7518d5c33c" x="201.726942" y="307.584" style="stroke: #000000; stroke-width: 0.8"/>
      </g>
     </g>
     <g id="text_3">
      <!-- 40 -->
      <g transform="translate(195.364442 322.182437)scale(0.1 -0.1)">
       <defs>
        <path id="DejaVuSans-34" d="M 2419 4116 
L 825 1625 
L 2419 1625 
L 2419 4116 
z
M 2253 4666 
L 3047 4666 
L 3047 1625 
L 3713 1625 
L 3713 1100 
L 3047 1100 
L 3047 0 
L 2419 0 
L 2419 1100 
L 313 1100 
L 313 1709 
L 2253 4666 
z
" transform="scale(0.015625)"/>
       </defs>
       <use xlink:href="#DejaVuSans-34"/>
       <use xlink:href="#DejaVuSans-30" x="63.623047"/>
      </g>
     </g>
    </g>
    <g id="xtick_4">
     <g id="line2d_4">
      <g>
       <use xlink:href="#m7518d5c33c" x="267.313719" y="307.584" style="stroke: #000000; stroke-width: 0.8"/>
      </g>
     </g>
     <g id="text_4">
      <!-- 60 -->
      <g transform="translate(260.951219 322.182437)scale(0.1 -0.1)">
       <defs>
        <path id="DejaVuSans-36" d="M 2113 2584 
Q 1688 2584 1439 2293 
Q 1191 2003 1191 1497 
Q 1191 994 1439 701 
Q 1688 409 2113 409 
Q 2538 409 2786 701 
Q 3034 994 3034 1497 
Q 3034 2003 2786 2293 
Q 2538 2584 2113 2584 
z
M 3366 4563 
L 3366 3988 
Q 3128 4100 2886 4159 
Q 2644 4219 2406 4219 
Q 1781 4219 1451 3797 
Q 1122 3375 1075 2522 
Q 1259 2794 1537 2939 
Q 1816 3084 2150 3084 
Q 2853 3084 3261 2657 
Q 3669 2231 3669 1497 
Q 3669 778 3244 343 
Q 2819 -91 2113 -91 
Q 1303 -91 875 529 
Q 447 1150 447 2328 
Q 447 3434 972 4092 
Q 1497 4750 2381 4750 
Q 2619 4750 2861 4703 
Q 3103 4656 3366 4563 
z
" transform="scale(0.015625)"/>
       </defs>
       <use xlink:href="#DejaVuSans-36"/>
       <use xlink:href="#DejaVuSans-30" x="63.623047"/>
      </g>
     </g>
    </g>
    <g id="xtick_5">
     <g id="line2d_5">
      <g>
       <use xlink:href="#m7518d5c33c" x="332.900496" y="307.584" style="stroke: #000000; stroke-width: 0.8"/>
      </g>
     </g>
     <g id="text_5">
      <!-- 80 -->
      <g transform="translate(326.537996 322.182437)scale(0.1 -0.1)">
       <defs>
        <path id="DejaVuSans-38" d="M 2034 2216 
Q 1584 2216 1326 1975 
Q 1069 1734 1069 1313 
Q 1069 891 1326 650 
Q 1584 409 2034 409 
Q 2484 409 2743 651 
Q 3003 894 3003 1313 
Q 3003 1734 2745 1975 
Q 2488 2216 2034 2216 
z
M 1403 2484 
Q 997 2584 770 2862 
Q 544 3141 544 3541 
Q 544 4100 942 4425 
Q 1341 4750 2034 4750 
Q 2731 4750 3128 4425 
Q 3525 4100 3525 3541 
Q 3525 3141 3298 2862 
Q 3072 2584 2669 2484 
Q 3125 2378 3379 2068 
Q 3634 1759 3634 1313 
Q 3634 634 3220 271 
Q 2806 -91 2034 -91 
Q 1263 -91 848 271 
Q 434 634 434 1313 
Q 434 1759 690 2068 
Q 947 2378 1403 2484 
z
M 1172 3481 
Q 1172 3119 1398 2916 
Q 1625 2713 2034 2713 
Q 2441 2713 2670 2916 
Q 2900 3119 2900 3481 
Q 2900 3844 2670 4047 
Q 2441 4250 2034 4250 
Q 1625 4250 1398 4047 
Q 1172 3844 1172 3481 
z
" transform="scale(0.015625)"/>
       </defs>
       <use xlink:href="#DejaVuSans-38"/>
       <use xlink:href="#DejaVuSans-30" x="63.623047"/>
      </g>
     </g>
    </g>
    <g id="xtick_6">
     <g id="line2d_6">
      <g>
       <use xlink:href="#m7518d5c33c" x="398.487273" y="307.584" style="stroke: #000000; stroke-width: 0.8"/>
      </g>
     </g>
     <g id="text_6">
      <!-- 100 -->
      <g transform="translate(388.943523 322.182437)scale(0.1 -0.1)">
       <defs>
        <path id="DejaVuSans-31" d="M 794 531 
L 1825 531 
L 1825 4091 
L 703 3866 
L 703 4441 
L 1819 4666 
L 2450 4666 
L 2450 531 
L 3481 531 
L 3481 0 
L 794 0 
L 794 531 
z
" transform="scale(0.015625)"/>
       </defs>
       <use xlink:href="#DejaVuSans-31"/>
       <use xlink:href="#DejaVuSans-30" x="63.623047"/>
       <use xlink:href="#DejaVuSans-30" x="127.246094"/>
      </g>
     </g>
    </g>
    <g id="text_7">
     <!-- Bedieningstijd percentiel -->
     <g transform="translate(174.002969 335.860562)scale(0.1 -0.1)">
      <defs>
       <path id="DejaVuSans-42" d="M 1259 2228 
L 1259 519 
L 2272 519 
Q 2781 519 3026 730 
Q 3272 941 3272 1375 
Q 3272 1813 3026 2020 
Q 2781 2228 2272 2228 
L 1259 2228 
z
M 1259 4147 
L 1259 2741 
L 2194 2741 
Q 2656 2741 2882 2914 
Q 3109 3088 3109 3444 
Q 3109 3797 2882 3972 
Q 2656 4147 2194 4147 
L 1259 4147 
z
M 628 4666 
L 2241 4666 
Q 2963 4666 3353 4366 
Q 3744 4066 3744 3513 
Q 3744 3084 3544 2831 
Q 3344 2578 2956 2516 
Q 3422 2416 3680 2098 
Q 3938 1781 3938 1306 
Q 3938 681 3513 340 
Q 3088 0 2303 0 
L 628 0 
L 628 4666 
z
" transform="scale(0.015625)"/>
       <path id="DejaVuSans-65" d="M 3597 1894 
L 3597 1613 
L 953 1613 
Q 991 1019 1311 708 
Q 1631 397 2203 397 
Q 2534 397 2845 478 
Q 3156 559 3463 722 
L 3463 178 
Q 3153 47 2828 -22 
Q 2503 -91 2169 -91 
Q 1331 -91 842 396 
Q 353 884 353 1716 
Q 353 2575 817 3079 
Q 1281 3584 2069 3584 
Q 2775 3584 3186 3129 
Q 3597 2675 3597 1894 
z
M 3022 2063 
Q 3016 2534 2758 2815 
Q 2500 3097 2075 3097 
Q 1594 3097 1305 2825 
Q 1016 2553 972 2059 
L 3022 2063 
z
" transform="scale(0.015625)"/>
       <path id="DejaVuSans-64" d="M 2906 2969 
L 2906 4863 
L 3481 4863 
L 3481 0 
L 2906 0 
L 2906 525 
Q 2725 213 2448 61 
Q 2172 -91 1784 -91 
Q 1150 -91 751 415 
Q 353 922 353 1747 
Q 353 2572 751 3078 
Q 1150 3584 1784 3584 
Q 2172 3584 2448 3432 
Q 2725 3281 2906 2969 
z
M 947 1747 
Q 947 1113 1208 752 
Q 1469 391 1925 391 
Q 2381 391 2643 752 
Q 2906 1113 2906 1747 
Q 2906 2381 2643 2742 
Q 2381 3103 1925 3103 
Q 1469 3103 1208 2742 
Q 947 2381 947 1747 
z
" transform="scale(0.015625)"/>
       <path id="DejaVuSans-69" d="M 603 3500 
L 1178 3500 
L 1178 0 
L 603 0 
L 603 3500 
z
M 603 4863 
L 1178 4863 
L 1178 4134 
L 603 4134 
L 603 4863 
z
" transform="scale(0.015625)"/>
       <path id="DejaVuSans-6e" d="M 3513 2113 
L 3513 0 
L 2938 0 
L 2938 2094 
Q 2938 2591 2744 2837 
Q 2550 3084 2163 3084 
Q 1697 3084 1428 2787 
Q 1159 2491 1159 1978 
L 1159 0 
L 581 0 
L 581 3500 
L 1159 3500 
L 1159 2956 
Q 1366 3272 1645 3428 
Q 1925 3584 2291 3584 
Q 2894 3584 3203 3211 
Q 3513 2838 3513 2113 
z
" transform="scale(0.015625)"/>
       <path id="DejaVuSans-67" d="M 2906 1791 
Q 2906 2416 2648 2759 
Q 2391 3103 1925 3103 
Q 1463 3103 1205 2759 
Q 947 2416 947 1791 
Q 947 1169 1205 825 
Q 1463 481 1925 481 
Q 2391 481 2648 825 
Q 2906 1169 2906 1791 
z
M 3481 434 
Q 3481 -459 3084 -895 
Q 2688 -1331 1869 -1331 
Q 1566 -1331 1297 -1286 
Q 1028 -1241 775 -1147 
L 775 -588 
Q 1028 -725 1275 -790 
Q 1522 -856 1778 -856 
Q 2344 -856 2625 -561 
Q 2906 -266 2906 331 
L 2906 616 
Q 2728 306 2450 153 
Q 2172 0 1784 0 
Q 1141 0 747 490 
Q 353 981 353 1791 
Q 353 2603 747 3093 
Q 1141 3584 1784 3584 
Q 2172 3584 2450 3431 
Q 2728 3278 2906 2969 
L 2906 3500 
L 3481 3500 
L 3481 434 
z
" transform="scale(0.015625)"/>
       <path id="DejaVuSans-73" d="M 2834 3397 
L 2834 2853 
Q 2591 2978 2328 3040 
Q 2066 3103 1784 3103 
Q 1356 3103 1142 2972 
Q 928 2841 928 2578 
Q 928 2378 1081 2264 
Q 1234 2150 1697 2047 
L 1894 2003 
Q 2506 1872 2764 1633 
Q 3022 1394 3022 966 
Q 3022 478 2636 193 
Q 2250 -91 1575 -91 
Q 1294 -91 989 -36 
Q 684 19 347 128 
L 347 722 
Q 666 556 975 473 
Q 1284 391 1588 391 
Q 1994 391 2212 530 
Q 2431 669 2431 922 
Q 2431 1156 2273 1281 
Q 2116 1406 1581 1522 
L 1381 1569 
Q 847 1681 609 1914 
Q 372 2147 372 2553 
Q 372 3047 722 3315 
Q 1072 3584 1716 3584 
Q 2034 3584 2315 3537 
Q 2597 3491 2834 3397 
z
" transform="scale(0.015625)"/>
       <path id="DejaVuSans-74" d="M 1172 4494 
L 1172 3500 
L 2356 3500 
L 2356 3053 
L 1172 3053 
L 1172 1153 
Q 1172 725 1289 603 
Q 1406 481 1766 481 
L 2356 481 
L 2356 0 
L 1766 0 
Q 1100 0 847 248 
Q 594 497 594 1153 
L 594 3053 
L 172 3053 
L 172 3500 
L 594 3500 
L 594 4494 
L 1172 4494 
z
" transform="scale(0.015625)"/>
       <path id="DejaVuSans-6a" d="M 603 3500 
L 1178 3500 
L 1178 -63 
Q 1178 -731 923 -1031 
Q 669 -1331 103 -1331 
L -116 -1331 
L -116 -844 
L 38 -844 
Q 366 -844 484 -692 
Q 603 -541 603 -63 
L 603 3500 
z
M 603 4863 
L 1178 4863 
L 1178 4134 
L 603 4134 
L 603 4863 
z
" transform="scale(0.015625)"/>
       <path id="DejaVuSans-20" transform="scale(0.015625)"/>
       <path id="DejaVuSans-70" d="M 1159 525 
L 1159 -1331 
L 581 -1331 
L 581 3500 
L 1159 3500 
L 1159 2969 
Q 1341 3281 1617 3432 
Q 1894 3584 2278 3584 
Q 2916 3584 3314 3078 
Q 3713 2572 3713 1747 
Q 3713 922 3314 415 
Q 2916 -91 2278 -91 
Q 1894 -91 1617 61 
Q 1341 213 1159 525 
z
M 3116 1747 
Q 3116 2381 2855 2742 
Q 2594 3103 2138 3103 
Q 1681 3103 1420 2742 
Q 1159 2381 1159 1747 
Q 1159 1113 1420 752 
Q 1681 391 2138 391 
Q 2594 391 2855 752 
Q 3116 1113 3116 1747 
z
" transform="scale(0.015625)"/>
       <path id="DejaVuSans-72" d="M 2631 2963 
Q 2534 3019 2420 3045 
Q 2306 3072 2169 3072 
Q 1681 3072 1420 2755 
Q 1159 2438 1159 1844 
L 1159 0 
L 581 0 
L 581 3500 
L 1159 3500 
L 1159 2956 
Q 1341 3275 1631 3429 
Q 1922 3584 2338 3584 
Q 2397 3584 2469 3576 
Q 2541 3569 2628 3553 
L 2631 2963 
z
" transform="scale(0.015625)"/>
       <path id="DejaVuSans-63" d="M 3122 3366 
L 3122 2828 
Q 2878 2963 2633 3030 
Q 2388 3097 2138 3097 
Q 1578 3097 1268 2742 
Q 959 2388 959 1747 
Q 959 1106 1268 751 
Q 1578 397 2138 397 
Q 2388 397 2633 464 
Q 2878 531 3122 666 
L 3122 134 
Q 2881 22 2623 -34 
Q 2366 -91 2075 -91 
Q 1284 -91 818 406 
Q 353 903 353 1747 
Q 353 2603 823 3093 
Q 1294 3584 2113 3584 
Q 2378 3584 2631 3529 
Q 2884 3475 3122 3366 
z
" transform="scale(0.015625)"/>
       <path id="DejaVuSans-6c" d="M 603 4863 
L 1178 4863 
L 1178 0 
L 603 0 
L 603 4863 
z
" transform="scale(0.015625)"/>
      </defs>
      <use xlink:href="#DejaVuSans-42"/>
      <use xlink:href="#DejaVuSans-65" x="68.603516"/>
      <use xlink:href="#DejaVuSans-64" x="130.126953"/>
      <use xlink:href="#DejaVuSans-69" x="193.603516"/>
      <use xlink:href="#DejaVuSans-65" x="221.386719"/>
      <use xlink:href="#DejaVuSans-6e" x="282.910156"/>
      <use xlink:href="#DejaVuSans-69" x="346.289062"/>
      <use xlink:href="#DejaVuSans-6e" x="374.072266"/>
      <use xlink:href="#DejaVuSans-67" x="437.451172"/>
      <use xlink:href="#DejaVuSans-73" x="500.927734"/>
      <use xlink:href="#DejaVuSans-74" x="553.027344"/>
      <use xlink:href="#DejaVuSans-69" x="592.236328"/>
      <use xlink:href="#DejaVuSans-6a" x="620.019531"/>
      <use xlink:href="#DejaVuSans-64" x="647.802734"/>
      <use xlink:href="#DejaVuSans-20" x="711.279297"/>
      <use xlink:href="#DejaVuSans-70" x="743.066406"/>
      <use xlink:href="#DejaVuSans-65" x="806.542969"/>
      <use xlink:href="#DejaVuSans-72" x="868.066406"/>
      <use xlink:href="#DejaVuSans-63" x="906.929688"/>
      <use xlink:href="#DejaVuSans-65" x="961.910156"/>
      <use xlink:href="#DejaVuSans-6e" x="1023.433594"/>
      <use xlink:href="#DejaVuSans-74" x="1086.8125"/>
      <use xlink:href="#DejaVuSans-69" x="1126.021484"/>
      <use xlink:href="#DejaVuSans-65" x="1153.804688"/>
      <use xlink:href="#DejaVuSans-6c" x="1215.328125"/>
     </g>
    </g>
   </g>
   <g id="matplotlib.axis_2">
    <g id="ytick_1">
     <g id="line2d_7">
      <defs>
       <path id="m41c227708e" d="M 0 0 
L -3.5 0 
" style="stroke: #000000; stroke-width: 0.8"/>
      </defs>
      <g>
       <use xlink:href="#m41c227708e" x="57.6" y="307.584" style="stroke: #000000; stroke-width: 0.8"/>
      </g>
     </g>
     <g id="text_8">
      <!-- 0 -->
      <g transform="translate(44.2375 311.383219)scale(0.1 -0.1)">
       <use xlink:href="#DejaVuSans-30"/>
      </g>
     </g>
    </g>
    <g id="ytick_2">
     <g id="line2d_8">
      <g>
       <use xlink:href="#m41c227708e" x="57.6" y="263.232" style="stroke: #000000; stroke-width: 0.8"/>
      </g>
     </g>
     <g id="text_9">
      <!-- 5 -->
      <g transform="translate(44.2375 267.031219)scale(0.1 -0.1)">
       <defs>
        <path id="DejaVuSans-35" d="M 691 4666 
L 3169 4666 
L 3169 4134 
L 1269 4134 
L 1269 2991 
Q 1406 3038 1543 3061 
Q 1681 3084 1819 3084 
Q 2600 3084 3056 2656 
Q 3513 2228 3513 1497 
Q 3513 744 3044 326 
Q 2575 -91 1722 -91 
Q 1428 -91 1123 -41 
Q 819 9 494 109 
L 494 744 
Q 775 591 1075 516 
Q 1375 441 1709 441 
Q 2250 441 2565 725 
Q 2881 1009 2881 1497 
Q 2881 1984 2565 2268 
Q 2250 2553 1709 2553 
Q 1456 2553 1204 2497 
Q 953 2441 691 2322 
L 691 4666 
z
" transform="scale(0.015625)"/>
       </defs>
       <use xlink:href="#DejaVuSans-35"/>
      </g>
     </g>
    </g>
    <g id="ytick_3">
     <g id="line2d_9">
      <g>
       <use xlink:href="#m41c227708e" x="57.6" y="218.88" style="stroke: #000000; stroke-width: 0.8"/>
      </g>
     </g>
     <g id="text_10">
      <!-- 10 -->
      <g transform="translate(37.875 222.679219)scale(0.1 -0.1)">
       <use xlink:href="#DejaVuSans-31"/>
       <use xlink:href="#DejaVuSans-30" x="63.623047"/>
      </g>
     </g>
    </g>
    <g id="ytick_4">
     <g id="line2d_10">
      <g>
       <use xlink:href="#m41c227708e" x="57.6" y="174.528" style="stroke: #000000; stroke-width: 0.8"/>
      </g>
     </g>
     <g id="text_11">
      <!-- 15 -->
      <g transform="translate(37.875 178.327219)scale(0.1 -0.1)">
       <use xlink:href="#DejaVuSans-31"/>
       <use xlink:href="#DejaVuSans-35" x="63.623047"/>
      </g>
     </g>
    </g>
    <g id="ytick_5">
     <g id="line2d_11">
      <g>
       <use xlink:href="#m41c227708e" x="57.6" y="130.176" style="stroke: #000000; stroke-width: 0.8"/>
      </g>
     </g>
     <g id="text_12">
      <!-- 20 -->
      <g transform="translate(37.875 133.975219)scale(0.1 -0.1)">
       <use xlink:href="#DejaVuSans-32"/>
       <use xlink:href="#DejaVuSans-30" x="63.623047"/>
      </g>
     </g>
    </g>
    <g id="ytick_6">
     <g id="line2d_12">
      <g>
       <use xlink:href="#m41c227708e" x="57.6" y="85.824" style="stroke: #000000; stroke-width: 0.8"/>
      </g>
     </g>
     <g id="text_13">
      <!-- 25 -->
      <g transform="translate(37.875 89.623219)scale(0.1 -0.1)">
       <use xlink:href="#DejaVuSans-32"/>
       <use xlink:href="#DejaVuSans-35" x="63.623047"/>
      </g>
     </g>
    </g>
    <g id="ytick_7">
     <g id="line2d_13">
      <g>
       <use xlink:href="#m41c227708e" x="57.6" y="41.472" style="stroke: #000000; stroke-width: 0.8"/>
      </g>
     </g>
     <g id="text_14">
      <!-- 30 -->
      <g transform="translate(37.875 45.271219)scale(0.1 -0.1)">
       <defs>
        <path id="DejaVuSans-33" d="M 2597 2516 
Q 3050 2419 3304 2112 
Q 3559 1806 3559 1356 
Q 3559 666 3084 287 
Q 2609 -91 1734 -91 
Q 1441 -91 1130 -33 
Q 819 25 488 141 
L 488 750 
Q 750 597 1062 519 
Q 1375 441 1716 441 
Q 2309 441 2620 675 
Q 2931 909 2931 1356 
Q 2931 1769 2642 2001 
Q 2353 2234 1838 2234 
L 1294 2234 
L 1294 2753 
L 1863 2753 
Q 2328 2753 2575 2939 
Q 2822 3125 2822 3475 
Q 2822 3834 2567 4026 
Q 2313 4219 1838 4219 
Q 1578 4219 1281 4162 
Q 984 4106 628 3988 
L 628 4550 
Q 988 4650 1302 4700 
Q 1616 4750 1894 4750 
Q 2613 4750 3031 4423 
Q 3450 4097 3450 3541 
Q 3450 3153 3228 2886 
Q 3006 2619 2597 2516 
z
" transform="scale(0.015625)"/>
       </defs>
       <use xlink:href="#DejaVuSans-33"/>
       <use xlink:href="#DejaVuSans-30" x="63.623047"/>
      </g>
     </g>
    </g>
    <g id="text_15">
     <!-- Genormaliseerde omlooptijd -->
     <g transform="translate(31.795312 245.477219)rotate(-90)scale(0.1 -0.1)">
      <defs>
       <path id="DejaVuSans-47" d="M 3809 666 
L 3809 1919 
L 2778 1919 
L 2778 2438 
L 4434 2438 
L 4434 434 
Q 4069 175 3628 42 
Q 3188 -91 2688 -91 
Q 1594 -91 976 548 
Q 359 1188 359 2328 
Q 359 3472 976 4111 
Q 1594 4750 2688 4750 
Q 3144 4750 3555 4637 
Q 3966 4525 4313 4306 
L 4313 3634 
Q 3963 3931 3569 4081 
Q 3175 4231 2741 4231 
Q 1884 4231 1454 3753 
Q 1025 3275 1025 2328 
Q 1025 1384 1454 906 
Q 1884 428 2741 428 
Q 3075 428 3337 486 
Q 3600 544 3809 666 
z
" transform="scale(0.015625)"/>
       <path id="DejaVuSans-6f" d="M 1959 3097 
Q 1497 3097 1228 2736 
Q 959 2375 959 1747 
Q 959 1119 1226 758 
Q 1494 397 1959 397 
Q 2419 397 2687 759 
Q 2956 1122 2956 1747 
Q 2956 2369 2687 2733 
Q 2419 3097 1959 3097 
z
M 1959 3584 
Q 2709 3584 3137 3096 
Q 3566 2609 3566 1747 
Q 3566 888 3137 398 
Q 2709 -91 1959 -91 
Q 1206 -91 779 398 
Q 353 888 353 1747 
Q 353 2609 779 3096 
Q 1206 3584 1959 3584 
z
" transform="scale(0.015625)"/>
       <path id="DejaVuSans-6d" d="M 3328 2828 
Q 3544 3216 3844 3400 
Q 4144 3584 4550 3584 
Q 5097 3584 5394 3201 
Q 5691 2819 5691 2113 
L 5691 0 
L 5113 0 
L 5113 2094 
Q 5113 2597 4934 2840 
Q 4756 3084 4391 3084 
Q 3944 3084 3684 2787 
Q 3425 2491 3425 1978 
L 3425 0 
L 2847 0 
L 2847 2094 
Q 2847 2600 2669 2842 
Q 2491 3084 2119 3084 
Q 1678 3084 1418 2786 
Q 1159 2488 1159 1978 
L 1159 0 
L 581 0 
L 581 3500 
L 1159 3500 
L 1159 2956 
Q 1356 3278 1631 3431 
Q 1906 3584 2284 3584 
Q 2666 3584 2933 3390 
Q 3200 3197 3328 2828 
z
" transform="scale(0.015625)"/>
       <path id="DejaVuSans-61" d="M 2194 1759 
Q 1497 1759 1228 1600 
Q 959 1441 959 1056 
Q 959 750 1161 570 
Q 1363 391 1709 391 
Q 2188 391 2477 730 
Q 2766 1069 2766 1631 
L 2766 1759 
L 2194 1759 
z
M 3341 1997 
L 3341 0 
L 2766 0 
L 2766 531 
Q 2569 213 2275 61 
Q 1981 -91 1556 -91 
Q 1019 -91 701 211 
Q 384 513 384 1019 
Q 384 1609 779 1909 
Q 1175 2209 1959 2209 
L 2766 2209 
L 2766 2266 
Q 2766 2663 2505 2880 
Q 2244 3097 1772 3097 
Q 1472 3097 1187 3025 
Q 903 2953 641 2809 
L 641 3341 
Q 956 3463 1253 3523 
Q 1550 3584 1831 3584 
Q 2591 3584 2966 3190 
Q 3341 2797 3341 1997 
z
" transform="scale(0.015625)"/>
      </defs>
      <use xlink:href="#DejaVuSans-47"/>
      <use xlink:href="#DejaVuSans-65" x="77.490234"/>
      <use xlink:href="#DejaVuSans-6e" x="139.013672"/>
      <use xlink:href="#DejaVuSans-6f" x="202.392578"/>
      <use xlink:href="#DejaVuSans-72" x="263.574219"/>
      <use xlink:href="#DejaVuSans-6d" x="302.9375"/>
      <use xlink:href="#DejaVuSans-61" x="400.349609"/>
      <use xlink:href="#DejaVuSans-6c" x="461.628906"/>
      <use xlink:href="#DejaVuSans-69" x="489.412109"/>
      <use xlink:href="#DejaVuSans-73" x="517.195312"/>
      <use xlink:href="#DejaVuSans-65" x="569.294922"/>
      <use xlink:href="#DejaVuSans-65" x="630.818359"/>
      <use xlink:href="#DejaVuSans-72" x="692.341797"/>
      <use xlink:href="#DejaVuSans-64" x="731.705078"/>
      <use xlink:href="#DejaVuSans-65" x="795.181641"/>
      <use xlink:href="#DejaVuSans-20" x="856.705078"/>
      <use xlink:href="#DejaVuSans-6f" x="888.492188"/>
      <use xlink:href="#DejaVuSans-6d" x="949.673828"/>
      <use xlink:href="#DejaVuSans-6c" x="1047.085938"/>
      <use xlink:href="#DejaVuSans-6f" x="1074.869141"/>
      <use xlink:href="#DejaVuSans-6f" x="1136.050781"/>
      <use xlink:href="#DejaVuSans-70" x="1197.232422"/>
      <use xlink:href="#DejaVuSans-74" x="1260.708984"/>
      <use xlink:href="#DejaVuSans-69" x="1299.917969"/>
      <use xlink:href="#DejaVuSans-6a" x="1327.701172"/>
      <use xlink:href="#DejaVuSans-64" x="1355.484375"/>
     </g>
    </g>
   </g>
   <g id="line2d_14">
    <path d="M 107.811919 -1 
L 109.905455 34.189458 
L 113.184793 45.162964 
L 115.989404 -1 
M 116.750996 -1 
L 119.743471 80.511924 
L 123.02281 60.220667 
L 126.302149 103.194605 
L 129.581488 119.795064 
L 132.860826 114.370109 
L 136.140165 98.856459 
L 139.419504 158.1409 
L 142.698843 122.675338 
L 145.978182 146.26502 
L 149.257521 144.898635 
L 152.53686 142.046168 
L 155.816198 183.617777 
L 159.095537 181.003571 
L 162.374876 168.66415 
L 165.654215 197.695472 
L 168.933554 179.858463 
L 172.212893 192.851275 
L 175.492231 195.580925 
L 178.77157 197.378992 
L 182.050909 205.332344 
L 185.330248 206.684451 
L 188.609587 205.537507 
L 191.888926 218.485185 
L 195.168264 208.986988 
L 198.447603 220.660525 
L 201.726942 219.381417 
L 205.006281 235.708156 
L 208.28562 231.698628 
L 211.564959 217.780488 
L 214.844298 227.043437 
L 218.123636 228.860077 
L 221.402975 234.752607 
L 224.682314 234.569884 
L 227.961653 243.693906 
L 231.240992 232.770451 
L 234.520331 250.609828 
L 237.799669 245.648562 
L 241.079008 251.795269 
L 244.358347 248.296835 
L 247.637686 251.996357 
L 250.917025 243.92189 
L 254.196364 255.600892 
L 257.475702 250.410845 
L 260.755041 258.84408 
L 264.03438 250.702955 
L 267.313719 255.989126 
L 270.593058 258.509208 
L 273.872397 261.990997 
L 277.151736 255.879772 
L 280.431074 258.140576 
L 283.710413 260.025413 
L 286.989752 259.274981 
L 290.269091 265.047354 
L 293.54843 270.149112 
L 296.827769 266.593994 
L 300.107107 268.407748 
L 303.386446 270.425364 
L 306.665785 266.25917 
L 309.945124 269.717752 
L 313.224463 273.757937 
L 316.503802 273.263118 
L 319.78314 266.500561 
L 323.062479 267.426261 
L 326.341818 270.010807 
L 329.621157 277.941248 
L 332.900496 273.072199 
L 336.179835 275.812309 
L 339.459174 276.565285 
L 342.738512 273.469735 
L 346.017851 277.360314 
L 349.29719 276.206322 
L 352.576529 279.413298 
L 355.855868 279.264859 
L 359.135207 278.448701 
L 362.414545 282.185028 
L 365.693884 281.414445 
L 368.973223 283.238701 
L 372.252562 283.158616 
L 375.531901 283.90715 
L 378.81124 282.784095 
L 382.090579 285.238347 
L 385.369917 286.546606 
L 388.649256 288.725582 
L 391.928595 287.620095 
L 395.207934 289.334847 
L 398.487273 289.310084 
" clip-path="url(#p6799ac9d16)" style="fill: none; stroke: #1f77b4; stroke-width: 1.5; stroke-linecap: square"/>
   </g>
   <g id="line2d_15">
    <path d="M 81.140543 -1 
L 83.670744 98.848704 
L 86.950083 140.190682 
L 90.229421 179.912333 
L 93.50876 195.333312 
L 96.788099 193.848048 
L 100.067438 218.007128 
L 103.346777 219.371322 
L 106.626116 241.901174 
L 109.905455 244.815116 
L 113.184793 252.13474 
L 116.464132 252.158784 
L 119.743471 250.35107 
L 123.02281 250.777078 
L 126.302149 260.238278 
L 129.581488 261.406332 
L 132.860826 262.308 
L 136.140165 263.839442 
L 139.419504 269.541152 
L 142.698843 266.765967 
L 145.978182 267.142878 
L 149.257521 271.983835 
L 152.53686 271.680674 
L 155.816198 274.296647 
L 159.095537 275.010228 
L 162.374876 276.35762 
L 165.654215 275.134511 
L 168.933554 276.164909 
L 172.212893 280.926839 
L 175.492231 274.67329 
L 178.77157 276.099789 
L 182.050909 280.098123 
L 185.330248 282.885035 
L 188.609587 281.186026 
L 191.888926 280.459601 
L 195.168264 279.507493 
L 198.447603 282.524497 
L 201.726942 281.245796 
L 205.006281 281.314516 
L 208.28562 282.249266 
L 211.564959 282.585283 
L 214.844298 282.822674 
L 218.123636 281.702972 
L 221.402975 285.997165 
L 224.682314 282.776443 
L 227.961653 284.207023 
L 231.240992 283.620221 
L 234.520331 285.621283 
L 237.799669 286.888235 
L 241.079008 285.891042 
L 244.358347 286.69608 
L 247.637686 287.21841 
L 250.917025 285.174312 
L 254.196364 288.038548 
L 257.475702 288.320899 
L 260.755041 286.33037 
L 264.03438 286.459622 
L 267.313719 286.618026 
L 270.593058 286.932946 
L 273.872397 286.628178 
L 277.151736 286.313626 
L 280.431074 286.523894 
L 283.710413 287.998617 
L 286.989752 288.754551 
L 290.269091 288.683275 
L 293.54843 287.741733 
L 296.827769 288.191322 
L 300.107107 288.063167 
L 303.386446 288.510504 
L 306.665785 288.697263 
L 309.945124 286.287901 
L 313.224463 287.95094 
L 316.503802 286.40692 
L 319.78314 287.225013 
L 323.062479 286.413949 
L 326.341818 284.79165 
L 329.621157 287.066789 
L 332.900496 288.209017 
L 336.179835 286.481855 
L 339.459174 287.080072 
L 342.738512 286.882139 
L 346.017851 286.862176 
L 349.29719 287.122779 
L 352.576529 286.651259 
L 355.855868 285.551199 
L 359.135207 284.796727 
L 362.414545 286.718921 
L 365.693884 286.234121 
L 368.973223 283.485496 
L 372.252562 284.652143 
L 375.531901 282.043497 
L 378.81124 282.942431 
L 382.090579 280.463811 
L 385.369917 278.945262 
L 388.649256 280.057461 
L 391.928595 274.094098 
L 395.207934 277.578871 
L 398.487273 259.406217 
" clip-path="url(#p6799ac9d16)" style="fill: none; stroke: #ff7f0e; stroke-width: 1.5; stroke-linecap: square"/>
   </g>
   <g id="line2d_16">
    <path d="M 73.832727 298.536192 
L 77.112066 298.624896 
L 80.391405 298.514016 
L 83.670744 298.451184 
L 86.950083 298.635984 
L 90.229421 298.46375 
L 93.50876 298.32288 
L 96.788099 298.346112 
L 100.067438 298.449952 
L 103.346777 298.427776 
L 106.626116 298.311744 
L 109.905455 298.410244 
L 113.184793 298.022489 
L 116.464132 298.081478 
L 119.743471 298.357306 
L 123.02281 298.02647 
L 126.302149 298.002709 
L 129.581488 297.880716 
L 132.860826 297.710928 
L 136.140165 297.81173 
L 139.419504 297.819409 
L 142.698843 297.648635 
L 145.978182 297.929798 
L 149.257521 297.435664 
L 152.53686 297.630199 
L 155.816198 297.543174 
L 159.095537 297.425738 
L 162.374876 297.820342 
L 165.654215 297.470402 
L 168.933554 297.57919 
L 172.212893 297.445057 
L 175.492231 297.530162 
L 178.77157 297.284164 
L 182.050909 297.267112 
L 185.330248 297.293464 
L 188.609587 297.087741 
L 191.888926 296.980807 
L 195.168264 297.221871 
L 198.447603 296.636035 
L 201.726942 297.190383 
L 205.006281 296.660904 
L 208.28562 297.056882 
L 211.564959 296.780285 
L 214.844298 296.38029 
L 218.123636 296.933548 
L 221.402975 295.972144 
L 224.682314 296.59704 
L 227.961653 296.489011 
L 231.240992 296.276734 
L 234.520331 296.013921 
L 237.799669 295.518787 
L 241.079008 296.000035 
L 244.358347 296.613604 
L 247.637686 295.650605 
L 250.917025 295.688443 
L 254.196364 295.663782 
L 257.475702 295.563449 
L 260.755041 295.683831 
L 264.03438 295.49168 
L 267.313719 295.799132 
L 270.593058 295.034501 
L 273.872397 295.352207 
L 277.151736 294.531341 
L 280.431074 294.794275 
L 283.710413 295.527192 
L 286.989752 294.613305 
L 290.269091 293.886352 
L 293.54843 294.855335 
L 296.827769 294.0311 
L 300.107107 293.757031 
L 303.386446 293.470542 
L 306.665785 293.567177 
L 309.945124 292.335701 
L 313.224463 291.761714 
L 316.503802 291.758266 
L 319.78314 291.80339 
L 323.062479 291.214688 
L 326.341818 290.754614 
L 329.621157 291.042739 
L 332.900496 289.531114 
L 336.179835 289.355601 
L 339.459174 289.573593 
L 342.738512 290.137494 
L 346.017851 288.863212 
L 349.29719 289.740924 
L 352.576529 289.123913 
L 355.855868 287.015867 
L 359.135207 286.25777 
L 362.414545 286.586136 
L 365.693884 287.071579 
L 368.973223 284.829027 
L 372.252562 283.030153 
L 375.531901 281.681112 
L 378.81124 281.510262 
L 382.090579 278.688692 
L 385.369917 276.546017 
L 388.649256 273.698229 
L 391.928595 268.671017 
L 395.207934 269.71298 
L 398.487273 246.105053 
" clip-path="url(#p6799ac9d16)" style="fill: none; stroke: #2ca02c; stroke-width: 1.5; stroke-linecap: square"/>
   </g>
   <g id="line2d_17">
    <path d="M 73.832727 250.458624 
L 77.112066 233.161344 
L 80.391405 271.821504 
L 83.670744 254.431824 
L 86.950083 262.351613 
L 90.229421 264.216614 
L 93.50876 263.710368 
L 96.788099 262.38456 
L 100.067438 257.215528 
L 103.346777 261.961562 
L 106.626116 259.783094 
L 109.905455 265.103598 
L 113.184793 263.671134 
L 116.464132 254.358221 
L 119.743471 267.014486 
L 123.02281 258.861697 
L 126.302149 264.608392 
L 129.581488 263.491342 
L 132.860826 258.963754 
L 136.140165 255.954165 
L 139.419504 263.830913 
L 142.698843 254.958134 
L 145.978182 261.532692 
L 149.257521 258.271381 
L 152.53686 254.684299 
L 155.816198 264.366007 
L 159.095537 262.482934 
L 162.374876 256.217555 
L 165.654215 262.626539 
L 168.933554 256.133381 
L 172.212893 260.059633 
L 175.492231 260.242011 
L 178.77157 258.299884 
L 182.050909 258.710929 
L 185.330248 259.838555 
L 188.609587 257.886733 
L 191.888926 260.620725 
L 195.168264 257.463035 
L 198.447603 258.78977 
L 201.726942 257.405595 
L 205.006281 265.164112 
L 208.28562 262.569366 
L 211.564959 254.477549 
L 214.844298 257.053341 
L 218.123636 259.459491 
L 221.402975 259.210502 
L 224.682314 259.446281 
L 227.961653 262.323067 
L 231.240992 256.54346 
L 234.520331 265.024696 
L 237.799669 261.492063 
L 241.079008 263.869794 
L 244.358347 263.024849 
L 247.637686 261.2968 
L 250.917025 256.073933 
L 254.196364 262.607617 
L 257.475702 260.119987 
L 260.755041 263.627051 
L 264.03438 256.696104 
L 267.313719 258.489996 
L 270.593058 260.694878 
L 273.872397 264.778663 
L 277.151736 256.380444 
L 280.431074 259.157511 
L 283.710413 259.046699 
L 286.989752 258.434496 
L 290.269091 260.177019 
L 293.54843 265.303035 
L 296.827769 259.586615 
L 300.107107 262.65232 
L 303.386446 262.774721 
L 306.665785 258.909707 
L 309.945124 258.945655 
L 313.224463 263.660431 
L 316.503802 263.03695 
L 319.78314 252.89471 
L 323.062479 251.010635 
L 326.341818 256.248647 
L 329.621157 263.725817 
L 332.900496 257.128766 
L 336.179835 259.123513 
L 339.459174 261.249186 
L 342.738512 256.721657 
L 346.017851 259.990463 
L 349.29719 257.796364 
L 352.576529 261.882521 
L 355.855868 258.209551 
L 359.135207 255.428512 
L 362.414545 263.633938 
L 365.693884 262.427125 
L 368.973223 260.49383 
L 372.252562 258.666434 
L 375.531901 259.913071 
L 378.81124 258.397455 
L 382.090579 261.703587 
L 385.369917 260.243417 
L 388.649256 263.654782 
L 391.928595 259.861765 
L 395.207934 262.494434 
L 398.487273 253.284096 
" clip-path="url(#p6799ac9d16)" style="fill: none; stroke: #d62728; stroke-width: 1.5; stroke-linecap: square"/>
   </g>
   <g id="line2d_18">
    <path d="M 73.832727 198.832896 
L 77.112066 165.43584 
L 80.391405 247.620096 
L 83.670744 257.33688 
L 86.950083 260.739418 
L 90.229421 253.649011 
L 93.50876 259.109376 
L 96.788099 263.483856 
L 100.067438 251.590832 
L 103.346777 255.354592 
L 106.626116 260.352144 
L 109.905455 264.094305 
L 113.184793 259.352175 
L 116.464132 252.192787 
L 119.743471 267.815594 
L 123.02281 256.509411 
L 126.302149 262.40286 
L 129.581488 264.167127 
L 132.860826 257.713872 
L 136.140165 253.189119 
L 139.419504 264.462768 
L 142.698843 253.794264 
L 145.978182 259.22633 
L 149.257521 258.954027 
L 152.53686 253.905845 
L 155.816198 262.878294 
L 159.095537 263.043325 
L 162.374876 255.164689 
L 165.654215 261.875611 
L 168.933554 256.708435 
L 172.212893 258.534663 
L 175.492231 259.945672 
L 178.77157 258.496527 
L 182.050909 257.371921 
L 185.330248 260.077473 
L 188.609587 257.582205 
L 191.888926 259.699569 
L 195.168264 257.935219 
L 198.447603 257.787643 
L 201.726942 257.556603 
L 205.006281 265.033969 
L 208.28562 261.979186 
L 211.564959 254.993198 
L 214.844298 256.164146 
L 218.123636 259.660342 
L 221.402975 258.555999 
L 224.682314 259.526456 
L 227.961653 262.058808 
L 231.240992 256.703897 
L 234.520331 264.774249 
L 237.799669 261.702609 
L 241.079008 263.577946 
L 244.358347 263.153901 
L 247.637686 260.875286 
L 250.917025 256.44454 
L 254.196364 262.302489 
L 257.475702 260.246631 
L 260.755041 263.526854 
L 264.03438 256.560457 
L 267.313719 258.647634 
L 270.593058 260.534242 
L 273.872397 264.801706 
L 277.151736 256.569878 
L 280.431074 259.11863 
L 283.710413 258.900357 
L 286.989752 258.561243 
L 290.269091 260.331097 
L 293.54843 265.271226 
L 296.827769 259.510182 
L 300.107107 262.670186 
L 303.386446 262.947821 
L 306.665785 258.974298 
L 309.945124 259.06643 
L 313.224463 263.771462 
L 316.503802 263.102272 
L 319.78314 252.973993 
L 323.062479 251.222898 
L 326.341818 256.401879 
L 329.621157 263.839333 
L 332.900496 257.267719 
L 336.179835 259.318884 
L 339.459174 261.380793 
L 342.738512 256.876002 
L 346.017851 260.150799 
L 349.29719 258.0079 
L 352.576529 262.032349 
L 355.855868 258.404946 
L 359.135207 255.663696 
L 362.414545 263.763105 
L 365.693884 262.555935 
L 368.973223 260.679641 
L 372.252562 258.834807 
L 375.531901 260.08122 
L 378.81124 258.559661 
L 382.090579 261.852144 
L 385.369917 260.4601 
L 388.649256 263.87237 
L 391.928595 260.041592 
L 395.207934 262.646654 
L 398.487273 253.540594 
" clip-path="url(#p6799ac9d16)" style="fill: none; stroke: #9467bd; stroke-width: 1.5; stroke-linecap: square"/>
   </g>
   <g id="line2d_19">
    <path d="M 73.832727 97.045056 
L 77.112066 30.982752 
L 80.391405 197.125344 
L 83.670744 217.1244 
L 86.950083 237.56328 
L 90.229421 256.508237 
L 93.50876 262.044 
L 96.788099 265.687992 
L 100.067438 240.712272 
L 103.346777 242.793613 
L 106.626116 249.424618 
L 109.905455 258.892896 
L 113.184793 261.216908 
L 116.464132 254.176589 
L 119.743471 269.184593 
L 123.02281 251.872833 
L 126.302149 256.816591 
L 129.581488 258.718951 
L 132.860826 255.986467 
L 136.140165 254.771896 
L 139.419504 265.635445 
L 142.698843 251.425941 
L 145.978182 254.929162 
L 149.257521 254.45752 
L 152.53686 252.161752 
L 155.816198 263.967102 
L 159.095537 264.243691 
L 162.374876 253.246957 
L 165.654215 259.086914 
L 168.933554 253.135987 
L 172.212893 259.645166 
L 175.492231 261.138119 
L 178.77157 258.655764 
L 182.050909 254.940726 
L 185.330248 257.569695 
L 188.609587 257.138349 
L 191.888926 260.939413 
L 195.168264 258.899797 
L 198.447603 255.85677 
L 201.726942 255.480295 
L 205.006281 264.665217 
L 208.28562 262.839759 
L 211.564959 256.06764 
L 214.844298 254.403951 
L 218.123636 257.935635 
L 221.402975 259.167323 
L 224.682314 260.386336 
L 227.961653 261.594888 
L 231.240992 255.198218 
L 234.520331 264.966338 
L 237.799669 262.626527 
L 241.079008 262.906345 
L 244.358347 262.052868 
L 247.637686 261.578198 
L 250.917025 257.17525 
L 254.196364 261.367378 
L 257.475702 259.89804 
L 260.755041 264.26372 
L 264.03438 256.38899 
L 267.313719 257.955483 
L 270.593058 261.305706 
L 273.872397 264.73129 
L 277.151736 255.835898 
L 280.431074 259.953912 
L 283.710413 258.724708 
L 286.989752 258.491647 
L 290.269091 261.018704 
L 293.54843 264.856229 
L 296.827769 260.052922 
L 300.107107 262.711274 
L 303.386446 262.792328 
L 306.665785 259.611212 
L 309.945124 258.829358 
L 313.224463 264.38052 
L 316.503802 262.92314 
L 319.78314 253.644531 
L 323.062479 251.24342 
L 326.341818 256.882134 
L 329.621157 263.995472 
L 332.900496 257.34634 
L 336.179835 259.938412 
L 339.459174 261.473506 
L 342.738512 257.113415 
L 346.017851 260.589665 
L 349.29719 258.386654 
L 352.576529 262.326387 
L 355.855868 258.734858 
L 359.135207 256.03259 
L 362.414545 264.013008 
L 365.693884 262.815307 
L 368.973223 260.991672 
L 372.252562 259.208368 
L 375.531901 260.440216 
L 378.81124 259.009903 
L 382.090579 262.154933 
L 385.369917 260.891834 
L 388.649256 264.262156 
L 391.928595 260.438 
L 395.207934 262.951447 
L 398.487273 253.994017 
" clip-path="url(#p6799ac9d16)" style="fill: none; stroke: #8c564b; stroke-width: 1.5; stroke-linecap: square"/>
   </g>
   <g id="line2d_20">
    <path d="M 81.743662 -1 
L 83.670744 82.782192 
L 86.950083 108.483437 
L 90.229421 146.104282 
L 93.50876 172.714848 
L 96.788099 174.640464 
L 100.067438 194.223984 
L 103.346777 206.641805 
L 106.626116 214.266182 
L 109.905455 223.478961 
L 113.184793 225.896389 
L 116.464132 227.920205 
L 119.743471 229.345039 
L 123.02281 229.997351 
L 126.302149 237.278368 
L 129.581488 242.338356 
L 132.860826 240.066317 
L 136.140165 240.644506 
L 139.419504 251.702489 
L 142.698843 243.139657 
L 145.978182 248.610932 
L 149.257521 246.924661 
L 152.53686 250.0387 
L 155.816198 255.884816 
L 159.095537 251.331536 
L 162.374876 253.900178 
L 165.654215 255.787535 
L 168.933554 253.717271 
L 172.212893 260.223225 
L 175.492231 255.677556 
L 178.77157 256.853544 
L 182.050909 261.012674 
L 185.330248 260.444342 
L 188.609587 258.61919 
L 191.888926 262.44451 
L 195.168264 260.946496 
L 198.447603 263.232339 
L 201.726942 261.422738 
L 205.006281 266.831416 
L 208.28562 262.832373 
L 211.564959 261.198749 
L 214.844298 264.387264 
L 218.123636 263.749692 
L 221.402975 265.323723 
L 224.682314 262.463823 
L 227.961653 268.780128 
L 231.240992 264.734191 
L 234.520331 271.014074 
L 237.799669 269.175096 
L 241.079008 270.391227 
L 244.358347 271.20109 
L 247.637686 270.126667 
L 250.917025 267.453049 
L 254.196364 271.057587 
L 257.475702 271.10361 
L 260.755041 272.246705 
L 264.03438 269.196157 
L 267.313719 269.130808 
L 270.593058 272.266342 
L 273.872397 272.589191 
L 277.151736 269.994777 
L 280.431074 271.342923 
L 283.710413 271.437438 
L 286.989752 271.916728 
L 290.269091 273.417952 
L 293.54843 275.17527 
L 296.827769 273.800836 
L 300.107107 274.927151 
L 303.386446 275.895841 
L 306.665785 272.330679 
L 309.945124 273.626516 
L 313.224463 276.114412 
L 316.503802 275.70933 
L 319.78314 272.499485 
L 323.062479 272.131272 
L 326.341818 273.699122 
L 329.621157 279.107074 
L 332.900496 275.497972 
L 336.179835 275.611038 
L 339.459174 277.819967 
L 342.738512 275.57735 
L 346.017851 277.558538 
L 349.29719 276.016488 
L 352.576529 279.640793 
L 355.855868 276.925825 
L 359.135207 276.561963 
L 362.414545 280.592433 
L 365.693884 280.174823 
L 368.973223 279.964178 
L 372.252562 280.172304 
L 375.531901 280.084842 
L 378.81124 278.944232 
L 382.090579 281.023987 
L 385.369917 282.474283 
L 388.649256 284.409389 
L 391.928595 281.890233 
L 395.207934 283.870248 
L 398.487273 281.402154 
" clip-path="url(#p6799ac9d16)" style="fill: none; stroke: #e377c2; stroke-width: 1.5; stroke-linecap: square"/>
   </g>
   <g id="line2d_21">
    <path d="M 73.832727 50.830272 
L 76.816203 -1 
M 77.206438 -1 
L 80.391405 172.465632 
L 83.670744 212.740944 
L 86.950083 232.205558 
L 90.229421 240.748493 
L 93.50876 255.578112 
L 96.788099 263.63988 
L 100.067438 265.116344 
L 103.346777 268.12304 
L 106.626116 275.460048 
L 109.905455 277.887209 
L 113.184793 279.610804 
L 116.464132 281.524032 
L 119.743471 279.350995 
L 123.02281 279.284163 
L 126.302149 281.56342 
L 129.581488 283.183864 
L 132.860826 284.400154 
L 136.140165 285.416139 
L 139.419504 288.760834 
L 142.698843 287.689097 
L 145.978182 276.617962 
L 149.257521 274.280752 
L 152.53686 275.457039 
L 155.816198 277.913444 
L 159.095537 279.382834 
L 162.374876 278.068426 
L 165.654215 279.692257 
L 168.933554 281.712789 
L 172.212893 283.269136 
L 175.492231 280.888555 
L 178.77157 281.720821 
L 182.050909 282.408136 
L 185.330248 283.570314 
L 188.609587 282.322534 
L 191.888926 284.60326 
L 195.168264 286.182548 
L 198.447603 283.600786 
L 201.726942 285.396278 
L 205.006281 285.334311 
L 208.28562 286.643104 
L 211.564959 287.338939 
L 214.844298 287.580679 
L 218.123636 287.508957 
L 221.402975 288.200068 
L 224.682314 287.827172 
L 227.961653 289.453063 
L 231.240992 288.578079 
L 234.520331 289.481702 
L 237.799669 289.339745 
L 241.079008 289.891995 
L 244.358347 283.401138 
L 247.637686 263.300647 
L 250.917025 259.094237 
L 254.196364 264.731387 
L 257.475702 264.433635 
L 260.755041 265.421786 
L 264.03438 263.391443 
L 267.313719 267.947638 
L 270.593058 270.803609 
L 273.872397 273.083502 
L 277.151736 268.073568 
L 280.431074 271.288525 
L 283.710413 271.7275 
L 286.989752 272.229945 
L 290.269091 272.338577 
L 293.54843 277.26302 
L 296.827769 274.293844 
L 300.107107 275.802611 
L 303.386446 274.164464 
L 306.665785 277.786534 
L 309.945124 277.660365 
L 313.224463 279.044747 
L 316.503802 277.487933 
L 319.78314 277.93286 
L 323.062479 274.845537 
L 326.341818 279.306832 
L 329.621157 281.829758 
L 332.900496 279.93152 
L 336.179835 281.775686 
L 339.459174 283.32928 
L 342.738512 250.822398 
L 346.017851 236.451436 
L 349.29719 232.79334 
L 352.576529 241.603687 
L 355.855868 247.460176 
L 359.135207 240.333601 
L 362.414545 250.454532 
L 365.693884 246.702555 
L 368.973223 248.279267 
L 372.252562 250.629615 
L 375.531901 254.677928 
L 378.81124 256.352393 
L 382.090579 261.040457 
L 385.369917 262.649003 
L 388.649256 229.450319 
L 391.928595 219.410537 
L 395.207934 237.087785 
L 398.487273 221.04723 
" clip-path="url(#p6799ac9d16)" style="fill: none; stroke: #7f7f7f; stroke-width: 1.5; stroke-linecap: square"/>
   </g>
   <g id="line2d_22">
    <path d="M 78.929351 -1 
L 80.391405 131.698752 
L 83.670744 161.810064 
L 86.950083 193.011696 
L 90.229421 225.361306 
L 93.50876 232.237344 
L 96.788099 248.91264 
L 100.067438 251.668448 
L 103.346777 253.568685 
L 106.626116 261.554755 
L 109.905455 261.033733 
L 113.184793 271.265561 
L 116.464132 270.587251 
L 119.743471 270.881611 
L 123.02281 271.617463 
L 126.302149 275.819119 
L 129.581488 277.695887 
L 132.860826 276.474979 
L 136.140165 279.276964 
L 139.419504 281.70043 
L 142.698843 280.691165 
L 145.978182 281.239362 
L 149.257521 283.05224 
L 152.53686 283.387034 
L 155.816198 285.642266 
L 159.095537 286.4906 
L 162.374876 285.553903 
L 165.654215 286.00992 
L 168.933554 287.165183 
L 172.212893 288.596486 
L 175.492231 286.648599 
L 178.77157 287.32386 
L 182.050909 289.365141 
L 185.330248 288.707826 
L 188.609587 288.538557 
L 191.888926 290.061606 
L 195.168264 290.216299 
L 198.447603 289.126942 
L 201.726942 268.568155 
L 205.006281 259.023919 
L 208.28562 265.265826 
L 211.564959 258.694402 
L 214.844298 261.990741 
L 218.123636 267.465781 
L 221.402975 266.690852 
L 224.682314 267.552382 
L 227.961653 272.869978 
L 231.240992 269.935996 
L 234.520331 274.32767 
L 237.799669 272.632015 
L 241.079008 272.518065 
L 244.358347 276.042748 
L 247.637686 274.757341 
L 250.917025 272.253329 
L 254.196364 275.500326 
L 257.475702 275.064108 
L 260.755041 277.602608 
L 264.03438 275.169486 
L 267.313719 277.05834 
L 270.593058 280.098031 
L 273.872397 281.579866 
L 277.151736 277.292004 
L 280.431074 279.112261 
L 283.710413 280.200275 
L 286.989752 280.603308 
L 290.269091 281.711255 
L 293.54843 283.773758 
L 296.827769 281.766815 
L 300.107107 283.632784 
L 303.386446 281.88411 
L 306.665785 284.070116 
L 309.945124 283.880509 
L 313.224463 284.755034 
L 316.503802 284.390376 
L 319.78314 285.725055 
L 323.062479 282.686124 
L 326.341818 236.55696 
L 329.621157 243.554005 
L 332.900496 233.28758 
L 336.179835 231.860956 
L 339.459174 241.072575 
L 342.738512 237.862568 
L 346.017851 244.320563 
L 349.29719 242.765149 
L 352.576529 248.588905 
L 355.855868 251.486173 
L 359.135207 245.009966 
L 362.414545 256.083915 
L 365.693884 253.549178 
L 368.973223 253.704919 
L 372.252562 256.265085 
L 375.531901 258.613503 
L 378.81124 260.301258 
L 382.090579 265.49329 
L 385.369917 267.955713 
L 388.649256 269.910227 
L 391.928595 211.591793 
L 395.207934 232.757135 
L 398.487273 221.475098 
" clip-path="url(#p6799ac9d16)" style="fill: none; stroke: #bcbd22; stroke-width: 1.5; stroke-linecap: square"/>
   </g>
   <g id="patch_3">
    <path d="M 57.6 307.584 
L 57.6 41.472 
" style="fill: none; stroke: #000000; stroke-width: 0.8; stroke-linejoin: miter; stroke-linecap: square"/>
   </g>
   <g id="patch_4">
    <path d="M 414.72 307.584 
L 414.72 41.472 
" style="fill: none; stroke: #000000; stroke-width: 0.8; stroke-linejoin: miter; stroke-linecap: square"/>
   </g>
   <g id="patch_5">
    <path d="M 57.6 307.584 
L 414.72 307.584 
" style="fill: none; stroke: #000000; stroke-width: 0.8; stroke-linejoin: miter; stroke-linecap: square"/>
   </g>
   <g id="patch_6">
    <path d="M 57.6 41.472 
L 414.72 41.472 
" style="fill: none; stroke: #000000; stroke-width: 0.8; stroke-linejoin: miter; stroke-linecap: square"/>
   </g>
   <g id="text_16">
    <!-- Genormaliseerde omlooptijd in functie van bedieningstijd -->
    <g transform="translate(63.795938 35.472)scale(0.12 -0.12)">
     <defs>
      <path id="DejaVuSans-66" d="M 2375 4863 
L 2375 4384 
L 1825 4384 
Q 1516 4384 1395 4259 
Q 1275 4134 1275 3809 
L 1275 3500 
L 2222 3500 
L 2222 3053 
L 1275 3053 
L 1275 0 
L 697 0 
L 697 3053 
L 147 3053 
L 147 3500 
L 697 3500 
L 697 3744 
Q 697 4328 969 4595 
Q 1241 4863 1831 4863 
L 2375 4863 
z
" transform="scale(0.015625)"/>
      <path id="DejaVuSans-75" d="M 544 1381 
L 544 3500 
L 1119 3500 
L 1119 1403 
Q 1119 906 1312 657 
Q 1506 409 1894 409 
Q 2359 409 2629 706 
Q 2900 1003 2900 1516 
L 2900 3500 
L 3475 3500 
L 3475 0 
L 2900 0 
L 2900 538 
Q 2691 219 2414 64 
Q 2138 -91 1772 -91 
Q 1169 -91 856 284 
Q 544 659 544 1381 
z
M 1991 3584 
L 1991 3584 
z
" transform="scale(0.015625)"/>
      <path id="DejaVuSans-76" d="M 191 3500 
L 800 3500 
L 1894 563 
L 2988 3500 
L 3597 3500 
L 2284 0 
L 1503 0 
L 191 3500 
z
" transform="scale(0.015625)"/>
      <path id="DejaVuSans-62" d="M 3116 1747 
Q 3116 2381 2855 2742 
Q 2594 3103 2138 3103 
Q 1681 3103 1420 2742 
Q 1159 2381 1159 1747 
Q 1159 1113 1420 752 
Q 1681 391 2138 391 
Q 2594 391 2855 752 
Q 3116 1113 3116 1747 
z
M 1159 2969 
Q 1341 3281 1617 3432 
Q 1894 3584 2278 3584 
Q 2916 3584 3314 3078 
Q 3713 2572 3713 1747 
Q 3713 922 3314 415 
Q 2916 -91 2278 -91 
Q 1894 -91 1617 61 
Q 1341 213 1159 525 
L 1159 0 
L 581 0 
L 581 4863 
L 1159 4863 
L 1159 2969 
z
" transform="scale(0.015625)"/>
     </defs>
     <use xlink:href="#DejaVuSans-47"/>
     <use xlink:href="#DejaVuSans-65" x="77.490234"/>
     <use xlink:href="#DejaVuSans-6e" x="139.013672"/>
     <use xlink:href="#DejaVuSans-6f" x="202.392578"/>
     <use xlink:href="#DejaVuSans-72" x="263.574219"/>
     <use xlink:href="#DejaVuSans-6d" x="302.9375"/>
     <use xlink:href="#DejaVuSans-61" x="400.349609"/>
     <use xlink:href="#DejaVuSans-6c" x="461.628906"/>
     <use xlink:href="#DejaVuSans-69" x="489.412109"/>
     <use xlink:href="#DejaVuSans-73" x="517.195312"/>
     <use xlink:href="#DejaVuSans-65" x="569.294922"/>
     <use xlink:href="#DejaVuSans-65" x="630.818359"/>
     <use xlink:href="#DejaVuSans-72" x="692.341797"/>
     <use xlink:href="#DejaVuSans-64" x="731.705078"/>
     <use xlink:href="#DejaVuSans-65" x="795.181641"/>
     <use xlink:href="#DejaVuSans-20" x="856.705078"/>
     <use xlink:href="#DejaVuSans-6f" x="888.492188"/>
     <use xlink:href="#DejaVuSans-6d" x="949.673828"/>
     <use xlink:href="#DejaVuSans-6c" x="1047.085938"/>
     <use xlink:href="#DejaVuSans-6f" x="1074.869141"/>
     <use xlink:href="#DejaVuSans-6f" x="1136.050781"/>
     <use xlink:href="#DejaVuSans-70" x="1197.232422"/>
     <use xlink:href="#DejaVuSans-74" x="1260.708984"/>
     <use xlink:href="#DejaVuSans-69" x="1299.917969"/>
     <use xlink:href="#DejaVuSans-6a" x="1327.701172"/>
     <use xlink:href="#DejaVuSans-64" x="1355.484375"/>
     <use xlink:href="#DejaVuSans-20" x="1418.960938"/>
     <use xlink:href="#DejaVuSans-69" x="1450.748047"/>
     <use xlink:href="#DejaVuSans-6e" x="1478.53125"/>
     <use xlink:href="#DejaVuSans-20" x="1541.910156"/>
     <use xlink:href="#DejaVuSans-66" x="1573.697266"/>
     <use xlink:href="#DejaVuSans-75" x="1608.902344"/>
     <use xlink:href="#DejaVuSans-6e" x="1672.28125"/>
     <use xlink:href="#DejaVuSans-63" x="1735.660156"/>
     <use xlink:href="#DejaVuSans-74" x="1790.640625"/>
     <use xlink:href="#DejaVuSans-69" x="1829.849609"/>
     <use xlink:href="#DejaVuSans-65" x="1857.632812"/>
     <use xlink:href="#DejaVuSans-20" x="1919.15625"/>
     <use xlink:href="#DejaVuSans-76" x="1950.943359"/>
     <use xlink:href="#DejaVuSans-61" x="2010.123047"/>
     <use xlink:href="#DejaVuSans-6e" x="2071.402344"/>
     <use xlink:href="#DejaVuSans-20" x="2134.78125"/>
     <use xlink:href="#DejaVuSans-62" x="2166.568359"/>
     <use xlink:href="#DejaVuSans-65" x="2230.044922"/>
     <use xlink:href="#DejaVuSans-64" x="2291.568359"/>
     <use xlink:href="#DejaVuSans-69" x="2355.044922"/>
     <use xlink:href="#DejaVuSans-65" x="2382.828125"/>
     <use xlink:href="#DejaVuSans-6e" x="2444.351562"/>
     <use xlink:href="#DejaVuSans-69" x="2507.730469"/>
     <use xlink:href="#DejaVuSans-6e" x="2535.513672"/>
     <use xlink:href="#DejaVuSans-67" x="2598.892578"/>
     <use xlink:href="#DejaVuSans-73" x="2662.369141"/>
     <use xlink:href="#DejaVuSans-74" x="2714.46875"/>
     <use xlink:href="#DejaVuSans-69" x="2753.677734"/>
     <use xlink:href="#DejaVuSans-6a" x="2781.460938"/>
     <use xlink:href="#DejaVuSans-64" x="2809.244141"/>
    </g>
   </g>
   <g id="legend_1">
    <g id="patch_7">
     <path d="M 336.1825 181.575125 
L 407.72 181.575125 
Q 409.72 181.575125 409.72 179.575125 
L 409.72 48.472 
Q 409.72 46.472 407.72 46.472 
L 336.1825 46.472 
Q 334.1825 46.472 334.1825 48.472 
L 334.1825 179.575125 
Q 334.1825 181.575125 336.1825 181.575125 
z
" style="fill: #ffffff; opacity: 0.8; stroke: #cccccc; stroke-linejoin: miter"/>
    </g>
    <g id="line2d_23">
     <path d="M 338.1825 54.570438 
L 348.1825 54.570438 
L 358.1825 54.570438 
" style="fill: none; stroke: #1f77b4; stroke-width: 1.5; stroke-linecap: square"/>
    </g>
    <g id="text_17">
     <!-- FCFS -->
     <g transform="translate(366.1825 58.070438)scale(0.1 -0.1)">
      <defs>
       <path id="DejaVuSans-46" d="M 628 4666 
L 3309 4666 
L 3309 4134 
L 1259 4134 
L 1259 2759 
L 3109 2759 
L 3109 2228 
L 1259 2228 
L 1259 0 
L 628 0 
L 628 4666 
z
" transform="scale(0.015625)"/>
       <path id="DejaVuSans-43" d="M 4122 4306 
L 4122 3641 
Q 3803 3938 3442 4084 
Q 3081 4231 2675 4231 
Q 1875 4231 1450 3742 
Q 1025 3253 1025 2328 
Q 1025 1406 1450 917 
Q 1875 428 2675 428 
Q 3081 428 3442 575 
Q 3803 722 4122 1019 
L 4122 359 
Q 3791 134 3420 21 
Q 3050 -91 2638 -91 
Q 1578 -91 968 557 
Q 359 1206 359 2328 
Q 359 3453 968 4101 
Q 1578 4750 2638 4750 
Q 3056 4750 3426 4639 
Q 3797 4528 4122 4306 
z
" transform="scale(0.015625)"/>
       <path id="DejaVuSans-53" d="M 3425 4513 
L 3425 3897 
Q 3066 4069 2747 4153 
Q 2428 4238 2131 4238 
Q 1616 4238 1336 4038 
Q 1056 3838 1056 3469 
Q 1056 3159 1242 3001 
Q 1428 2844 1947 2747 
L 2328 2669 
Q 3034 2534 3370 2195 
Q 3706 1856 3706 1288 
Q 3706 609 3251 259 
Q 2797 -91 1919 -91 
Q 1588 -91 1214 -16 
Q 841 59 441 206 
L 441 856 
Q 825 641 1194 531 
Q 1563 422 1919 422 
Q 2459 422 2753 634 
Q 3047 847 3047 1241 
Q 3047 1584 2836 1778 
Q 2625 1972 2144 2069 
L 1759 2144 
Q 1053 2284 737 2584 
Q 422 2884 422 3419 
Q 422 4038 858 4394 
Q 1294 4750 2059 4750 
Q 2388 4750 2728 4690 
Q 3069 4631 3425 4513 
z
" transform="scale(0.015625)"/>
      </defs>
      <use xlink:href="#DejaVuSans-46"/>
      <use xlink:href="#DejaVuSans-43" x="57.519531"/>
      <use xlink:href="#DejaVuSans-46" x="127.34375"/>
      <use xlink:href="#DejaVuSans-53" x="183.113281"/>
     </g>
    </g>
    <g id="line2d_24">
     <path d="M 338.1825 69.248563 
L 348.1825 69.248563 
L 358.1825 69.248563 
" style="fill: none; stroke: #ff7f0e; stroke-width: 1.5; stroke-linecap: square"/>
    </g>
    <g id="text_18">
     <!-- SJF -->
     <g transform="translate(366.1825 72.748563)scale(0.1 -0.1)">
      <defs>
       <path id="DejaVuSans-4a" d="M 628 4666 
L 1259 4666 
L 1259 325 
Q 1259 -519 939 -900 
Q 619 -1281 -91 -1281 
L -331 -1281 
L -331 -750 
L -134 -750 
Q 284 -750 456 -515 
Q 628 -281 628 325 
L 628 4666 
z
" transform="scale(0.015625)"/>
      </defs>
      <use xlink:href="#DejaVuSans-53"/>
      <use xlink:href="#DejaVuSans-4a" x="63.476562"/>
      <use xlink:href="#DejaVuSans-46" x="92.96875"/>
     </g>
    </g>
    <g id="line2d_25">
     <path d="M 338.1825 83.926688 
L 348.1825 83.926688 
L 358.1825 83.926688 
" style="fill: none; stroke: #2ca02c; stroke-width: 1.5; stroke-linecap: square"/>
    </g>
    <g id="text_19">
     <!-- SRT -->
     <g transform="translate(366.1825 87.426688)scale(0.1 -0.1)">
      <defs>
       <path id="DejaVuSans-52" d="M 2841 2188 
Q 3044 2119 3236 1894 
Q 3428 1669 3622 1275 
L 4263 0 
L 3584 0 
L 2988 1197 
Q 2756 1666 2539 1819 
Q 2322 1972 1947 1972 
L 1259 1972 
L 1259 0 
L 628 0 
L 628 4666 
L 2053 4666 
Q 2853 4666 3247 4331 
Q 3641 3997 3641 3322 
Q 3641 2881 3436 2590 
Q 3231 2300 2841 2188 
z
M 1259 4147 
L 1259 2491 
L 2053 2491 
Q 2509 2491 2742 2702 
Q 2975 2913 2975 3322 
Q 2975 3731 2742 3939 
Q 2509 4147 2053 4147 
L 1259 4147 
z
" transform="scale(0.015625)"/>
       <path id="DejaVuSans-54" d="M -19 4666 
L 3928 4666 
L 3928 4134 
L 2272 4134 
L 2272 0 
L 1638 0 
L 1638 4134 
L -19 4134 
L -19 4666 
z
" transform="scale(0.015625)"/>
      </defs>
      <use xlink:href="#DejaVuSans-53"/>
      <use xlink:href="#DejaVuSans-52" x="63.476562"/>
      <use xlink:href="#DejaVuSans-54" x="125.708984"/>
     </g>
    </g>
    <g id="line2d_26">
     <path d="M 338.1825 98.604813 
L 348.1825 98.604813 
L 358.1825 98.604813 
" style="fill: none; stroke: #d62728; stroke-width: 1.5; stroke-linecap: square"/>
    </g>
    <g id="text_20">
     <!-- RR2 -->
     <g transform="translate(366.1825 102.104813)scale(0.1 -0.1)">
      <use xlink:href="#DejaVuSans-52"/>
      <use xlink:href="#DejaVuSans-52" x="69.482422"/>
      <use xlink:href="#DejaVuSans-32" x="138.964844"/>
     </g>
    </g>
    <g id="line2d_27">
     <path d="M 338.1825 113.282938 
L 348.1825 113.282938 
L 358.1825 113.282938 
" style="fill: none; stroke: #9467bd; stroke-width: 1.5; stroke-linecap: square"/>
    </g>
    <g id="text_21">
     <!-- RR4 -->
     <g transform="translate(366.1825 116.782938)scale(0.1 -0.1)">
      <use xlink:href="#DejaVuSans-52"/>
      <use xlink:href="#DejaVuSans-52" x="69.482422"/>
      <use xlink:href="#DejaVuSans-34" x="138.964844"/>
     </g>
    </g>
    <g id="line2d_28">
     <path d="M 338.1825 127.961063 
L 348.1825 127.961063 
L 358.1825 127.961063 
" style="fill: none; stroke: #8c564b; stroke-width: 1.5; stroke-linecap: square"/>
    </g>
    <g id="text_22">
     <!-- RR8 -->
     <g transform="translate(366.1825 131.461063)scale(0.1 -0.1)">
      <use xlink:href="#DejaVuSans-52"/>
      <use xlink:href="#DejaVuSans-52" x="69.482422"/>
      <use xlink:href="#DejaVuSans-38" x="138.964844"/>
     </g>
    </g>
    <g id="line2d_29">
     <path d="M 338.1825 142.639188 
L 348.1825 142.639188 
L 358.1825 142.639188 
" style="fill: none; stroke: #e377c2; stroke-width: 1.5; stroke-linecap: square"/>
    </g>
    <g id="text_23">
     <!-- HRRN -->
     <g transform="translate(366.1825 146.139188)scale(0.1 -0.1)">
      <defs>
       <path id="DejaVuSans-48" d="M 628 4666 
L 1259 4666 
L 1259 2753 
L 3553 2753 
L 3553 4666 
L 4184 4666 
L 4184 0 
L 3553 0 
L 3553 2222 
L 1259 2222 
L 1259 0 
L 628 0 
L 628 4666 
z
" transform="scale(0.015625)"/>
       <path id="DejaVuSans-4e" d="M 628 4666 
L 1478 4666 
L 3547 763 
L 3547 4666 
L 4159 4666 
L 4159 0 
L 3309 0 
L 1241 3903 
L 1241 0 
L 628 0 
L 628 4666 
z
" transform="scale(0.015625)"/>
      </defs>
      <use xlink:href="#DejaVuSans-48"/>
      <use xlink:href="#DejaVuSans-52" x="75.195312"/>
      <use xlink:href="#DejaVuSans-52" x="144.677734"/>
      <use xlink:href="#DejaVuSans-4e" x="214.160156"/>
     </g>
    </g>
    <g id="line2d_30">
     <path d="M 338.1825 157.317313 
L 348.1825 157.317313 
L 358.1825 157.317313 
" style="fill: none; stroke: #7f7f7f; stroke-width: 1.5; stroke-linecap: square"/>
    </g>
    <g id="text_24">
     <!-- MLFB25 -->
     <g transform="translate(366.1825 160.817313)scale(0.1 -0.1)">
      <defs>
       <path id="DejaVuSans-4d" d="M 628 4666 
L 1569 4666 
L 2759 1491 
L 3956 4666 
L 4897 4666 
L 4897 0 
L 4281 0 
L 4281 4097 
L 3078 897 
L 2444 897 
L 1241 4097 
L 1241 0 
L 628 0 
L 628 4666 
z
" transform="scale(0.015625)"/>
       <path id="DejaVuSans-4c" d="M 628 4666 
L 1259 4666 
L 1259 531 
L 3531 531 
L 3531 0 
L 628 0 
L 628 4666 
z
" transform="scale(0.015625)"/>
      </defs>
      <use xlink:href="#DejaVuSans-4d"/>
      <use xlink:href="#DejaVuSans-4c" x="86.279297"/>
      <use xlink:href="#DejaVuSans-46" x="141.992188"/>
      <use xlink:href="#DejaVuSans-42" x="199.511719"/>
      <use xlink:href="#DejaVuSans-32" x="268.115234"/>
      <use xlink:href="#DejaVuSans-35" x="331.738281"/>
     </g>
    </g>
    <g id="line2d_31">
     <path d="M 338.1825 171.995438 
L 348.1825 171.995438 
L 358.1825 171.995438 
" style="fill: none; stroke: #bcbd22; stroke-width: 1.5; stroke-linecap: square"/>
    </g>
    <g id="text_25">
     <!-- MLFB50 -->
     <g transform="translate(366.1825 175.495438)scale(0.1 -0.1)">
      <use xlink:href="#DejaVuSans-4d"/>
      <use xlink:href="#DejaVuSans-4c" x="86.279297"/>
      <use xlink:href="#DejaVuSans-46" x="141.992188"/>
      <use xlink:href="#DejaVuSans-42" x="199.511719"/>
      <use xlink:href="#DejaVuSans-35" x="268.115234"/>
      <use xlink:href="#DejaVuSans-30" x="331.738281"/>
     </g>
    </g>
   </g>
  </g>
 </g>
 <defs>
  <clipPath id="p6799ac9d16">
   <rect x="57.6" y="41.472" width="357.12" height="266.112"/>
  </clipPath>
 </defs>
</svg>
