<?xml version="1.0" encoding="utf-8" standalone="no"?>
<!DOCTYPE svg PUBLIC "-//W3C//DTD SVG 1.1//EN"
  "http://www.w3.org/Graphics/SVG/1.1/DTD/svg11.dtd">
<svg xmlns:xlink="http://www.w3.org/1999/xlink" width="460.8pt" height="345.6pt" viewBox="0 0 460.8 345.6" xmlns="http://www.w3.org/2000/svg" version="1.1">
 <metadata>
  <rdf:RDF xmlns:dc="http://purl.org/dc/elements/1.1/" xmlns:cc="http://creativecommons.org/ns#" xmlns:rdf="http://www.w3.org/1999/02/22-rdf-syntax-ns#">
   <cc:Work>
    <dc:type rdf:resource="http://purl.org/dc/dcmitype/StillImage"/>
    <dc:date>2022-03-29T15:50:37.805130</dc:date>
    <dc:format>image/svg+xml</dc:format>
    <dc:creator>
     <cc:Agent>
      <dc:title>Matplotlib v3.5.1, https://matplotlib.org/</dc:title>
     </cc:Agent>
    </dc:creator>
   </cc:Work>
  </rdf:RDF>
 </metadata>
 <defs>
  <style type="text/css">*{stroke-linejoin: round; stroke-linecap: butt}</style>
 </defs>
 <g id="figure_1">
  <g id="patch_1">
   <path d="M 0 345.6 
L 460.8 345.6 
L 460.8 0 
L 0 0 
z
" style="fill: #ffffff"/>
  </g>
  <g id="axes_1">
   <g id="patch_2">
    <path d="M 57.6 307.584 
L 414.72 307.584 
L 414.72 41.472 
L 57.6 41.472 
z
" style="fill: #ffffff"/>
   </g>
   <g id="matplotlib.axis_1">
    <g id="xtick_1">
     <g id="line2d_1">
      <defs>
       <path id="mbf2237a3ef" d="M 0 0 
L 0 3.5 
" style="stroke: #000000; stroke-width: 0.8"/>
      </defs>
      <g>
       <use xlink:href="#mbf2237a3ef" x="70.553388" y="307.584" style="stroke: #000000; stroke-width: 0.8"/>
      </g>
     </g>
     <g id="text_1">
      <!-- 0 -->
      <g transform="translate(67.372138 322.182437)scale(0.1 -0.1)">
       <defs>
        <path id="DejaVuSans-30" d="M 2034 4250 
Q 1547 4250 1301 3770 
Q 1056 3291 1056 2328 
Q 1056 1369 1301 889 
Q 1547 409 2034 409 
Q 2525 409 2770 889 
Q 3016 1369 3016 2328 
Q 3016 3291 2770 3770 
Q 2525 4250 2034 4250 
z
M 2034 4750 
Q 2819 4750 3233 4129 
Q 3647 3509 3647 2328 
Q 3647 1150 3233 529 
Q 2819 -91 2034 -91 
Q 1250 -91 836 529 
Q 422 1150 422 2328 
Q 422 3509 836 4129 
Q 1250 4750 2034 4750 
z
" transform="scale(0.015625)"/>
       </defs>
       <use xlink:href="#DejaVuSans-30"/>
      </g>
     </g>
    </g>
    <g id="xtick_2">
     <g id="line2d_2">
      <g>
       <use xlink:href="#mbf2237a3ef" x="136.140165" y="307.584" style="stroke: #000000; stroke-width: 0.8"/>
      </g>
     </g>
     <g id="text_2">
      <!-- 20 -->
      <g transform="translate(129.777665 322.182437)scale(0.1 -0.1)">
       <defs>
        <path id="DejaVuSans-32" d="M 1228 531 
L 3431 531 
L 3431 0 
L 469 0 
L 469 531 
Q 828 903 1448 1529 
Q 2069 2156 2228 2338 
Q 2531 2678 2651 2914 
Q 2772 3150 2772 3378 
Q 2772 3750 2511 3984 
Q 2250 4219 1831 4219 
Q 1534 4219 1204 4116 
Q 875 4013 500 3803 
L 500 4441 
Q 881 4594 1212 4672 
Q 1544 4750 1819 4750 
Q 2544 4750 2975 4387 
Q 3406 4025 3406 3419 
Q 3406 3131 3298 2873 
Q 3191 2616 2906 2266 
Q 2828 2175 2409 1742 
Q 1991 1309 1228 531 
z
" transform="scale(0.015625)"/>
       </defs>
       <use xlink:href="#DejaVuSans-32"/>
       <use xlink:href="#DejaVuSans-30" x="63.623047"/>
      </g>
     </g>
    </g>
    <g id="xtick_3">
     <g id="line2d_3">
      <g>
       <use xlink:href="#mbf2237a3ef" x="201.726942" y="307.584" style="stroke: #000000; stroke-width: 0.8"/>
      </g>
     </g>
     <g id="text_3">
      <!-- 40 -->
      <g transform="translate(195.364442 322.182437)scale(0.1 -0.1)">
       <defs>
        <path id="DejaVuSans-34" d="M 2419 4116 
L 825 1625 
L 2419 1625 
L 2419 4116 
z
M 2253 4666 
L 3047 4666 
L 3047 1625 
L 3713 1625 
L 3713 1100 
L 3047 1100 
L 3047 0 
L 2419 0 
L 2419 1100 
L 313 1100 
L 313 1709 
L 2253 4666 
z
" transform="scale(0.015625)"/>
       </defs>
       <use xlink:href="#DejaVuSans-34"/>
       <use xlink:href="#DejaVuSans-30" x="63.623047"/>
      </g>
     </g>
    </g>
    <g id="xtick_4">
     <g id="line2d_4">
      <g>
       <use xlink:href="#mbf2237a3ef" x="267.313719" y="307.584" style="stroke: #000000; stroke-width: 0.8"/>
      </g>
     </g>
     <g id="text_4">
      <!-- 60 -->
      <g transform="translate(260.951219 322.182437)scale(0.1 -0.1)">
       <defs>
        <path id="DejaVuSans-36" d="M 2113 2584 
Q 1688 2584 1439 2293 
Q 1191 2003 1191 1497 
Q 1191 994 1439 701 
Q 1688 409 2113 409 
Q 2538 409 2786 701 
Q 3034 994 3034 1497 
Q 3034 2003 2786 2293 
Q 2538 2584 2113 2584 
z
M 3366 4563 
L 3366 3988 
Q 3128 4100 2886 4159 
Q 2644 4219 2406 4219 
Q 1781 4219 1451 3797 
Q 1122 3375 1075 2522 
Q 1259 2794 1537 2939 
Q 1816 3084 2150 3084 
Q 2853 3084 3261 2657 
Q 3669 2231 3669 1497 
Q 3669 778 3244 343 
Q 2819 -91 2113 -91 
Q 1303 -91 875 529 
Q 447 1150 447 2328 
Q 447 3434 972 4092 
Q 1497 4750 2381 4750 
Q 2619 4750 2861 4703 
Q 3103 4656 3366 4563 
z
" transform="scale(0.015625)"/>
       </defs>
       <use xlink:href="#DejaVuSans-36"/>
       <use xlink:href="#DejaVuSans-30" x="63.623047"/>
      </g>
     </g>
    </g>
    <g id="xtick_5">
     <g id="line2d_5">
      <g>
       <use xlink:href="#mbf2237a3ef" x="332.900496" y="307.584" style="stroke: #000000; stroke-width: 0.8"/>
      </g>
     </g>
     <g id="text_5">
      <!-- 80 -->
      <g transform="translate(326.537996 322.182437)scale(0.1 -0.1)">
       <defs>
        <path id="DejaVuSans-38" d="M 2034 2216 
Q 1584 2216 1326 1975 
Q 1069 1734 1069 1313 
Q 1069 891 1326 650 
Q 1584 409 2034 409 
Q 2484 409 2743 651 
Q 3003 894 3003 1313 
Q 3003 1734 2745 1975 
Q 2488 2216 2034 2216 
z
M 1403 2484 
Q 997 2584 770 2862 
Q 544 3141 544 3541 
Q 544 4100 942 4425 
Q 1341 4750 2034 4750 
Q 2731 4750 3128 4425 
Q 3525 4100 3525 3541 
Q 3525 3141 3298 2862 
Q 3072 2584 2669 2484 
Q 3125 2378 3379 2068 
Q 3634 1759 3634 1313 
Q 3634 634 3220 271 
Q 2806 -91 2034 -91 
Q 1263 -91 848 271 
Q 434 634 434 1313 
Q 434 1759 690 2068 
Q 947 2378 1403 2484 
z
M 1172 3481 
Q 1172 3119 1398 2916 
Q 1625 2713 2034 2713 
Q 2441 2713 2670 2916 
Q 2900 3119 2900 3481 
Q 2900 3844 2670 4047 
Q 2441 4250 2034 4250 
Q 1625 4250 1398 4047 
Q 1172 3844 1172 3481 
z
" transform="scale(0.015625)"/>
       </defs>
       <use xlink:href="#DejaVuSans-38"/>
       <use xlink:href="#DejaVuSans-30" x="63.623047"/>
      </g>
     </g>
    </g>
    <g id="xtick_6">
     <g id="line2d_6">
      <g>
       <use xlink:href="#mbf2237a3ef" x="398.487273" y="307.584" style="stroke: #000000; stroke-width: 0.8"/>
      </g>
     </g>
     <g id="text_6">
      <!-- 100 -->
      <g transform="translate(388.943523 322.182437)scale(0.1 -0.1)">
       <defs>
        <path id="DejaVuSans-31" d="M 794 531 
L 1825 531 
L 1825 4091 
L 703 3866 
L 703 4441 
L 1819 4666 
L 2450 4666 
L 2450 531 
L 3481 531 
L 3481 0 
L 794 0 
L 794 531 
z
" transform="scale(0.015625)"/>
       </defs>
       <use xlink:href="#DejaVuSans-31"/>
       <use xlink:href="#DejaVuSans-30" x="63.623047"/>
       <use xlink:href="#DejaVuSans-30" x="127.246094"/>
      </g>
     </g>
    </g>
    <g id="text_7">
     <!-- Bedieningstijd percentiel -->
     <g transform="translate(174.002969 335.860562)scale(0.1 -0.1)">
      <defs>
       <path id="DejaVuSans-42" d="M 1259 2228 
L 1259 519 
L 2272 519 
Q 2781 519 3026 730 
Q 3272 941 3272 1375 
Q 3272 1813 3026 2020 
Q 2781 2228 2272 2228 
L 1259 2228 
z
M 1259 4147 
L 1259 2741 
L 2194 2741 
Q 2656 2741 2882 2914 
Q 3109 3088 3109 3444 
Q 3109 3797 2882 3972 
Q 2656 4147 2194 4147 
L 1259 4147 
z
M 628 4666 
L 2241 4666 
Q 2963 4666 3353 4366 
Q 3744 4066 3744 3513 
Q 3744 3084 3544 2831 
Q 3344 2578 2956 2516 
Q 3422 2416 3680 2098 
Q 3938 1781 3938 1306 
Q 3938 681 3513 340 
Q 3088 0 2303 0 
L 628 0 
L 628 4666 
z
" transform="scale(0.015625)"/>
       <path id="DejaVuSans-65" d="M 3597 1894 
L 3597 1613 
L 953 1613 
Q 991 1019 1311 708 
Q 1631 397 2203 397 
Q 2534 397 2845 478 
Q 3156 559 3463 722 
L 3463 178 
Q 3153 47 2828 -22 
Q 2503 -91 2169 -91 
Q 1331 -91 842 396 
Q 353 884 353 1716 
Q 353 2575 817 3079 
Q 1281 3584 2069 3584 
Q 2775 3584 3186 3129 
Q 3597 2675 3597 1894 
z
M 3022 2063 
Q 3016 2534 2758 2815 
Q 2500 3097 2075 3097 
Q 1594 3097 1305 2825 
Q 1016 2553 972 2059 
L 3022 2063 
z
" transform="scale(0.015625)"/>
       <path id="DejaVuSans-64" d="M 2906 2969 
L 2906 4863 
L 3481 4863 
L 3481 0 
L 2906 0 
L 2906 525 
Q 2725 213 2448 61 
Q 2172 -91 1784 -91 
Q 1150 -91 751 415 
Q 353 922 353 1747 
Q 353 2572 751 3078 
Q 1150 3584 1784 3584 
Q 2172 3584 2448 3432 
Q 2725 3281 2906 2969 
z
M 947 1747 
Q 947 1113 1208 752 
Q 1469 391 1925 391 
Q 2381 391 2643 752 
Q 2906 1113 2906 1747 
Q 2906 2381 2643 2742 
Q 2381 3103 1925 3103 
Q 1469 3103 1208 2742 
Q 947 2381 947 1747 
z
" transform="scale(0.015625)"/>
       <path id="DejaVuSans-69" d="M 603 3500 
L 1178 3500 
L 1178 0 
L 603 0 
L 603 3500 
z
M 603 4863 
L 1178 4863 
L 1178 4134 
L 603 4134 
L 603 4863 
z
" transform="scale(0.015625)"/>
       <path id="DejaVuSans-6e" d="M 3513 2113 
L 3513 0 
L 2938 0 
L 2938 2094 
Q 2938 2591 2744 2837 
Q 2550 3084 2163 3084 
Q 1697 3084 1428 2787 
Q 1159 2491 1159 1978 
L 1159 0 
L 581 0 
L 581 3500 
L 1159 3500 
L 1159 2956 
Q 1366 3272 1645 3428 
Q 1925 3584 2291 3584 
Q 2894 3584 3203 3211 
Q 3513 2838 3513 2113 
z
" transform="scale(0.015625)"/>
       <path id="DejaVuSans-67" d="M 2906 1791 
Q 2906 2416 2648 2759 
Q 2391 3103 1925 3103 
Q 1463 3103 1205 2759 
Q 947 2416 947 1791 
Q 947 1169 1205 825 
Q 1463 481 1925 481 
Q 2391 481 2648 825 
Q 2906 1169 2906 1791 
z
M 3481 434 
Q 3481 -459 3084 -895 
Q 2688 -1331 1869 -1331 
Q 1566 -1331 1297 -1286 
Q 1028 -1241 775 -1147 
L 775 -588 
Q 1028 -725 1275 -790 
Q 1522 -856 1778 -856 
Q 2344 -856 2625 -561 
Q 2906 -266 2906 331 
L 2906 616 
Q 2728 306 2450 153 
Q 2172 0 1784 0 
Q 1141 0 747 490 
Q 353 981 353 1791 
Q 353 2603 747 3093 
Q 1141 3584 1784 3584 
Q 2172 3584 2450 3431 
Q 2728 3278 2906 2969 
L 2906 3500 
L 3481 3500 
L 3481 434 
z
" transform="scale(0.015625)"/>
       <path id="DejaVuSans-73" d="M 2834 3397 
L 2834 2853 
Q 2591 2978 2328 3040 
Q 2066 3103 1784 3103 
Q 1356 3103 1142 2972 
Q 928 2841 928 2578 
Q 928 2378 1081 2264 
Q 1234 2150 1697 2047 
L 1894 2003 
Q 2506 1872 2764 1633 
Q 3022 1394 3022 966 
Q 3022 478 2636 193 
Q 2250 -91 1575 -91 
Q 1294 -91 989 -36 
Q 684 19 347 128 
L 347 722 
Q 666 556 975 473 
Q 1284 391 1588 391 
Q 1994 391 2212 530 
Q 2431 669 2431 922 
Q 2431 1156 2273 1281 
Q 2116 1406 1581 1522 
L 1381 1569 
Q 847 1681 609 1914 
Q 372 2147 372 2553 
Q 372 3047 722 3315 
Q 1072 3584 1716 3584 
Q 2034 3584 2315 3537 
Q 2597 3491 2834 3397 
z
" transform="scale(0.015625)"/>
       <path id="DejaVuSans-74" d="M 1172 4494 
L 1172 3500 
L 2356 3500 
L 2356 3053 
L 1172 3053 
L 1172 1153 
Q 1172 725 1289 603 
Q 1406 481 1766 481 
L 2356 481 
L 2356 0 
L 1766 0 
Q 1100 0 847 248 
Q 594 497 594 1153 
L 594 3053 
L 172 3053 
L 172 3500 
L 594 3500 
L 594 4494 
L 1172 4494 
z
" transform="scale(0.015625)"/>
       <path id="DejaVuSans-6a" d="M 603 3500 
L 1178 3500 
L 1178 -63 
Q 1178 -731 923 -1031 
Q 669 -1331 103 -1331 
L -116 -1331 
L -116 -844 
L 38 -844 
Q 366 -844 484 -692 
Q 603 -541 603 -63 
L 603 3500 
z
M 603 4863 
L 1178 4863 
L 1178 4134 
L 603 4134 
L 603 4863 
z
" transform="scale(0.015625)"/>
       <path id="DejaVuSans-20" transform="scale(0.015625)"/>
       <path id="DejaVuSans-70" d="M 1159 525 
L 1159 -1331 
L 581 -1331 
L 581 3500 
L 1159 3500 
L 1159 2969 
Q 1341 3281 1617 3432 
Q 1894 3584 2278 3584 
Q 2916 3584 3314 3078 
Q 3713 2572 3713 1747 
Q 3713 922 3314 415 
Q 2916 -91 2278 -91 
Q 1894 -91 1617 61 
Q 1341 213 1159 525 
z
M 3116 1747 
Q 3116 2381 2855 2742 
Q 2594 3103 2138 3103 
Q 1681 3103 1420 2742 
Q 1159 2381 1159 1747 
Q 1159 1113 1420 752 
Q 1681 391 2138 391 
Q 2594 391 2855 752 
Q 3116 1113 3116 1747 
z
" transform="scale(0.015625)"/>
       <path id="DejaVuSans-72" d="M 2631 2963 
Q 2534 3019 2420 3045 
Q 2306 3072 2169 3072 
Q 1681 3072 1420 2755 
Q 1159 2438 1159 1844 
L 1159 0 
L 581 0 
L 581 3500 
L 1159 3500 
L 1159 2956 
Q 1341 3275 1631 3429 
Q 1922 3584 2338 3584 
Q 2397 3584 2469 3576 
Q 2541 3569 2628 3553 
L 2631 2963 
z
" transform="scale(0.015625)"/>
       <path id="DejaVuSans-63" d="M 3122 3366 
L 3122 2828 
Q 2878 2963 2633 3030 
Q 2388 3097 2138 3097 
Q 1578 3097 1268 2742 
Q 959 2388 959 1747 
Q 959 1106 1268 751 
Q 1578 397 2138 397 
Q 2388 397 2633 464 
Q 2878 531 3122 666 
L 3122 134 
Q 2881 22 2623 -34 
Q 2366 -91 2075 -91 
Q 1284 -91 818 406 
Q 353 903 353 1747 
Q 353 2603 823 3093 
Q 1294 3584 2113 3584 
Q 2378 3584 2631 3529 
Q 2884 3475 3122 3366 
z
" transform="scale(0.015625)"/>
       <path id="DejaVuSans-6c" d="M 603 4863 
L 1178 4863 
L 1178 0 
L 603 0 
L 603 4863 
z
" transform="scale(0.015625)"/>
      </defs>
      <use xlink:href="#DejaVuSans-42"/>
      <use xlink:href="#DejaVuSans-65" x="68.603516"/>
      <use xlink:href="#DejaVuSans-64" x="130.126953"/>
      <use xlink:href="#DejaVuSans-69" x="193.603516"/>
      <use xlink:href="#DejaVuSans-65" x="221.386719"/>
      <use xlink:href="#DejaVuSans-6e" x="282.910156"/>
      <use xlink:href="#DejaVuSans-69" x="346.289062"/>
      <use xlink:href="#DejaVuSans-6e" x="374.072266"/>
      <use xlink:href="#DejaVuSans-67" x="437.451172"/>
      <use xlink:href="#DejaVuSans-73" x="500.927734"/>
      <use xlink:href="#DejaVuSans-74" x="553.027344"/>
      <use xlink:href="#DejaVuSans-69" x="592.236328"/>
      <use xlink:href="#DejaVuSans-6a" x="620.019531"/>
      <use xlink:href="#DejaVuSans-64" x="647.802734"/>
      <use xlink:href="#DejaVuSans-20" x="711.279297"/>
      <use xlink:href="#DejaVuSans-70" x="743.066406"/>
      <use xlink:href="#DejaVuSans-65" x="806.542969"/>
      <use xlink:href="#DejaVuSans-72" x="868.066406"/>
      <use xlink:href="#DejaVuSans-63" x="906.929688"/>
      <use xlink:href="#DejaVuSans-65" x="961.910156"/>
      <use xlink:href="#DejaVuSans-6e" x="1023.433594"/>
      <use xlink:href="#DejaVuSans-74" x="1086.8125"/>
      <use xlink:href="#DejaVuSans-69" x="1126.021484"/>
      <use xlink:href="#DejaVuSans-65" x="1153.804688"/>
      <use xlink:href="#DejaVuSans-6c" x="1215.328125"/>
     </g>
    </g>
   </g>
   <g id="matplotlib.axis_2">
    <g id="ytick_1">
     <g id="line2d_7">
      <defs>
       <path id="m721ad65b36" d="M 0 0 
L -3.5 0 
" style="stroke: #000000; stroke-width: 0.8"/>
      </defs>
      <g>
       <use xlink:href="#m721ad65b36" x="57.6" y="307.584" style="stroke: #000000; stroke-width: 0.8"/>
      </g>
     </g>
     <g id="text_8">
      <!-- 0 -->
      <g transform="translate(44.2375 311.383219)scale(0.1 -0.1)">
       <use xlink:href="#DejaVuSans-30"/>
      </g>
     </g>
    </g>
    <g id="ytick_2">
     <g id="line2d_8">
      <g>
       <use xlink:href="#m721ad65b36" x="57.6" y="263.232" style="stroke: #000000; stroke-width: 0.8"/>
      </g>
     </g>
     <g id="text_9">
      <!-- 5 -->
      <g transform="translate(44.2375 267.031219)scale(0.1 -0.1)">
       <defs>
        <path id="DejaVuSans-35" d="M 691 4666 
L 3169 4666 
L 3169 4134 
L 1269 4134 
L 1269 2991 
Q 1406 3038 1543 3061 
Q 1681 3084 1819 3084 
Q 2600 3084 3056 2656 
Q 3513 2228 3513 1497 
Q 3513 744 3044 326 
Q 2575 -91 1722 -91 
Q 1428 -91 1123 -41 
Q 819 9 494 109 
L 494 744 
Q 775 591 1075 516 
Q 1375 441 1709 441 
Q 2250 441 2565 725 
Q 2881 1009 2881 1497 
Q 2881 1984 2565 2268 
Q 2250 2553 1709 2553 
Q 1456 2553 1204 2497 
Q 953 2441 691 2322 
L 691 4666 
z
" transform="scale(0.015625)"/>
       </defs>
       <use xlink:href="#DejaVuSans-35"/>
      </g>
     </g>
    </g>
    <g id="ytick_3">
     <g id="line2d_9">
      <g>
       <use xlink:href="#m721ad65b36" x="57.6" y="218.88" style="stroke: #000000; stroke-width: 0.8"/>
      </g>
     </g>
     <g id="text_10">
      <!-- 10 -->
      <g transform="translate(37.875 222.679219)scale(0.1 -0.1)">
       <use xlink:href="#DejaVuSans-31"/>
       <use xlink:href="#DejaVuSans-30" x="63.623047"/>
      </g>
     </g>
    </g>
    <g id="ytick_4">
     <g id="line2d_10">
      <g>
       <use xlink:href="#m721ad65b36" x="57.6" y="174.528" style="stroke: #000000; stroke-width: 0.8"/>
      </g>
     </g>
     <g id="text_11">
      <!-- 15 -->
      <g transform="translate(37.875 178.327219)scale(0.1 -0.1)">
       <use xlink:href="#DejaVuSans-31"/>
       <use xlink:href="#DejaVuSans-35" x="63.623047"/>
      </g>
     </g>
    </g>
    <g id="ytick_5">
     <g id="line2d_11">
      <g>
       <use xlink:href="#m721ad65b36" x="57.6" y="130.176" style="stroke: #000000; stroke-width: 0.8"/>
      </g>
     </g>
     <g id="text_12">
      <!-- 20 -->
      <g transform="translate(37.875 133.975219)scale(0.1 -0.1)">
       <use xlink:href="#DejaVuSans-32"/>
       <use xlink:href="#DejaVuSans-30" x="63.623047"/>
      </g>
     </g>
    </g>
    <g id="ytick_6">
     <g id="line2d_12">
      <g>
       <use xlink:href="#m721ad65b36" x="57.6" y="85.824" style="stroke: #000000; stroke-width: 0.8"/>
      </g>
     </g>
     <g id="text_13">
      <!-- 25 -->
      <g transform="translate(37.875 89.623219)scale(0.1 -0.1)">
       <use xlink:href="#DejaVuSans-32"/>
       <use xlink:href="#DejaVuSans-35" x="63.623047"/>
      </g>
     </g>
    </g>
    <g id="ytick_7">
     <g id="line2d_13">
      <g>
       <use xlink:href="#m721ad65b36" x="57.6" y="41.472" style="stroke: #000000; stroke-width: 0.8"/>
      </g>
     </g>
     <g id="text_14">
      <!-- 30 -->
      <g transform="translate(37.875 45.271219)scale(0.1 -0.1)">
       <defs>
        <path id="DejaVuSans-33" d="M 2597 2516 
Q 3050 2419 3304 2112 
Q 3559 1806 3559 1356 
Q 3559 666 3084 287 
Q 2609 -91 1734 -91 
Q 1441 -91 1130 -33 
Q 819 25 488 141 
L 488 750 
Q 750 597 1062 519 
Q 1375 441 1716 441 
Q 2309 441 2620 675 
Q 2931 909 2931 1356 
Q 2931 1769 2642 2001 
Q 2353 2234 1838 2234 
L 1294 2234 
L 1294 2753 
L 1863 2753 
Q 2328 2753 2575 2939 
Q 2822 3125 2822 3475 
Q 2822 3834 2567 4026 
Q 2313 4219 1838 4219 
Q 1578 4219 1281 4162 
Q 984 4106 628 3988 
L 628 4550 
Q 988 4650 1302 4700 
Q 1616 4750 1894 4750 
Q 2613 4750 3031 4423 
Q 3450 4097 3450 3541 
Q 3450 3153 3228 2886 
Q 3006 2619 2597 2516 
z
" transform="scale(0.015625)"/>
       </defs>
       <use xlink:href="#DejaVuSans-33"/>
       <use xlink:href="#DejaVuSans-30" x="63.623047"/>
      </g>
     </g>
    </g>
    <g id="text_15">
     <!-- Genormaliseerde omlooptijd -->
     <g transform="translate(31.795312 245.477219)rotate(-90)scale(0.1 -0.1)">
      <defs>
       <path id="DejaVuSans-47" d="M 3809 666 
L 3809 1919 
L 2778 1919 
L 2778 2438 
L 4434 2438 
L 4434 434 
Q 4069 175 3628 42 
Q 3188 -91 2688 -91 
Q 1594 -91 976 548 
Q 359 1188 359 2328 
Q 359 3472 976 4111 
Q 1594 4750 2688 4750 
Q 3144 4750 3555 4637 
Q 3966 4525 4313 4306 
L 4313 3634 
Q 3963 3931 3569 4081 
Q 3175 4231 2741 4231 
Q 1884 4231 1454 3753 
Q 1025 3275 1025 2328 
Q 1025 1384 1454 906 
Q 1884 428 2741 428 
Q 3075 428 3337 486 
Q 3600 544 3809 666 
z
" transform="scale(0.015625)"/>
       <path id="DejaVuSans-6f" d="M 1959 3097 
Q 1497 3097 1228 2736 
Q 959 2375 959 1747 
Q 959 1119 1226 758 
Q 1494 397 1959 397 
Q 2419 397 2687 759 
Q 2956 1122 2956 1747 
Q 2956 2369 2687 2733 
Q 2419 3097 1959 3097 
z
M 1959 3584 
Q 2709 3584 3137 3096 
Q 3566 2609 3566 1747 
Q 3566 888 3137 398 
Q 2709 -91 1959 -91 
Q 1206 -91 779 398 
Q 353 888 353 1747 
Q 353 2609 779 3096 
Q 1206 3584 1959 3584 
z
" transform="scale(0.015625)"/>
       <path id="DejaVuSans-6d" d="M 3328 2828 
Q 3544 3216 3844 3400 
Q 4144 3584 4550 3584 
Q 5097 3584 5394 3201 
Q 5691 2819 5691 2113 
L 5691 0 
L 5113 0 
L 5113 2094 
Q 5113 2597 4934 2840 
Q 4756 3084 4391 3084 
Q 3944 3084 3684 2787 
Q 3425 2491 3425 1978 
L 3425 0 
L 2847 0 
L 2847 2094 
Q 2847 2600 2669 2842 
Q 2491 3084 2119 3084 
Q 1678 3084 1418 2786 
Q 1159 2488 1159 1978 
L 1159 0 
L 581 0 
L 581 3500 
L 1159 3500 
L 1159 2956 
Q 1356 3278 1631 3431 
Q 1906 3584 2284 3584 
Q 2666 3584 2933 3390 
Q 3200 3197 3328 2828 
z
" transform="scale(0.015625)"/>
       <path id="DejaVuSans-61" d="M 2194 1759 
Q 1497 1759 1228 1600 
Q 959 1441 959 1056 
Q 959 750 1161 570 
Q 1363 391 1709 391 
Q 2188 391 2477 730 
Q 2766 1069 2766 1631 
L 2766 1759 
L 2194 1759 
z
M 3341 1997 
L 3341 0 
L 2766 0 
L 2766 531 
Q 2569 213 2275 61 
Q 1981 -91 1556 -91 
Q 1019 -91 701 211 
Q 384 513 384 1019 
Q 384 1609 779 1909 
Q 1175 2209 1959 2209 
L 2766 2209 
L 2766 2266 
Q 2766 2663 2505 2880 
Q 2244 3097 1772 3097 
Q 1472 3097 1187 3025 
Q 903 2953 641 2809 
L 641 3341 
Q 956 3463 1253 3523 
Q 1550 3584 1831 3584 
Q 2591 3584 2966 3190 
Q 3341 2797 3341 1997 
z
" transform="scale(0.015625)"/>
      </defs>
      <use xlink:href="#DejaVuSans-47"/>
      <use xlink:href="#DejaVuSans-65" x="77.490234"/>
      <use xlink:href="#DejaVuSans-6e" x="139.013672"/>
      <use xlink:href="#DejaVuSans-6f" x="202.392578"/>
      <use xlink:href="#DejaVuSans-72" x="263.574219"/>
      <use xlink:href="#DejaVuSans-6d" x="302.9375"/>
      <use xlink:href="#DejaVuSans-61" x="400.349609"/>
      <use xlink:href="#DejaVuSans-6c" x="461.628906"/>
      <use xlink:href="#DejaVuSans-69" x="489.412109"/>
      <use xlink:href="#DejaVuSans-73" x="517.195312"/>
      <use xlink:href="#DejaVuSans-65" x="569.294922"/>
      <use xlink:href="#DejaVuSans-65" x="630.818359"/>
      <use xlink:href="#DejaVuSans-72" x="692.341797"/>
      <use xlink:href="#DejaVuSans-64" x="731.705078"/>
      <use xlink:href="#DejaVuSans-65" x="795.181641"/>
      <use xlink:href="#DejaVuSans-20" x="856.705078"/>
      <use xlink:href="#DejaVuSans-6f" x="888.492188"/>
      <use xlink:href="#DejaVuSans-6d" x="949.673828"/>
      <use xlink:href="#DejaVuSans-6c" x="1047.085938"/>
      <use xlink:href="#DejaVuSans-6f" x="1074.869141"/>
      <use xlink:href="#DejaVuSans-6f" x="1136.050781"/>
      <use xlink:href="#DejaVuSans-70" x="1197.232422"/>
      <use xlink:href="#DejaVuSans-74" x="1260.708984"/>
      <use xlink:href="#DejaVuSans-69" x="1299.917969"/>
      <use xlink:href="#DejaVuSans-6a" x="1327.701172"/>
      <use xlink:href="#DejaVuSans-64" x="1355.484375"/>
     </g>
    </g>
   </g>
   <g id="line2d_14">
    <path d="M 111.79812 -1 
L 113.184793 26.576551 
L 116.464132 51.158282 
L 119.743471 41.753741 
L 123.02281 62.786093 
L 126.302149 68.37801 
L 129.581488 124.71129 
L 132.860826 142.061402 
L 136.140165 104.020358 
L 139.419504 114.583872 
L 142.698843 135.631471 
L 145.978182 121.816291 
L 149.257521 133.416289 
L 152.53686 194.2865 
L 155.816198 158.178947 
L 159.095537 185.687167 
L 162.374876 197.511397 
L 165.654215 190.221869 
L 168.933554 203.74656 
L 172.212893 192.607213 
L 175.492231 190.892623 
L 178.77157 197.785869 
L 182.050909 177.51488 
L 185.330248 206.327575 
L 188.609587 200.176128 
L 191.888926 201.609485 
L 195.168264 223.967196 
L 198.447603 214.718092 
L 201.726942 206.444619 
L 205.006281 225.008604 
L 208.28562 203.375999 
L 211.564959 221.157185 
L 214.844298 234.202304 
L 218.123636 235.891965 
L 221.402975 230.792973 
L 224.682314 228.407224 
L 227.961653 233.730658 
L 231.240992 236.418667 
L 234.520331 236.042728 
L 237.799669 237.972888 
L 241.079008 241.705727 
L 244.358347 232.710401 
L 247.637686 249.460508 
L 250.917025 241.993238 
L 254.196364 261.26329 
L 257.475702 263.87379 
L 260.755041 235.929422 
L 264.03438 265.018348 
L 267.313719 253.57566 
L 270.593058 259.064961 
L 273.872397 259.031854 
L 277.151736 256.677109 
L 280.431074 252.554046 
L 283.710413 267.760198 
L 286.989752 254.979869 
L 290.269091 261.122821 
L 293.54843 260.222349 
L 296.827769 268.978247 
L 300.107107 261.140419 
L 303.386446 265.924018 
L 306.665785 271.291329 
L 309.945124 266.657262 
L 313.224463 267.598699 
L 316.503802 275.325696 
L 319.78314 260.662784 
L 323.062479 272.195286 
L 326.341818 274.889496 
L 329.621157 271.749661 
L 332.900496 276.870721 
L 336.179835 275.856685 
L 339.459174 274.584758 
L 342.738512 277.786563 
L 346.017851 274.305574 
L 349.29719 280.843705 
L 352.576529 277.484588 
L 355.855868 279.351973 
L 359.135207 278.779272 
L 362.414545 284.440265 
L 365.693884 279.074258 
L 368.973223 283.869055 
L 372.252562 283.448528 
L 375.531901 283.562417 
L 378.81124 283.186092 
L 382.090579 281.475347 
L 385.369917 283.961772 
L 388.649256 289.360274 
L 391.928595 288.850676 
L 395.207934 290.011523 
L 398.487273 292.173114 
" clip-path="url(#pdb91b510de)" style="fill: none; stroke: #1f77b4; stroke-width: 1.5; stroke-linecap: square"/>
   </g>
   <g id="line2d_15">
    <path d="M 82.926126 -1 
L 83.670744 43.186944 
L 86.950083 119.30976 
L 90.229421 151.300858 
L 93.50876 184.158298 
L 96.788099 197.389872 
L 100.067438 211.585328 
L 103.346777 207.941811 
L 106.626116 231.617894 
L 109.905455 234.676032 
L 113.184793 238.973162 
L 116.464132 251.319345 
L 119.743471 252.846029 
L 123.02281 250.918037 
L 126.302149 252.557843 
L 129.581488 267.563178 
L 132.860826 268.052596 
L 136.140165 262.910765 
L 139.419504 263.434368 
L 142.698843 266.091389 
L 145.978182 263.115978 
L 149.257521 264.712402 
L 152.53686 265.841566 
L 155.816198 275.100663 
L 159.095537 270.980549 
L 162.374876 272.931258 
L 165.654215 275.131936 
L 168.933554 276.807902 
L 172.212893 277.205154 
L 175.492231 278.972565 
L 178.77157 274.649745 
L 182.050909 279.267295 
L 185.330248 277.343962 
L 188.609587 280.080652 
L 191.888926 281.142415 
L 195.168264 285.07281 
L 198.447603 282.437524 
L 201.726942 282.649275 
L 205.006281 281.586891 
L 208.28562 283.196186 
L 211.564959 281.161938 
L 214.844298 283.912459 
L 218.123636 280.315746 
L 221.402975 284.87178 
L 224.682314 281.69874 
L 227.961653 284.746337 
L 231.240992 286.628742 
L 234.520331 286.329923 
L 237.799669 286.06011 
L 241.079008 285.066733 
L 244.358347 286.004239 
L 247.637686 283.353872 
L 250.917025 286.03064 
L 254.196364 287.917827 
L 257.475702 286.734209 
L 260.755041 284.140552 
L 264.03438 286.281693 
L 267.313719 284.756834 
L 270.593058 285.753837 
L 273.872397 287.873802 
L 277.151736 285.000647 
L 280.431074 286.862792 
L 283.710413 289.490231 
L 286.989752 287.865503 
L 290.269091 286.364588 
L 293.54843 285.76929 
L 296.827769 287.172397 
L 300.107107 286.019378 
L 303.386446 287.867936 
L 306.665785 287.846086 
L 309.945124 285.325732 
L 313.224463 285.512953 
L 316.503802 287.09683 
L 319.78314 285.361232 
L 323.062479 286.556118 
L 326.341818 286.059902 
L 329.621157 289.544613 
L 332.900496 286.771905 
L 336.179835 288.616098 
L 339.459174 286.111149 
L 342.738512 286.651147 
L 346.017851 283.283177 
L 349.29719 285.597545 
L 352.576529 284.072999 
L 355.855868 286.689204 
L 359.135207 285.395355 
L 362.414545 285.570332 
L 365.693884 282.074967 
L 368.973223 285.687444 
L 372.252562 282.805168 
L 375.531901 281.318895 
L 378.81124 279.806355 
L 382.090579 276.782409 
L 385.369917 283.275371 
L 388.649256 272.438402 
L 391.928595 265.081206 
L 395.207934 269.374493 
L 398.487273 273.220801 
" clip-path="url(#pdb91b510de)" style="fill: none; stroke: #ff7f0e; stroke-width: 1.5; stroke-linecap: square"/>
   </g>
   <g id="line2d_16">
    <path d="M 73.832727 298.624896 
L 77.112066 298.7136 
L 80.391405 298.624896 
L 83.670744 298.624896 
L 86.950083 298.558368 
L 90.229421 298.505146 
L 93.50876 298.50071 
L 96.788099 298.3968 
L 100.067438 298.468432 
L 103.346777 298.55689 
L 106.626116 298.582963 
L 109.905455 298.448832 
L 113.184793 297.894794 
L 116.464132 298.108756 
L 119.743471 298.196582 
L 123.02281 297.805862 
L 126.302149 298.333999 
L 129.581488 298.081885 
L 132.860826 298.194448 
L 136.140165 297.94631 
L 139.419504 297.662208 
L 142.698843 297.787292 
L 145.978182 297.992719 
L 149.257521 298.123923 
L 152.53686 297.61453 
L 155.816198 297.740097 
L 159.095537 297.688406 
L 162.374876 297.885219 
L 165.654215 297.560879 
L 168.933554 297.665438 
L 172.212893 297.19561 
L 175.492231 297.685446 
L 178.77157 297.096184 
L 182.050909 297.009062 
L 185.330248 297.114381 
L 188.609587 296.889716 
L 191.888926 297.557526 
L 195.168264 296.683478 
L 198.447603 296.935992 
L 201.726942 296.448669 
L 205.006281 296.60712 
L 208.28562 296.29946 
L 211.564959 296.867168 
L 214.844298 295.922447 
L 218.123636 296.931628 
L 221.402975 296.3778 
L 224.682314 296.398565 
L 227.961653 295.745682 
L 231.240992 296.89944 
L 234.520331 296.442424 
L 237.799669 295.37735 
L 241.079008 295.873142 
L 244.358347 296.584904 
L 247.637686 295.623067 
L 250.917025 295.549041 
L 254.196364 295.803481 
L 257.475702 295.245115 
L 260.755041 295.131928 
L 264.03438 296.598021 
L 267.313719 294.920394 
L 270.593058 295.356702 
L 273.872397 294.535019 
L 277.151736 294.344203 
L 280.431074 294.661451 
L 283.710413 294.696822 
L 286.989752 294.371489 
L 290.269091 294.132374 
L 293.54843 293.253641 
L 296.827769 294.820689 
L 300.107107 292.983614 
L 303.386446 293.105999 
L 306.665785 293.603761 
L 309.945124 293.335804 
L 313.224463 292.531545 
L 316.503802 291.79682 
L 319.78314 292.025258 
L 323.062479 290.877332 
L 326.341818 290.929264 
L 329.621157 291.146322 
L 332.900496 292.879436 
L 336.179835 291.196678 
L 339.459174 290.759395 
L 342.738512 290.588744 
L 346.017851 287.954761 
L 349.29719 287.130536 
L 352.576529 286.251869 
L 355.855868 288.632889 
L 359.135207 287.201925 
L 362.414545 288.560165 
L 365.693884 284.175822 
L 368.973223 287.709223 
L 372.252562 284.081117 
L 375.531901 279.732377 
L 378.81124 280.209638 
L 382.090579 274.241458 
L 385.369917 280.86101 
L 388.649256 270.382723 
L 391.928595 260.50779 
L 395.207934 260.191314 
L 398.487273 258.62476 
" clip-path="url(#pdb91b510de)" style="fill: none; stroke: #2ca02c; stroke-width: 1.5; stroke-linecap: square"/>
   </g>
   <g id="line2d_17">
    <path d="M 73.832727 225.177984 
L 77.112066 240.878592 
L 80.391405 256.845312 
L 83.670744 234.536256 
L 86.950083 261.71664 
L 90.229421 256.557024 
L 93.50876 258.518861 
L 96.788099 264.218304 
L 100.067438 265.574032 
L 103.346777 248.166118 
L 106.626116 258.15168 
L 109.905455 259.59648 
L 113.184793 262.938026 
L 116.464132 265.99742 
L 119.743471 262.245274 
L 123.02281 259.927406 
L 126.302149 257.92574 
L 129.581488 265.161503 
L 132.860826 266.01147 
L 136.140165 259.456378 
L 139.419504 257.829888 
L 142.698843 257.637512 
L 145.978182 253.781971 
L 149.257521 256.241852 
L 152.53686 271.777278 
L 155.816198 259.310449 
L 159.095537 262.538579 
L 162.374876 262.634822 
L 165.654215 264.262843 
L 168.933554 264.60707 
L 172.212893 262.65366 
L 175.492231 259.297591 
L 178.77157 258.632638 
L 182.050909 253.890843 
L 185.330248 261.16021 
L 188.609587 256.351448 
L 191.888926 253.790886 
L 195.168264 264.163563 
L 198.447603 259.579463 
L 201.726942 254.27976 
L 205.006281 258.249284 
L 208.28562 248.582494 
L 211.564959 259.080385 
L 214.844298 263.093053 
L 218.123636 263.487052 
L 221.402975 259.646108 
L 224.682314 254.704903 
L 227.961653 257.78405 
L 231.240992 258.270636 
L 234.520331 256.46186 
L 237.799669 254.776375 
L 241.079008 254.920264 
L 244.358347 254.125063 
L 247.637686 259.737816 
L 250.917025 254.928278 
L 254.196364 267.97002 
L 257.475702 265.881314 
L 260.755041 247.720411 
L 264.03438 269.540046 
L 267.313719 259.063131 
L 270.593058 263.878272 
L 273.872397 259.694509 
L 277.151736 256.764015 
L 280.431074 254.153057 
L 283.710413 264.383964 
L 286.989752 253.111445 
L 290.269091 256.963725 
L 293.54843 256.357716 
L 296.827769 261.734448 
L 300.107107 253.293525 
L 303.386446 258.120586 
L 306.665785 262.629778 
L 309.945124 256.104001 
L 313.224463 258.488353 
L 316.503802 265.016427 
L 319.78314 245.612949 
L 323.062479 258.513024 
L 326.341818 261.656634 
L 329.621157 254.6141 
L 332.900496 265.043265 
L 336.179835 258.947933 
L 339.459174 257.786301 
L 342.738512 259.636417 
L 346.017851 255.615228 
L 349.29719 262.1477 
L 352.576529 253.873944 
L 355.855868 258.32601 
L 359.135207 258.121155 
L 362.414545 266.339905 
L 365.693884 255.515457 
L 368.973223 263.276096 
L 372.252562 262.29077 
L 375.531901 257.481796 
L 378.81124 256.46253 
L 382.090579 252.645044 
L 385.369917 257.449729 
L 388.649256 264.688049 
L 391.928595 259.230661 
L 395.207934 261.880876 
L 398.487273 264.115362 
" clip-path="url(#pdb91b510de)" style="fill: none; stroke: #d62728; stroke-width: 1.5; stroke-linecap: square"/>
   </g>
   <g id="line2d_18">
    <path d="M 73.832727 149.513472 
L 77.112066 179.85024 
L 80.391405 214.134336 
L 83.670744 232.954368 
L 86.950083 263.74944 
L 90.229421 247.455994 
L 93.50876 245.958374 
L 96.788099 264.58896 
L 100.067438 265.379376 
L 103.346777 238.92119 
L 106.626116 252.810893 
L 109.905455 260.560128 
L 113.184793 261.51933 
L 116.464132 262.268928 
L 119.743471 261.445248 
L 123.02281 260.803728 
L 126.302149 254.730439 
L 129.581488 262.416225 
L 132.860826 266.715499 
L 136.140165 259.002298 
L 139.419504 255.126528 
L 142.698843 257.350189 
L 145.978182 254.548328 
L 149.257521 253.606115 
L 152.53686 271.584581 
L 155.816198 259.634074 
L 159.095537 260.774899 
L 162.374876 262.298319 
L 165.654215 264.424177 
L 168.933554 263.138948 
L 172.212893 262.662224 
L 175.492231 258.871852 
L 178.77157 257.261273 
L 182.050909 254.405327 
L 185.330248 260.254603 
L 188.609587 256.125169 
L 191.888926 253.491427 
L 195.168264 263.155637 
L 198.447603 259.631487 
L 201.726942 254.170426 
L 205.006281 257.408237 
L 208.28562 249.131509 
L 211.564959 258.299246 
L 214.844298 263.368061 
L 218.123636 263.113395 
L 221.402975 259.353962 
L 224.682314 254.517734 
L 227.961653 257.687905 
L 231.240992 258.074399 
L 234.520331 256.454422 
L 237.799669 254.523438 
L 241.079008 255.10843 
L 244.358347 253.457011 
L 247.637686 260.092096 
L 250.917025 254.626598 
L 254.196364 268.189658 
L 257.475702 265.897898 
L 260.755041 247.554328 
L 264.03438 269.780053 
L 267.313719 258.840201 
L 270.593058 263.845201 
L 273.872397 259.764706 
L 277.151736 256.70167 
L 280.431074 254.23688 
L 283.710413 264.561163 
L 286.989752 253.056253 
L 290.269091 257.02527 
L 293.54843 256.427632 
L 296.827769 261.8457 
L 300.107107 253.408199 
L 303.386446 258.325908 
L 306.665785 262.728372 
L 309.945124 256.316384 
L 313.224463 258.683842 
L 316.503802 265.125871 
L 319.78314 245.823915 
L 323.062479 258.701651 
L 326.341818 261.756965 
L 329.621157 254.861748 
L 332.900496 265.106498 
L 336.179835 259.208892 
L 339.459174 257.890784 
L 342.738512 259.78281 
L 346.017851 255.770457 
L 349.29719 262.34115 
L 352.576529 254.094875 
L 355.855868 258.486998 
L 359.135207 258.276955 
L 362.414545 266.45811 
L 365.693884 255.743569 
L 368.973223 263.405781 
L 372.252562 262.423327 
L 375.531901 257.677168 
L 378.81124 256.689347 
L 382.090579 252.842468 
L 385.369917 257.663146 
L 388.649256 264.844064 
L 391.928595 259.429527 
L 395.207934 262.074788 
L 398.487273 264.265726 
" clip-path="url(#pdb91b510de)" style="fill: none; stroke: #9467bd; stroke-width: 1.5; stroke-linecap: square"/>
   </g>
   <g id="line2d_19">
    <path d="M 73.832727 1.022976 
L 77.112066 56.462976 
L 80.391405 129.776832 
L 83.670744 169.161408 
L 86.950083 228.423072 
L 90.229421 240.009293 
L 93.50876 248.646106 
L 96.788099 267.243744 
L 100.067438 265.44344 
L 103.346777 221.182362 
L 106.626116 239.456909 
L 109.905455 249.327648 
L 113.184793 257.198991 
L 116.464132 263.613622 
L 119.743471 262.907174 
L 123.02281 262.379702 
L 126.302149 248.558989 
L 129.581488 256.5204 
L 132.860826 261.696721 
L 136.140165 255.179578 
L 139.419504 256.611072 
L 142.698843 258.829231 
L 145.978182 256.086025 
L 149.257521 248.636234 
L 152.53686 268.453026 
L 155.816198 256.420715 
L 159.095537 261.912859 
L 162.374876 263.415322 
L 165.654215 264.791216 
L 168.933554 260.090281 
L 172.212893 259.937466 
L 175.492231 257.745538 
L 178.77157 258.730718 
L 182.050909 255.463918 
L 185.330248 258.415244 
L 188.609587 253.305305 
L 191.888926 252.585934 
L 195.168264 264.122682 
L 198.447603 260.797645 
L 201.726942 253.936635 
L 205.006281 255.389993 
L 208.28562 246.722219 
L 211.564959 258.762728 
L 214.844298 264.354512 
L 218.123636 262.399539 
L 221.402975 257.763654 
L 224.682314 254.198565 
L 227.961653 258.971468 
L 231.240992 257.775339 
L 234.520331 254.978279 
L 237.799669 254.732193 
L 241.079008 256.089544 
L 244.358347 252.232312 
L 247.637686 259.100633 
L 250.917025 255.687304 
L 254.196364 268.342666 
L 257.475702 265.010776 
L 260.755041 247.640254 
L 264.03438 270.413121 
L 267.313719 258.075682 
L 270.593058 263.789734 
L 273.872397 260.473228 
L 277.151736 256.070807 
L 280.431074 254.12446 
L 283.710413 265.187261 
L 286.989752 252.328378 
L 290.269091 257.451381 
L 293.54843 256.484568 
L 296.827769 261.975968 
L 300.107107 253.801699 
L 303.386446 258.181208 
L 306.665785 263.28582 
L 309.945124 255.810967 
L 313.224463 259.542078 
L 316.503802 264.954602 
L 319.78314 246.387112 
L 323.062479 258.727251 
L 326.341818 262.470251 
L 329.621157 254.683762 
L 332.900496 265.533074 
L 336.179835 259.573842 
L 339.459174 258.065186 
L 342.738512 260.119579 
L 346.017851 256.207854 
L 349.29719 262.67446 
L 352.576529 254.360565 
L 355.855868 258.906174 
L 359.135207 258.564938 
L 362.414545 266.771236 
L 365.693884 256.184089 
L 368.973223 263.656677 
L 372.252562 262.725627 
L 375.531901 258.131009 
L 378.81124 257.159403 
L 382.090579 253.195695 
L 385.369917 258.10099 
L 388.649256 265.16976 
L 391.928595 259.805181 
L 395.207934 262.466355 
L 398.487273 264.548745 
" clip-path="url(#pdb91b510de)" style="fill: none; stroke: #8c564b; stroke-width: 1.5; stroke-linecap: square"/>
   </g>
   <g id="line2d_20">
    <path d="M 83.093216 -1 
L 83.670744 24.041664 
L 86.950083 65.08944 
L 90.229421 134.571283 
L 93.50876 152.913792 
L 96.788099 177.585648 
L 100.067438 193.686832 
L 103.346777 191.979034 
L 106.626116 203.053594 
L 109.905455 210.33216 
L 113.184793 221.548512 
L 116.464132 223.816231 
L 119.743471 227.407834 
L 123.02281 227.296901 
L 126.302149 235.841705 
L 129.581488 251.195001 
L 132.860826 248.306151 
L 136.140165 236.428397 
L 139.419504 245.404992 
L 142.698843 246.342127 
L 145.978182 240.485852 
L 149.257521 240.462911 
L 152.53686 253.220578 
L 155.816198 254.634485 
L 159.095537 254.025137 
L 162.374876 254.476057 
L 165.654215 253.215252 
L 168.933554 256.690673 
L 172.212893 255.141909 
L 175.492231 255.012429 
L 178.77157 250.175657 
L 182.050909 256.297394 
L 185.330248 258.619207 
L 188.609587 258.994739 
L 191.888926 255.666201 
L 195.168264 265.789975 
L 198.447603 263.330961 
L 201.726942 257.549023 
L 205.006281 261.606909 
L 208.28562 258.280196 
L 211.564959 261.184076 
L 214.844298 264.206825 
L 218.123636 266.658414 
L 221.402975 262.617891 
L 224.682314 261.097774 
L 227.961653 266.543148 
L 231.240992 266.217201 
L 234.520331 266.334245 
L 237.799669 263.743804 
L 241.079008 265.567618 
L 244.358347 266.321619 
L 247.637686 267.177853 
L 250.917025 266.231603 
L 254.196364 274.76718 
L 257.475702 273.153529 
L 260.755041 260.84514 
L 264.03438 275.218948 
L 267.313719 268.492828 
L 270.593058 270.725627 
L 273.872397 270.775781 
L 277.151736 268.73873 
L 280.431074 267.109661 
L 283.710413 278.23386 
L 286.989752 267.331159 
L 290.269091 270.997807 
L 293.54843 270.096182 
L 296.827769 275.190925 
L 300.107107 269.8991 
L 303.386446 271.693583 
L 306.665785 276.734292 
L 309.945124 271.419095 
L 313.224463 271.703892 
L 316.503802 277.233113 
L 319.78314 268.198659 
L 323.062479 272.840816 
L 326.341818 276.313894 
L 329.621157 272.766976 
L 332.900496 278.684084 
L 336.179835 275.5788 
L 339.459174 273.911452 
L 342.738512 276.889576 
L 346.017851 274.657196 
L 349.29719 278.38034 
L 352.576529 274.785844 
L 355.855868 278.060693 
L 359.135207 275.749302 
L 362.414545 282.59405 
L 365.693884 275.720881 
L 368.973223 280.817102 
L 372.252562 280.313246 
L 375.531901 279.626868 
L 378.81124 278.99112 
L 382.090579 275.860813 
L 385.369917 279.995345 
L 388.649256 285.105963 
L 391.928595 282.553919 
L 395.207934 285.762975 
L 398.487273 286.770734 
" clip-path="url(#pdb91b510de)" style="fill: none; stroke: #e377c2; stroke-width: 1.5; stroke-linecap: square"/>
   </g>
   <g id="line2d_21">
    <path d="M 73.832727 198.123264 
L 77.112066 170.181504 
L 80.391405 238.794048 
L 83.670744 260.260416 
L 86.950083 271.230144 
L 90.229421 275.832403 
L 93.50876 276.910157 
L 96.788099 279.41256 
L 100.067438 283.481152 
L 103.346777 284.396774 
L 106.626116 287.41271 
L 109.905455 287.54832 
L 113.184793 288.004298 
L 116.464132 289.762782 
L 119.743471 290.448499 
L 123.02281 285.856325 
L 126.302149 286.956407 
L 129.581488 287.773181 
L 132.860826 288.039007 
L 136.140165 288.984883 
L 139.419504 288.370944 
L 142.698843 289.049597 
L 145.978182 291.283997 
L 149.257521 291.142782 
L 152.53686 292.620697 
L 155.816198 291.45714 
L 159.095537 291.894811 
L 162.374876 292.426871 
L 165.654215 293.065643 
L 168.933554 293.423932 
L 172.212893 292.685285 
L 175.492231 285.890877 
L 178.77157 284.519996 
L 182.050909 288.20718 
L 185.330248 287.447388 
L 188.609587 285.28963 
L 191.888926 287.502475 
L 195.168264 287.846332 
L 198.447603 289.097914 
L 201.726942 289.417783 
L 205.006281 288.114406 
L 208.28562 288.840263 
L 211.564959 290.060124 
L 214.844298 289.724061 
L 218.123636 290.243202 
L 221.402975 290.762441 
L 224.682314 290.284481 
L 227.961653 289.820605 
L 231.240992 291.512228 
L 234.520331 253.555106 
L 237.799669 250.16078 
L 241.079008 256.349749 
L 244.358347 256.269752 
L 247.637686 260.402868 
L 250.917025 257.32871 
L 254.196364 268.831979 
L 257.475702 267.801724 
L 260.755041 258.500516 
L 264.03438 273.448699 
L 267.313719 266.197218 
L 270.593058 272.241949 
L 273.872397 267.398986 
L 277.151736 267.525989 
L 280.431074 267.433637 
L 283.710413 273.396126 
L 286.989752 250.72952 
L 290.269091 247.424426 
L 293.54843 250.683247 
L 296.827769 252.872432 
L 300.107107 250.107136 
L 303.386446 252.964869 
L 306.665785 260.725256 
L 309.945124 254.713777 
L 313.224463 258.130875 
L 316.503802 265.974578 
L 319.78314 247.719014 
L 323.062479 253.8597 
L 326.341818 250.359245 
L 329.621157 242.233662 
L 332.900496 257.063348 
L 336.179835 252.108366 
L 339.459174 253.986959 
L 342.738512 256.468831 
L 346.017851 251.10697 
L 349.29719 251.526187 
L 352.576529 242.52524 
L 355.855868 249.904327 
L 359.135207 252.928903 
L 362.414545 261.925105 
L 365.693884 243.962314 
L 368.973223 253.199052 
L 372.252562 254.740287 
L 375.531901 250.290112 
L 378.81124 243.781535 
L 382.090579 243.824696 
L 385.369917 247.443942 
L 388.649256 255.984284 
L 391.928595 249.027841 
L 395.207934 252.080718 
L 398.487273 255.911876 
" clip-path="url(#pdb91b510de)" style="fill: none; stroke: #7f7f7f; stroke-width: 1.5; stroke-linecap: square"/>
   </g>
   <g id="line2d_22">
    <path d="M 73.832727 87.952896 
L 77.112066 7.409664 
L 80.391405 126.18432 
L 83.670744 196.55616 
L 86.950083 234.69888 
L 90.229421 242.972006 
L 93.50876 257.306573 
L 96.788099 251.369952 
L 100.067438 263.795024 
L 103.346777 264.892736 
L 106.626116 271.640333 
L 109.905455 271.845696 
L 113.184793 276.309585 
L 116.464132 279.908839 
L 119.743471 280.459162 
L 123.02281 279.502531 
L 126.302149 282.108016 
L 129.581488 284.465196 
L 132.860826 287.863934 
L 136.140165 286.523981 
L 139.419504 285.488448 
L 142.698843 284.380717 
L 145.978182 286.378923 
L 149.257521 282.556508 
L 152.53686 278.884213 
L 155.816198 274.060766 
L 159.095537 275.173903 
L 162.374876 275.233365 
L 165.654215 279.809194 
L 168.933554 279.615044 
L 172.212893 280.67167 
L 175.492231 280.50504 
L 178.77157 280.536838 
L 182.050909 283.193129 
L 185.330248 280.780132 
L 188.609587 279.5639 
L 191.888926 282.206886 
L 195.168264 284.662672 
L 198.447603 284.973014 
L 201.726942 284.707495 
L 205.006281 284.861037 
L 208.28562 284.287092 
L 211.564959 286.62554 
L 214.844298 286.118899 
L 218.123636 288.514752 
L 221.402975 287.844005 
L 224.682314 287.099234 
L 227.961653 287.266284 
L 231.240992 289.534361 
L 234.520331 288.103708 
L 237.799669 288.571174 
L 241.079008 289.422243 
L 244.358347 289.303794 
L 247.637686 277.306092 
L 250.917025 262.771229 
L 254.196364 267.899807 
L 257.475702 265.634789 
L 260.755041 262.502973 
L 264.03438 270.666801 
L 267.313719 264.735496 
L 270.593058 270.879498 
L 273.872397 267.974579 
L 277.151736 269.813922 
L 280.431074 269.042521 
L 283.710413 272.12872 
L 286.989752 271.281852 
L 290.269091 273.808532 
L 293.54843 275.127231 
L 296.827769 272.954118 
L 300.107107 271.427282 
L 303.386446 273.789903 
L 306.665785 276.822097 
L 309.945124 275.383044 
L 313.224463 278.161325 
L 316.503802 280.040198 
L 319.78314 275.837148 
L 323.062479 278.607222 
L 326.341818 279.119169 
L 329.621157 278.887525 
L 332.900496 283.334463 
L 336.179835 281.543134 
L 339.459174 282.836394 
L 342.738512 251.062 
L 346.017851 230.044156 
L 349.29719 236.766481 
L 352.576529 226.545554 
L 355.855868 234.362927 
L 359.135207 235.783576 
L 362.414545 251.150367 
L 365.693884 230.974727 
L 368.973223 249.537912 
L 372.252562 251.617192 
L 375.531901 248.752606 
L 378.81124 249.956262 
L 382.090579 250.796901 
L 385.369917 255.06729 
L 388.649256 230.393596 
L 391.928595 224.122334 
L 395.207934 233.011208 
L 398.487273 238.989983 
" clip-path="url(#pdb91b510de)" style="fill: none; stroke: #bcbd22; stroke-width: 1.5; stroke-linecap: square"/>
   </g>
   <g id="patch_3">
    <path d="M 57.6 307.584 
L 57.6 41.472 
" style="fill: none; stroke: #000000; stroke-width: 0.8; stroke-linejoin: miter; stroke-linecap: square"/>
   </g>
   <g id="patch_4">
    <path d="M 414.72 307.584 
L 414.72 41.472 
" style="fill: none; stroke: #000000; stroke-width: 0.8; stroke-linejoin: miter; stroke-linecap: square"/>
   </g>
   <g id="patch_5">
    <path d="M 57.6 307.584 
L 414.72 307.584 
" style="fill: none; stroke: #000000; stroke-width: 0.8; stroke-linejoin: miter; stroke-linecap: square"/>
   </g>
   <g id="patch_6">
    <path d="M 57.6 41.472 
L 414.72 41.472 
" style="fill: none; stroke: #000000; stroke-width: 0.8; stroke-linejoin: miter; stroke-linecap: square"/>
   </g>
   <g id="text_16">
    <!-- Genormaliseerde omlooptijd in functie van bedieningstijd -->
    <g transform="translate(63.795938 35.472)scale(0.12 -0.12)">
     <defs>
      <path id="DejaVuSans-66" d="M 2375 4863 
L 2375 4384 
L 1825 4384 
Q 1516 4384 1395 4259 
Q 1275 4134 1275 3809 
L 1275 3500 
L 2222 3500 
L 2222 3053 
L 1275 3053 
L 1275 0 
L 697 0 
L 697 3053 
L 147 3053 
L 147 3500 
L 697 3500 
L 697 3744 
Q 697 4328 969 4595 
Q 1241 4863 1831 4863 
L 2375 4863 
z
" transform="scale(0.015625)"/>
      <path id="DejaVuSans-75" d="M 544 1381 
L 544 3500 
L 1119 3500 
L 1119 1403 
Q 1119 906 1312 657 
Q 1506 409 1894 409 
Q 2359 409 2629 706 
Q 2900 1003 2900 1516 
L 2900 3500 
L 3475 3500 
L 3475 0 
L 2900 0 
L 2900 538 
Q 2691 219 2414 64 
Q 2138 -91 1772 -91 
Q 1169 -91 856 284 
Q 544 659 544 1381 
z
M 1991 3584 
L 1991 3584 
z
" transform="scale(0.015625)"/>
      <path id="DejaVuSans-76" d="M 191 3500 
L 800 3500 
L 1894 563 
L 2988 3500 
L 3597 3500 
L 2284 0 
L 1503 0 
L 191 3500 
z
" transform="scale(0.015625)"/>
      <path id="DejaVuSans-62" d="M 3116 1747 
Q 3116 2381 2855 2742 
Q 2594 3103 2138 3103 
Q 1681 3103 1420 2742 
Q 1159 2381 1159 1747 
Q 1159 1113 1420 752 
Q 1681 391 2138 391 
Q 2594 391 2855 752 
Q 3116 1113 3116 1747 
z
M 1159 2969 
Q 1341 3281 1617 3432 
Q 1894 3584 2278 3584 
Q 2916 3584 3314 3078 
Q 3713 2572 3713 1747 
Q 3713 922 3314 415 
Q 2916 -91 2278 -91 
Q 1894 -91 1617 61 
Q 1341 213 1159 525 
L 1159 0 
L 581 0 
L 581 4863 
L 1159 4863 
L 1159 2969 
z
" transform="scale(0.015625)"/>
     </defs>
     <use xlink:href="#DejaVuSans-47"/>
     <use xlink:href="#DejaVuSans-65" x="77.490234"/>
     <use xlink:href="#DejaVuSans-6e" x="139.013672"/>
     <use xlink:href="#DejaVuSans-6f" x="202.392578"/>
     <use xlink:href="#DejaVuSans-72" x="263.574219"/>
     <use xlink:href="#DejaVuSans-6d" x="302.9375"/>
     <use xlink:href="#DejaVuSans-61" x="400.349609"/>
     <use xlink:href="#DejaVuSans-6c" x="461.628906"/>
     <use xlink:href="#DejaVuSans-69" x="489.412109"/>
     <use xlink:href="#DejaVuSans-73" x="517.195312"/>
     <use xlink:href="#DejaVuSans-65" x="569.294922"/>
     <use xlink:href="#DejaVuSans-65" x="630.818359"/>
     <use xlink:href="#DejaVuSans-72" x="692.341797"/>
     <use xlink:href="#DejaVuSans-64" x="731.705078"/>
     <use xlink:href="#DejaVuSans-65" x="795.181641"/>
     <use xlink:href="#DejaVuSans-20" x="856.705078"/>
     <use xlink:href="#DejaVuSans-6f" x="888.492188"/>
     <use xlink:href="#DejaVuSans-6d" x="949.673828"/>
     <use xlink:href="#DejaVuSans-6c" x="1047.085938"/>
     <use xlink:href="#DejaVuSans-6f" x="1074.869141"/>
     <use xlink:href="#DejaVuSans-6f" x="1136.050781"/>
     <use xlink:href="#DejaVuSans-70" x="1197.232422"/>
     <use xlink:href="#DejaVuSans-74" x="1260.708984"/>
     <use xlink:href="#DejaVuSans-69" x="1299.917969"/>
     <use xlink:href="#DejaVuSans-6a" x="1327.701172"/>
     <use xlink:href="#DejaVuSans-64" x="1355.484375"/>
     <use xlink:href="#DejaVuSans-20" x="1418.960938"/>
     <use xlink:href="#DejaVuSans-69" x="1450.748047"/>
     <use xlink:href="#DejaVuSans-6e" x="1478.53125"/>
     <use xlink:href="#DejaVuSans-20" x="1541.910156"/>
     <use xlink:href="#DejaVuSans-66" x="1573.697266"/>
     <use xlink:href="#DejaVuSans-75" x="1608.902344"/>
     <use xlink:href="#DejaVuSans-6e" x="1672.28125"/>
     <use xlink:href="#DejaVuSans-63" x="1735.660156"/>
     <use xlink:href="#DejaVuSans-74" x="1790.640625"/>
     <use xlink:href="#DejaVuSans-69" x="1829.849609"/>
     <use xlink:href="#DejaVuSans-65" x="1857.632812"/>
     <use xlink:href="#DejaVuSans-20" x="1919.15625"/>
     <use xlink:href="#DejaVuSans-76" x="1950.943359"/>
     <use xlink:href="#DejaVuSans-61" x="2010.123047"/>
     <use xlink:href="#DejaVuSans-6e" x="2071.402344"/>
     <use xlink:href="#DejaVuSans-20" x="2134.78125"/>
     <use xlink:href="#DejaVuSans-62" x="2166.568359"/>
     <use xlink:href="#DejaVuSans-65" x="2230.044922"/>
     <use xlink:href="#DejaVuSans-64" x="2291.568359"/>
     <use xlink:href="#DejaVuSans-69" x="2355.044922"/>
     <use xlink:href="#DejaVuSans-65" x="2382.828125"/>
     <use xlink:href="#DejaVuSans-6e" x="2444.351562"/>
     <use xlink:href="#DejaVuSans-69" x="2507.730469"/>
     <use xlink:href="#DejaVuSans-6e" x="2535.513672"/>
     <use xlink:href="#DejaVuSans-67" x="2598.892578"/>
     <use xlink:href="#DejaVuSans-73" x="2662.369141"/>
     <use xlink:href="#DejaVuSans-74" x="2714.46875"/>
     <use xlink:href="#DejaVuSans-69" x="2753.677734"/>
     <use xlink:href="#DejaVuSans-6a" x="2781.460938"/>
     <use xlink:href="#DejaVuSans-64" x="2809.244141"/>
    </g>
   </g>
   <g id="legend_1">
    <g id="patch_7">
     <path d="M 336.1825 181.575125 
L 407.72 181.575125 
Q 409.72 181.575125 409.72 179.575125 
L 409.72 48.472 
Q 409.72 46.472 407.72 46.472 
L 336.1825 46.472 
Q 334.1825 46.472 334.1825 48.472 
L 334.1825 179.575125 
Q 334.1825 181.575125 336.1825 181.575125 
z
" style="fill: #ffffff; opacity: 0.8; stroke: #cccccc; stroke-linejoin: miter"/>
    </g>
    <g id="line2d_23">
     <path d="M 338.1825 54.570438 
L 348.1825 54.570438 
L 358.1825 54.570438 
" style="fill: none; stroke: #1f77b4; stroke-width: 1.5; stroke-linecap: square"/>
    </g>
    <g id="text_17">
     <!-- FCFS -->
     <g transform="translate(366.1825 58.070438)scale(0.1 -0.1)">
      <defs>
       <path id="DejaVuSans-46" d="M 628 4666 
L 3309 4666 
L 3309 4134 
L 1259 4134 
L 1259 2759 
L 3109 2759 
L 3109 2228 
L 1259 2228 
L 1259 0 
L 628 0 
L 628 4666 
z
" transform="scale(0.015625)"/>
       <path id="DejaVuSans-43" d="M 4122 4306 
L 4122 3641 
Q 3803 3938 3442 4084 
Q 3081 4231 2675 4231 
Q 1875 4231 1450 3742 
Q 1025 3253 1025 2328 
Q 1025 1406 1450 917 
Q 1875 428 2675 428 
Q 3081 428 3442 575 
Q 3803 722 4122 1019 
L 4122 359 
Q 3791 134 3420 21 
Q 3050 -91 2638 -91 
Q 1578 -91 968 557 
Q 359 1206 359 2328 
Q 359 3453 968 4101 
Q 1578 4750 2638 4750 
Q 3056 4750 3426 4639 
Q 3797 4528 4122 4306 
z
" transform="scale(0.015625)"/>
       <path id="DejaVuSans-53" d="M 3425 4513 
L 3425 3897 
Q 3066 4069 2747 4153 
Q 2428 4238 2131 4238 
Q 1616 4238 1336 4038 
Q 1056 3838 1056 3469 
Q 1056 3159 1242 3001 
Q 1428 2844 1947 2747 
L 2328 2669 
Q 3034 2534 3370 2195 
Q 3706 1856 3706 1288 
Q 3706 609 3251 259 
Q 2797 -91 1919 -91 
Q 1588 -91 1214 -16 
Q 841 59 441 206 
L 441 856 
Q 825 641 1194 531 
Q 1563 422 1919 422 
Q 2459 422 2753 634 
Q 3047 847 3047 1241 
Q 3047 1584 2836 1778 
Q 2625 1972 2144 2069 
L 1759 2144 
Q 1053 2284 737 2584 
Q 422 2884 422 3419 
Q 422 4038 858 4394 
Q 1294 4750 2059 4750 
Q 2388 4750 2728 4690 
Q 3069 4631 3425 4513 
z
" transform="scale(0.015625)"/>
      </defs>
      <use xlink:href="#DejaVuSans-46"/>
      <use xlink:href="#DejaVuSans-43" x="57.519531"/>
      <use xlink:href="#DejaVuSans-46" x="127.34375"/>
      <use xlink:href="#DejaVuSans-53" x="183.113281"/>
     </g>
    </g>
    <g id="line2d_24">
     <path d="M 338.1825 69.248563 
L 348.1825 69.248563 
L 358.1825 69.248563 
" style="fill: none; stroke: #ff7f0e; stroke-width: 1.5; stroke-linecap: square"/>
    </g>
    <g id="text_18">
     <!-- SJF -->
     <g transform="translate(366.1825 72.748563)scale(0.1 -0.1)">
      <defs>
       <path id="DejaVuSans-4a" d="M 628 4666 
L 1259 4666 
L 1259 325 
Q 1259 -519 939 -900 
Q 619 -1281 -91 -1281 
L -331 -1281 
L -331 -750 
L -134 -750 
Q 284 -750 456 -515 
Q 628 -281 628 325 
L 628 4666 
z
" transform="scale(0.015625)"/>
      </defs>
      <use xlink:href="#DejaVuSans-53"/>
      <use xlink:href="#DejaVuSans-4a" x="63.476562"/>
      <use xlink:href="#DejaVuSans-46" x="92.96875"/>
     </g>
    </g>
    <g id="line2d_25">
     <path d="M 338.1825 83.926688 
L 348.1825 83.926688 
L 358.1825 83.926688 
" style="fill: none; stroke: #2ca02c; stroke-width: 1.5; stroke-linecap: square"/>
    </g>
    <g id="text_19">
     <!-- SRT -->
     <g transform="translate(366.1825 87.426688)scale(0.1 -0.1)">
      <defs>
       <path id="DejaVuSans-52" d="M 2841 2188 
Q 3044 2119 3236 1894 
Q 3428 1669 3622 1275 
L 4263 0 
L 3584 0 
L 2988 1197 
Q 2756 1666 2539 1819 
Q 2322 1972 1947 1972 
L 1259 1972 
L 1259 0 
L 628 0 
L 628 4666 
L 2053 4666 
Q 2853 4666 3247 4331 
Q 3641 3997 3641 3322 
Q 3641 2881 3436 2590 
Q 3231 2300 2841 2188 
z
M 1259 4147 
L 1259 2491 
L 2053 2491 
Q 2509 2491 2742 2702 
Q 2975 2913 2975 3322 
Q 2975 3731 2742 3939 
Q 2509 4147 2053 4147 
L 1259 4147 
z
" transform="scale(0.015625)"/>
       <path id="DejaVuSans-54" d="M -19 4666 
L 3928 4666 
L 3928 4134 
L 2272 4134 
L 2272 0 
L 1638 0 
L 1638 4134 
L -19 4134 
L -19 4666 
z
" transform="scale(0.015625)"/>
      </defs>
      <use xlink:href="#DejaVuSans-53"/>
      <use xlink:href="#DejaVuSans-52" x="63.476562"/>
      <use xlink:href="#DejaVuSans-54" x="125.708984"/>
     </g>
    </g>
    <g id="line2d_26">
     <path d="M 338.1825 98.604813 
L 348.1825 98.604813 
L 358.1825 98.604813 
" style="fill: none; stroke: #d62728; stroke-width: 1.5; stroke-linecap: square"/>
    </g>
    <g id="text_20">
     <!-- RR2 -->
     <g transform="translate(366.1825 102.104813)scale(0.1 -0.1)">
      <use xlink:href="#DejaVuSans-52"/>
      <use xlink:href="#DejaVuSans-52" x="69.482422"/>
      <use xlink:href="#DejaVuSans-32" x="138.964844"/>
     </g>
    </g>
    <g id="line2d_27">
     <path d="M 338.1825 113.282938 
L 348.1825 113.282938 
L 358.1825 113.282938 
" style="fill: none; stroke: #9467bd; stroke-width: 1.5; stroke-linecap: square"/>
    </g>
    <g id="text_21">
     <!-- RR4 -->
     <g transform="translate(366.1825 116.782938)scale(0.1 -0.1)">
      <use xlink:href="#DejaVuSans-52"/>
      <use xlink:href="#DejaVuSans-52" x="69.482422"/>
      <use xlink:href="#DejaVuSans-34" x="138.964844"/>
     </g>
    </g>
    <g id="line2d_28">
     <path d="M 338.1825 127.961063 
L 348.1825 127.961063 
L 358.1825 127.961063 
" style="fill: none; stroke: #8c564b; stroke-width: 1.5; stroke-linecap: square"/>
    </g>
    <g id="text_22">
     <!-- RR8 -->
     <g transform="translate(366.1825 131.461063)scale(0.1 -0.1)">
      <use xlink:href="#DejaVuSans-52"/>
      <use xlink:href="#DejaVuSans-52" x="69.482422"/>
      <use xlink:href="#DejaVuSans-38" x="138.964844"/>
     </g>
    </g>
    <g id="line2d_29">
     <path d="M 338.1825 142.639188 
L 348.1825 142.639188 
L 358.1825 142.639188 
" style="fill: none; stroke: #e377c2; stroke-width: 1.5; stroke-linecap: square"/>
    </g>
    <g id="text_23">
     <!-- HRRN -->
     <g transform="translate(366.1825 146.139188)scale(0.1 -0.1)">
      <defs>
       <path id="DejaVuSans-48" d="M 628 4666 
L 1259 4666 
L 1259 2753 
L 3553 2753 
L 3553 4666 
L 4184 4666 
L 4184 0 
L 3553 0 
L 3553 2222 
L 1259 2222 
L 1259 0 
L 628 0 
L 628 4666 
z
" transform="scale(0.015625)"/>
       <path id="DejaVuSans-4e" d="M 628 4666 
L 1478 4666 
L 3547 763 
L 3547 4666 
L 4159 4666 
L 4159 0 
L 3309 0 
L 1241 3903 
L 1241 0 
L 628 0 
L 628 4666 
z
" transform="scale(0.015625)"/>
      </defs>
      <use xlink:href="#DejaVuSans-48"/>
      <use xlink:href="#DejaVuSans-52" x="75.195312"/>
      <use xlink:href="#DejaVuSans-52" x="144.677734"/>
      <use xlink:href="#DejaVuSans-4e" x="214.160156"/>
     </g>
    </g>
    <g id="line2d_30">
     <path d="M 338.1825 157.317313 
L 348.1825 157.317313 
L 358.1825 157.317313 
" style="fill: none; stroke: #7f7f7f; stroke-width: 1.5; stroke-linecap: square"/>
    </g>
    <g id="text_24">
     <!-- MLFB5 -->
     <g transform="translate(366.1825 160.817313)scale(0.1 -0.1)">
      <defs>
       <path id="DejaVuSans-4d" d="M 628 4666 
L 1569 4666 
L 2759 1491 
L 3956 4666 
L 4897 4666 
L 4897 0 
L 4281 0 
L 4281 4097 
L 3078 897 
L 2444 897 
L 1241 4097 
L 1241 0 
L 628 0 
L 628 4666 
z
" transform="scale(0.015625)"/>
       <path id="DejaVuSans-4c" d="M 628 4666 
L 1259 4666 
L 1259 531 
L 3531 531 
L 3531 0 
L 628 0 
L 628 4666 
z
" transform="scale(0.015625)"/>
      </defs>
      <use xlink:href="#DejaVuSans-4d"/>
      <use xlink:href="#DejaVuSans-4c" x="86.279297"/>
      <use xlink:href="#DejaVuSans-46" x="141.992188"/>
      <use xlink:href="#DejaVuSans-42" x="199.511719"/>
      <use xlink:href="#DejaVuSans-35" x="268.115234"/>
     </g>
    </g>
    <g id="line2d_31">
     <path d="M 338.1825 171.995438 
L 348.1825 171.995438 
L 358.1825 171.995438 
" style="fill: none; stroke: #bcbd22; stroke-width: 1.5; stroke-linecap: square"/>
    </g>
    <g id="text_25">
     <!-- MLFB25 -->
     <g transform="translate(366.1825 175.495438)scale(0.1 -0.1)">
      <use xlink:href="#DejaVuSans-4d"/>
      <use xlink:href="#DejaVuSans-4c" x="86.279297"/>
      <use xlink:href="#DejaVuSans-46" x="141.992188"/>
      <use xlink:href="#DejaVuSans-42" x="199.511719"/>
      <use xlink:href="#DejaVuSans-32" x="268.115234"/>
      <use xlink:href="#DejaVuSans-35" x="331.738281"/>
     </g>
    </g>
   </g>
  </g>
 </g>
 <defs>
  <clipPath id="pdb91b510de">
   <rect x="57.6" y="41.472" width="357.12" height="266.112"/>
  </clipPath>
 </defs>
</svg>
