<?xml version="1.0" encoding="utf-8" standalone="no"?>
<!DOCTYPE svg PUBLIC "-//W3C//DTD SVG 1.1//EN"
  "http://www.w3.org/Graphics/SVG/1.1/DTD/svg11.dtd">
<svg xmlns:xlink="http://www.w3.org/1999/xlink" width="460.8pt" height="345.6pt" viewBox="0 0 460.8 345.6" xmlns="http://www.w3.org/2000/svg" version="1.1">
 <metadata>
  <rdf:RDF xmlns:dc="http://purl.org/dc/elements/1.1/" xmlns:cc="http://creativecommons.org/ns#" xmlns:rdf="http://www.w3.org/1999/02/22-rdf-syntax-ns#">
   <cc:Work>
    <dc:type rdf:resource="http://purl.org/dc/dcmitype/StillImage"/>
    <dc:date>2022-03-29T16:00:05.980437</dc:date>
    <dc:format>image/svg+xml</dc:format>
    <dc:creator>
     <cc:Agent>
      <dc:title>Matplotlib v3.5.1, https://matplotlib.org/</dc:title>
     </cc:Agent>
    </dc:creator>
   </cc:Work>
  </rdf:RDF>
 </metadata>
 <defs>
  <style type="text/css">*{stroke-linejoin: round; stroke-linecap: butt}</style>
 </defs>
 <g id="figure_1">
  <g id="patch_1">
   <path d="M 0 345.6 
L 460.8 345.6 
L 460.8 0 
L 0 0 
z
" style="fill: #ffffff"/>
  </g>
  <g id="axes_1">
   <g id="patch_2">
    <path d="M 57.6 307.584 
L 414.72 307.584 
L 414.72 41.472 
L 57.6 41.472 
z
" style="fill: #ffffff"/>
   </g>
   <g id="matplotlib.axis_1">
    <g id="xtick_1">
     <g id="line2d_1">
      <defs>
       <path id="mc5c8879b09" d="M 0 0 
L 0 3.5 
" style="stroke: #000000; stroke-width: 0.8"/>
      </defs>
      <g>
       <use xlink:href="#mc5c8879b09" x="70.553388" y="307.584" style="stroke: #000000; stroke-width: 0.8"/>
      </g>
     </g>
     <g id="text_1">
      <!-- 0 -->
      <g transform="translate(67.372138 322.182437)scale(0.1 -0.1)">
       <defs>
        <path id="DejaVuSans-30" d="M 2034 4250 
Q 1547 4250 1301 3770 
Q 1056 3291 1056 2328 
Q 1056 1369 1301 889 
Q 1547 409 2034 409 
Q 2525 409 2770 889 
Q 3016 1369 3016 2328 
Q 3016 3291 2770 3770 
Q 2525 4250 2034 4250 
z
M 2034 4750 
Q 2819 4750 3233 4129 
Q 3647 3509 3647 2328 
Q 3647 1150 3233 529 
Q 2819 -91 2034 -91 
Q 1250 -91 836 529 
Q 422 1150 422 2328 
Q 422 3509 836 4129 
Q 1250 4750 2034 4750 
z
" transform="scale(0.015625)"/>
       </defs>
       <use xlink:href="#DejaVuSans-30"/>
      </g>
     </g>
    </g>
    <g id="xtick_2">
     <g id="line2d_2">
      <g>
       <use xlink:href="#mc5c8879b09" x="136.140165" y="307.584" style="stroke: #000000; stroke-width: 0.8"/>
      </g>
     </g>
     <g id="text_2">
      <!-- 20 -->
      <g transform="translate(129.777665 322.182437)scale(0.1 -0.1)">
       <defs>
        <path id="DejaVuSans-32" d="M 1228 531 
L 3431 531 
L 3431 0 
L 469 0 
L 469 531 
Q 828 903 1448 1529 
Q 2069 2156 2228 2338 
Q 2531 2678 2651 2914 
Q 2772 3150 2772 3378 
Q 2772 3750 2511 3984 
Q 2250 4219 1831 4219 
Q 1534 4219 1204 4116 
Q 875 4013 500 3803 
L 500 4441 
Q 881 4594 1212 4672 
Q 1544 4750 1819 4750 
Q 2544 4750 2975 4387 
Q 3406 4025 3406 3419 
Q 3406 3131 3298 2873 
Q 3191 2616 2906 2266 
Q 2828 2175 2409 1742 
Q 1991 1309 1228 531 
z
" transform="scale(0.015625)"/>
       </defs>
       <use xlink:href="#DejaVuSans-32"/>
       <use xlink:href="#DejaVuSans-30" x="63.623047"/>
      </g>
     </g>
    </g>
    <g id="xtick_3">
     <g id="line2d_3">
      <g>
       <use xlink:href="#mc5c8879b09" x="201.726942" y="307.584" style="stroke: #000000; stroke-width: 0.8"/>
      </g>
     </g>
     <g id="text_3">
      <!-- 40 -->
      <g transform="translate(195.364442 322.182437)scale(0.1 -0.1)">
       <defs>
        <path id="DejaVuSans-34" d="M 2419 4116 
L 825 1625 
L 2419 1625 
L 2419 4116 
z
M 2253 4666 
L 3047 4666 
L 3047 1625 
L 3713 1625 
L 3713 1100 
L 3047 1100 
L 3047 0 
L 2419 0 
L 2419 1100 
L 313 1100 
L 313 1709 
L 2253 4666 
z
" transform="scale(0.015625)"/>
       </defs>
       <use xlink:href="#DejaVuSans-34"/>
       <use xlink:href="#DejaVuSans-30" x="63.623047"/>
      </g>
     </g>
    </g>
    <g id="xtick_4">
     <g id="line2d_4">
      <g>
       <use xlink:href="#mc5c8879b09" x="267.313719" y="307.584" style="stroke: #000000; stroke-width: 0.8"/>
      </g>
     </g>
     <g id="text_4">
      <!-- 60 -->
      <g transform="translate(260.951219 322.182437)scale(0.1 -0.1)">
       <defs>
        <path id="DejaVuSans-36" d="M 2113 2584 
Q 1688 2584 1439 2293 
Q 1191 2003 1191 1497 
Q 1191 994 1439 701 
Q 1688 409 2113 409 
Q 2538 409 2786 701 
Q 3034 994 3034 1497 
Q 3034 2003 2786 2293 
Q 2538 2584 2113 2584 
z
M 3366 4563 
L 3366 3988 
Q 3128 4100 2886 4159 
Q 2644 4219 2406 4219 
Q 1781 4219 1451 3797 
Q 1122 3375 1075 2522 
Q 1259 2794 1537 2939 
Q 1816 3084 2150 3084 
Q 2853 3084 3261 2657 
Q 3669 2231 3669 1497 
Q 3669 778 3244 343 
Q 2819 -91 2113 -91 
Q 1303 -91 875 529 
Q 447 1150 447 2328 
Q 447 3434 972 4092 
Q 1497 4750 2381 4750 
Q 2619 4750 2861 4703 
Q 3103 4656 3366 4563 
z
" transform="scale(0.015625)"/>
       </defs>
       <use xlink:href="#DejaVuSans-36"/>
       <use xlink:href="#DejaVuSans-30" x="63.623047"/>
      </g>
     </g>
    </g>
    <g id="xtick_5">
     <g id="line2d_5">
      <g>
       <use xlink:href="#mc5c8879b09" x="332.900496" y="307.584" style="stroke: #000000; stroke-width: 0.8"/>
      </g>
     </g>
     <g id="text_5">
      <!-- 80 -->
      <g transform="translate(326.537996 322.182437)scale(0.1 -0.1)">
       <defs>
        <path id="DejaVuSans-38" d="M 2034 2216 
Q 1584 2216 1326 1975 
Q 1069 1734 1069 1313 
Q 1069 891 1326 650 
Q 1584 409 2034 409 
Q 2484 409 2743 651 
Q 3003 894 3003 1313 
Q 3003 1734 2745 1975 
Q 2488 2216 2034 2216 
z
M 1403 2484 
Q 997 2584 770 2862 
Q 544 3141 544 3541 
Q 544 4100 942 4425 
Q 1341 4750 2034 4750 
Q 2731 4750 3128 4425 
Q 3525 4100 3525 3541 
Q 3525 3141 3298 2862 
Q 3072 2584 2669 2484 
Q 3125 2378 3379 2068 
Q 3634 1759 3634 1313 
Q 3634 634 3220 271 
Q 2806 -91 2034 -91 
Q 1263 -91 848 271 
Q 434 634 434 1313 
Q 434 1759 690 2068 
Q 947 2378 1403 2484 
z
M 1172 3481 
Q 1172 3119 1398 2916 
Q 1625 2713 2034 2713 
Q 2441 2713 2670 2916 
Q 2900 3119 2900 3481 
Q 2900 3844 2670 4047 
Q 2441 4250 2034 4250 
Q 1625 4250 1398 4047 
Q 1172 3844 1172 3481 
z
" transform="scale(0.015625)"/>
       </defs>
       <use xlink:href="#DejaVuSans-38"/>
       <use xlink:href="#DejaVuSans-30" x="63.623047"/>
      </g>
     </g>
    </g>
    <g id="xtick_6">
     <g id="line2d_6">
      <g>
       <use xlink:href="#mc5c8879b09" x="398.487273" y="307.584" style="stroke: #000000; stroke-width: 0.8"/>
      </g>
     </g>
     <g id="text_6">
      <!-- 100 -->
      <g transform="translate(388.943523 322.182437)scale(0.1 -0.1)">
       <defs>
        <path id="DejaVuSans-31" d="M 794 531 
L 1825 531 
L 1825 4091 
L 703 3866 
L 703 4441 
L 1819 4666 
L 2450 4666 
L 2450 531 
L 3481 531 
L 3481 0 
L 794 0 
L 794 531 
z
" transform="scale(0.015625)"/>
       </defs>
       <use xlink:href="#DejaVuSans-31"/>
       <use xlink:href="#DejaVuSans-30" x="63.623047"/>
       <use xlink:href="#DejaVuSans-30" x="127.246094"/>
      </g>
     </g>
    </g>
    <g id="text_7">
     <!-- Bedieningstijd percentiel -->
     <g transform="translate(174.002969 335.860562)scale(0.1 -0.1)">
      <defs>
       <path id="DejaVuSans-42" d="M 1259 2228 
L 1259 519 
L 2272 519 
Q 2781 519 3026 730 
Q 3272 941 3272 1375 
Q 3272 1813 3026 2020 
Q 2781 2228 2272 2228 
L 1259 2228 
z
M 1259 4147 
L 1259 2741 
L 2194 2741 
Q 2656 2741 2882 2914 
Q 3109 3088 3109 3444 
Q 3109 3797 2882 3972 
Q 2656 4147 2194 4147 
L 1259 4147 
z
M 628 4666 
L 2241 4666 
Q 2963 4666 3353 4366 
Q 3744 4066 3744 3513 
Q 3744 3084 3544 2831 
Q 3344 2578 2956 2516 
Q 3422 2416 3680 2098 
Q 3938 1781 3938 1306 
Q 3938 681 3513 340 
Q 3088 0 2303 0 
L 628 0 
L 628 4666 
z
" transform="scale(0.015625)"/>
       <path id="DejaVuSans-65" d="M 3597 1894 
L 3597 1613 
L 953 1613 
Q 991 1019 1311 708 
Q 1631 397 2203 397 
Q 2534 397 2845 478 
Q 3156 559 3463 722 
L 3463 178 
Q 3153 47 2828 -22 
Q 2503 -91 2169 -91 
Q 1331 -91 842 396 
Q 353 884 353 1716 
Q 353 2575 817 3079 
Q 1281 3584 2069 3584 
Q 2775 3584 3186 3129 
Q 3597 2675 3597 1894 
z
M 3022 2063 
Q 3016 2534 2758 2815 
Q 2500 3097 2075 3097 
Q 1594 3097 1305 2825 
Q 1016 2553 972 2059 
L 3022 2063 
z
" transform="scale(0.015625)"/>
       <path id="DejaVuSans-64" d="M 2906 2969 
L 2906 4863 
L 3481 4863 
L 3481 0 
L 2906 0 
L 2906 525 
Q 2725 213 2448 61 
Q 2172 -91 1784 -91 
Q 1150 -91 751 415 
Q 353 922 353 1747 
Q 353 2572 751 3078 
Q 1150 3584 1784 3584 
Q 2172 3584 2448 3432 
Q 2725 3281 2906 2969 
z
M 947 1747 
Q 947 1113 1208 752 
Q 1469 391 1925 391 
Q 2381 391 2643 752 
Q 2906 1113 2906 1747 
Q 2906 2381 2643 2742 
Q 2381 3103 1925 3103 
Q 1469 3103 1208 2742 
Q 947 2381 947 1747 
z
" transform="scale(0.015625)"/>
       <path id="DejaVuSans-69" d="M 603 3500 
L 1178 3500 
L 1178 0 
L 603 0 
L 603 3500 
z
M 603 4863 
L 1178 4863 
L 1178 4134 
L 603 4134 
L 603 4863 
z
" transform="scale(0.015625)"/>
       <path id="DejaVuSans-6e" d="M 3513 2113 
L 3513 0 
L 2938 0 
L 2938 2094 
Q 2938 2591 2744 2837 
Q 2550 3084 2163 3084 
Q 1697 3084 1428 2787 
Q 1159 2491 1159 1978 
L 1159 0 
L 581 0 
L 581 3500 
L 1159 3500 
L 1159 2956 
Q 1366 3272 1645 3428 
Q 1925 3584 2291 3584 
Q 2894 3584 3203 3211 
Q 3513 2838 3513 2113 
z
" transform="scale(0.015625)"/>
       <path id="DejaVuSans-67" d="M 2906 1791 
Q 2906 2416 2648 2759 
Q 2391 3103 1925 3103 
Q 1463 3103 1205 2759 
Q 947 2416 947 1791 
Q 947 1169 1205 825 
Q 1463 481 1925 481 
Q 2391 481 2648 825 
Q 2906 1169 2906 1791 
z
M 3481 434 
Q 3481 -459 3084 -895 
Q 2688 -1331 1869 -1331 
Q 1566 -1331 1297 -1286 
Q 1028 -1241 775 -1147 
L 775 -588 
Q 1028 -725 1275 -790 
Q 1522 -856 1778 -856 
Q 2344 -856 2625 -561 
Q 2906 -266 2906 331 
L 2906 616 
Q 2728 306 2450 153 
Q 2172 0 1784 0 
Q 1141 0 747 490 
Q 353 981 353 1791 
Q 353 2603 747 3093 
Q 1141 3584 1784 3584 
Q 2172 3584 2450 3431 
Q 2728 3278 2906 2969 
L 2906 3500 
L 3481 3500 
L 3481 434 
z
" transform="scale(0.015625)"/>
       <path id="DejaVuSans-73" d="M 2834 3397 
L 2834 2853 
Q 2591 2978 2328 3040 
Q 2066 3103 1784 3103 
Q 1356 3103 1142 2972 
Q 928 2841 928 2578 
Q 928 2378 1081 2264 
Q 1234 2150 1697 2047 
L 1894 2003 
Q 2506 1872 2764 1633 
Q 3022 1394 3022 966 
Q 3022 478 2636 193 
Q 2250 -91 1575 -91 
Q 1294 -91 989 -36 
Q 684 19 347 128 
L 347 722 
Q 666 556 975 473 
Q 1284 391 1588 391 
Q 1994 391 2212 530 
Q 2431 669 2431 922 
Q 2431 1156 2273 1281 
Q 2116 1406 1581 1522 
L 1381 1569 
Q 847 1681 609 1914 
Q 372 2147 372 2553 
Q 372 3047 722 3315 
Q 1072 3584 1716 3584 
Q 2034 3584 2315 3537 
Q 2597 3491 2834 3397 
z
" transform="scale(0.015625)"/>
       <path id="DejaVuSans-74" d="M 1172 4494 
L 1172 3500 
L 2356 3500 
L 2356 3053 
L 1172 3053 
L 1172 1153 
Q 1172 725 1289 603 
Q 1406 481 1766 481 
L 2356 481 
L 2356 0 
L 1766 0 
Q 1100 0 847 248 
Q 594 497 594 1153 
L 594 3053 
L 172 3053 
L 172 3500 
L 594 3500 
L 594 4494 
L 1172 4494 
z
" transform="scale(0.015625)"/>
       <path id="DejaVuSans-6a" d="M 603 3500 
L 1178 3500 
L 1178 -63 
Q 1178 -731 923 -1031 
Q 669 -1331 103 -1331 
L -116 -1331 
L -116 -844 
L 38 -844 
Q 366 -844 484 -692 
Q 603 -541 603 -63 
L 603 3500 
z
M 603 4863 
L 1178 4863 
L 1178 4134 
L 603 4134 
L 603 4863 
z
" transform="scale(0.015625)"/>
       <path id="DejaVuSans-20" transform="scale(0.015625)"/>
       <path id="DejaVuSans-70" d="M 1159 525 
L 1159 -1331 
L 581 -1331 
L 581 3500 
L 1159 3500 
L 1159 2969 
Q 1341 3281 1617 3432 
Q 1894 3584 2278 3584 
Q 2916 3584 3314 3078 
Q 3713 2572 3713 1747 
Q 3713 922 3314 415 
Q 2916 -91 2278 -91 
Q 1894 -91 1617 61 
Q 1341 213 1159 525 
z
M 3116 1747 
Q 3116 2381 2855 2742 
Q 2594 3103 2138 3103 
Q 1681 3103 1420 2742 
Q 1159 2381 1159 1747 
Q 1159 1113 1420 752 
Q 1681 391 2138 391 
Q 2594 391 2855 752 
Q 3116 1113 3116 1747 
z
" transform="scale(0.015625)"/>
       <path id="DejaVuSans-72" d="M 2631 2963 
Q 2534 3019 2420 3045 
Q 2306 3072 2169 3072 
Q 1681 3072 1420 2755 
Q 1159 2438 1159 1844 
L 1159 0 
L 581 0 
L 581 3500 
L 1159 3500 
L 1159 2956 
Q 1341 3275 1631 3429 
Q 1922 3584 2338 3584 
Q 2397 3584 2469 3576 
Q 2541 3569 2628 3553 
L 2631 2963 
z
" transform="scale(0.015625)"/>
       <path id="DejaVuSans-63" d="M 3122 3366 
L 3122 2828 
Q 2878 2963 2633 3030 
Q 2388 3097 2138 3097 
Q 1578 3097 1268 2742 
Q 959 2388 959 1747 
Q 959 1106 1268 751 
Q 1578 397 2138 397 
Q 2388 397 2633 464 
Q 2878 531 3122 666 
L 3122 134 
Q 2881 22 2623 -34 
Q 2366 -91 2075 -91 
Q 1284 -91 818 406 
Q 353 903 353 1747 
Q 353 2603 823 3093 
Q 1294 3584 2113 3584 
Q 2378 3584 2631 3529 
Q 2884 3475 3122 3366 
z
" transform="scale(0.015625)"/>
       <path id="DejaVuSans-6c" d="M 603 4863 
L 1178 4863 
L 1178 0 
L 603 0 
L 603 4863 
z
" transform="scale(0.015625)"/>
      </defs>
      <use xlink:href="#DejaVuSans-42"/>
      <use xlink:href="#DejaVuSans-65" x="68.603516"/>
      <use xlink:href="#DejaVuSans-64" x="130.126953"/>
      <use xlink:href="#DejaVuSans-69" x="193.603516"/>
      <use xlink:href="#DejaVuSans-65" x="221.386719"/>
      <use xlink:href="#DejaVuSans-6e" x="282.910156"/>
      <use xlink:href="#DejaVuSans-69" x="346.289062"/>
      <use xlink:href="#DejaVuSans-6e" x="374.072266"/>
      <use xlink:href="#DejaVuSans-67" x="437.451172"/>
      <use xlink:href="#DejaVuSans-73" x="500.927734"/>
      <use xlink:href="#DejaVuSans-74" x="553.027344"/>
      <use xlink:href="#DejaVuSans-69" x="592.236328"/>
      <use xlink:href="#DejaVuSans-6a" x="620.019531"/>
      <use xlink:href="#DejaVuSans-64" x="647.802734"/>
      <use xlink:href="#DejaVuSans-20" x="711.279297"/>
      <use xlink:href="#DejaVuSans-70" x="743.066406"/>
      <use xlink:href="#DejaVuSans-65" x="806.542969"/>
      <use xlink:href="#DejaVuSans-72" x="868.066406"/>
      <use xlink:href="#DejaVuSans-63" x="906.929688"/>
      <use xlink:href="#DejaVuSans-65" x="961.910156"/>
      <use xlink:href="#DejaVuSans-6e" x="1023.433594"/>
      <use xlink:href="#DejaVuSans-74" x="1086.8125"/>
      <use xlink:href="#DejaVuSans-69" x="1126.021484"/>
      <use xlink:href="#DejaVuSans-65" x="1153.804688"/>
      <use xlink:href="#DejaVuSans-6c" x="1215.328125"/>
     </g>
    </g>
   </g>
   <g id="matplotlib.axis_2">
    <g id="ytick_1">
     <g id="line2d_7">
      <defs>
       <path id="m20afac2798" d="M 0 0 
L -3.5 0 
" style="stroke: #000000; stroke-width: 0.8"/>
      </defs>
      <g>
       <use xlink:href="#m20afac2798" x="57.6" y="307.584" style="stroke: #000000; stroke-width: 0.8"/>
      </g>
     </g>
     <g id="text_8">
      <!-- 0 -->
      <g transform="translate(44.2375 311.383219)scale(0.1 -0.1)">
       <use xlink:href="#DejaVuSans-30"/>
      </g>
     </g>
    </g>
    <g id="ytick_2">
     <g id="line2d_8">
      <g>
       <use xlink:href="#m20afac2798" x="57.6" y="274.32" style="stroke: #000000; stroke-width: 0.8"/>
      </g>
     </g>
     <g id="text_9">
      <!-- 250 -->
      <g transform="translate(31.5125 278.119219)scale(0.1 -0.1)">
       <defs>
        <path id="DejaVuSans-35" d="M 691 4666 
L 3169 4666 
L 3169 4134 
L 1269 4134 
L 1269 2991 
Q 1406 3038 1543 3061 
Q 1681 3084 1819 3084 
Q 2600 3084 3056 2656 
Q 3513 2228 3513 1497 
Q 3513 744 3044 326 
Q 2575 -91 1722 -91 
Q 1428 -91 1123 -41 
Q 819 9 494 109 
L 494 744 
Q 775 591 1075 516 
Q 1375 441 1709 441 
Q 2250 441 2565 725 
Q 2881 1009 2881 1497 
Q 2881 1984 2565 2268 
Q 2250 2553 1709 2553 
Q 1456 2553 1204 2497 
Q 953 2441 691 2322 
L 691 4666 
z
" transform="scale(0.015625)"/>
       </defs>
       <use xlink:href="#DejaVuSans-32"/>
       <use xlink:href="#DejaVuSans-35" x="63.623047"/>
       <use xlink:href="#DejaVuSans-30" x="127.246094"/>
      </g>
     </g>
    </g>
    <g id="ytick_3">
     <g id="line2d_9">
      <g>
       <use xlink:href="#m20afac2798" x="57.6" y="241.056" style="stroke: #000000; stroke-width: 0.8"/>
      </g>
     </g>
     <g id="text_10">
      <!-- 500 -->
      <g transform="translate(31.5125 244.855219)scale(0.1 -0.1)">
       <use xlink:href="#DejaVuSans-35"/>
       <use xlink:href="#DejaVuSans-30" x="63.623047"/>
       <use xlink:href="#DejaVuSans-30" x="127.246094"/>
      </g>
     </g>
    </g>
    <g id="ytick_4">
     <g id="line2d_10">
      <g>
       <use xlink:href="#m20afac2798" x="57.6" y="207.792" style="stroke: #000000; stroke-width: 0.8"/>
      </g>
     </g>
     <g id="text_11">
      <!-- 750 -->
      <g transform="translate(31.5125 211.591219)scale(0.1 -0.1)">
       <defs>
        <path id="DejaVuSans-37" d="M 525 4666 
L 3525 4666 
L 3525 4397 
L 1831 0 
L 1172 0 
L 2766 4134 
L 525 4134 
L 525 4666 
z
" transform="scale(0.015625)"/>
       </defs>
       <use xlink:href="#DejaVuSans-37"/>
       <use xlink:href="#DejaVuSans-35" x="63.623047"/>
       <use xlink:href="#DejaVuSans-30" x="127.246094"/>
      </g>
     </g>
    </g>
    <g id="ytick_5">
     <g id="line2d_11">
      <g>
       <use xlink:href="#m20afac2798" x="57.6" y="174.528" style="stroke: #000000; stroke-width: 0.8"/>
      </g>
     </g>
     <g id="text_12">
      <!-- 1000 -->
      <g transform="translate(25.15 178.327219)scale(0.1 -0.1)">
       <use xlink:href="#DejaVuSans-31"/>
       <use xlink:href="#DejaVuSans-30" x="63.623047"/>
       <use xlink:href="#DejaVuSans-30" x="127.246094"/>
       <use xlink:href="#DejaVuSans-30" x="190.869141"/>
      </g>
     </g>
    </g>
    <g id="ytick_6">
     <g id="line2d_12">
      <g>
       <use xlink:href="#m20afac2798" x="57.6" y="141.264" style="stroke: #000000; stroke-width: 0.8"/>
      </g>
     </g>
     <g id="text_13">
      <!-- 1250 -->
      <g transform="translate(25.15 145.063219)scale(0.1 -0.1)">
       <use xlink:href="#DejaVuSans-31"/>
       <use xlink:href="#DejaVuSans-32" x="63.623047"/>
       <use xlink:href="#DejaVuSans-35" x="127.246094"/>
       <use xlink:href="#DejaVuSans-30" x="190.869141"/>
      </g>
     </g>
    </g>
    <g id="ytick_7">
     <g id="line2d_13">
      <g>
       <use xlink:href="#m20afac2798" x="57.6" y="108" style="stroke: #000000; stroke-width: 0.8"/>
      </g>
     </g>
     <g id="text_14">
      <!-- 1500 -->
      <g transform="translate(25.15 111.799219)scale(0.1 -0.1)">
       <use xlink:href="#DejaVuSans-31"/>
       <use xlink:href="#DejaVuSans-35" x="63.623047"/>
       <use xlink:href="#DejaVuSans-30" x="127.246094"/>
       <use xlink:href="#DejaVuSans-30" x="190.869141"/>
      </g>
     </g>
    </g>
    <g id="ytick_8">
     <g id="line2d_14">
      <g>
       <use xlink:href="#m20afac2798" x="57.6" y="74.736" style="stroke: #000000; stroke-width: 0.8"/>
      </g>
     </g>
     <g id="text_15">
      <!-- 1750 -->
      <g transform="translate(25.15 78.535219)scale(0.1 -0.1)">
       <use xlink:href="#DejaVuSans-31"/>
       <use xlink:href="#DejaVuSans-37" x="63.623047"/>
       <use xlink:href="#DejaVuSans-35" x="127.246094"/>
       <use xlink:href="#DejaVuSans-30" x="190.869141"/>
      </g>
     </g>
    </g>
    <g id="ytick_9">
     <g id="line2d_15">
      <g>
       <use xlink:href="#m20afac2798" x="57.6" y="41.472" style="stroke: #000000; stroke-width: 0.8"/>
      </g>
     </g>
     <g id="text_16">
      <!-- 2000 -->
      <g transform="translate(25.15 45.271219)scale(0.1 -0.1)">
       <use xlink:href="#DejaVuSans-32"/>
       <use xlink:href="#DejaVuSans-30" x="63.623047"/>
       <use xlink:href="#DejaVuSans-30" x="127.246094"/>
       <use xlink:href="#DejaVuSans-30" x="190.869141"/>
      </g>
     </g>
    </g>
    <g id="text_17">
     <!-- Wachttijd -->
     <g transform="translate(19.070312 198.007688)rotate(-90)scale(0.1 -0.1)">
      <defs>
       <path id="DejaVuSans-57" d="M 213 4666 
L 850 4666 
L 1831 722 
L 2809 4666 
L 3519 4666 
L 4500 722 
L 5478 4666 
L 6119 4666 
L 4947 0 
L 4153 0 
L 3169 4050 
L 2175 0 
L 1381 0 
L 213 4666 
z
" transform="scale(0.015625)"/>
       <path id="DejaVuSans-61" d="M 2194 1759 
Q 1497 1759 1228 1600 
Q 959 1441 959 1056 
Q 959 750 1161 570 
Q 1363 391 1709 391 
Q 2188 391 2477 730 
Q 2766 1069 2766 1631 
L 2766 1759 
L 2194 1759 
z
M 3341 1997 
L 3341 0 
L 2766 0 
L 2766 531 
Q 2569 213 2275 61 
Q 1981 -91 1556 -91 
Q 1019 -91 701 211 
Q 384 513 384 1019 
Q 384 1609 779 1909 
Q 1175 2209 1959 2209 
L 2766 2209 
L 2766 2266 
Q 2766 2663 2505 2880 
Q 2244 3097 1772 3097 
Q 1472 3097 1187 3025 
Q 903 2953 641 2809 
L 641 3341 
Q 956 3463 1253 3523 
Q 1550 3584 1831 3584 
Q 2591 3584 2966 3190 
Q 3341 2797 3341 1997 
z
" transform="scale(0.015625)"/>
       <path id="DejaVuSans-68" d="M 3513 2113 
L 3513 0 
L 2938 0 
L 2938 2094 
Q 2938 2591 2744 2837 
Q 2550 3084 2163 3084 
Q 1697 3084 1428 2787 
Q 1159 2491 1159 1978 
L 1159 0 
L 581 0 
L 581 4863 
L 1159 4863 
L 1159 2956 
Q 1366 3272 1645 3428 
Q 1925 3584 2291 3584 
Q 2894 3584 3203 3211 
Q 3513 2838 3513 2113 
z
" transform="scale(0.015625)"/>
      </defs>
      <use xlink:href="#DejaVuSans-57"/>
      <use xlink:href="#DejaVuSans-61" x="92.501953"/>
      <use xlink:href="#DejaVuSans-63" x="153.78125"/>
      <use xlink:href="#DejaVuSans-68" x="208.761719"/>
      <use xlink:href="#DejaVuSans-74" x="272.140625"/>
      <use xlink:href="#DejaVuSans-74" x="311.349609"/>
      <use xlink:href="#DejaVuSans-69" x="350.558594"/>
      <use xlink:href="#DejaVuSans-6a" x="378.341797"/>
      <use xlink:href="#DejaVuSans-64" x="406.125"/>
     </g>
    </g>
   </g>
   <g id="line2d_16">
    <path d="M 73.832727 247.940317 
L 77.112066 252.764928 
L 80.391405 239.13201 
L 83.670744 228.852104 
L 86.950083 247.690172 
L 90.229421 246.911795 
L 93.50876 247.381482 
L 96.788099 255.540476 
L 100.067438 253.813409 
L 103.346777 242.628722 
L 106.626116 244.176163 
L 109.905455 250.900813 
L 113.184793 256.849747 
L 116.464132 256.743302 
L 119.743471 250.983308 
L 123.02281 251.979898 
L 126.302149 249.274869 
L 129.581488 260.504796 
L 132.860826 262.648328 
L 136.140165 248.292916 
L 139.419504 248.362105 
L 142.698843 252.051748 
L 145.978182 244.471548 
L 149.257521 244.742982 
L 152.53686 265.926828 
L 155.816198 248.439277 
L 159.095537 257.624133 
L 162.374876 261.079597 
L 165.654215 255.334239 
L 168.933554 259.866127 
L 172.212893 252.10497 
L 175.492231 248.73067 
L 178.77157 250.409837 
L 182.050909 235.736421 
L 185.330248 250.733163 
L 188.609587 244.687098 
L 191.888926 242.972006 
L 195.168264 256.66613 
L 198.447603 248.693414 
L 201.726942 240.662154 
L 205.006281 252.379066 
L 208.28562 233.608856 
L 211.564959 245.658407 
L 214.844298 254.151372 
L 218.123636 254.188627 
L 221.402975 248.077365 
L 224.682314 243.920696 
L 227.961653 246.673624 
L 231.240992 247.341565 
L 234.520331 244.909302 
L 237.799669 244.957202 
L 241.079008 246.894497 
L 244.358347 235.052513 
L 247.637686 251.995864 
L 250.917025 241.368682 
L 254.196364 262.593775 
L 257.475702 264.481839 
L 260.755041 227.67855 
L 264.03438 263.53315 
L 267.313719 246.797366 
L 270.593058 252.719689 
L 273.872397 251.10572 
L 277.151736 245.940486 
L 280.431074 238.143404 
L 283.710413 259.721096 
L 286.989752 237.96777 
L 290.269091 246.052253 
L 293.54843 242.7192 
L 296.827769 255.706796 
L 300.107107 239.940991 
L 303.386446 246.773416 
L 306.665785 255.211828 
L 309.945124 244.681776 
L 313.224463 244.801526 
L 316.503802 259.20883 
L 319.78314 226.869569 
L 323.062479 249.708632 
L 326.341818 253.93449 
L 329.621157 244.939905 
L 332.900496 255.499229 
L 336.179835 251.051167 
L 339.459174 246.090839 
L 342.738512 252.123598 
L 346.017851 240.479868 
L 349.29719 256.797855 
L 352.576529 245.018408 
L 355.855868 248.197116 
L 359.135207 244.283939 
L 362.414545 260.576646 
L 365.693884 240.396042 
L 368.973223 254.767421 
L 372.252562 250.711874 
L 375.531901 248.523103 
L 378.81124 243.701153 
L 382.090579 232.541747 
L 385.369917 239.394131 
L 388.649256 261.159431 
L 391.928595 253.498067 
L 395.207934 254.232536 
L 398.487273 254.723512 
" clip-path="url(#p2936ecb83c)" style="fill: none; stroke: #1f77b4; stroke-width: 1.5; stroke-linecap: square"/>
   </g>
   <g id="line2d_17">
    <path d="M 73.832727 298.72247 
L 77.112066 295.074075 
L 80.391405 295.712744 
L 83.670744 296.676069 
L 86.950083 297.302763 
L 90.229421 297.167046 
L 93.50876 297.598147 
L 96.788099 297.003387 
L 100.067438 296.879645 
L 103.346777 295.301601 
L 106.626116 297.309416 
L 109.905455 296.771869 
L 113.184793 296.386007 
L 116.464132 297.877565 
L 119.743471 297.53428 
L 123.02281 296.340768 
L 126.302149 295.956236 
L 129.581488 299.158894 
L 132.860826 298.773032 
L 136.140165 296.648127 
L 139.419504 296.282223 
L 142.698843 296.550996 
L 145.978182 294.917069 
L 149.257521 294.701518 
L 152.53686 294.447381 
L 155.816198 297.640725 
L 159.095537 295.354823 
L 162.374876 295.757983 
L 165.654215 296.207712 
L 168.933554 296.596236 
L 172.212893 296.338107 
L 175.492231 296.789167 
L 178.77157 293.963057 
L 182.050909 296.073325 
L 185.330248 294.440728 
L 188.609587 295.722058 
L 191.888926 295.904344 
L 195.168264 298.299352 
L 198.447603 296.187754 
L 201.726942 295.936278 
L 205.006281 294.726799 
L 208.28562 295.569043 
L 211.564959 293.573203 
L 214.844298 295.345509 
L 218.123636 291.967217 
L 221.402975 295.450623 
L 224.682314 292.233329 
L 227.961653 294.525884 
L 231.240992 295.868419 
L 234.520331 295.20447 
L 237.799669 294.549834 
L 241.079008 293.048963 
L 244.358347 293.58917 
L 247.637686 290.249464 
L 250.917025 292.75757 
L 254.196364 294.63499 
L 257.475702 292.785512 
L 260.755041 289.02801 
L 264.03438 291.339193 
L 267.313719 288.81246 
L 270.593058 289.64539 
L 273.872397 292.144182 
L 277.151736 287.468594 
L 280.431074 289.727885 
L 283.710413 293.344347 
L 286.989752 290.335951 
L 290.269091 287.334207 
L 293.54843 285.774791 
L 296.827769 287.475247 
L 300.107107 284.698368 
L 303.386446 287.426016 
L 306.665785 286.828595 
L 309.945124 281.322737 
L 313.224463 280.999411 
L 316.503802 283.592673 
L 319.78314 279.28565 
L 323.062479 281.000742 
L 326.341818 279.040827 
L 329.621157 286.313668 
L 332.900496 279.091388 
L 336.179835 282.691884 
L 339.459174 275.400415 
L 342.738512 275.693138 
L 346.017851 265.116516 
L 349.29719 270.309692 
L 352.576529 264.455228 
L 355.855868 270.726157 
L 359.135207 265.212317 
L 362.414545 264.31685 
L 365.693884 250.699899 
L 368.973223 261.20334 
L 372.252562 248.489839 
L 375.531901 239.730762 
L 378.81124 229.647779 
L 382.090579 212.528794 
L 385.369917 235.953302 
L 388.649256 176.651574 
L 391.928595 123.079236 
L 395.207934 125.386428 
L 398.487273 96.763421 
" clip-path="url(#p2936ecb83c)" style="fill: none; stroke: #ff7f0e; stroke-width: 1.5; stroke-linecap: square"/>
   </g>
   <g id="line2d_18">
    <path d="M 73.832727 307.582669 
L 77.112066 307.584 
L 80.391405 307.581339 
L 83.670744 307.580008 
L 86.950083 307.574686 
L 90.229421 307.569364 
L 93.50876 307.565372 
L 96.788099 307.550736 
L 100.067438 307.553397 
L 103.346777 307.562711 
L 106.626116 307.564042 
L 109.905455 307.53743 
L 113.184793 307.434977 
L 116.464132 307.461588 
L 119.743471 307.472233 
L 123.02281 307.368449 
L 126.302149 307.4882 
L 129.581488 307.412358 
L 132.860826 307.434977 
L 136.140165 307.348491 
L 139.419504 307.244707 
L 142.698843 307.268657 
L 145.978182 307.327202 
L 149.257521 307.357805 
L 152.53686 307.144915 
L 155.816198 307.174188 
L 159.095537 307.128948 
L 162.374876 307.20479 
L 165.654215 307.031818 
L 168.933554 307.057098 
L 172.212893 306.788325 
L 175.492231 307.026495 
L 178.77157 306.667244 
L 182.050909 306.571444 
L 185.330248 306.598055 
L 188.609587 306.421091 
L 191.888926 306.816267 
L 195.168264 306.204209 
L 198.447603 306.334604 
L 201.726942 305.942089 
L 205.006281 306.008617 
L 208.28562 305.718555 
L 211.564959 306.10974 
L 214.844298 305.280801 
L 218.123636 306.071153 
L 221.402975 305.546913 
L 224.682314 305.485707 
L 227.961653 304.808452 
L 231.240992 305.828991 
L 234.520331 305.316726 
L 237.799669 304.144502 
L 241.079008 304.551654 
L 244.358347 305.248867 
L 247.637686 304.088619 
L 250.917025 303.887704 
L 254.196364 304.093941 
L 257.475702 303.292944 
L 260.755041 303.037476 
L 264.03438 304.819096 
L 267.313719 302.47465 
L 270.593058 302.943007 
L 273.872397 301.640388 
L 277.151736 301.184006 
L 280.431074 301.480721 
L 283.710413 301.376938 
L 286.989752 300.671741 
L 290.269091 300.088956 
L 293.54843 298.383178 
L 296.827769 300.794152 
L 300.107107 297.273491 
L 303.386446 297.172368 
L 306.665785 297.834987 
L 309.945124 297.018023 
L 313.224463 295.151247 
L 316.503802 293.3031 
L 319.78314 293.404222 
L 323.062479 290.442396 
L 326.341818 290.033914 
L 329.621157 290.028591 
L 332.900496 293.665012 
L 336.179835 289.032002 
L 339.459174 287.247721 
L 342.738512 286.098117 
L 346.017851 277.989684 
L 349.29719 274.615384 
L 352.576529 270.824619 
L 355.855868 276.649811 
L 359.135207 270.982956 
L 362.414545 274.216216 
L 365.693884 257.883592 
L 368.973223 268.351108 
L 372.252562 253.204013 
L 375.531901 233.517047 
L 378.81124 231.322954 
L 382.090579 201.529054 
L 385.369917 224.68612 
L 388.649256 166.032374 
L 391.928595 99.025373 
L 395.207934 67.230311 
L 397.42188 -1 
" clip-path="url(#p2936ecb83c)" style="fill: none; stroke: #2ca02c; stroke-width: 1.5; stroke-linecap: square"/>
   </g>
   <g id="line2d_19">
    <path d="M 73.832727 306.480966 
L 77.112066 306.716475 
L 80.391405 306.451693 
L 83.670744 304.761882 
L 86.950083 305.437807 
L 90.229421 304.591571 
L 93.50876 304.014108 
L 96.788099 303.955563 
L 100.067438 303.512486 
L 103.346777 300.722302 
L 106.626116 301.364963 
L 109.905455 300.993736 
L 113.184793 300.889953 
L 116.464132 300.869994 
L 119.743471 299.544756 
L 123.02281 298.448375 
L 126.302149 297.250871 
L 129.581488 298.501597 
L 132.860826 298.19823 
L 136.140165 295.60896 
L 139.419504 294.432745 
L 142.698843 293.577195 
L 145.978182 291.56938 
L 149.257521 291.434993 
L 152.53686 296.822431 
L 155.816198 291.019859 
L 159.095537 291.602644 
L 162.374876 291.017197 
L 165.654215 290.994578 
L 168.933554 290.454371 
L 172.212893 288.708676 
L 175.492231 286.048886 
L 178.77157 284.874002 
L 182.050909 281.012717 
L 185.330248 284.476164 
L 188.609587 280.531054 
L 191.888926 277.667689 
L 195.168264 284.03708 
L 198.447603 280.126564 
L 201.726942 275.359167 
L 205.006281 277.283157 
L 208.28562 268.694392 
L 211.564959 275.927316 
L 214.844298 278.065526 
L 218.123636 277.649061 
L 221.402975 273.365988 
L 224.682314 267.729736 
L 227.961653 269.233269 
L 231.240992 268.465536 
L 234.520331 265.326745 
L 237.799669 262.294399 
L 241.079008 260.965169 
L 244.358347 258.56617 
L 247.637686 263.589034 
L 250.917025 256.461224 
L 254.196364 270.651646 
L 257.475702 266.960673 
L 260.755041 242.715208 
L 264.03438 269.438175 
L 267.313719 254.164677 
L 270.593058 259.363175 
L 273.872397 252.050417 
L 277.151736 246.042939 
L 280.431074 240.53309 
L 283.710413 254.486673 
L 286.989752 234.946068 
L 290.269091 239.201199 
L 293.54843 236.226067 
L 296.827769 243.103732 
L 300.107107 225.842377 
L 303.386446 232.304907 
L 306.665785 238.657 
L 309.945124 223.959635 
L 313.224463 226.446451 
L 316.503802 237.879953 
L 319.78314 194.974716 
L 323.062479 219.81494 
L 326.341818 224.098013 
L 329.621157 205.129549 
L 332.900496 227.22882 
L 336.179835 209.251624 
L 339.459174 203.124396 
L 342.738512 204.071754 
L 346.017851 189.09231 
L 349.29719 203.571464 
L 352.576529 175.470036 
L 355.855868 183.727492 
L 359.135207 178.571572 
L 362.414545 201.038077 
L 365.693884 159.708223 
L 368.973223 181.456226 
L 372.252562 171.952036 
L 375.531901 146.874972 
L 378.81124 133.715733 
L 382.090579 107.111186 
L 385.369917 116.661946 
L 388.649256 137.9855 
L 391.928595 91.05931 
L 395.207934 80.631711 
L 398.487273 14.413732 
" clip-path="url(#p2936ecb83c)" style="fill: none; stroke: #d62728; stroke-width: 1.5; stroke-linecap: square"/>
   </g>
   <g id="line2d_20">
    <path d="M 73.832727 305.345998 
L 77.112066 305.80105 
L 80.391405 305.292776 
L 83.670744 304.755229 
L 86.950083 305.556227 
L 90.229421 303.90101 
L 93.50876 302.896437 
L 96.788099 304.004794 
L 100.067438 303.47257 
L 103.346777 299.467584 
L 106.626116 300.569288 
L 109.905455 301.156065 
L 113.184793 300.605213 
L 116.464132 300.103592 
L 119.743471 299.383759 
L 123.02281 298.655942 
L 126.302149 296.433907 
L 129.581488 297.764467 
L 132.860826 298.400475 
L 136.140165 295.458607 
L 139.419504 293.562559 
L 142.698843 293.489378 
L 145.978182 291.842145 
L 149.257521 290.433082 
L 152.53686 296.751911 
L 155.816198 291.151584 
L 159.095537 290.822936 
L 162.374876 290.870836 
L 165.654215 291.067759 
L 168.933554 289.71591 
L 172.212893 288.71932 
L 175.492231 285.809386 
L 178.77157 284.099616 
L 182.050909 281.318746 
L 185.330248 283.914668 
L 188.609587 280.394006 
L 191.888926 277.460122 
L 195.168264 283.350511 
L 198.447603 280.167811 
L 201.726942 275.274012 
L 205.006281 276.657794 
L 208.28562 269.120172 
L 211.564959 275.300623 
L 214.844298 278.295713 
L 218.123636 277.327066 
L 221.402975 273.115843 
L 224.682314 267.552772 
L 227.961653 269.148113 
L 231.240992 268.269944 
L 234.520331 265.324084 
L 237.799669 262.028287 
L 241.079008 261.170076 
L 244.358347 257.8317 
L 247.637686 263.990863 
L 250.917025 256.112617 
L 254.196364 270.911105 
L 257.475702 266.984623 
L 260.755041 242.498327 
L 264.03438 269.753518 
L 267.313719 253.867962 
L 270.593058 259.313944 
L 273.872397 252.154201 
L 277.151736 245.953791 
L 280.431074 240.655501 
L 283.710413 254.763429 
L 286.989752 234.863574 
L 290.269091 239.299661 
L 293.54843 236.337834 
L 296.827769 243.292671 
L 300.107107 226.044622 
L 303.386446 232.684116 
L 306.665785 238.84594 
L 309.945124 224.380092 
L 313.224463 226.842958 
L 316.503802 238.107479 
L 319.78314 195.420453 
L 323.062479 220.227414 
L 326.341818 224.326869 
L 329.621157 205.708343 
L 332.900496 227.380504 
L 336.179835 209.896946 
L 339.459174 203.390508 
L 342.738512 204.458947 
L 346.017851 189.518089 
L 349.29719 204.122316 
L 352.576529 176.12068 
L 355.855868 184.223791 
L 359.135207 179.069201 
L 362.414545 201.426601 
L 365.693884 160.489261 
L 368.973223 181.920591 
L 372.252562 172.447004 
L 375.531901 147.63073 
L 378.81124 134.649786 
L 382.090579 107.966736 
L 385.369917 117.64656 
L 388.649256 138.7692 
L 391.928595 92.155692 
L 395.207934 81.829215 
L 398.487273 15.657805 
" clip-path="url(#p2936ecb83c)" style="fill: none; stroke: #9467bd; stroke-width: 1.5; stroke-linecap: square"/>
   </g>
   <g id="line2d_21">
    <path d="M 73.832727 303.118641 
L 77.112066 303.950241 
L 80.391405 303.012196 
L 83.670744 302.014276 
L 86.950083 303.511156 
L 90.229421 303.495189 
L 93.50876 303.131946 
L 96.788099 304.282881 
L 100.067438 303.447289 
L 103.346777 297.060601 
L 106.626116 298.525548 
L 109.905455 299.262678 
L 113.184793 299.83881 
L 116.464132 300.381679 
L 119.743471 299.704424 
L 123.02281 299.024508 
L 126.302149 294.855863 
L 129.581488 296.171787 
L 132.860826 296.959478 
L 136.140165 294.316986 
L 139.419504 294.04156 
L 142.698843 293.990999 
L 145.978182 292.387674 
L 149.257521 288.542356 
L 152.53686 295.501185 
L 155.816198 289.809049 
L 159.095537 291.324557 
L 162.374876 291.381771 
L 165.654215 291.231418 
L 168.933554 288.184435 
L 172.212893 287.29296 
L 175.492231 285.209303 
L 178.77157 284.932547 
L 182.050909 281.94677 
L 185.330248 282.774378 
L 188.609587 278.593759 
L 191.888926 276.872014 
L 195.168264 284.011799 
L 198.447603 280.984775 
L 201.726942 275.093055 
L 205.006281 275.146278 
L 208.28562 267.250735 
L 211.564959 275.677171 
L 214.844298 279.114008 
L 218.123636 276.712347 
L 221.402975 271.724077 
L 224.682314 267.276015 
L 227.961653 270.349609 
L 231.240992 267.970568 
L 234.520331 263.848493 
L 237.799669 262.251821 
L 241.079008 262.214565 
L 244.358347 256.485174 
L 247.637686 262.871862 
L 250.917025 257.350038 
L 254.196364 271.08807 
L 257.475702 265.886911 
L 260.755041 242.620739 
L 264.03438 270.581126 
L 267.313719 252.835448 
L 270.593058 259.244755 
L 273.872397 253.161435 
L 277.151736 245.026391 
L 280.431074 240.494504 
L 283.710413 255.729416 
L 286.989752 233.704656 
L 290.269091 240.008849 
L 293.54843 236.42166 
L 296.827769 243.530842 
L 300.107107 226.741836 
L 303.386446 232.423327 
L 306.665785 239.906396 
L 309.945124 223.387494 
L 313.224463 228.574017 
L 316.503802 237.750889 
L 319.78314 196.627271 
L 323.062479 220.276644 
L 326.341818 225.938177 
L 329.621157 205.294539 
L 332.900496 228.39173 
L 336.179835 210.80971 
L 339.459174 203.833584 
L 342.738512 205.339778 
L 346.017851 190.715593 
L 349.29719 205.080319 
L 352.576529 176.912364 
L 355.855868 185.521087 
L 359.135207 179.99394 
L 362.414545 202.463107 
L 365.693884 162.003439 
L 368.973223 182.813397 
L 372.252562 173.57665 
L 375.531901 149.385738 
L 378.81124 136.58309 
L 382.090579 109.502202 
L 385.369917 119.667681 
L 388.649256 140.400467 
L 391.928595 94.211407 
L 395.207934 84.245512 
L 398.487273 18.06745 
" clip-path="url(#p2936ecb83c)" style="fill: none; stroke: #8c564b; stroke-width: 1.5; stroke-linecap: square"/>
   </g>
   <g id="line2d_22">
    <path d="M 73.832727 298.866171 
L 77.112066 296.153159 
L 80.391405 296.266257 
L 83.670744 295.8937 
L 86.950083 294.213203 
L 90.229421 295.897692 
L 93.50876 294.774699 
L 96.788099 294.851871 
L 100.067438 294.718815 
L 103.346777 293.124804 
L 106.626116 292.937196 
L 109.905455 292.677736 
L 113.184793 293.178027 
L 116.464132 292.274577 
L 119.743471 291.944598 
L 123.02281 290.745763 
L 126.302149 291.726386 
L 129.581488 294.709501 
L 132.860826 293.082227 
L 136.140165 288.545017 
L 139.419504 290.450379 
L 142.698843 289.815702 
L 145.978182 286.852545 
L 149.257521 285.467432 
L 152.53686 289.403228 
L 155.816198 289.086555 
L 159.095537 287.842481 
L 162.374876 287.294291 
L 165.654215 285.657702 
L 168.933554 286.502607 
L 172.212893 284.771549 
L 175.492231 283.741695 
L 178.77157 280.085316 
L 182.050909 282.432424 
L 185.330248 282.904773 
L 188.609587 282.247476 
L 191.888926 278.964985 
L 195.168264 285.152089 
L 198.447603 282.769056 
L 201.726942 277.726234 
L 205.006281 279.783279 
L 208.28562 276.234676 
L 211.564959 277.634425 
L 214.844298 279.030182 
L 218.123636 280.366065 
L 221.402975 275.987192 
L 224.682314 273.546945 
L 227.961653 277.440163 
L 231.240992 276.133553 
L 234.520331 275.208814 
L 237.799669 271.51651 
L 241.079008 272.304202 
L 244.358347 271.980876 
L 247.637686 272.002164 
L 250.917025 269.673684 
L 254.196364 278.822615 
L 257.475702 275.969894 
L 260.755041 259.393778 
L 264.03438 276.8627 
L 267.313719 266.887492 
L 270.593058 268.846076 
L 273.872397 267.812231 
L 277.151736 263.632942 
L 280.431074 260.020472 
L 283.710413 275.920664 
L 286.989752 257.644092 
L 290.269091 262.167996 
L 293.54843 259.408414 
L 296.827769 266.572149 
L 300.107107 255.709457 
L 303.386446 257.459144 
L 306.665785 265.620799 
L 309.945124 254.046257 
L 313.224463 253.113535 
L 316.503802 263.155271 
L 319.78314 242.892173 
L 323.062479 251.079108 
L 326.341818 257.143801 
L 329.621157 247.318946 
L 332.900496 259.790285 
L 336.179835 250.388548 
L 339.459174 244.293252 
L 342.738512 249.729921 
L 346.017851 241.441862 
L 349.29719 249.791126 
L 352.576529 237.045692 
L 355.855868 244.274625 
L 359.135207 234.600123 
L 362.414545 254.499978 
L 365.693884 228.917301 
L 368.973223 243.884771 
L 372.252562 239.10806 
L 375.531901 233.128524 
L 378.81124 226.430484 
L 382.090579 208.116657 
L 385.369917 220.993816 
L 388.649256 240.040783 
L 391.928595 218.883548 
L 395.207934 228.315888 
L 398.487273 209.017446 
" clip-path="url(#p2936ecb83c)" style="fill: none; stroke: #e377c2; stroke-width: 1.5; stroke-linecap: square"/>
   </g>
   <g id="line2d_23">
    <path d="M 73.832727 306.075145 
L 77.112066 305.656019 
L 80.391405 305.960717 
L 83.670744 305.946081 
L 86.950083 305.997972 
L 90.229421 305.964708 
L 93.50876 305.662671 
L 96.788099 305.566871 
L 100.067438 305.713233 
L 103.346777 305.640052 
L 106.626116 305.862255 
L 109.905455 305.689283 
L 113.184793 305.585499 
L 116.464132 305.75448 
L 119.743471 305.769116 
L 123.02281 304.545001 
L 126.302149 304.623504 
L 129.581488 304.635479 
L 132.860826 304.513068 
L 136.140165 304.622173 
L 139.419504 304.256269 
L 142.698843 304.306831 
L 145.978182 304.942838 
L 149.257521 304.707329 
L 152.53686 305.150406 
L 155.816198 304.531695 
L 159.095537 304.576934 
L 162.374876 304.712652 
L 165.654215 304.864335 
L 168.933554 304.940177 
L 172.212893 304.42392 
L 175.492231 300.589246 
L 178.77157 299.546087 
L 182.050909 301.360971 
L 185.330248 300.657105 
L 188.609587 299.00588 
L 191.888926 300.142178 
L 195.168264 300.17012 
L 198.447603 300.839391 
L 201.726942 300.848705 
L 205.006281 299.652532 
L 208.28562 299.935941 
L 211.564959 300.671741 
L 214.844298 300.139517 
L 218.123636 300.392323 
L 221.402975 300.638477 
L 224.682314 299.953238 
L 227.961653 299.269331 
L 231.240992 300.605213 
L 234.520331 262.428785 
L 237.799669 257.561597 
L 241.079008 262.491322 
L 244.358347 260.914608 
L 247.637686 264.339469 
L 250.917025 259.270036 
L 254.196364 271.702788 
L 257.475702 269.351689 
L 260.755041 256.430621 
L 264.03438 274.544865 
L 267.313719 263.777973 
L 270.593058 270.949692 
L 273.872397 263.018223 
L 277.151736 261.840678 
L 280.431074 260.511448 
L 283.710413 268.437594 
L 286.989752 231.044867 
L 290.269091 223.551153 
L 293.54843 226.693935 
L 296.827769 227.683872 
L 300.107107 220.1223 
L 303.386446 222.73685 
L 306.665785 235.013927 
L 309.945124 221.226664 
L 313.224463 225.751899 
L 316.503802 239.873132 
L 319.78314 199.432092 
L 323.062479 209.5031 
L 326.341818 198.6444 
L 329.621157 176.420056 
L 332.900496 208.19516 
L 336.179835 192.350851 
L 339.459174 193.404655 
L 342.738512 195.72249 
L 346.017851 176.651574 
L 349.29719 173.323843 
L 352.576529 142.100922 
L 355.855868 157.931925 
L 359.135207 162.03138 
L 362.414545 186.537635 
L 365.693884 119.956412 
L 368.973223 145.563039 
L 372.252562 143.903831 
L 375.531901 118.850717 
L 378.81124 81.520525 
L 382.090579 68.896172 
L 385.369917 70.234716 
L 388.649256 94.747622 
L 391.928595 35.287557 
L 395.207934 20.08724 
L 396.151289 -1 
" clip-path="url(#p2936ecb83c)" style="fill: none; stroke: #7f7f7f; stroke-width: 1.5; stroke-linecap: square"/>
   </g>
   <g id="line2d_24">
    <path d="M 73.832727 304.422589 
L 77.112066 303.214441 
L 80.391405 303.209119 
L 83.670744 303.271655 
L 86.950083 303.882382 
L 90.229421 303.725376 
L 93.50876 303.939596 
L 96.788099 302.655606 
L 100.067438 303.312902 
L 103.346777 302.988246 
L 106.626116 303.435314 
L 109.905455 303.038807 
L 113.184793 303.427331 
L 116.464132 303.732029 
L 119.743471 303.567039 
L 123.02281 303.076063 
L 126.302149 303.419347 
L 129.581488 303.724045 
L 132.860826 304.469159 
L 136.140165 303.866415 
L 139.419504 303.343505 
L 142.698843 302.71282 
L 145.978182 303.18783 
L 149.257521 301.400888 
L 152.53686 299.684465 
L 155.816198 297.22426 
L 159.095537 297.194988 
L 162.374876 296.830414 
L 165.654215 298.492284 
L 168.933554 298.046546 
L 172.212893 298.17561 
L 175.492231 297.656692 
L 178.77157 297.286796 
L 182.050909 298.38983 
L 185.330248 296.552327 
L 188.609587 295.34817 
L 191.888926 296.60688 
L 195.168264 298.00796 
L 198.447603 297.946754 
L 201.726942 297.426505 
L 205.006281 297.217607 
L 208.28562 296.425924 
L 211.564959 297.936109 
L 214.844298 297.169707 
L 218.123636 298.927377 
L 221.402975 298.082471 
L 224.682314 297.084551 
L 227.961653 296.871661 
L 231.240992 298.69852 
L 234.520331 296.98609 
L 237.799669 297.117815 
L 241.079008 297.692617 
L 244.358347 297.246879 
L 247.637686 283.265355 
L 250.917025 265.632774 
L 254.196364 270.575804 
L 257.475702 266.670611 
L 260.755041 261.549285 
L 264.03438 270.904452 
L 267.313719 261.843339 
L 270.593058 269.078924 
L 273.872397 263.775312 
L 277.151736 265.19502 
L 280.431074 262.91444 
L 283.710413 266.433771 
L 286.989752 263.875104 
L 290.269091 266.81298 
L 293.54843 267.816223 
L 296.827769 262.742797 
L 300.107107 258.442428 
L 303.386446 261.341718 
L 306.665785 265.844333 
L 309.945124 261.764836 
L 313.224463 266.199592 
L 316.503802 268.961835 
L 319.78314 259.067791 
L 323.062479 263.655562 
L 326.341818 263.441341 
L 329.621157 261.539971 
L 332.900496 270.944369 
L 336.179835 265.179053 
L 339.459174 267.032523 
L 342.738512 180.902713 
L 346.017851 118.913253 
L 349.29719 131.202305 
L 352.576529 95.148121 
L 355.855868 110.23268 
L 359.135207 107.461123 
L 362.414545 151.032972 
L 365.693884 75.474461 
L 368.973223 132.363884 
L 372.252562 132.455693 
L 375.531901 113.214465 
L 378.81124 106.698712 
L 382.090579 99.609489 
L 385.369917 105.950938 
L 387.853753 -1 
" clip-path="url(#p2936ecb83c)" style="fill: none; stroke: #bcbd22; stroke-width: 1.5; stroke-linecap: square"/>
   </g>
   <g id="patch_3">
    <path d="M 57.6 307.584 
L 57.6 41.472 
" style="fill: none; stroke: #000000; stroke-width: 0.8; stroke-linejoin: miter; stroke-linecap: square"/>
   </g>
   <g id="patch_4">
    <path d="M 414.72 307.584 
L 414.72 41.472 
" style="fill: none; stroke: #000000; stroke-width: 0.8; stroke-linejoin: miter; stroke-linecap: square"/>
   </g>
   <g id="patch_5">
    <path d="M 57.6 307.584 
L 414.72 307.584 
" style="fill: none; stroke: #000000; stroke-width: 0.8; stroke-linejoin: miter; stroke-linecap: square"/>
   </g>
   <g id="patch_6">
    <path d="M 57.6 41.472 
L 414.72 41.472 
" style="fill: none; stroke: #000000; stroke-width: 0.8; stroke-linejoin: miter; stroke-linecap: square"/>
   </g>
   <g id="text_18">
    <!-- Wachttijd in functie van bedieningstijd -->
    <g transform="translate(120.759375 35.472)scale(0.12 -0.12)">
     <defs>
      <path id="DejaVuSans-66" d="M 2375 4863 
L 2375 4384 
L 1825 4384 
Q 1516 4384 1395 4259 
Q 1275 4134 1275 3809 
L 1275 3500 
L 2222 3500 
L 2222 3053 
L 1275 3053 
L 1275 0 
L 697 0 
L 697 3053 
L 147 3053 
L 147 3500 
L 697 3500 
L 697 3744 
Q 697 4328 969 4595 
Q 1241 4863 1831 4863 
L 2375 4863 
z
" transform="scale(0.015625)"/>
      <path id="DejaVuSans-75" d="M 544 1381 
L 544 3500 
L 1119 3500 
L 1119 1403 
Q 1119 906 1312 657 
Q 1506 409 1894 409 
Q 2359 409 2629 706 
Q 2900 1003 2900 1516 
L 2900 3500 
L 3475 3500 
L 3475 0 
L 2900 0 
L 2900 538 
Q 2691 219 2414 64 
Q 2138 -91 1772 -91 
Q 1169 -91 856 284 
Q 544 659 544 1381 
z
M 1991 3584 
L 1991 3584 
z
" transform="scale(0.015625)"/>
      <path id="DejaVuSans-76" d="M 191 3500 
L 800 3500 
L 1894 563 
L 2988 3500 
L 3597 3500 
L 2284 0 
L 1503 0 
L 191 3500 
z
" transform="scale(0.015625)"/>
      <path id="DejaVuSans-62" d="M 3116 1747 
Q 3116 2381 2855 2742 
Q 2594 3103 2138 3103 
Q 1681 3103 1420 2742 
Q 1159 2381 1159 1747 
Q 1159 1113 1420 752 
Q 1681 391 2138 391 
Q 2594 391 2855 752 
Q 3116 1113 3116 1747 
z
M 1159 2969 
Q 1341 3281 1617 3432 
Q 1894 3584 2278 3584 
Q 2916 3584 3314 3078 
Q 3713 2572 3713 1747 
Q 3713 922 3314 415 
Q 2916 -91 2278 -91 
Q 1894 -91 1617 61 
Q 1341 213 1159 525 
L 1159 0 
L 581 0 
L 581 4863 
L 1159 4863 
L 1159 2969 
z
" transform="scale(0.015625)"/>
     </defs>
     <use xlink:href="#DejaVuSans-57"/>
     <use xlink:href="#DejaVuSans-61" x="92.501953"/>
     <use xlink:href="#DejaVuSans-63" x="153.78125"/>
     <use xlink:href="#DejaVuSans-68" x="208.761719"/>
     <use xlink:href="#DejaVuSans-74" x="272.140625"/>
     <use xlink:href="#DejaVuSans-74" x="311.349609"/>
     <use xlink:href="#DejaVuSans-69" x="350.558594"/>
     <use xlink:href="#DejaVuSans-6a" x="378.341797"/>
     <use xlink:href="#DejaVuSans-64" x="406.125"/>
     <use xlink:href="#DejaVuSans-20" x="469.601562"/>
     <use xlink:href="#DejaVuSans-69" x="501.388672"/>
     <use xlink:href="#DejaVuSans-6e" x="529.171875"/>
     <use xlink:href="#DejaVuSans-20" x="592.550781"/>
     <use xlink:href="#DejaVuSans-66" x="624.337891"/>
     <use xlink:href="#DejaVuSans-75" x="659.542969"/>
     <use xlink:href="#DejaVuSans-6e" x="722.921875"/>
     <use xlink:href="#DejaVuSans-63" x="786.300781"/>
     <use xlink:href="#DejaVuSans-74" x="841.28125"/>
     <use xlink:href="#DejaVuSans-69" x="880.490234"/>
     <use xlink:href="#DejaVuSans-65" x="908.273438"/>
     <use xlink:href="#DejaVuSans-20" x="969.796875"/>
     <use xlink:href="#DejaVuSans-76" x="1001.583984"/>
     <use xlink:href="#DejaVuSans-61" x="1060.763672"/>
     <use xlink:href="#DejaVuSans-6e" x="1122.042969"/>
     <use xlink:href="#DejaVuSans-20" x="1185.421875"/>
     <use xlink:href="#DejaVuSans-62" x="1217.208984"/>
     <use xlink:href="#DejaVuSans-65" x="1280.685547"/>
     <use xlink:href="#DejaVuSans-64" x="1342.208984"/>
     <use xlink:href="#DejaVuSans-69" x="1405.685547"/>
     <use xlink:href="#DejaVuSans-65" x="1433.46875"/>
     <use xlink:href="#DejaVuSans-6e" x="1494.992188"/>
     <use xlink:href="#DejaVuSans-69" x="1558.371094"/>
     <use xlink:href="#DejaVuSans-6e" x="1586.154297"/>
     <use xlink:href="#DejaVuSans-67" x="1649.533203"/>
     <use xlink:href="#DejaVuSans-73" x="1713.009766"/>
     <use xlink:href="#DejaVuSans-74" x="1765.109375"/>
     <use xlink:href="#DejaVuSans-69" x="1804.318359"/>
     <use xlink:href="#DejaVuSans-6a" x="1832.101562"/>
     <use xlink:href="#DejaVuSans-64" x="1859.884766"/>
    </g>
   </g>
   <g id="legend_1">
    <g id="patch_7">
     <path d="M 64.6 181.575125 
L 136.1375 181.575125 
Q 138.1375 181.575125 138.1375 179.575125 
L 138.1375 48.472 
Q 138.1375 46.472 136.1375 46.472 
L 64.6 46.472 
Q 62.6 46.472 62.6 48.472 
L 62.6 179.575125 
Q 62.6 181.575125 64.6 181.575125 
z
" style="fill: #ffffff; opacity: 0.8; stroke: #cccccc; stroke-linejoin: miter"/>
    </g>
    <g id="line2d_25">
     <path d="M 66.6 54.570438 
L 76.6 54.570438 
L 86.6 54.570438 
" style="fill: none; stroke: #1f77b4; stroke-width: 1.5; stroke-linecap: square"/>
    </g>
    <g id="text_19">
     <!-- FCFS -->
     <g transform="translate(94.6 58.070438)scale(0.1 -0.1)">
      <defs>
       <path id="DejaVuSans-46" d="M 628 4666 
L 3309 4666 
L 3309 4134 
L 1259 4134 
L 1259 2759 
L 3109 2759 
L 3109 2228 
L 1259 2228 
L 1259 0 
L 628 0 
L 628 4666 
z
" transform="scale(0.015625)"/>
       <path id="DejaVuSans-43" d="M 4122 4306 
L 4122 3641 
Q 3803 3938 3442 4084 
Q 3081 4231 2675 4231 
Q 1875 4231 1450 3742 
Q 1025 3253 1025 2328 
Q 1025 1406 1450 917 
Q 1875 428 2675 428 
Q 3081 428 3442 575 
Q 3803 722 4122 1019 
L 4122 359 
Q 3791 134 3420 21 
Q 3050 -91 2638 -91 
Q 1578 -91 968 557 
Q 359 1206 359 2328 
Q 359 3453 968 4101 
Q 1578 4750 2638 4750 
Q 3056 4750 3426 4639 
Q 3797 4528 4122 4306 
z
" transform="scale(0.015625)"/>
       <path id="DejaVuSans-53" d="M 3425 4513 
L 3425 3897 
Q 3066 4069 2747 4153 
Q 2428 4238 2131 4238 
Q 1616 4238 1336 4038 
Q 1056 3838 1056 3469 
Q 1056 3159 1242 3001 
Q 1428 2844 1947 2747 
L 2328 2669 
Q 3034 2534 3370 2195 
Q 3706 1856 3706 1288 
Q 3706 609 3251 259 
Q 2797 -91 1919 -91 
Q 1588 -91 1214 -16 
Q 841 59 441 206 
L 441 856 
Q 825 641 1194 531 
Q 1563 422 1919 422 
Q 2459 422 2753 634 
Q 3047 847 3047 1241 
Q 3047 1584 2836 1778 
Q 2625 1972 2144 2069 
L 1759 2144 
Q 1053 2284 737 2584 
Q 422 2884 422 3419 
Q 422 4038 858 4394 
Q 1294 4750 2059 4750 
Q 2388 4750 2728 4690 
Q 3069 4631 3425 4513 
z
" transform="scale(0.015625)"/>
      </defs>
      <use xlink:href="#DejaVuSans-46"/>
      <use xlink:href="#DejaVuSans-43" x="57.519531"/>
      <use xlink:href="#DejaVuSans-46" x="127.34375"/>
      <use xlink:href="#DejaVuSans-53" x="183.113281"/>
     </g>
    </g>
    <g id="line2d_26">
     <path d="M 66.6 69.248563 
L 76.6 69.248563 
L 86.6 69.248563 
" style="fill: none; stroke: #ff7f0e; stroke-width: 1.5; stroke-linecap: square"/>
    </g>
    <g id="text_20">
     <!-- SJF -->
     <g transform="translate(94.6 72.748563)scale(0.1 -0.1)">
      <defs>
       <path id="DejaVuSans-4a" d="M 628 4666 
L 1259 4666 
L 1259 325 
Q 1259 -519 939 -900 
Q 619 -1281 -91 -1281 
L -331 -1281 
L -331 -750 
L -134 -750 
Q 284 -750 456 -515 
Q 628 -281 628 325 
L 628 4666 
z
" transform="scale(0.015625)"/>
      </defs>
      <use xlink:href="#DejaVuSans-53"/>
      <use xlink:href="#DejaVuSans-4a" x="63.476562"/>
      <use xlink:href="#DejaVuSans-46" x="92.96875"/>
     </g>
    </g>
    <g id="line2d_27">
     <path d="M 66.6 83.926688 
L 76.6 83.926688 
L 86.6 83.926688 
" style="fill: none; stroke: #2ca02c; stroke-width: 1.5; stroke-linecap: square"/>
    </g>
    <g id="text_21">
     <!-- SRT -->
     <g transform="translate(94.6 87.426688)scale(0.1 -0.1)">
      <defs>
       <path id="DejaVuSans-52" d="M 2841 2188 
Q 3044 2119 3236 1894 
Q 3428 1669 3622 1275 
L 4263 0 
L 3584 0 
L 2988 1197 
Q 2756 1666 2539 1819 
Q 2322 1972 1947 1972 
L 1259 1972 
L 1259 0 
L 628 0 
L 628 4666 
L 2053 4666 
Q 2853 4666 3247 4331 
Q 3641 3997 3641 3322 
Q 3641 2881 3436 2590 
Q 3231 2300 2841 2188 
z
M 1259 4147 
L 1259 2491 
L 2053 2491 
Q 2509 2491 2742 2702 
Q 2975 2913 2975 3322 
Q 2975 3731 2742 3939 
Q 2509 4147 2053 4147 
L 1259 4147 
z
" transform="scale(0.015625)"/>
       <path id="DejaVuSans-54" d="M -19 4666 
L 3928 4666 
L 3928 4134 
L 2272 4134 
L 2272 0 
L 1638 0 
L 1638 4134 
L -19 4134 
L -19 4666 
z
" transform="scale(0.015625)"/>
      </defs>
      <use xlink:href="#DejaVuSans-53"/>
      <use xlink:href="#DejaVuSans-52" x="63.476562"/>
      <use xlink:href="#DejaVuSans-54" x="125.708984"/>
     </g>
    </g>
    <g id="line2d_28">
     <path d="M 66.6 98.604813 
L 76.6 98.604813 
L 86.6 98.604813 
" style="fill: none; stroke: #d62728; stroke-width: 1.5; stroke-linecap: square"/>
    </g>
    <g id="text_22">
     <!-- RR2 -->
     <g transform="translate(94.6 102.104813)scale(0.1 -0.1)">
      <use xlink:href="#DejaVuSans-52"/>
      <use xlink:href="#DejaVuSans-52" x="69.482422"/>
      <use xlink:href="#DejaVuSans-32" x="138.964844"/>
     </g>
    </g>
    <g id="line2d_29">
     <path d="M 66.6 113.282938 
L 76.6 113.282938 
L 86.6 113.282938 
" style="fill: none; stroke: #9467bd; stroke-width: 1.5; stroke-linecap: square"/>
    </g>
    <g id="text_23">
     <!-- RR4 -->
     <g transform="translate(94.6 116.782938)scale(0.1 -0.1)">
      <use xlink:href="#DejaVuSans-52"/>
      <use xlink:href="#DejaVuSans-52" x="69.482422"/>
      <use xlink:href="#DejaVuSans-34" x="138.964844"/>
     </g>
    </g>
    <g id="line2d_30">
     <path d="M 66.6 127.961063 
L 76.6 127.961063 
L 86.6 127.961063 
" style="fill: none; stroke: #8c564b; stroke-width: 1.5; stroke-linecap: square"/>
    </g>
    <g id="text_24">
     <!-- RR8 -->
     <g transform="translate(94.6 131.461063)scale(0.1 -0.1)">
      <use xlink:href="#DejaVuSans-52"/>
      <use xlink:href="#DejaVuSans-52" x="69.482422"/>
      <use xlink:href="#DejaVuSans-38" x="138.964844"/>
     </g>
    </g>
    <g id="line2d_31">
     <path d="M 66.6 142.639188 
L 76.6 142.639188 
L 86.6 142.639188 
" style="fill: none; stroke: #e377c2; stroke-width: 1.5; stroke-linecap: square"/>
    </g>
    <g id="text_25">
     <!-- HRRN -->
     <g transform="translate(94.6 146.139188)scale(0.1 -0.1)">
      <defs>
       <path id="DejaVuSans-48" d="M 628 4666 
L 1259 4666 
L 1259 2753 
L 3553 2753 
L 3553 4666 
L 4184 4666 
L 4184 0 
L 3553 0 
L 3553 2222 
L 1259 2222 
L 1259 0 
L 628 0 
L 628 4666 
z
" transform="scale(0.015625)"/>
       <path id="DejaVuSans-4e" d="M 628 4666 
L 1478 4666 
L 3547 763 
L 3547 4666 
L 4159 4666 
L 4159 0 
L 3309 0 
L 1241 3903 
L 1241 0 
L 628 0 
L 628 4666 
z
" transform="scale(0.015625)"/>
      </defs>
      <use xlink:href="#DejaVuSans-48"/>
      <use xlink:href="#DejaVuSans-52" x="75.195312"/>
      <use xlink:href="#DejaVuSans-52" x="144.677734"/>
      <use xlink:href="#DejaVuSans-4e" x="214.160156"/>
     </g>
    </g>
    <g id="line2d_32">
     <path d="M 66.6 157.317313 
L 76.6 157.317313 
L 86.6 157.317313 
" style="fill: none; stroke: #7f7f7f; stroke-width: 1.5; stroke-linecap: square"/>
    </g>
    <g id="text_26">
     <!-- MLFB5 -->
     <g transform="translate(94.6 160.817313)scale(0.1 -0.1)">
      <defs>
       <path id="DejaVuSans-4d" d="M 628 4666 
L 1569 4666 
L 2759 1491 
L 3956 4666 
L 4897 4666 
L 4897 0 
L 4281 0 
L 4281 4097 
L 3078 897 
L 2444 897 
L 1241 4097 
L 1241 0 
L 628 0 
L 628 4666 
z
" transform="scale(0.015625)"/>
       <path id="DejaVuSans-4c" d="M 628 4666 
L 1259 4666 
L 1259 531 
L 3531 531 
L 3531 0 
L 628 0 
L 628 4666 
z
" transform="scale(0.015625)"/>
      </defs>
      <use xlink:href="#DejaVuSans-4d"/>
      <use xlink:href="#DejaVuSans-4c" x="86.279297"/>
      <use xlink:href="#DejaVuSans-46" x="141.992188"/>
      <use xlink:href="#DejaVuSans-42" x="199.511719"/>
      <use xlink:href="#DejaVuSans-35" x="268.115234"/>
     </g>
    </g>
    <g id="line2d_33">
     <path d="M 66.6 171.995438 
L 76.6 171.995438 
L 86.6 171.995438 
" style="fill: none; stroke: #bcbd22; stroke-width: 1.5; stroke-linecap: square"/>
    </g>
    <g id="text_27">
     <!-- MLFB25 -->
     <g transform="translate(94.6 175.495438)scale(0.1 -0.1)">
      <use xlink:href="#DejaVuSans-4d"/>
      <use xlink:href="#DejaVuSans-4c" x="86.279297"/>
      <use xlink:href="#DejaVuSans-46" x="141.992188"/>
      <use xlink:href="#DejaVuSans-42" x="199.511719"/>
      <use xlink:href="#DejaVuSans-32" x="268.115234"/>
      <use xlink:href="#DejaVuSans-35" x="331.738281"/>
     </g>
    </g>
   </g>
  </g>
 </g>
 <defs>
  <clipPath id="p2936ecb83c">
   <rect x="57.6" y="41.472" width="357.12" height="266.112"/>
  </clipPath>
 </defs>
</svg>
