<?xml version="1.0" encoding="utf-8" standalone="no"?>
<!DOCTYPE svg PUBLIC "-//W3C//DTD SVG 1.1//EN"
  "http://www.w3.org/Graphics/SVG/1.1/DTD/svg11.dtd">
<svg xmlns:xlink="http://www.w3.org/1999/xlink" width="460.8pt" height="345.6pt" viewBox="0 0 460.8 345.6" xmlns="http://www.w3.org/2000/svg" version="1.1">
 <metadata>
  <rdf:RDF xmlns:dc="http://purl.org/dc/elements/1.1/" xmlns:cc="http://creativecommons.org/ns#" xmlns:rdf="http://www.w3.org/1999/02/22-rdf-syntax-ns#">
   <cc:Work>
    <dc:type rdf:resource="http://purl.org/dc/dcmitype/StillImage"/>
    <dc:date>2022-03-22T12:50:45.220049</dc:date>
    <dc:format>image/svg+xml</dc:format>
    <dc:creator>
     <cc:Agent>
      <dc:title>Matplotlib v3.5.1, https://matplotlib.org/</dc:title>
     </cc:Agent>
    </dc:creator>
   </cc:Work>
  </rdf:RDF>
 </metadata>
 <defs>
  <style type="text/css">*{stroke-linejoin: round; stroke-linecap: butt}</style>
 </defs>
 <g id="figure_1">
  <g id="patch_1">
   <path d="M 0 345.6 
L 460.8 345.6 
L 460.8 0 
L 0 0 
z
" style="fill: #ffffff"/>
  </g>
  <g id="axes_1">
   <g id="patch_2">
    <path d="M 57.6 307.584 
L 414.72 307.584 
L 414.72 41.472 
L 57.6 41.472 
z
" style="fill: #ffffff"/>
   </g>
   <g id="matplotlib.axis_1">
    <g id="xtick_1">
     <g id="line2d_1">
      <defs>
       <path id="m7618cb7309" d="M 0 0 
L 0 3.5 
" style="stroke: #000000; stroke-width: 0.8"/>
      </defs>
      <g>
       <use xlink:href="#m7618cb7309" x="70.553388" y="307.584" style="stroke: #000000; stroke-width: 0.8"/>
      </g>
     </g>
     <g id="text_1">
      <!-- 0 -->
      <g transform="translate(67.372138 322.182437)scale(0.1 -0.1)">
       <defs>
        <path id="DejaVuSans-30" d="M 2034 4250 
Q 1547 4250 1301 3770 
Q 1056 3291 1056 2328 
Q 1056 1369 1301 889 
Q 1547 409 2034 409 
Q 2525 409 2770 889 
Q 3016 1369 3016 2328 
Q 3016 3291 2770 3770 
Q 2525 4250 2034 4250 
z
M 2034 4750 
Q 2819 4750 3233 4129 
Q 3647 3509 3647 2328 
Q 3647 1150 3233 529 
Q 2819 -91 2034 -91 
Q 1250 -91 836 529 
Q 422 1150 422 2328 
Q 422 3509 836 4129 
Q 1250 4750 2034 4750 
z
" transform="scale(0.015625)"/>
       </defs>
       <use xlink:href="#DejaVuSans-30"/>
      </g>
     </g>
    </g>
    <g id="xtick_2">
     <g id="line2d_2">
      <g>
       <use xlink:href="#m7618cb7309" x="136.140165" y="307.584" style="stroke: #000000; stroke-width: 0.8"/>
      </g>
     </g>
     <g id="text_2">
      <!-- 20 -->
      <g transform="translate(129.777665 322.182437)scale(0.1 -0.1)">
       <defs>
        <path id="DejaVuSans-32" d="M 1228 531 
L 3431 531 
L 3431 0 
L 469 0 
L 469 531 
Q 828 903 1448 1529 
Q 2069 2156 2228 2338 
Q 2531 2678 2651 2914 
Q 2772 3150 2772 3378 
Q 2772 3750 2511 3984 
Q 2250 4219 1831 4219 
Q 1534 4219 1204 4116 
Q 875 4013 500 3803 
L 500 4441 
Q 881 4594 1212 4672 
Q 1544 4750 1819 4750 
Q 2544 4750 2975 4387 
Q 3406 4025 3406 3419 
Q 3406 3131 3298 2873 
Q 3191 2616 2906 2266 
Q 2828 2175 2409 1742 
Q 1991 1309 1228 531 
z
" transform="scale(0.015625)"/>
       </defs>
       <use xlink:href="#DejaVuSans-32"/>
       <use xlink:href="#DejaVuSans-30" x="63.623047"/>
      </g>
     </g>
    </g>
    <g id="xtick_3">
     <g id="line2d_3">
      <g>
       <use xlink:href="#m7618cb7309" x="201.726942" y="307.584" style="stroke: #000000; stroke-width: 0.8"/>
      </g>
     </g>
     <g id="text_3">
      <!-- 40 -->
      <g transform="translate(195.364442 322.182437)scale(0.1 -0.1)">
       <defs>
        <path id="DejaVuSans-34" d="M 2419 4116 
L 825 1625 
L 2419 1625 
L 2419 4116 
z
M 2253 4666 
L 3047 4666 
L 3047 1625 
L 3713 1625 
L 3713 1100 
L 3047 1100 
L 3047 0 
L 2419 0 
L 2419 1100 
L 313 1100 
L 313 1709 
L 2253 4666 
z
" transform="scale(0.015625)"/>
       </defs>
       <use xlink:href="#DejaVuSans-34"/>
       <use xlink:href="#DejaVuSans-30" x="63.623047"/>
      </g>
     </g>
    </g>
    <g id="xtick_4">
     <g id="line2d_4">
      <g>
       <use xlink:href="#m7618cb7309" x="267.313719" y="307.584" style="stroke: #000000; stroke-width: 0.8"/>
      </g>
     </g>
     <g id="text_4">
      <!-- 60 -->
      <g transform="translate(260.951219 322.182437)scale(0.1 -0.1)">
       <defs>
        <path id="DejaVuSans-36" d="M 2113 2584 
Q 1688 2584 1439 2293 
Q 1191 2003 1191 1497 
Q 1191 994 1439 701 
Q 1688 409 2113 409 
Q 2538 409 2786 701 
Q 3034 994 3034 1497 
Q 3034 2003 2786 2293 
Q 2538 2584 2113 2584 
z
M 3366 4563 
L 3366 3988 
Q 3128 4100 2886 4159 
Q 2644 4219 2406 4219 
Q 1781 4219 1451 3797 
Q 1122 3375 1075 2522 
Q 1259 2794 1537 2939 
Q 1816 3084 2150 3084 
Q 2853 3084 3261 2657 
Q 3669 2231 3669 1497 
Q 3669 778 3244 343 
Q 2819 -91 2113 -91 
Q 1303 -91 875 529 
Q 447 1150 447 2328 
Q 447 3434 972 4092 
Q 1497 4750 2381 4750 
Q 2619 4750 2861 4703 
Q 3103 4656 3366 4563 
z
" transform="scale(0.015625)"/>
       </defs>
       <use xlink:href="#DejaVuSans-36"/>
       <use xlink:href="#DejaVuSans-30" x="63.623047"/>
      </g>
     </g>
    </g>
    <g id="xtick_5">
     <g id="line2d_5">
      <g>
       <use xlink:href="#m7618cb7309" x="332.900496" y="307.584" style="stroke: #000000; stroke-width: 0.8"/>
      </g>
     </g>
     <g id="text_5">
      <!-- 80 -->
      <g transform="translate(326.537996 322.182437)scale(0.1 -0.1)">
       <defs>
        <path id="DejaVuSans-38" d="M 2034 2216 
Q 1584 2216 1326 1975 
Q 1069 1734 1069 1313 
Q 1069 891 1326 650 
Q 1584 409 2034 409 
Q 2484 409 2743 651 
Q 3003 894 3003 1313 
Q 3003 1734 2745 1975 
Q 2488 2216 2034 2216 
z
M 1403 2484 
Q 997 2584 770 2862 
Q 544 3141 544 3541 
Q 544 4100 942 4425 
Q 1341 4750 2034 4750 
Q 2731 4750 3128 4425 
Q 3525 4100 3525 3541 
Q 3525 3141 3298 2862 
Q 3072 2584 2669 2484 
Q 3125 2378 3379 2068 
Q 3634 1759 3634 1313 
Q 3634 634 3220 271 
Q 2806 -91 2034 -91 
Q 1263 -91 848 271 
Q 434 634 434 1313 
Q 434 1759 690 2068 
Q 947 2378 1403 2484 
z
M 1172 3481 
Q 1172 3119 1398 2916 
Q 1625 2713 2034 2713 
Q 2441 2713 2670 2916 
Q 2900 3119 2900 3481 
Q 2900 3844 2670 4047 
Q 2441 4250 2034 4250 
Q 1625 4250 1398 4047 
Q 1172 3844 1172 3481 
z
" transform="scale(0.015625)"/>
       </defs>
       <use xlink:href="#DejaVuSans-38"/>
       <use xlink:href="#DejaVuSans-30" x="63.623047"/>
      </g>
     </g>
    </g>
    <g id="xtick_6">
     <g id="line2d_6">
      <g>
       <use xlink:href="#m7618cb7309" x="398.487273" y="307.584" style="stroke: #000000; stroke-width: 0.8"/>
      </g>
     </g>
     <g id="text_6">
      <!-- 100 -->
      <g transform="translate(388.943523 322.182437)scale(0.1 -0.1)">
       <defs>
        <path id="DejaVuSans-31" d="M 794 531 
L 1825 531 
L 1825 4091 
L 703 3866 
L 703 4441 
L 1819 4666 
L 2450 4666 
L 2450 531 
L 3481 531 
L 3481 0 
L 794 0 
L 794 531 
z
" transform="scale(0.015625)"/>
       </defs>
       <use xlink:href="#DejaVuSans-31"/>
       <use xlink:href="#DejaVuSans-30" x="63.623047"/>
       <use xlink:href="#DejaVuSans-30" x="127.246094"/>
      </g>
     </g>
    </g>
    <g id="text_7">
     <!-- Bedieningstijd percentiel -->
     <g transform="translate(174.002969 335.860562)scale(0.1 -0.1)">
      <defs>
       <path id="DejaVuSans-42" d="M 1259 2228 
L 1259 519 
L 2272 519 
Q 2781 519 3026 730 
Q 3272 941 3272 1375 
Q 3272 1813 3026 2020 
Q 2781 2228 2272 2228 
L 1259 2228 
z
M 1259 4147 
L 1259 2741 
L 2194 2741 
Q 2656 2741 2882 2914 
Q 3109 3088 3109 3444 
Q 3109 3797 2882 3972 
Q 2656 4147 2194 4147 
L 1259 4147 
z
M 628 4666 
L 2241 4666 
Q 2963 4666 3353 4366 
Q 3744 4066 3744 3513 
Q 3744 3084 3544 2831 
Q 3344 2578 2956 2516 
Q 3422 2416 3680 2098 
Q 3938 1781 3938 1306 
Q 3938 681 3513 340 
Q 3088 0 2303 0 
L 628 0 
L 628 4666 
z
" transform="scale(0.015625)"/>
       <path id="DejaVuSans-65" d="M 3597 1894 
L 3597 1613 
L 953 1613 
Q 991 1019 1311 708 
Q 1631 397 2203 397 
Q 2534 397 2845 478 
Q 3156 559 3463 722 
L 3463 178 
Q 3153 47 2828 -22 
Q 2503 -91 2169 -91 
Q 1331 -91 842 396 
Q 353 884 353 1716 
Q 353 2575 817 3079 
Q 1281 3584 2069 3584 
Q 2775 3584 3186 3129 
Q 3597 2675 3597 1894 
z
M 3022 2063 
Q 3016 2534 2758 2815 
Q 2500 3097 2075 3097 
Q 1594 3097 1305 2825 
Q 1016 2553 972 2059 
L 3022 2063 
z
" transform="scale(0.015625)"/>
       <path id="DejaVuSans-64" d="M 2906 2969 
L 2906 4863 
L 3481 4863 
L 3481 0 
L 2906 0 
L 2906 525 
Q 2725 213 2448 61 
Q 2172 -91 1784 -91 
Q 1150 -91 751 415 
Q 353 922 353 1747 
Q 353 2572 751 3078 
Q 1150 3584 1784 3584 
Q 2172 3584 2448 3432 
Q 2725 3281 2906 2969 
z
M 947 1747 
Q 947 1113 1208 752 
Q 1469 391 1925 391 
Q 2381 391 2643 752 
Q 2906 1113 2906 1747 
Q 2906 2381 2643 2742 
Q 2381 3103 1925 3103 
Q 1469 3103 1208 2742 
Q 947 2381 947 1747 
z
" transform="scale(0.015625)"/>
       <path id="DejaVuSans-69" d="M 603 3500 
L 1178 3500 
L 1178 0 
L 603 0 
L 603 3500 
z
M 603 4863 
L 1178 4863 
L 1178 4134 
L 603 4134 
L 603 4863 
z
" transform="scale(0.015625)"/>
       <path id="DejaVuSans-6e" d="M 3513 2113 
L 3513 0 
L 2938 0 
L 2938 2094 
Q 2938 2591 2744 2837 
Q 2550 3084 2163 3084 
Q 1697 3084 1428 2787 
Q 1159 2491 1159 1978 
L 1159 0 
L 581 0 
L 581 3500 
L 1159 3500 
L 1159 2956 
Q 1366 3272 1645 3428 
Q 1925 3584 2291 3584 
Q 2894 3584 3203 3211 
Q 3513 2838 3513 2113 
z
" transform="scale(0.015625)"/>
       <path id="DejaVuSans-67" d="M 2906 1791 
Q 2906 2416 2648 2759 
Q 2391 3103 1925 3103 
Q 1463 3103 1205 2759 
Q 947 2416 947 1791 
Q 947 1169 1205 825 
Q 1463 481 1925 481 
Q 2391 481 2648 825 
Q 2906 1169 2906 1791 
z
M 3481 434 
Q 3481 -459 3084 -895 
Q 2688 -1331 1869 -1331 
Q 1566 -1331 1297 -1286 
Q 1028 -1241 775 -1147 
L 775 -588 
Q 1028 -725 1275 -790 
Q 1522 -856 1778 -856 
Q 2344 -856 2625 -561 
Q 2906 -266 2906 331 
L 2906 616 
Q 2728 306 2450 153 
Q 2172 0 1784 0 
Q 1141 0 747 490 
Q 353 981 353 1791 
Q 353 2603 747 3093 
Q 1141 3584 1784 3584 
Q 2172 3584 2450 3431 
Q 2728 3278 2906 2969 
L 2906 3500 
L 3481 3500 
L 3481 434 
z
" transform="scale(0.015625)"/>
       <path id="DejaVuSans-73" d="M 2834 3397 
L 2834 2853 
Q 2591 2978 2328 3040 
Q 2066 3103 1784 3103 
Q 1356 3103 1142 2972 
Q 928 2841 928 2578 
Q 928 2378 1081 2264 
Q 1234 2150 1697 2047 
L 1894 2003 
Q 2506 1872 2764 1633 
Q 3022 1394 3022 966 
Q 3022 478 2636 193 
Q 2250 -91 1575 -91 
Q 1294 -91 989 -36 
Q 684 19 347 128 
L 347 722 
Q 666 556 975 473 
Q 1284 391 1588 391 
Q 1994 391 2212 530 
Q 2431 669 2431 922 
Q 2431 1156 2273 1281 
Q 2116 1406 1581 1522 
L 1381 1569 
Q 847 1681 609 1914 
Q 372 2147 372 2553 
Q 372 3047 722 3315 
Q 1072 3584 1716 3584 
Q 2034 3584 2315 3537 
Q 2597 3491 2834 3397 
z
" transform="scale(0.015625)"/>
       <path id="DejaVuSans-74" d="M 1172 4494 
L 1172 3500 
L 2356 3500 
L 2356 3053 
L 1172 3053 
L 1172 1153 
Q 1172 725 1289 603 
Q 1406 481 1766 481 
L 2356 481 
L 2356 0 
L 1766 0 
Q 1100 0 847 248 
Q 594 497 594 1153 
L 594 3053 
L 172 3053 
L 172 3500 
L 594 3500 
L 594 4494 
L 1172 4494 
z
" transform="scale(0.015625)"/>
       <path id="DejaVuSans-6a" d="M 603 3500 
L 1178 3500 
L 1178 -63 
Q 1178 -731 923 -1031 
Q 669 -1331 103 -1331 
L -116 -1331 
L -116 -844 
L 38 -844 
Q 366 -844 484 -692 
Q 603 -541 603 -63 
L 603 3500 
z
M 603 4863 
L 1178 4863 
L 1178 4134 
L 603 4134 
L 603 4863 
z
" transform="scale(0.015625)"/>
       <path id="DejaVuSans-20" transform="scale(0.015625)"/>
       <path id="DejaVuSans-70" d="M 1159 525 
L 1159 -1331 
L 581 -1331 
L 581 3500 
L 1159 3500 
L 1159 2969 
Q 1341 3281 1617 3432 
Q 1894 3584 2278 3584 
Q 2916 3584 3314 3078 
Q 3713 2572 3713 1747 
Q 3713 922 3314 415 
Q 2916 -91 2278 -91 
Q 1894 -91 1617 61 
Q 1341 213 1159 525 
z
M 3116 1747 
Q 3116 2381 2855 2742 
Q 2594 3103 2138 3103 
Q 1681 3103 1420 2742 
Q 1159 2381 1159 1747 
Q 1159 1113 1420 752 
Q 1681 391 2138 391 
Q 2594 391 2855 752 
Q 3116 1113 3116 1747 
z
" transform="scale(0.015625)"/>
       <path id="DejaVuSans-72" d="M 2631 2963 
Q 2534 3019 2420 3045 
Q 2306 3072 2169 3072 
Q 1681 3072 1420 2755 
Q 1159 2438 1159 1844 
L 1159 0 
L 581 0 
L 581 3500 
L 1159 3500 
L 1159 2956 
Q 1341 3275 1631 3429 
Q 1922 3584 2338 3584 
Q 2397 3584 2469 3576 
Q 2541 3569 2628 3553 
L 2631 2963 
z
" transform="scale(0.015625)"/>
       <path id="DejaVuSans-63" d="M 3122 3366 
L 3122 2828 
Q 2878 2963 2633 3030 
Q 2388 3097 2138 3097 
Q 1578 3097 1268 2742 
Q 959 2388 959 1747 
Q 959 1106 1268 751 
Q 1578 397 2138 397 
Q 2388 397 2633 464 
Q 2878 531 3122 666 
L 3122 134 
Q 2881 22 2623 -34 
Q 2366 -91 2075 -91 
Q 1284 -91 818 406 
Q 353 903 353 1747 
Q 353 2603 823 3093 
Q 1294 3584 2113 3584 
Q 2378 3584 2631 3529 
Q 2884 3475 3122 3366 
z
" transform="scale(0.015625)"/>
       <path id="DejaVuSans-6c" d="M 603 4863 
L 1178 4863 
L 1178 0 
L 603 0 
L 603 4863 
z
" transform="scale(0.015625)"/>
      </defs>
      <use xlink:href="#DejaVuSans-42"/>
      <use xlink:href="#DejaVuSans-65" x="68.603516"/>
      <use xlink:href="#DejaVuSans-64" x="130.126953"/>
      <use xlink:href="#DejaVuSans-69" x="193.603516"/>
      <use xlink:href="#DejaVuSans-65" x="221.386719"/>
      <use xlink:href="#DejaVuSans-6e" x="282.910156"/>
      <use xlink:href="#DejaVuSans-69" x="346.289062"/>
      <use xlink:href="#DejaVuSans-6e" x="374.072266"/>
      <use xlink:href="#DejaVuSans-67" x="437.451172"/>
      <use xlink:href="#DejaVuSans-73" x="500.927734"/>
      <use xlink:href="#DejaVuSans-74" x="553.027344"/>
      <use xlink:href="#DejaVuSans-69" x="592.236328"/>
      <use xlink:href="#DejaVuSans-6a" x="620.019531"/>
      <use xlink:href="#DejaVuSans-64" x="647.802734"/>
      <use xlink:href="#DejaVuSans-20" x="711.279297"/>
      <use xlink:href="#DejaVuSans-70" x="743.066406"/>
      <use xlink:href="#DejaVuSans-65" x="806.542969"/>
      <use xlink:href="#DejaVuSans-72" x="868.066406"/>
      <use xlink:href="#DejaVuSans-63" x="906.929688"/>
      <use xlink:href="#DejaVuSans-65" x="961.910156"/>
      <use xlink:href="#DejaVuSans-6e" x="1023.433594"/>
      <use xlink:href="#DejaVuSans-74" x="1086.8125"/>
      <use xlink:href="#DejaVuSans-69" x="1126.021484"/>
      <use xlink:href="#DejaVuSans-65" x="1153.804688"/>
      <use xlink:href="#DejaVuSans-6c" x="1215.328125"/>
     </g>
    </g>
   </g>
   <g id="matplotlib.axis_2">
    <g id="ytick_1">
     <g id="line2d_7">
      <defs>
       <path id="m0549978c7e" d="M 0 0 
L -3.5 0 
" style="stroke: #000000; stroke-width: 0.8"/>
      </defs>
      <g>
       <use xlink:href="#m0549978c7e" x="57.6" y="307.584" style="stroke: #000000; stroke-width: 0.8"/>
      </g>
     </g>
     <g id="text_8">
      <!-- 0 -->
      <g transform="translate(44.2375 311.383219)scale(0.1 -0.1)">
       <use xlink:href="#DejaVuSans-30"/>
      </g>
     </g>
    </g>
    <g id="ytick_2">
     <g id="line2d_8">
      <g>
       <use xlink:href="#m0549978c7e" x="57.6" y="274.32" style="stroke: #000000; stroke-width: 0.8"/>
      </g>
     </g>
     <g id="text_9">
      <!-- 250 -->
      <g transform="translate(31.5125 278.119219)scale(0.1 -0.1)">
       <defs>
        <path id="DejaVuSans-35" d="M 691 4666 
L 3169 4666 
L 3169 4134 
L 1269 4134 
L 1269 2991 
Q 1406 3038 1543 3061 
Q 1681 3084 1819 3084 
Q 2600 3084 3056 2656 
Q 3513 2228 3513 1497 
Q 3513 744 3044 326 
Q 2575 -91 1722 -91 
Q 1428 -91 1123 -41 
Q 819 9 494 109 
L 494 744 
Q 775 591 1075 516 
Q 1375 441 1709 441 
Q 2250 441 2565 725 
Q 2881 1009 2881 1497 
Q 2881 1984 2565 2268 
Q 2250 2553 1709 2553 
Q 1456 2553 1204 2497 
Q 953 2441 691 2322 
L 691 4666 
z
" transform="scale(0.015625)"/>
       </defs>
       <use xlink:href="#DejaVuSans-32"/>
       <use xlink:href="#DejaVuSans-35" x="63.623047"/>
       <use xlink:href="#DejaVuSans-30" x="127.246094"/>
      </g>
     </g>
    </g>
    <g id="ytick_3">
     <g id="line2d_9">
      <g>
       <use xlink:href="#m0549978c7e" x="57.6" y="241.056" style="stroke: #000000; stroke-width: 0.8"/>
      </g>
     </g>
     <g id="text_10">
      <!-- 500 -->
      <g transform="translate(31.5125 244.855219)scale(0.1 -0.1)">
       <use xlink:href="#DejaVuSans-35"/>
       <use xlink:href="#DejaVuSans-30" x="63.623047"/>
       <use xlink:href="#DejaVuSans-30" x="127.246094"/>
      </g>
     </g>
    </g>
    <g id="ytick_4">
     <g id="line2d_10">
      <g>
       <use xlink:href="#m0549978c7e" x="57.6" y="207.792" style="stroke: #000000; stroke-width: 0.8"/>
      </g>
     </g>
     <g id="text_11">
      <!-- 750 -->
      <g transform="translate(31.5125 211.591219)scale(0.1 -0.1)">
       <defs>
        <path id="DejaVuSans-37" d="M 525 4666 
L 3525 4666 
L 3525 4397 
L 1831 0 
L 1172 0 
L 2766 4134 
L 525 4134 
L 525 4666 
z
" transform="scale(0.015625)"/>
       </defs>
       <use xlink:href="#DejaVuSans-37"/>
       <use xlink:href="#DejaVuSans-35" x="63.623047"/>
       <use xlink:href="#DejaVuSans-30" x="127.246094"/>
      </g>
     </g>
    </g>
    <g id="ytick_5">
     <g id="line2d_11">
      <g>
       <use xlink:href="#m0549978c7e" x="57.6" y="174.528" style="stroke: #000000; stroke-width: 0.8"/>
      </g>
     </g>
     <g id="text_12">
      <!-- 1000 -->
      <g transform="translate(25.15 178.327219)scale(0.1 -0.1)">
       <use xlink:href="#DejaVuSans-31"/>
       <use xlink:href="#DejaVuSans-30" x="63.623047"/>
       <use xlink:href="#DejaVuSans-30" x="127.246094"/>
       <use xlink:href="#DejaVuSans-30" x="190.869141"/>
      </g>
     </g>
    </g>
    <g id="ytick_6">
     <g id="line2d_12">
      <g>
       <use xlink:href="#m0549978c7e" x="57.6" y="141.264" style="stroke: #000000; stroke-width: 0.8"/>
      </g>
     </g>
     <g id="text_13">
      <!-- 1250 -->
      <g transform="translate(25.15 145.063219)scale(0.1 -0.1)">
       <use xlink:href="#DejaVuSans-31"/>
       <use xlink:href="#DejaVuSans-32" x="63.623047"/>
       <use xlink:href="#DejaVuSans-35" x="127.246094"/>
       <use xlink:href="#DejaVuSans-30" x="190.869141"/>
      </g>
     </g>
    </g>
    <g id="ytick_7">
     <g id="line2d_13">
      <g>
       <use xlink:href="#m0549978c7e" x="57.6" y="108" style="stroke: #000000; stroke-width: 0.8"/>
      </g>
     </g>
     <g id="text_14">
      <!-- 1500 -->
      <g transform="translate(25.15 111.799219)scale(0.1 -0.1)">
       <use xlink:href="#DejaVuSans-31"/>
       <use xlink:href="#DejaVuSans-35" x="63.623047"/>
       <use xlink:href="#DejaVuSans-30" x="127.246094"/>
       <use xlink:href="#DejaVuSans-30" x="190.869141"/>
      </g>
     </g>
    </g>
    <g id="ytick_8">
     <g id="line2d_14">
      <g>
       <use xlink:href="#m0549978c7e" x="57.6" y="74.736" style="stroke: #000000; stroke-width: 0.8"/>
      </g>
     </g>
     <g id="text_15">
      <!-- 1750 -->
      <g transform="translate(25.15 78.535219)scale(0.1 -0.1)">
       <use xlink:href="#DejaVuSans-31"/>
       <use xlink:href="#DejaVuSans-37" x="63.623047"/>
       <use xlink:href="#DejaVuSans-35" x="127.246094"/>
       <use xlink:href="#DejaVuSans-30" x="190.869141"/>
      </g>
     </g>
    </g>
    <g id="ytick_9">
     <g id="line2d_15">
      <g>
       <use xlink:href="#m0549978c7e" x="57.6" y="41.472" style="stroke: #000000; stroke-width: 0.8"/>
      </g>
     </g>
     <g id="text_16">
      <!-- 2000 -->
      <g transform="translate(25.15 45.271219)scale(0.1 -0.1)">
       <use xlink:href="#DejaVuSans-32"/>
       <use xlink:href="#DejaVuSans-30" x="63.623047"/>
       <use xlink:href="#DejaVuSans-30" x="127.246094"/>
       <use xlink:href="#DejaVuSans-30" x="190.869141"/>
      </g>
     </g>
    </g>
    <g id="text_17">
     <!-- Wachttijd -->
     <g transform="translate(19.070312 198.007688)rotate(-90)scale(0.1 -0.1)">
      <defs>
       <path id="DejaVuSans-57" d="M 213 4666 
L 850 4666 
L 1831 722 
L 2809 4666 
L 3519 4666 
L 4500 722 
L 5478 4666 
L 6119 4666 
L 4947 0 
L 4153 0 
L 3169 4050 
L 2175 0 
L 1381 0 
L 213 4666 
z
" transform="scale(0.015625)"/>
       <path id="DejaVuSans-61" d="M 2194 1759 
Q 1497 1759 1228 1600 
Q 959 1441 959 1056 
Q 959 750 1161 570 
Q 1363 391 1709 391 
Q 2188 391 2477 730 
Q 2766 1069 2766 1631 
L 2766 1759 
L 2194 1759 
z
M 3341 1997 
L 3341 0 
L 2766 0 
L 2766 531 
Q 2569 213 2275 61 
Q 1981 -91 1556 -91 
Q 1019 -91 701 211 
Q 384 513 384 1019 
Q 384 1609 779 1909 
Q 1175 2209 1959 2209 
L 2766 2209 
L 2766 2266 
Q 2766 2663 2505 2880 
Q 2244 3097 1772 3097 
Q 1472 3097 1187 3025 
Q 903 2953 641 2809 
L 641 3341 
Q 956 3463 1253 3523 
Q 1550 3584 1831 3584 
Q 2591 3584 2966 3190 
Q 3341 2797 3341 1997 
z
" transform="scale(0.015625)"/>
       <path id="DejaVuSans-68" d="M 3513 2113 
L 3513 0 
L 2938 0 
L 2938 2094 
Q 2938 2591 2744 2837 
Q 2550 3084 2163 3084 
Q 1697 3084 1428 2787 
Q 1159 2491 1159 1978 
L 1159 0 
L 581 0 
L 581 4863 
L 1159 4863 
L 1159 2956 
Q 1366 3272 1645 3428 
Q 1925 3584 2291 3584 
Q 2894 3584 3203 3211 
Q 3513 2838 3513 2113 
z
" transform="scale(0.015625)"/>
      </defs>
      <use xlink:href="#DejaVuSans-57"/>
      <use xlink:href="#DejaVuSans-61" x="92.501953"/>
      <use xlink:href="#DejaVuSans-63" x="153.78125"/>
      <use xlink:href="#DejaVuSans-68" x="208.761719"/>
      <use xlink:href="#DejaVuSans-74" x="272.140625"/>
      <use xlink:href="#DejaVuSans-74" x="311.349609"/>
      <use xlink:href="#DejaVuSans-69" x="350.558594"/>
      <use xlink:href="#DejaVuSans-6a" x="378.341797"/>
      <use xlink:href="#DejaVuSans-64" x="406.125"/>
     </g>
    </g>
   </g>
   <g id="line2d_16">
    <path d="M 73.832727 264.869698 
L 77.112066 247.53117 
L 80.391405 262.886498 
L 83.670744 245.714291 
L 86.950083 253.575904 
L 90.229421 259.960596 
L 93.50876 253.548628 
L 96.788099 250.971333 
L 100.067438 249.734578 
L 103.346777 250.522269 
L 106.626116 254.855903 
L 109.905455 258.582802 
L 113.184793 257.053323 
L 116.464132 240.702736 
L 119.743471 256.483843 
L 123.02281 247.773332 
L 126.302149 254.718855 
L 129.581488 255.825881 
L 132.860826 250.79703 
L 136.140165 241.881612 
L 139.419504 258.344631 
L 142.698843 242.783732 
L 145.978182 248.711377 
L 149.257521 244.851422 
L 152.53686 240.678786 
L 155.816198 255.901058 
L 159.095537 252.21208 
L 162.374876 243.932671 
L 165.654215 255.541141 
L 168.933554 244.151548 
L 172.212893 248.411336 
L 175.492231 247.843852 
L 178.77157 246.523936 
L 182.050909 249.536324 
L 185.330248 248.004184 
L 188.609587 245.331089 
L 191.888926 252.196779 
L 195.168264 243.699823 
L 198.447603 249.845679 
L 201.726942 247.133333 
L 205.006281 257.938811 
L 208.28562 253.176071 
L 211.564959 240.060076 
L 214.844298 245.932502 
L 218.123636 245.631131 
L 221.402975 248.942894 
L 224.682314 247.132002 
L 227.961653 254.145384 
L 231.240992 241.483775 
L 234.520331 257.836357 
L 237.799669 251.017237 
L 241.079008 256.243012 
L 244.358347 250.876198 
L 247.637686 253.254574 
L 250.917025 242.097163 
L 254.196364 254.668959 
L 257.475702 246.703562 
L 260.755041 255.992867 
L 264.03438 243.560114 
L 267.313719 249.055327 
L 270.593058 250.971333 
L 273.872397 254.392203 
L 277.151736 243.950633 
L 280.431074 245.44086 
L 283.710413 246.571171 
L 286.989752 243.645935 
L 290.269091 251.471624 
L 293.54843 258.647999 
L 296.827769 251.018568 
L 300.107107 252.675115 
L 303.386446 255.11004 
L 306.665785 245.824062 
L 309.945124 250.607425 
L 313.224463 257.120516 
L 316.503802 254.652993 
L 319.78314 238.428809 
L 323.062479 238.388227 
L 326.341818 242.270801 
L 329.621157 258.956689 
L 332.900496 245.56926 
L 336.179835 250.368589 
L 339.459174 250.68992 
L 342.738512 240.648183 
L 346.017851 249.106553 
L 349.29719 243.795623 
L 352.576529 250.860897 
L 355.855868 248.163852 
L 359.135207 243.222152 
L 362.414545 253.020396 
L 365.693884 248.092667 
L 368.973223 252.07969 
L 372.252562 249.487093 
L 375.531901 249.614162 
L 378.81124 241.751883 
L 382.090579 248.960857 
L 385.369917 251.042518 
L 388.649256 257.340059 
L 391.928595 246.436119 
L 395.207934 249.008757 
L 398.487273 233.186403 
" clip-path="url(#p11e3df5f4d)" style="fill: none; stroke: #1f77b4; stroke-width: 1.5; stroke-linecap: square"/>
   </g>
   <g id="line2d_17">
    <path d="M 73.832727 298.644633 
L 77.112066 296.918231 
L 80.391405 297.459769 
L 83.670744 298.096442 
L 86.950083 297.592825 
L 90.229421 297.930122 
L 93.50876 297.592825 
L 96.788099 295.689459 
L 100.067438 296.992742 
L 103.346777 295.935612 
L 106.626116 298.15166 
L 109.905455 297.659353 
L 113.184793 298.240142 
L 116.464132 297.464426 
L 119.743471 296.240976 
L 123.02281 295.573035 
L 126.302149 297.155071 
L 129.581488 296.742597 
L 132.860826 296.314822 
L 136.140165 296.091953 
L 139.419504 297.317399 
L 142.698843 295.767297 
L 145.978182 295.419355 
L 149.257521 296.626173 
L 152.53686 296.01345 
L 155.816198 296.661433 
L 159.095537 296.435903 
L 162.374876 296.620186 
L 165.654215 295.425343 
L 168.933554 295.523139 
L 172.212893 297.644717 
L 175.492231 293.649045 
L 178.77157 293.901186 
L 182.050909 295.971538 
L 185.330248 297.341349 
L 188.609587 295.857109 
L 191.888926 294.970291 
L 195.168264 293.899856 
L 198.447603 295.594324 
L 201.726942 294.272412 
L 205.006281 293.861935 
L 208.28562 294.21919 
L 211.564959 294.111415 
L 214.844298 293.921145 
L 218.123636 292.476156 
L 221.402975 295.915654 
L 224.682314 292.553329 
L 227.961653 293.476072 
L 231.240992 292.469504 
L 234.520331 294.036238 
L 237.799669 294.9663 
L 241.079008 293.532621 
L 244.358347 294.045552 
L 247.637686 294.221851 
L 250.917025 291.383767 
L 254.196364 294.474658 
L 257.475702 294.491955 
L 260.755041 291.540108 
L 264.03438 291.23807 
L 267.313719 290.997239 
L 270.593058 290.990586 
L 273.872397 290.079153 
L 277.151736 289.147761 
L 280.431074 288.90826 
L 283.710413 290.694537 
L 286.989752 291.451625 
L 290.269091 290.860191 
L 293.54843 288.769216 
L 296.827769 289.045308 
L 300.107107 288.312834 
L 303.386446 288.631503 
L 306.665785 288.507096 
L 309.945124 283.13496 
L 313.224463 285.778117 
L 316.503802 281.951427 
L 319.78314 282.882819 
L 323.062479 280.350098 
L 326.341818 275.918668 
L 329.621157 280.24698 
L 332.900496 282.15966 
L 336.179835 277.026359 
L 339.459174 277.684986 
L 342.738512 276.30453 
L 346.017851 275.120332 
L 349.29719 274.787027 
L 352.576529 272.147861 
L 355.855868 267.272689 
L 359.135207 263.430032 
L 362.414545 267.990526 
L 365.693884 264.708035 
L 368.973223 252.840105 
L 372.252562 255.078107 
L 375.531901 242.252839 
L 378.81124 242.350635 
L 382.090579 228.184163 
L 385.369917 215.803967 
L 388.649256 213.812784 
L 391.928595 171.295404 
L 395.207934 175.412822 
L 398.123323 -1 
" clip-path="url(#p11e3df5f4d)" style="fill: none; stroke: #ff7f0e; stroke-width: 1.5; stroke-linecap: square"/>
   </g>
   <g id="line2d_18">
    <path d="M 73.832727 307.581339 
L 77.112066 307.582004 
L 80.391405 307.577347 
L 83.670744 307.57136 
L 86.950083 307.579343 
L 90.229421 307.562711 
L 93.50876 307.544748 
L 96.788099 307.544083 
L 100.067438 307.54874 
L 103.346777 307.541422 
L 106.626116 307.516807 
L 109.905455 307.527451 
L 113.184793 307.446287 
L 116.464132 307.445622 
L 119.743471 307.500175 
L 123.02281 307.411027 
L 126.302149 307.389073 
L 129.581488 307.341173 
L 132.860826 307.27398 
L 136.140165 307.285955 
L 139.419504 307.270653 
L 142.698843 307.19082 
L 145.978182 307.282628 
L 149.257521 307.06242 
L 152.53686 307.1203 
L 155.816198 307.058429 
L 159.095537 306.976599 
L 162.374876 307.146246 
L 165.654215 306.944666 
L 168.933554 306.976599 
L 172.212893 306.878138 
L 175.492231 306.896766 
L 178.77157 306.720467 
L 182.050909 306.683211 
L 185.330248 306.667909 
L 188.609587 306.496932 
L 191.888926 306.385165 
L 195.168264 306.520883 
L 198.447603 306.043212 
L 201.726942 306.421756 
L 205.006281 305.9687 
L 208.28562 306.237473 
L 211.564959 305.970031 
L 214.844298 305.57685 
L 218.123636 306.00396 
L 221.402975 305.064585 
L 224.682314 305.589491 
L 227.961653 305.423836 
L 231.240992 305.1371 
L 234.520331 304.787828 
L 237.799669 304.177101 
L 241.079008 304.613525 
L 244.358347 305.216934 
L 247.637686 304.023421 
L 250.917025 303.96155 
L 254.196364 303.836478 
L 257.475702 303.612278 
L 260.755041 303.664836 
L 264.03438 303.284961 
L 267.313719 303.57968 
L 270.593058 302.401469 
L 273.872397 302.70151 
L 277.151736 301.362967 
L 280.431074 301.571865 
L 283.710413 302.55781 
L 286.989752 300.941179 
L 290.269091 299.521472 
L 293.54843 300.963799 
L 296.827769 299.336524 
L 300.107107 298.611369 
L 303.386446 297.848292 
L 306.665785 297.773116 
L 309.945124 295.034158 
L 313.224463 293.513993 
L 316.503802 293.096197 
L 319.78314 292.713661 
L 323.062479 290.987925 
L 326.341818 289.474413 
L 329.621157 289.608134 
L 332.900496 285.356995 
L 336.179835 284.220032 
L 339.459174 284.092298 
L 342.738512 284.882651 
L 346.017851 280.592925 
L 349.29719 282.19625 
L 352.576529 279.3575 
L 355.855868 271.741375 
L 359.135207 268.069694 
L 362.414545 267.544788 
L 365.693884 267.574061 
L 368.973223 257.660058 
L 372.252562 249.010753 
L 375.531901 240.79521 
L 378.81124 236.439622 
L 382.090579 220.383755 
L 385.369917 204.463604 
L 388.649256 181.588617 
L 391.928595 141.329197 
L 395.207934 125.720398 
L 396.819304 -1 
" clip-path="url(#p11e3df5f4d)" style="fill: none; stroke: #2ca02c; stroke-width: 1.5; stroke-linecap: square"/>
   </g>
   <g id="line2d_19">
    <path d="M 73.832727 306.860175 
L 77.112066 306.554147 
L 80.391405 306.71581 
L 83.670744 305.463087 
L 86.950083 305.234231 
L 90.229421 304.779845 
L 93.50876 304.177101 
L 96.788099 303.494524 
L 100.067438 302.094775 
L 103.346777 302.21519 
L 106.626116 301.149412 
L 109.905455 301.343674 
L 113.184793 300.593903 
L 116.464132 297.918147 
L 119.743471 300.16014 
L 123.02281 297.576858 
L 126.302149 298.334612 
L 129.581488 297.39058 
L 132.860826 295.31158 
L 136.140165 293.522642 
L 139.419504 295.366133 
L 142.698843 291.466927 
L 145.978182 293.222601 
L 149.257521 291.074412 
L 152.53686 288.766555 
L 155.816198 292.155492 
L 159.095537 290.540192 
L 162.374876 286.766058 
L 165.654215 288.988093 
L 168.933554 284.850717 
L 172.212893 285.975706 
L 175.492231 285.293794 
L 178.77157 283.232756 
L 182.050909 282.699867 
L 185.330248 282.42311 
L 188.609587 280.290888 
L 191.888926 281.295461 
L 195.168264 278.222532 
L 198.447603 278.051556 
L 201.726942 276.10162 
L 205.006281 281.143112 
L 208.28562 278.229185 
L 211.564959 270.668943 
L 214.844298 271.730065 
L 218.123636 272.750604 
L 221.402975 271.353516 
L 224.682314 270.569817 
L 227.961653 272.223037 
L 231.240992 265.284832 
L 234.520331 272.753931 
L 237.799669 267.893395 
L 241.079008 269.464121 
L 244.358347 267.43036 
L 247.637686 264.056725 
L 250.917025 256.607585 
L 254.196364 263.263046 
L 257.475702 258.952032 
L 260.755041 262.174648 
L 264.03438 251.544804 
L 267.313719 252.48551 
L 270.593058 254.040935 
L 273.872397 258.409829 
L 277.151736 244.700404 
L 280.431074 246.961691 
L 283.710413 245.051672 
L 286.989752 242.281446 
L 290.269091 243.309303 
L 293.54843 250.331334 
L 296.827769 238.670306 
L 300.107107 242.270136 
L 303.386446 240.900324 
L 306.665785 231.823909 
L 309.945124 229.410939 
L 313.224463 236.685776 
L 316.503802 233.33476 
L 319.78314 209.188423 
L 323.062479 202.050634 
L 326.341818 210.95208 
L 329.621157 225.678718 
L 332.900496 206.970379 
L 336.179835 208.692789 
L 339.459174 211.358566 
L 342.738512 196.200827 
L 346.017851 201.517744 
L 349.29719 191.600415 
L 352.576529 199.284399 
L 355.855868 183.775392 
L 359.135207 170.079938 
L 362.414545 191.740789 
L 365.693884 182.859967 
L 368.973223 170.474449 
L 372.252562 157.941239 
L 375.531901 155.681948 
L 378.81124 140.89477 
L 382.090579 146.457176 
L 385.369917 128.799314 
L 388.649256 131.254197 
L 391.928595 93.046501 
L 395.207934 80.759445 
L 397.074602 -1 
" clip-path="url(#p11e3df5f4d)" style="fill: none; stroke: #d62728; stroke-width: 1.5; stroke-linecap: square"/>
   </g>
   <g id="line2d_20">
    <path d="M 73.832727 306.085789 
L 77.112066 305.489699 
L 80.391405 305.993981 
L 83.670744 305.6008 
L 86.950083 305.086539 
L 90.229421 303.920303 
L 93.50876 303.774607 
L 96.788099 303.618931 
L 100.067438 301.331033 
L 103.346777 301.249869 
L 106.626116 301.253196 
L 109.905455 301.138102 
L 113.184793 299.7317 
L 116.464132 297.469748 
L 119.743471 300.347084 
L 123.02281 296.972784 
L 126.302149 297.7485 
L 129.581488 297.586172 
L 132.860826 294.911747 
L 136.140165 292.617861 
L 139.419504 295.589002 
L 142.698843 291.025181 
L 145.978182 292.332456 
L 149.257521 291.353164 
L 152.53686 288.423271 
L 155.816198 291.490212 
L 159.095537 290.803643 
L 162.374876 286.241152 
L 165.654215 288.608884 
L 168.933554 285.158076 
L 172.212893 285.122817 
L 175.492231 285.128804 
L 178.77157 283.345188 
L 182.050909 281.867602 
L 185.330248 282.582112 
L 188.609587 280.08066 
L 191.888926 280.66278 
L 195.168264 278.558499 
L 198.447603 277.309103 
L 201.726942 276.222701 
L 205.006281 281.035336 
L 208.28562 277.754175 
L 211.564959 271.09938 
L 214.844298 270.963662 
L 218.123636 272.932226 
L 221.402975 270.750773 
L 224.682314 270.650316 
L 227.961653 271.962248 
L 231.240992 265.451152 
L 234.520331 272.49048 
L 237.799669 268.122252 
L 241.079008 269.14146 
L 244.358347 267.580048 
L 247.637686 263.567079 
L 250.917025 257.048666 
L 254.196364 262.891155 
L 257.475702 259.107042 
L 260.755041 262.049576 
L 264.03438 251.359191 
L 267.313719 252.703722 
L 270.593058 253.818066 
L 273.872397 258.439766 
L 277.151736 244.985809 
L 280.431074 246.907138 
L 283.710413 244.817493 
L 286.989752 242.48236 
L 290.269091 243.568763 
L 293.54843 250.280107 
L 296.827769 238.535919 
L 300.107107 242.299408 
L 303.386446 241.220324 
L 306.665785 231.949647 
L 309.945124 229.651105 
L 313.224463 236.912636 
L 316.503802 233.473139 
L 319.78314 209.36073 
L 323.062479 202.520321 
L 326.341818 211.300021 
L 329.621157 225.9435 
L 332.900496 207.30568 
L 336.179835 209.18177 
L 339.459174 211.697194 
L 342.738512 196.61197 
L 346.017851 201.956829 
L 349.29719 192.203159 
L 352.576529 199.72548 
L 355.855868 184.373479 
L 359.135207 170.827713 
L 362.414545 192.167899 
L 365.693884 183.302378 
L 368.973223 171.14239 
L 372.252562 158.569263 
L 375.531901 156.337914 
L 378.81124 141.567368 
L 382.090579 147.101832 
L 385.369917 129.806548 
L 388.649256 132.347917 
L 391.928595 94.037769 
L 395.207934 81.718779 
L 397.111405 -1 
" clip-path="url(#p11e3df5f4d)" style="fill: none; stroke: #9467bd; stroke-width: 1.5; stroke-linecap: square"/>
   </g>
   <g id="line2d_21">
    <path d="M 73.832727 304.558972 
L 77.112066 303.3781 
L 80.391405 304.424585 
L 83.670744 303.673484 
L 86.950083 303.706083 
L 90.229421 304.152486 
L 93.50876 304.05469 
L 96.788099 303.866415 
L 100.067438 299.854112 
L 103.346777 299.416357 
L 106.626116 299.447626 
L 109.905455 300.210036 
L 113.184793 300.107583 
L 116.464132 297.90085 
L 119.743471 300.667084 
L 123.02281 295.781933 
L 126.302149 296.238315 
L 129.581488 296.010789 
L 132.860826 294.407464 
L 136.140165 293.138775 
L 139.419504 296.00081 
L 142.698843 290.127718 
L 145.978182 290.672582 
L 149.257521 289.518322 
L 152.53686 287.701442 
L 155.816198 291.978527 
L 159.095537 291.3678 
L 162.374876 285.283814 
L 165.654215 287.172544 
L 168.933554 283.252049 
L 172.212893 285.743523 
L 175.492231 285.82003 
L 178.77157 283.429679 
L 182.050909 280.357416 
L 185.330248 280.959494 
L 188.609587 279.797916 
L 191.888926 281.51833 
L 195.168264 279.245733 
L 198.447603 275.878751 
L 201.726942 274.640665 
L 205.006281 280.754588 
L 208.28562 278.453385 
L 211.564959 271.995512 
L 214.844298 269.447489 
L 218.123636 271.402747 
L 221.402975 271.316926 
L 224.682314 271.461957 
L 227.961653 271.502539 
L 231.240992 263.940967 
L 234.520331 272.698047 
L 237.799669 269.108196 
L 241.079008 268.400339 
L 244.358347 266.341297 
L 247.637686 264.386039 
L 250.917025 257.917522 
L 254.196364 261.742216 
L 257.475702 258.676606 
L 260.755041 263.003587 
L 264.03438 251.121686 
L 267.313719 251.760355 
L 270.593058 254.903803 
L 273.872397 258.331326 
L 277.151736 243.895415 
L 280.431074 248.187136 
L 283.710413 244.533419 
L 286.989752 242.376581 
L 290.269091 244.713044 
L 293.54843 249.570253 
L 296.827769 239.495253 
L 300.107107 242.367267 
L 303.386446 240.93758 
L 306.665785 233.158461 
L 309.945124 229.191396 
L 313.224463 238.142074 
L 316.503802 233.103908 
L 319.78314 210.795074 
L 323.062479 202.574209 
L 326.341818 212.384428 
L 329.621157 226.317387 
L 332.900496 207.486636 
L 336.179835 210.731207 
L 339.459174 211.940021 
L 342.738512 197.230015 
L 346.017851 203.158325 
L 349.29719 193.287565 
L 352.576529 200.599658 
L 355.855868 185.386035 
L 359.135207 172.005924 
L 362.414545 192.998169 
L 365.693884 184.19718 
L 368.973223 172.258065 
L 372.252562 159.96369 
L 375.531901 157.736998 
L 378.81124 143.424164 
L 382.090579 148.419752 
L 385.369917 131.823012 
L 388.649256 134.308498 
L 391.928595 96.223213 
L 395.207934 83.624141 
L 397.180332 -1 
" clip-path="url(#p11e3df5f4d)" style="fill: none; stroke: #8c564b; stroke-width: 1.5; stroke-linecap: square"/>
   </g>
   <g id="line2d_22">
    <path d="M 73.832727 299.06642 
L 77.112066 296.454531 
L 80.391405 296.56031 
L 83.670744 297.327378 
L 86.950083 295.583014 
L 90.229421 295.15657 
L 93.50876 295.388752 
L 96.788099 293.537943 
L 100.067438 293.873244 
L 103.346777 294.124055 
L 106.626116 293.577195 
L 109.905455 293.733536 
L 113.184793 293.031 
L 116.464132 292.144847 
L 119.743471 291.349172 
L 123.02281 290.372541 
L 126.302149 290.970628 
L 129.581488 291.248715 
L 132.860826 289.497033 
L 136.140165 288.449217 
L 139.419504 291.077073 
L 142.698843 287.078075 
L 145.978182 288.261608 
L 149.257521 286.392171 
L 152.53686 286.768719 
L 155.816198 288.370714 
L 159.095537 285.289802 
L 162.374876 285.613793 
L 165.654215 285.471423 
L 168.933554 283.543442 
L 172.212893 286.071506 
L 175.492231 282.644649 
L 178.77157 282.308682 
L 182.050909 284.120905 
L 185.330248 282.815626 
L 188.609587 280.771885 
L 191.888926 282.529555 
L 195.168264 280.691387 
L 198.447603 281.326064 
L 201.726942 279.171222 
L 205.006281 282.45704 
L 208.28562 278.45538 
L 211.564959 276.271266 
L 214.844298 278.052221 
L 218.123636 276.560663 
L 221.402975 276.945195 
L 224.682314 273.401248 
L 227.961653 278.499289 
L 231.240992 273.505697 
L 234.520331 278.946357 
L 237.799669 276.089645 
L 241.079008 276.57663 
L 244.358347 276.619208 
L 247.637686 274.339958 
L 250.917025 270.199256 
L 254.196364 273.634762 
L 257.475702 272.77522 
L 260.755041 273.33472 
L 264.03438 268.216056 
L 267.313719 267.036515 
L 270.593058 270.32832 
L 273.872397 269.726242 
L 277.151736 264.916267 
L 280.431074 265.625456 
L 283.710413 264.584292 
L 286.989752 264.143877 
L 290.269091 265.39793 
L 293.54843 267.254061 
L 296.827769 263.684834 
L 300.107107 264.504459 
L 303.386446 265.241589 
L 306.665785 257.369331 
L 309.945124 258.286087 
L 313.224463 261.863963 
L 316.503802 259.713112 
L 319.78314 251.274701 
L 323.062479 248.80252 
L 326.341818 250.664639 
L 329.621157 261.661717 
L 332.900496 251.429046 
L 336.179835 249.866968 
L 339.459174 253.91054 
L 342.738512 246.229883 
L 346.017851 249.638777 
L 349.29719 243.292006 
L 352.576529 251.534825 
L 355.855868 241.00943 
L 359.135207 237.191388 
L 362.414545 247.767345 
L 365.693884 243.837536 
L 368.973223 240.337498 
L 372.252562 238.280452 
L 375.531901 234.618085 
L 378.81124 225.890277 
L 382.090579 230.640376 
L 385.369917 232.071394 
L 388.649256 235.656588 
L 391.928595 214.792741 
L 395.207934 214.743511 
L 398.487273 168.573079 
" clip-path="url(#p11e3df5f4d)" style="fill: none; stroke: #e377c2; stroke-width: 1.5; stroke-linecap: square"/>
   </g>
   <g id="line2d_23">
    <path d="M 73.832727 303.86575 
L 77.112066 302.795315 
L 80.391405 303.666831 
L 83.670744 303.463921 
L 86.950083 303.352154 
L 90.229421 302.875148 
L 93.50876 303.391405 
L 96.788099 303.610283 
L 100.067438 303.203796 
L 103.346777 303.087372 
L 106.626116 303.732694 
L 109.905455 303.73469 
L 113.184793 303.763297 
L 116.464132 303.847122 
L 119.743471 303.046125 
L 123.02281 302.724795 
L 126.302149 302.929036 
L 129.581488 303.075397 
L 132.860826 303.161219 
L 136.140165 303.202466 
L 139.419504 304.079305 
L 142.698843 303.512486 
L 145.978182 299.011202 
L 149.257521 297.612118 
L 152.53686 297.621432 
L 155.816198 298.251452 
L 159.095537 298.473656 
L 162.374876 297.466422 
L 165.654215 297.766463 
L 168.933554 298.484965 
L 172.212893 298.964632 
L 175.492231 297.263511 
L 178.77157 297.324052 
L 182.050909 297.429831 
L 185.330248 297.780434 
L 188.609587 296.616194 
L 191.888926 297.84164 
L 195.168264 298.65062 
L 198.447603 296.382015 
L 201.726942 297.424509 
L 205.006281 297.041973 
L 208.28562 297.775777 
L 211.564959 298.09245 
L 214.844298 298.008625 
L 218.123636 297.643386 
L 221.402975 297.934114 
L 224.682314 297.320725 
L 227.961653 298.576774 
L 231.240992 297.424509 
L 234.520331 298.034571 
L 237.799669 297.587503 
L 241.079008 297.922804 
L 244.358347 290.234828 
L 247.637686 266.4198 
L 250.917025 260.194775 
L 254.196364 265.85032 
L 257.475702 264.392027 
L 260.755041 264.488492 
L 264.03438 260.498143 
L 267.313719 265.411236 
L 270.593058 268.267948 
L 273.872397 270.420129 
L 277.151736 262.046249 
L 280.431074 265.57556 
L 283.710413 265.071943 
L 286.989752 264.684084 
L 290.269091 263.56974 
L 293.54843 270.786033 
L 296.827769 264.560342 
L 300.107107 266.084499 
L 303.386446 261.98837 
L 306.665785 267.703125 
L 309.945124 266.124416 
L 313.224463 267.773645 
L 316.503802 263.364834 
L 319.78314 262.933068 
L 323.062479 254.7295 
L 326.341818 263.432028 
L 329.621157 268.007158 
L 332.900496 262.11943 
L 336.179835 265.305456 
L 339.459174 268.077678 
L 342.738512 180.177558 
L 346.017851 137.133276 
L 349.29719 120.571131 
L 352.576529 139.77843 
L 355.855868 150.933845 
L 359.135207 122.241649 
L 362.414545 148.220168 
L 365.693884 128.86052 
L 368.973223 126.572622 
L 372.252562 127.869918 
L 375.531901 135.203964 
L 378.81124 132.324633 
L 382.090579 143.659673 
L 385.369917 140.44371 
L 387.915522 -1 
" clip-path="url(#p11e3df5f4d)" style="fill: none; stroke: #7f7f7f; stroke-width: 1.5; stroke-linecap: square"/>
   </g>
   <g id="line2d_24">
    <path d="M 73.832727 301.86858 
L 77.112066 300.341097 
L 80.391405 302.374192 
L 83.670744 301.115483 
L 86.950083 300.889953 
L 90.229421 301.589162 
L 93.50876 301.137437 
L 96.788099 301.96438 
L 100.067438 301.426834 
L 103.346777 300.981761 
L 106.626116 301.425503 
L 109.905455 300.629828 
L 113.184793 302.097436 
L 116.464132 301.487374 
L 119.743471 301.040971 
L 123.02281 300.812115 
L 126.302149 301.374942 
L 129.581488 301.46675 
L 132.860826 300.706335 
L 136.140165 301.171366 
L 139.419504 301.604463 
L 142.698843 300.943175 
L 145.978182 300.841387 
L 149.257521 301.187333 
L 152.53686 301.024339 
L 155.816198 301.717561 
L 159.095537 301.841968 
L 162.374876 301.137437 
L 165.654215 301.033653 
L 168.933554 301.404879 
L 172.212893 301.92912 
L 175.492231 300.597895 
L 178.77157 300.700348 
L 182.050909 301.764796 
L 185.330248 301.11016 
L 188.609587 300.772198 
L 191.888926 301.606459 
L 195.168264 301.520638 
L 198.447603 300.479475 
L 201.726942 284.506767 
L 205.006281 276.318501 
L 208.28562 280.430597 
L 211.564959 274.21422 
L 214.844298 275.998501 
L 218.123636 279.865109 
L 221.402975 278.202574 
L 224.682314 278.179955 
L 227.961653 282.485647 
L 231.240992 278.721492 
L 234.520331 282.336624 
L 237.799669 279.754672 
L 241.079008 278.914424 
L 244.358347 282.050554 
L 247.637686 279.740036 
L 250.917025 275.921329 
L 254.196364 279.079413 
L 257.475702 277.784113 
L 260.755041 280.27093 
L 264.03438 276.203408 
L 267.313719 277.886566 
L 270.593058 281.363319 
L 273.872397 282.742445 
L 277.151736 275.736381 
L 280.431074 277.557252 
L 283.710413 278.428769 
L 286.989752 278.23983 
L 290.269091 279.212469 
L 293.54843 281.966728 
L 296.827769 277.712263 
L 300.107107 280.264942 
L 303.386446 276.317171 
L 306.665785 279.676169 
L 309.945124 278.378208 
L 313.224463 279.330889 
L 316.503802 277.742866 
L 319.78314 279.669516 
L 323.062479 272.101291 
L 326.341818 165.864724 
L 329.621157 178.467123 
L 332.900496 149.263327 
L 336.179835 140.554812 
L 339.459174 159.517953 
L 342.738512 146.320793 
L 346.017851 158.643109 
L 349.29719 148.939335 
L 352.576529 160.324937 
L 355.855868 163.226223 
L 359.135207 137.030823 
L 362.414545 166.826719 
L 365.693884 152.353552 
L 368.973223 146.130523 
L 372.252562 148.908732 
L 375.531901 150.637795 
L 378.81124 148.743743 
L 382.090579 162.994706 
L 385.369917 164.878779 
L 388.649256 162.7419 
L 390.247691 -1 
" clip-path="url(#p11e3df5f4d)" style="fill: none; stroke: #bcbd22; stroke-width: 1.5; stroke-linecap: square"/>
   </g>
   <g id="patch_3">
    <path d="M 57.6 307.584 
L 57.6 41.472 
" style="fill: none; stroke: #000000; stroke-width: 0.8; stroke-linejoin: miter; stroke-linecap: square"/>
   </g>
   <g id="patch_4">
    <path d="M 414.72 307.584 
L 414.72 41.472 
" style="fill: none; stroke: #000000; stroke-width: 0.8; stroke-linejoin: miter; stroke-linecap: square"/>
   </g>
   <g id="patch_5">
    <path d="M 57.6 307.584 
L 414.72 307.584 
" style="fill: none; stroke: #000000; stroke-width: 0.8; stroke-linejoin: miter; stroke-linecap: square"/>
   </g>
   <g id="patch_6">
    <path d="M 57.6 41.472 
L 414.72 41.472 
" style="fill: none; stroke: #000000; stroke-width: 0.8; stroke-linejoin: miter; stroke-linecap: square"/>
   </g>
   <g id="text_18">
    <!-- Wachttijd in functie van bedieningstijd -->
    <g transform="translate(120.759375 35.472)scale(0.12 -0.12)">
     <defs>
      <path id="DejaVuSans-66" d="M 2375 4863 
L 2375 4384 
L 1825 4384 
Q 1516 4384 1395 4259 
Q 1275 4134 1275 3809 
L 1275 3500 
L 2222 3500 
L 2222 3053 
L 1275 3053 
L 1275 0 
L 697 0 
L 697 3053 
L 147 3053 
L 147 3500 
L 697 3500 
L 697 3744 
Q 697 4328 969 4595 
Q 1241 4863 1831 4863 
L 2375 4863 
z
" transform="scale(0.015625)"/>
      <path id="DejaVuSans-75" d="M 544 1381 
L 544 3500 
L 1119 3500 
L 1119 1403 
Q 1119 906 1312 657 
Q 1506 409 1894 409 
Q 2359 409 2629 706 
Q 2900 1003 2900 1516 
L 2900 3500 
L 3475 3500 
L 3475 0 
L 2900 0 
L 2900 538 
Q 2691 219 2414 64 
Q 2138 -91 1772 -91 
Q 1169 -91 856 284 
Q 544 659 544 1381 
z
M 1991 3584 
L 1991 3584 
z
" transform="scale(0.015625)"/>
      <path id="DejaVuSans-76" d="M 191 3500 
L 800 3500 
L 1894 563 
L 2988 3500 
L 3597 3500 
L 2284 0 
L 1503 0 
L 191 3500 
z
" transform="scale(0.015625)"/>
      <path id="DejaVuSans-62" d="M 3116 1747 
Q 3116 2381 2855 2742 
Q 2594 3103 2138 3103 
Q 1681 3103 1420 2742 
Q 1159 2381 1159 1747 
Q 1159 1113 1420 752 
Q 1681 391 2138 391 
Q 2594 391 2855 752 
Q 3116 1113 3116 1747 
z
M 1159 2969 
Q 1341 3281 1617 3432 
Q 1894 3584 2278 3584 
Q 2916 3584 3314 3078 
Q 3713 2572 3713 1747 
Q 3713 922 3314 415 
Q 2916 -91 2278 -91 
Q 1894 -91 1617 61 
Q 1341 213 1159 525 
L 1159 0 
L 581 0 
L 581 4863 
L 1159 4863 
L 1159 2969 
z
" transform="scale(0.015625)"/>
     </defs>
     <use xlink:href="#DejaVuSans-57"/>
     <use xlink:href="#DejaVuSans-61" x="92.501953"/>
     <use xlink:href="#DejaVuSans-63" x="153.78125"/>
     <use xlink:href="#DejaVuSans-68" x="208.761719"/>
     <use xlink:href="#DejaVuSans-74" x="272.140625"/>
     <use xlink:href="#DejaVuSans-74" x="311.349609"/>
     <use xlink:href="#DejaVuSans-69" x="350.558594"/>
     <use xlink:href="#DejaVuSans-6a" x="378.341797"/>
     <use xlink:href="#DejaVuSans-64" x="406.125"/>
     <use xlink:href="#DejaVuSans-20" x="469.601562"/>
     <use xlink:href="#DejaVuSans-69" x="501.388672"/>
     <use xlink:href="#DejaVuSans-6e" x="529.171875"/>
     <use xlink:href="#DejaVuSans-20" x="592.550781"/>
     <use xlink:href="#DejaVuSans-66" x="624.337891"/>
     <use xlink:href="#DejaVuSans-75" x="659.542969"/>
     <use xlink:href="#DejaVuSans-6e" x="722.921875"/>
     <use xlink:href="#DejaVuSans-63" x="786.300781"/>
     <use xlink:href="#DejaVuSans-74" x="841.28125"/>
     <use xlink:href="#DejaVuSans-69" x="880.490234"/>
     <use xlink:href="#DejaVuSans-65" x="908.273438"/>
     <use xlink:href="#DejaVuSans-20" x="969.796875"/>
     <use xlink:href="#DejaVuSans-76" x="1001.583984"/>
     <use xlink:href="#DejaVuSans-61" x="1060.763672"/>
     <use xlink:href="#DejaVuSans-6e" x="1122.042969"/>
     <use xlink:href="#DejaVuSans-20" x="1185.421875"/>
     <use xlink:href="#DejaVuSans-62" x="1217.208984"/>
     <use xlink:href="#DejaVuSans-65" x="1280.685547"/>
     <use xlink:href="#DejaVuSans-64" x="1342.208984"/>
     <use xlink:href="#DejaVuSans-69" x="1405.685547"/>
     <use xlink:href="#DejaVuSans-65" x="1433.46875"/>
     <use xlink:href="#DejaVuSans-6e" x="1494.992188"/>
     <use xlink:href="#DejaVuSans-69" x="1558.371094"/>
     <use xlink:href="#DejaVuSans-6e" x="1586.154297"/>
     <use xlink:href="#DejaVuSans-67" x="1649.533203"/>
     <use xlink:href="#DejaVuSans-73" x="1713.009766"/>
     <use xlink:href="#DejaVuSans-74" x="1765.109375"/>
     <use xlink:href="#DejaVuSans-69" x="1804.318359"/>
     <use xlink:href="#DejaVuSans-6a" x="1832.101562"/>
     <use xlink:href="#DejaVuSans-64" x="1859.884766"/>
    </g>
   </g>
   <g id="legend_1">
    <g id="patch_7">
     <path d="M 64.6 181.575125 
L 136.1375 181.575125 
Q 138.1375 181.575125 138.1375 179.575125 
L 138.1375 48.472 
Q 138.1375 46.472 136.1375 46.472 
L 64.6 46.472 
Q 62.6 46.472 62.6 48.472 
L 62.6 179.575125 
Q 62.6 181.575125 64.6 181.575125 
z
" style="fill: #ffffff; opacity: 0.8; stroke: #cccccc; stroke-linejoin: miter"/>
    </g>
    <g id="line2d_25">
     <path d="M 66.6 54.570438 
L 76.6 54.570438 
L 86.6 54.570438 
" style="fill: none; stroke: #1f77b4; stroke-width: 1.5; stroke-linecap: square"/>
    </g>
    <g id="text_19">
     <!-- FCFS -->
     <g transform="translate(94.6 58.070438)scale(0.1 -0.1)">
      <defs>
       <path id="DejaVuSans-46" d="M 628 4666 
L 3309 4666 
L 3309 4134 
L 1259 4134 
L 1259 2759 
L 3109 2759 
L 3109 2228 
L 1259 2228 
L 1259 0 
L 628 0 
L 628 4666 
z
" transform="scale(0.015625)"/>
       <path id="DejaVuSans-43" d="M 4122 4306 
L 4122 3641 
Q 3803 3938 3442 4084 
Q 3081 4231 2675 4231 
Q 1875 4231 1450 3742 
Q 1025 3253 1025 2328 
Q 1025 1406 1450 917 
Q 1875 428 2675 428 
Q 3081 428 3442 575 
Q 3803 722 4122 1019 
L 4122 359 
Q 3791 134 3420 21 
Q 3050 -91 2638 -91 
Q 1578 -91 968 557 
Q 359 1206 359 2328 
Q 359 3453 968 4101 
Q 1578 4750 2638 4750 
Q 3056 4750 3426 4639 
Q 3797 4528 4122 4306 
z
" transform="scale(0.015625)"/>
       <path id="DejaVuSans-53" d="M 3425 4513 
L 3425 3897 
Q 3066 4069 2747 4153 
Q 2428 4238 2131 4238 
Q 1616 4238 1336 4038 
Q 1056 3838 1056 3469 
Q 1056 3159 1242 3001 
Q 1428 2844 1947 2747 
L 2328 2669 
Q 3034 2534 3370 2195 
Q 3706 1856 3706 1288 
Q 3706 609 3251 259 
Q 2797 -91 1919 -91 
Q 1588 -91 1214 -16 
Q 841 59 441 206 
L 441 856 
Q 825 641 1194 531 
Q 1563 422 1919 422 
Q 2459 422 2753 634 
Q 3047 847 3047 1241 
Q 3047 1584 2836 1778 
Q 2625 1972 2144 2069 
L 1759 2144 
Q 1053 2284 737 2584 
Q 422 2884 422 3419 
Q 422 4038 858 4394 
Q 1294 4750 2059 4750 
Q 2388 4750 2728 4690 
Q 3069 4631 3425 4513 
z
" transform="scale(0.015625)"/>
      </defs>
      <use xlink:href="#DejaVuSans-46"/>
      <use xlink:href="#DejaVuSans-43" x="57.519531"/>
      <use xlink:href="#DejaVuSans-46" x="127.34375"/>
      <use xlink:href="#DejaVuSans-53" x="183.113281"/>
     </g>
    </g>
    <g id="line2d_26">
     <path d="M 66.6 69.248563 
L 76.6 69.248563 
L 86.6 69.248563 
" style="fill: none; stroke: #ff7f0e; stroke-width: 1.5; stroke-linecap: square"/>
    </g>
    <g id="text_20">
     <!-- SJF -->
     <g transform="translate(94.6 72.748563)scale(0.1 -0.1)">
      <defs>
       <path id="DejaVuSans-4a" d="M 628 4666 
L 1259 4666 
L 1259 325 
Q 1259 -519 939 -900 
Q 619 -1281 -91 -1281 
L -331 -1281 
L -331 -750 
L -134 -750 
Q 284 -750 456 -515 
Q 628 -281 628 325 
L 628 4666 
z
" transform="scale(0.015625)"/>
      </defs>
      <use xlink:href="#DejaVuSans-53"/>
      <use xlink:href="#DejaVuSans-4a" x="63.476562"/>
      <use xlink:href="#DejaVuSans-46" x="92.96875"/>
     </g>
    </g>
    <g id="line2d_27">
     <path d="M 66.6 83.926688 
L 76.6 83.926688 
L 86.6 83.926688 
" style="fill: none; stroke: #2ca02c; stroke-width: 1.5; stroke-linecap: square"/>
    </g>
    <g id="text_21">
     <!-- SRT -->
     <g transform="translate(94.6 87.426688)scale(0.1 -0.1)">
      <defs>
       <path id="DejaVuSans-52" d="M 2841 2188 
Q 3044 2119 3236 1894 
Q 3428 1669 3622 1275 
L 4263 0 
L 3584 0 
L 2988 1197 
Q 2756 1666 2539 1819 
Q 2322 1972 1947 1972 
L 1259 1972 
L 1259 0 
L 628 0 
L 628 4666 
L 2053 4666 
Q 2853 4666 3247 4331 
Q 3641 3997 3641 3322 
Q 3641 2881 3436 2590 
Q 3231 2300 2841 2188 
z
M 1259 4147 
L 1259 2491 
L 2053 2491 
Q 2509 2491 2742 2702 
Q 2975 2913 2975 3322 
Q 2975 3731 2742 3939 
Q 2509 4147 2053 4147 
L 1259 4147 
z
" transform="scale(0.015625)"/>
       <path id="DejaVuSans-54" d="M -19 4666 
L 3928 4666 
L 3928 4134 
L 2272 4134 
L 2272 0 
L 1638 0 
L 1638 4134 
L -19 4134 
L -19 4666 
z
" transform="scale(0.015625)"/>
      </defs>
      <use xlink:href="#DejaVuSans-53"/>
      <use xlink:href="#DejaVuSans-52" x="63.476562"/>
      <use xlink:href="#DejaVuSans-54" x="125.708984"/>
     </g>
    </g>
    <g id="line2d_28">
     <path d="M 66.6 98.604813 
L 76.6 98.604813 
L 86.6 98.604813 
" style="fill: none; stroke: #d62728; stroke-width: 1.5; stroke-linecap: square"/>
    </g>
    <g id="text_22">
     <!-- RR2 -->
     <g transform="translate(94.6 102.104813)scale(0.1 -0.1)">
      <use xlink:href="#DejaVuSans-52"/>
      <use xlink:href="#DejaVuSans-52" x="69.482422"/>
      <use xlink:href="#DejaVuSans-32" x="138.964844"/>
     </g>
    </g>
    <g id="line2d_29">
     <path d="M 66.6 113.282938 
L 76.6 113.282938 
L 86.6 113.282938 
" style="fill: none; stroke: #9467bd; stroke-width: 1.5; stroke-linecap: square"/>
    </g>
    <g id="text_23">
     <!-- RR4 -->
     <g transform="translate(94.6 116.782938)scale(0.1 -0.1)">
      <use xlink:href="#DejaVuSans-52"/>
      <use xlink:href="#DejaVuSans-52" x="69.482422"/>
      <use xlink:href="#DejaVuSans-34" x="138.964844"/>
     </g>
    </g>
    <g id="line2d_30">
     <path d="M 66.6 127.961063 
L 76.6 127.961063 
L 86.6 127.961063 
" style="fill: none; stroke: #8c564b; stroke-width: 1.5; stroke-linecap: square"/>
    </g>
    <g id="text_24">
     <!-- RR8 -->
     <g transform="translate(94.6 131.461063)scale(0.1 -0.1)">
      <use xlink:href="#DejaVuSans-52"/>
      <use xlink:href="#DejaVuSans-52" x="69.482422"/>
      <use xlink:href="#DejaVuSans-38" x="138.964844"/>
     </g>
    </g>
    <g id="line2d_31">
     <path d="M 66.6 142.639188 
L 76.6 142.639188 
L 86.6 142.639188 
" style="fill: none; stroke: #e377c2; stroke-width: 1.5; stroke-linecap: square"/>
    </g>
    <g id="text_25">
     <!-- HRRN -->
     <g transform="translate(94.6 146.139188)scale(0.1 -0.1)">
      <defs>
       <path id="DejaVuSans-48" d="M 628 4666 
L 1259 4666 
L 1259 2753 
L 3553 2753 
L 3553 4666 
L 4184 4666 
L 4184 0 
L 3553 0 
L 3553 2222 
L 1259 2222 
L 1259 0 
L 628 0 
L 628 4666 
z
" transform="scale(0.015625)"/>
       <path id="DejaVuSans-4e" d="M 628 4666 
L 1478 4666 
L 3547 763 
L 3547 4666 
L 4159 4666 
L 4159 0 
L 3309 0 
L 1241 3903 
L 1241 0 
L 628 0 
L 628 4666 
z
" transform="scale(0.015625)"/>
      </defs>
      <use xlink:href="#DejaVuSans-48"/>
      <use xlink:href="#DejaVuSans-52" x="75.195312"/>
      <use xlink:href="#DejaVuSans-52" x="144.677734"/>
      <use xlink:href="#DejaVuSans-4e" x="214.160156"/>
     </g>
    </g>
    <g id="line2d_32">
     <path d="M 66.6 157.317313 
L 76.6 157.317313 
L 86.6 157.317313 
" style="fill: none; stroke: #7f7f7f; stroke-width: 1.5; stroke-linecap: square"/>
    </g>
    <g id="text_26">
     <!-- MLFB25 -->
     <g transform="translate(94.6 160.817313)scale(0.1 -0.1)">
      <defs>
       <path id="DejaVuSans-4d" d="M 628 4666 
L 1569 4666 
L 2759 1491 
L 3956 4666 
L 4897 4666 
L 4897 0 
L 4281 0 
L 4281 4097 
L 3078 897 
L 2444 897 
L 1241 4097 
L 1241 0 
L 628 0 
L 628 4666 
z
" transform="scale(0.015625)"/>
       <path id="DejaVuSans-4c" d="M 628 4666 
L 1259 4666 
L 1259 531 
L 3531 531 
L 3531 0 
L 628 0 
L 628 4666 
z
" transform="scale(0.015625)"/>
      </defs>
      <use xlink:href="#DejaVuSans-4d"/>
      <use xlink:href="#DejaVuSans-4c" x="86.279297"/>
      <use xlink:href="#DejaVuSans-46" x="141.992188"/>
      <use xlink:href="#DejaVuSans-42" x="199.511719"/>
      <use xlink:href="#DejaVuSans-32" x="268.115234"/>
      <use xlink:href="#DejaVuSans-35" x="331.738281"/>
     </g>
    </g>
    <g id="line2d_33">
     <path d="M 66.6 171.995438 
L 76.6 171.995438 
L 86.6 171.995438 
" style="fill: none; stroke: #bcbd22; stroke-width: 1.5; stroke-linecap: square"/>
    </g>
    <g id="text_27">
     <!-- MLFB50 -->
     <g transform="translate(94.6 175.495438)scale(0.1 -0.1)">
      <use xlink:href="#DejaVuSans-4d"/>
      <use xlink:href="#DejaVuSans-4c" x="86.279297"/>
      <use xlink:href="#DejaVuSans-46" x="141.992188"/>
      <use xlink:href="#DejaVuSans-42" x="199.511719"/>
      <use xlink:href="#DejaVuSans-35" x="268.115234"/>
      <use xlink:href="#DejaVuSans-30" x="331.738281"/>
     </g>
    </g>
   </g>
  </g>
 </g>
 <defs>
  <clipPath id="p11e3df5f4d">
   <rect x="57.6" y="41.472" width="357.12" height="266.112"/>
  </clipPath>
 </defs>
</svg>
