<?xml version="1.0" encoding="utf-8" standalone="no"?>
<!DOCTYPE svg PUBLIC "-//W3C//DTD SVG 1.1//EN"
  "http://www.w3.org/Graphics/SVG/1.1/DTD/svg11.dtd">
<svg xmlns:xlink="http://www.w3.org/1999/xlink" width="460.8pt" height="345.6pt" viewBox="0 0 460.8 345.6" xmlns="http://www.w3.org/2000/svg" version="1.1">
 <metadata>
  <rdf:RDF xmlns:dc="http://purl.org/dc/elements/1.1/" xmlns:cc="http://creativecommons.org/ns#" xmlns:rdf="http://www.w3.org/1999/02/22-rdf-syntax-ns#">
   <cc:Work>
    <dc:type rdf:resource="http://purl.org/dc/dcmitype/StillImage"/>
    <dc:date>2022-03-29T15:50:14.146572</dc:date>
    <dc:format>image/svg+xml</dc:format>
    <dc:creator>
     <cc:Agent>
      <dc:title>Matplotlib v3.5.1, https://matplotlib.org/</dc:title>
     </cc:Agent>
    </dc:creator>
   </cc:Work>
  </rdf:RDF>
 </metadata>
 <defs>
  <style type="text/css">*{stroke-linejoin: round; stroke-linecap: butt}</style>
 </defs>
 <g id="figure_1">
  <g id="patch_1">
   <path d="M 0 345.6 
L 460.8 345.6 
L 460.8 0 
L 0 0 
z
" style="fill: #ffffff"/>
  </g>
  <g id="axes_1">
   <g id="patch_2">
    <path d="M 57.6 307.584 
L 414.72 307.584 
L 414.72 41.472 
L 57.6 41.472 
z
" style="fill: #ffffff"/>
   </g>
   <g id="matplotlib.axis_1">
    <g id="xtick_1">
     <g id="line2d_1">
      <defs>
       <path id="m145de9434a" d="M 0 0 
L 0 3.5 
" style="stroke: #000000; stroke-width: 0.8"/>
      </defs>
      <g>
       <use xlink:href="#m145de9434a" x="70.553388" y="307.584" style="stroke: #000000; stroke-width: 0.8"/>
      </g>
     </g>
     <g id="text_1">
      <!-- 0 -->
      <g transform="translate(67.372138 322.182437)scale(0.1 -0.1)">
       <defs>
        <path id="DejaVuSans-30" d="M 2034 4250 
Q 1547 4250 1301 3770 
Q 1056 3291 1056 2328 
Q 1056 1369 1301 889 
Q 1547 409 2034 409 
Q 2525 409 2770 889 
Q 3016 1369 3016 2328 
Q 3016 3291 2770 3770 
Q 2525 4250 2034 4250 
z
M 2034 4750 
Q 2819 4750 3233 4129 
Q 3647 3509 3647 2328 
Q 3647 1150 3233 529 
Q 2819 -91 2034 -91 
Q 1250 -91 836 529 
Q 422 1150 422 2328 
Q 422 3509 836 4129 
Q 1250 4750 2034 4750 
z
" transform="scale(0.015625)"/>
       </defs>
       <use xlink:href="#DejaVuSans-30"/>
      </g>
     </g>
    </g>
    <g id="xtick_2">
     <g id="line2d_2">
      <g>
       <use xlink:href="#m145de9434a" x="136.140165" y="307.584" style="stroke: #000000; stroke-width: 0.8"/>
      </g>
     </g>
     <g id="text_2">
      <!-- 20 -->
      <g transform="translate(129.777665 322.182437)scale(0.1 -0.1)">
       <defs>
        <path id="DejaVuSans-32" d="M 1228 531 
L 3431 531 
L 3431 0 
L 469 0 
L 469 531 
Q 828 903 1448 1529 
Q 2069 2156 2228 2338 
Q 2531 2678 2651 2914 
Q 2772 3150 2772 3378 
Q 2772 3750 2511 3984 
Q 2250 4219 1831 4219 
Q 1534 4219 1204 4116 
Q 875 4013 500 3803 
L 500 4441 
Q 881 4594 1212 4672 
Q 1544 4750 1819 4750 
Q 2544 4750 2975 4387 
Q 3406 4025 3406 3419 
Q 3406 3131 3298 2873 
Q 3191 2616 2906 2266 
Q 2828 2175 2409 1742 
Q 1991 1309 1228 531 
z
" transform="scale(0.015625)"/>
       </defs>
       <use xlink:href="#DejaVuSans-32"/>
       <use xlink:href="#DejaVuSans-30" x="63.623047"/>
      </g>
     </g>
    </g>
    <g id="xtick_3">
     <g id="line2d_3">
      <g>
       <use xlink:href="#m145de9434a" x="201.726942" y="307.584" style="stroke: #000000; stroke-width: 0.8"/>
      </g>
     </g>
     <g id="text_3">
      <!-- 40 -->
      <g transform="translate(195.364442 322.182437)scale(0.1 -0.1)">
       <defs>
        <path id="DejaVuSans-34" d="M 2419 4116 
L 825 1625 
L 2419 1625 
L 2419 4116 
z
M 2253 4666 
L 3047 4666 
L 3047 1625 
L 3713 1625 
L 3713 1100 
L 3047 1100 
L 3047 0 
L 2419 0 
L 2419 1100 
L 313 1100 
L 313 1709 
L 2253 4666 
z
" transform="scale(0.015625)"/>
       </defs>
       <use xlink:href="#DejaVuSans-34"/>
       <use xlink:href="#DejaVuSans-30" x="63.623047"/>
      </g>
     </g>
    </g>
    <g id="xtick_4">
     <g id="line2d_4">
      <g>
       <use xlink:href="#m145de9434a" x="267.313719" y="307.584" style="stroke: #000000; stroke-width: 0.8"/>
      </g>
     </g>
     <g id="text_4">
      <!-- 60 -->
      <g transform="translate(260.951219 322.182437)scale(0.1 -0.1)">
       <defs>
        <path id="DejaVuSans-36" d="M 2113 2584 
Q 1688 2584 1439 2293 
Q 1191 2003 1191 1497 
Q 1191 994 1439 701 
Q 1688 409 2113 409 
Q 2538 409 2786 701 
Q 3034 994 3034 1497 
Q 3034 2003 2786 2293 
Q 2538 2584 2113 2584 
z
M 3366 4563 
L 3366 3988 
Q 3128 4100 2886 4159 
Q 2644 4219 2406 4219 
Q 1781 4219 1451 3797 
Q 1122 3375 1075 2522 
Q 1259 2794 1537 2939 
Q 1816 3084 2150 3084 
Q 2853 3084 3261 2657 
Q 3669 2231 3669 1497 
Q 3669 778 3244 343 
Q 2819 -91 2113 -91 
Q 1303 -91 875 529 
Q 447 1150 447 2328 
Q 447 3434 972 4092 
Q 1497 4750 2381 4750 
Q 2619 4750 2861 4703 
Q 3103 4656 3366 4563 
z
" transform="scale(0.015625)"/>
       </defs>
       <use xlink:href="#DejaVuSans-36"/>
       <use xlink:href="#DejaVuSans-30" x="63.623047"/>
      </g>
     </g>
    </g>
    <g id="xtick_5">
     <g id="line2d_5">
      <g>
       <use xlink:href="#m145de9434a" x="332.900496" y="307.584" style="stroke: #000000; stroke-width: 0.8"/>
      </g>
     </g>
     <g id="text_5">
      <!-- 80 -->
      <g transform="translate(326.537996 322.182437)scale(0.1 -0.1)">
       <defs>
        <path id="DejaVuSans-38" d="M 2034 2216 
Q 1584 2216 1326 1975 
Q 1069 1734 1069 1313 
Q 1069 891 1326 650 
Q 1584 409 2034 409 
Q 2484 409 2743 651 
Q 3003 894 3003 1313 
Q 3003 1734 2745 1975 
Q 2488 2216 2034 2216 
z
M 1403 2484 
Q 997 2584 770 2862 
Q 544 3141 544 3541 
Q 544 4100 942 4425 
Q 1341 4750 2034 4750 
Q 2731 4750 3128 4425 
Q 3525 4100 3525 3541 
Q 3525 3141 3298 2862 
Q 3072 2584 2669 2484 
Q 3125 2378 3379 2068 
Q 3634 1759 3634 1313 
Q 3634 634 3220 271 
Q 2806 -91 2034 -91 
Q 1263 -91 848 271 
Q 434 634 434 1313 
Q 434 1759 690 2068 
Q 947 2378 1403 2484 
z
M 1172 3481 
Q 1172 3119 1398 2916 
Q 1625 2713 2034 2713 
Q 2441 2713 2670 2916 
Q 2900 3119 2900 3481 
Q 2900 3844 2670 4047 
Q 2441 4250 2034 4250 
Q 1625 4250 1398 4047 
Q 1172 3844 1172 3481 
z
" transform="scale(0.015625)"/>
       </defs>
       <use xlink:href="#DejaVuSans-38"/>
       <use xlink:href="#DejaVuSans-30" x="63.623047"/>
      </g>
     </g>
    </g>
    <g id="xtick_6">
     <g id="line2d_6">
      <g>
       <use xlink:href="#m145de9434a" x="398.487273" y="307.584" style="stroke: #000000; stroke-width: 0.8"/>
      </g>
     </g>
     <g id="text_6">
      <!-- 100 -->
      <g transform="translate(388.943523 322.182437)scale(0.1 -0.1)">
       <defs>
        <path id="DejaVuSans-31" d="M 794 531 
L 1825 531 
L 1825 4091 
L 703 3866 
L 703 4441 
L 1819 4666 
L 2450 4666 
L 2450 531 
L 3481 531 
L 3481 0 
L 794 0 
L 794 531 
z
" transform="scale(0.015625)"/>
       </defs>
       <use xlink:href="#DejaVuSans-31"/>
       <use xlink:href="#DejaVuSans-30" x="63.623047"/>
       <use xlink:href="#DejaVuSans-30" x="127.246094"/>
      </g>
     </g>
    </g>
    <g id="text_7">
     <!-- Bedieningstijd percentiel -->
     <g transform="translate(174.002969 335.860562)scale(0.1 -0.1)">
      <defs>
       <path id="DejaVuSans-42" d="M 1259 2228 
L 1259 519 
L 2272 519 
Q 2781 519 3026 730 
Q 3272 941 3272 1375 
Q 3272 1813 3026 2020 
Q 2781 2228 2272 2228 
L 1259 2228 
z
M 1259 4147 
L 1259 2741 
L 2194 2741 
Q 2656 2741 2882 2914 
Q 3109 3088 3109 3444 
Q 3109 3797 2882 3972 
Q 2656 4147 2194 4147 
L 1259 4147 
z
M 628 4666 
L 2241 4666 
Q 2963 4666 3353 4366 
Q 3744 4066 3744 3513 
Q 3744 3084 3544 2831 
Q 3344 2578 2956 2516 
Q 3422 2416 3680 2098 
Q 3938 1781 3938 1306 
Q 3938 681 3513 340 
Q 3088 0 2303 0 
L 628 0 
L 628 4666 
z
" transform="scale(0.015625)"/>
       <path id="DejaVuSans-65" d="M 3597 1894 
L 3597 1613 
L 953 1613 
Q 991 1019 1311 708 
Q 1631 397 2203 397 
Q 2534 397 2845 478 
Q 3156 559 3463 722 
L 3463 178 
Q 3153 47 2828 -22 
Q 2503 -91 2169 -91 
Q 1331 -91 842 396 
Q 353 884 353 1716 
Q 353 2575 817 3079 
Q 1281 3584 2069 3584 
Q 2775 3584 3186 3129 
Q 3597 2675 3597 1894 
z
M 3022 2063 
Q 3016 2534 2758 2815 
Q 2500 3097 2075 3097 
Q 1594 3097 1305 2825 
Q 1016 2553 972 2059 
L 3022 2063 
z
" transform="scale(0.015625)"/>
       <path id="DejaVuSans-64" d="M 2906 2969 
L 2906 4863 
L 3481 4863 
L 3481 0 
L 2906 0 
L 2906 525 
Q 2725 213 2448 61 
Q 2172 -91 1784 -91 
Q 1150 -91 751 415 
Q 353 922 353 1747 
Q 353 2572 751 3078 
Q 1150 3584 1784 3584 
Q 2172 3584 2448 3432 
Q 2725 3281 2906 2969 
z
M 947 1747 
Q 947 1113 1208 752 
Q 1469 391 1925 391 
Q 2381 391 2643 752 
Q 2906 1113 2906 1747 
Q 2906 2381 2643 2742 
Q 2381 3103 1925 3103 
Q 1469 3103 1208 2742 
Q 947 2381 947 1747 
z
" transform="scale(0.015625)"/>
       <path id="DejaVuSans-69" d="M 603 3500 
L 1178 3500 
L 1178 0 
L 603 0 
L 603 3500 
z
M 603 4863 
L 1178 4863 
L 1178 4134 
L 603 4134 
L 603 4863 
z
" transform="scale(0.015625)"/>
       <path id="DejaVuSans-6e" d="M 3513 2113 
L 3513 0 
L 2938 0 
L 2938 2094 
Q 2938 2591 2744 2837 
Q 2550 3084 2163 3084 
Q 1697 3084 1428 2787 
Q 1159 2491 1159 1978 
L 1159 0 
L 581 0 
L 581 3500 
L 1159 3500 
L 1159 2956 
Q 1366 3272 1645 3428 
Q 1925 3584 2291 3584 
Q 2894 3584 3203 3211 
Q 3513 2838 3513 2113 
z
" transform="scale(0.015625)"/>
       <path id="DejaVuSans-67" d="M 2906 1791 
Q 2906 2416 2648 2759 
Q 2391 3103 1925 3103 
Q 1463 3103 1205 2759 
Q 947 2416 947 1791 
Q 947 1169 1205 825 
Q 1463 481 1925 481 
Q 2391 481 2648 825 
Q 2906 1169 2906 1791 
z
M 3481 434 
Q 3481 -459 3084 -895 
Q 2688 -1331 1869 -1331 
Q 1566 -1331 1297 -1286 
Q 1028 -1241 775 -1147 
L 775 -588 
Q 1028 -725 1275 -790 
Q 1522 -856 1778 -856 
Q 2344 -856 2625 -561 
Q 2906 -266 2906 331 
L 2906 616 
Q 2728 306 2450 153 
Q 2172 0 1784 0 
Q 1141 0 747 490 
Q 353 981 353 1791 
Q 353 2603 747 3093 
Q 1141 3584 1784 3584 
Q 2172 3584 2450 3431 
Q 2728 3278 2906 2969 
L 2906 3500 
L 3481 3500 
L 3481 434 
z
" transform="scale(0.015625)"/>
       <path id="DejaVuSans-73" d="M 2834 3397 
L 2834 2853 
Q 2591 2978 2328 3040 
Q 2066 3103 1784 3103 
Q 1356 3103 1142 2972 
Q 928 2841 928 2578 
Q 928 2378 1081 2264 
Q 1234 2150 1697 2047 
L 1894 2003 
Q 2506 1872 2764 1633 
Q 3022 1394 3022 966 
Q 3022 478 2636 193 
Q 2250 -91 1575 -91 
Q 1294 -91 989 -36 
Q 684 19 347 128 
L 347 722 
Q 666 556 975 473 
Q 1284 391 1588 391 
Q 1994 391 2212 530 
Q 2431 669 2431 922 
Q 2431 1156 2273 1281 
Q 2116 1406 1581 1522 
L 1381 1569 
Q 847 1681 609 1914 
Q 372 2147 372 2553 
Q 372 3047 722 3315 
Q 1072 3584 1716 3584 
Q 2034 3584 2315 3537 
Q 2597 3491 2834 3397 
z
" transform="scale(0.015625)"/>
       <path id="DejaVuSans-74" d="M 1172 4494 
L 1172 3500 
L 2356 3500 
L 2356 3053 
L 1172 3053 
L 1172 1153 
Q 1172 725 1289 603 
Q 1406 481 1766 481 
L 2356 481 
L 2356 0 
L 1766 0 
Q 1100 0 847 248 
Q 594 497 594 1153 
L 594 3053 
L 172 3053 
L 172 3500 
L 594 3500 
L 594 4494 
L 1172 4494 
z
" transform="scale(0.015625)"/>
       <path id="DejaVuSans-6a" d="M 603 3500 
L 1178 3500 
L 1178 -63 
Q 1178 -731 923 -1031 
Q 669 -1331 103 -1331 
L -116 -1331 
L -116 -844 
L 38 -844 
Q 366 -844 484 -692 
Q 603 -541 603 -63 
L 603 3500 
z
M 603 4863 
L 1178 4863 
L 1178 4134 
L 603 4134 
L 603 4863 
z
" transform="scale(0.015625)"/>
       <path id="DejaVuSans-20" transform="scale(0.015625)"/>
       <path id="DejaVuSans-70" d="M 1159 525 
L 1159 -1331 
L 581 -1331 
L 581 3500 
L 1159 3500 
L 1159 2969 
Q 1341 3281 1617 3432 
Q 1894 3584 2278 3584 
Q 2916 3584 3314 3078 
Q 3713 2572 3713 1747 
Q 3713 922 3314 415 
Q 2916 -91 2278 -91 
Q 1894 -91 1617 61 
Q 1341 213 1159 525 
z
M 3116 1747 
Q 3116 2381 2855 2742 
Q 2594 3103 2138 3103 
Q 1681 3103 1420 2742 
Q 1159 2381 1159 1747 
Q 1159 1113 1420 752 
Q 1681 391 2138 391 
Q 2594 391 2855 752 
Q 3116 1113 3116 1747 
z
" transform="scale(0.015625)"/>
       <path id="DejaVuSans-72" d="M 2631 2963 
Q 2534 3019 2420 3045 
Q 2306 3072 2169 3072 
Q 1681 3072 1420 2755 
Q 1159 2438 1159 1844 
L 1159 0 
L 581 0 
L 581 3500 
L 1159 3500 
L 1159 2956 
Q 1341 3275 1631 3429 
Q 1922 3584 2338 3584 
Q 2397 3584 2469 3576 
Q 2541 3569 2628 3553 
L 2631 2963 
z
" transform="scale(0.015625)"/>
       <path id="DejaVuSans-63" d="M 3122 3366 
L 3122 2828 
Q 2878 2963 2633 3030 
Q 2388 3097 2138 3097 
Q 1578 3097 1268 2742 
Q 959 2388 959 1747 
Q 959 1106 1268 751 
Q 1578 397 2138 397 
Q 2388 397 2633 464 
Q 2878 531 3122 666 
L 3122 134 
Q 2881 22 2623 -34 
Q 2366 -91 2075 -91 
Q 1284 -91 818 406 
Q 353 903 353 1747 
Q 353 2603 823 3093 
Q 1294 3584 2113 3584 
Q 2378 3584 2631 3529 
Q 2884 3475 3122 3366 
z
" transform="scale(0.015625)"/>
       <path id="DejaVuSans-6c" d="M 603 4863 
L 1178 4863 
L 1178 0 
L 603 0 
L 603 4863 
z
" transform="scale(0.015625)"/>
      </defs>
      <use xlink:href="#DejaVuSans-42"/>
      <use xlink:href="#DejaVuSans-65" x="68.603516"/>
      <use xlink:href="#DejaVuSans-64" x="130.126953"/>
      <use xlink:href="#DejaVuSans-69" x="193.603516"/>
      <use xlink:href="#DejaVuSans-65" x="221.386719"/>
      <use xlink:href="#DejaVuSans-6e" x="282.910156"/>
      <use xlink:href="#DejaVuSans-69" x="346.289062"/>
      <use xlink:href="#DejaVuSans-6e" x="374.072266"/>
      <use xlink:href="#DejaVuSans-67" x="437.451172"/>
      <use xlink:href="#DejaVuSans-73" x="500.927734"/>
      <use xlink:href="#DejaVuSans-74" x="553.027344"/>
      <use xlink:href="#DejaVuSans-69" x="592.236328"/>
      <use xlink:href="#DejaVuSans-6a" x="620.019531"/>
      <use xlink:href="#DejaVuSans-64" x="647.802734"/>
      <use xlink:href="#DejaVuSans-20" x="711.279297"/>
      <use xlink:href="#DejaVuSans-70" x="743.066406"/>
      <use xlink:href="#DejaVuSans-65" x="806.542969"/>
      <use xlink:href="#DejaVuSans-72" x="868.066406"/>
      <use xlink:href="#DejaVuSans-63" x="906.929688"/>
      <use xlink:href="#DejaVuSans-65" x="961.910156"/>
      <use xlink:href="#DejaVuSans-6e" x="1023.433594"/>
      <use xlink:href="#DejaVuSans-74" x="1086.8125"/>
      <use xlink:href="#DejaVuSans-69" x="1126.021484"/>
      <use xlink:href="#DejaVuSans-65" x="1153.804688"/>
      <use xlink:href="#DejaVuSans-6c" x="1215.328125"/>
     </g>
    </g>
   </g>
   <g id="matplotlib.axis_2">
    <g id="ytick_1">
     <g id="line2d_7">
      <defs>
       <path id="mca17c74f92" d="M 0 0 
L -3.5 0 
" style="stroke: #000000; stroke-width: 0.8"/>
      </defs>
      <g>
       <use xlink:href="#mca17c74f92" x="57.6" y="307.584" style="stroke: #000000; stroke-width: 0.8"/>
      </g>
     </g>
     <g id="text_8">
      <!-- 0 -->
      <g transform="translate(44.2375 311.383219)scale(0.1 -0.1)">
       <use xlink:href="#DejaVuSans-30"/>
      </g>
     </g>
    </g>
    <g id="ytick_2">
     <g id="line2d_8">
      <g>
       <use xlink:href="#mca17c74f92" x="57.6" y="254.3616" style="stroke: #000000; stroke-width: 0.8"/>
      </g>
     </g>
     <g id="text_9">
      <!-- 200 -->
      <g transform="translate(31.5125 258.160819)scale(0.1 -0.1)">
       <use xlink:href="#DejaVuSans-32"/>
       <use xlink:href="#DejaVuSans-30" x="63.623047"/>
       <use xlink:href="#DejaVuSans-30" x="127.246094"/>
      </g>
     </g>
    </g>
    <g id="ytick_3">
     <g id="line2d_9">
      <g>
       <use xlink:href="#mca17c74f92" x="57.6" y="201.1392" style="stroke: #000000; stroke-width: 0.8"/>
      </g>
     </g>
     <g id="text_10">
      <!-- 400 -->
      <g transform="translate(31.5125 204.938419)scale(0.1 -0.1)">
       <use xlink:href="#DejaVuSans-34"/>
       <use xlink:href="#DejaVuSans-30" x="63.623047"/>
       <use xlink:href="#DejaVuSans-30" x="127.246094"/>
      </g>
     </g>
    </g>
    <g id="ytick_4">
     <g id="line2d_10">
      <g>
       <use xlink:href="#mca17c74f92" x="57.6" y="147.9168" style="stroke: #000000; stroke-width: 0.8"/>
      </g>
     </g>
     <g id="text_11">
      <!-- 600 -->
      <g transform="translate(31.5125 151.716019)scale(0.1 -0.1)">
       <use xlink:href="#DejaVuSans-36"/>
       <use xlink:href="#DejaVuSans-30" x="63.623047"/>
       <use xlink:href="#DejaVuSans-30" x="127.246094"/>
      </g>
     </g>
    </g>
    <g id="ytick_5">
     <g id="line2d_11">
      <g>
       <use xlink:href="#mca17c74f92" x="57.6" y="94.6944" style="stroke: #000000; stroke-width: 0.8"/>
      </g>
     </g>
     <g id="text_12">
      <!-- 800 -->
      <g transform="translate(31.5125 98.493619)scale(0.1 -0.1)">
       <use xlink:href="#DejaVuSans-38"/>
       <use xlink:href="#DejaVuSans-30" x="63.623047"/>
       <use xlink:href="#DejaVuSans-30" x="127.246094"/>
      </g>
     </g>
    </g>
    <g id="ytick_6">
     <g id="line2d_12">
      <g>
       <use xlink:href="#mca17c74f92" x="57.6" y="41.472" style="stroke: #000000; stroke-width: 0.8"/>
      </g>
     </g>
     <g id="text_13">
      <!-- 1000 -->
      <g transform="translate(25.15 45.271219)scale(0.1 -0.1)">
       <use xlink:href="#DejaVuSans-31"/>
       <use xlink:href="#DejaVuSans-30" x="63.623047"/>
       <use xlink:href="#DejaVuSans-30" x="127.246094"/>
       <use xlink:href="#DejaVuSans-30" x="190.869141"/>
      </g>
     </g>
    </g>
    <g id="text_14">
     <!-- Wachttijd -->
     <g transform="translate(19.070312 198.007688)rotate(-90)scale(0.1 -0.1)">
      <defs>
       <path id="DejaVuSans-57" d="M 213 4666 
L 850 4666 
L 1831 722 
L 2809 4666 
L 3519 4666 
L 4500 722 
L 5478 4666 
L 6119 4666 
L 4947 0 
L 4153 0 
L 3169 4050 
L 2175 0 
L 1381 0 
L 213 4666 
z
" transform="scale(0.015625)"/>
       <path id="DejaVuSans-61" d="M 2194 1759 
Q 1497 1759 1228 1600 
Q 959 1441 959 1056 
Q 959 750 1161 570 
Q 1363 391 1709 391 
Q 2188 391 2477 730 
Q 2766 1069 2766 1631 
L 2766 1759 
L 2194 1759 
z
M 3341 1997 
L 3341 0 
L 2766 0 
L 2766 531 
Q 2569 213 2275 61 
Q 1981 -91 1556 -91 
Q 1019 -91 701 211 
Q 384 513 384 1019 
Q 384 1609 779 1909 
Q 1175 2209 1959 2209 
L 2766 2209 
L 2766 2266 
Q 2766 2663 2505 2880 
Q 2244 3097 1772 3097 
Q 1472 3097 1187 3025 
Q 903 2953 641 2809 
L 641 3341 
Q 956 3463 1253 3523 
Q 1550 3584 1831 3584 
Q 2591 3584 2966 3190 
Q 3341 2797 3341 1997 
z
" transform="scale(0.015625)"/>
       <path id="DejaVuSans-68" d="M 3513 2113 
L 3513 0 
L 2938 0 
L 2938 2094 
Q 2938 2591 2744 2837 
Q 2550 3084 2163 3084 
Q 1697 3084 1428 2787 
Q 1159 2491 1159 1978 
L 1159 0 
L 581 0 
L 581 4863 
L 1159 4863 
L 1159 2956 
Q 1366 3272 1645 3428 
Q 1925 3584 2291 3584 
Q 2894 3584 3203 3211 
Q 3513 2838 3513 2113 
z
" transform="scale(0.015625)"/>
      </defs>
      <use xlink:href="#DejaVuSans-57"/>
      <use xlink:href="#DejaVuSans-61" x="92.501953"/>
      <use xlink:href="#DejaVuSans-63" x="153.78125"/>
      <use xlink:href="#DejaVuSans-68" x="208.761719"/>
      <use xlink:href="#DejaVuSans-74" x="272.140625"/>
      <use xlink:href="#DejaVuSans-74" x="311.349609"/>
      <use xlink:href="#DejaVuSans-69" x="350.558594"/>
      <use xlink:href="#DejaVuSans-6a" x="378.341797"/>
      <use xlink:href="#DejaVuSans-64" x="406.125"/>
     </g>
    </g>
   </g>
   <g id="line2d_13">
    <path d="M 73.832727 188.296635 
L 77.112066 197.945856 
L 80.391405 170.68002 
L 83.670744 150.120207 
L 86.950083 187.796344 
L 90.229421 186.239589 
L 93.50876 187.178964 
L 96.788099 203.496952 
L 100.067438 200.042819 
L 103.346777 177.673444 
L 106.626116 180.768326 
L 109.905455 194.217627 
L 113.184793 206.115494 
L 116.464132 205.902605 
L 119.743471 194.382616 
L 123.02281 196.375795 
L 126.302149 190.965738 
L 129.581488 213.425591 
L 132.860826 217.712655 
L 136.140165 189.001832 
L 139.419504 189.14021 
L 142.698843 196.519496 
L 145.978182 181.359095 
L 149.257521 181.901964 
L 152.53686 224.269655 
L 155.816198 189.294555 
L 159.095537 207.664266 
L 162.374876 214.575195 
L 165.654215 203.084479 
L 168.933554 212.148253 
L 172.212893 196.62594 
L 175.492231 189.87734 
L 178.77157 193.235674 
L 182.050909 163.888842 
L 185.330248 193.882326 
L 188.609587 181.790196 
L 191.888926 178.360013 
L 195.168264 205.74826 
L 198.447603 189.802829 
L 201.726942 173.740308 
L 205.006281 197.174131 
L 208.28562 159.633711 
L 211.564959 183.732814 
L 214.844298 200.718743 
L 218.123636 200.793254 
L 221.402975 188.57073 
L 224.682314 180.257391 
L 227.961653 185.763249 
L 231.240992 187.099131 
L 234.520331 182.234604 
L 237.799669 182.330404 
L 241.079008 186.204995 
L 244.358347 162.521027 
L 247.637686 196.407729 
L 250.917025 175.153363 
L 254.196364 217.603549 
L 257.475702 221.379679 
L 260.755041 147.7731 
L 264.03438 219.4823 
L 267.313719 186.010733 
L 270.593058 197.855378 
L 273.872397 194.627439 
L 277.151736 184.296972 
L 280.431074 168.702808 
L 283.710413 211.858191 
L 286.989752 168.35154 
L 290.269091 184.520506 
L 293.54843 177.8544 
L 296.827769 203.829592 
L 300.107107 172.297981 
L 303.386446 185.962833 
L 306.665785 202.839656 
L 309.945124 181.779552 
L 313.224463 182.019053 
L 316.503802 210.83366 
L 319.78314 146.155139 
L 323.062479 191.833263 
L 326.341818 200.28498 
L 329.621157 182.295809 
L 332.900496 203.414458 
L 336.179835 194.518333 
L 339.459174 184.597678 
L 342.738512 196.663196 
L 346.017851 173.375735 
L 349.29719 206.011711 
L 352.576529 182.452815 
L 355.855868 188.810231 
L 359.135207 180.983877 
L 362.414545 213.569292 
L 365.693884 173.208084 
L 368.973223 201.950842 
L 372.252562 193.839748 
L 375.531901 189.462205 
L 378.81124 179.818307 
L 382.090579 157.499493 
L 385.369917 171.204261 
L 388.649256 214.734862 
L 391.928595 199.412133 
L 395.207934 200.881071 
L 398.487273 201.863025 
" clip-path="url(#pc5b56f5aa8)" style="fill: none; stroke: #1f77b4; stroke-width: 1.5; stroke-linecap: square"/>
   </g>
   <g id="line2d_14">
    <path d="M 73.832727 289.860941 
L 77.112066 282.56415 
L 80.391405 283.841487 
L 83.670744 285.768138 
L 86.950083 287.021526 
L 90.229421 286.750092 
L 93.50876 287.612294 
L 96.788099 286.422774 
L 100.067438 286.17529 
L 103.346777 283.019201 
L 106.626116 287.034831 
L 109.905455 285.959739 
L 113.184793 285.188014 
L 116.464132 288.17113 
L 119.743471 287.484561 
L 123.02281 285.097536 
L 126.302149 284.328472 
L 129.581488 290.733788 
L 132.860826 289.962063 
L 136.140165 285.712255 
L 139.419504 284.980447 
L 142.698843 285.517993 
L 145.978182 282.250138 
L 149.257521 281.819036 
L 152.53686 281.310762 
L 155.816198 287.69745 
L 159.095537 283.125646 
L 162.374876 283.931965 
L 165.654215 284.831424 
L 168.933554 285.608471 
L 172.212893 285.092214 
L 175.492231 285.994333 
L 178.77157 280.342115 
L 182.050909 284.562651 
L 185.330248 281.297457 
L 188.609587 283.860115 
L 191.888926 284.224689 
L 195.168264 289.014705 
L 198.447603 284.791507 
L 201.726942 284.288556 
L 205.006281 281.869597 
L 208.28562 283.554086 
L 211.564959 279.562406 
L 214.844298 283.107018 
L 218.123636 276.350435 
L 221.402975 283.317247 
L 224.682314 276.882659 
L 227.961653 281.467768 
L 231.240992 284.152838 
L 234.520331 282.82494 
L 237.799669 281.515668 
L 241.079008 278.513925 
L 244.358347 279.59434 
L 247.637686 272.914929 
L 250.917025 277.93114 
L 254.196364 281.68598 
L 257.475702 277.987023 
L 260.755041 270.47202 
L 264.03438 275.094386 
L 267.313719 270.040919 
L 270.593058 271.70678 
L 273.872397 276.704364 
L 277.151736 267.353188 
L 280.431074 271.87177 
L 283.710413 279.104694 
L 286.989752 273.087901 
L 290.269091 267.084415 
L 293.54843 263.965582 
L 296.827769 267.366493 
L 300.107107 261.812736 
L 303.386446 267.268032 
L 306.665785 266.073189 
L 309.945124 255.061475 
L 313.224463 254.414822 
L 316.503802 259.601345 
L 319.78314 250.9873 
L 323.062479 254.417484 
L 326.341818 250.497654 
L 329.621157 265.043336 
L 332.900496 250.598776 
L 336.179835 257.799767 
L 339.459174 243.216829 
L 342.738512 243.802276 
L 346.017851 222.649033 
L 349.29719 233.035384 
L 352.576529 221.326456 
L 355.855868 233.868315 
L 359.135207 222.840634 
L 362.414545 221.0497 
L 365.693884 193.815798 
L 368.973223 214.822679 
L 372.252562 189.395677 
L 375.531901 171.877524 
L 378.81124 151.711557 
L 382.090579 117.473587 
L 385.369917 164.322605 
L 388.649256 45.719148 
L 390.079172 -1 
" clip-path="url(#pc5b56f5aa8)" style="fill: none; stroke: #ff7f0e; stroke-width: 1.5; stroke-linecap: square"/>
   </g>
   <g id="line2d_15">
    <path d="M 73.832727 307.581339 
L 77.112066 307.584 
L 80.391405 307.578678 
L 83.670744 307.576017 
L 86.950083 307.565372 
L 90.229421 307.554728 
L 93.50876 307.546744 
L 96.788099 307.517472 
L 100.067438 307.522794 
L 103.346777 307.541422 
L 106.626116 307.544083 
L 109.905455 307.490861 
L 113.184793 307.285955 
L 116.464132 307.339177 
L 119.743471 307.360466 
L 123.02281 307.152899 
L 126.302149 307.392399 
L 129.581488 307.240716 
L 132.860826 307.285955 
L 136.140165 307.112982 
L 139.419504 306.905414 
L 142.698843 306.953315 
L 145.978182 307.070404 
L 149.257521 307.13161 
L 152.53686 306.70583 
L 155.816198 306.764375 
L 159.095537 306.673897 
L 162.374876 306.825581 
L 165.654215 306.479635 
L 168.933554 306.530196 
L 172.212893 305.99265 
L 175.492231 306.468991 
L 178.77157 305.750488 
L 182.050909 305.558888 
L 185.330248 305.61211 
L 188.609587 305.258181 
L 191.888926 306.048534 
L 195.168264 304.824419 
L 198.447603 305.085208 
L 201.726942 304.300178 
L 205.006281 304.433234 
L 208.28562 303.85311 
L 211.564959 304.635479 
L 214.844298 302.977601 
L 218.123636 304.558307 
L 221.402975 303.509825 
L 224.682314 303.387414 
L 227.961653 302.032904 
L 231.240992 304.073983 
L 234.520331 303.049452 
L 237.799669 300.705005 
L 241.079008 301.519308 
L 244.358347 302.913734 
L 247.637686 300.593238 
L 250.917025 300.191409 
L 254.196364 300.603882 
L 257.475702 299.001888 
L 260.755041 298.490953 
L 264.03438 302.054193 
L 267.313719 297.365299 
L 270.593058 298.302013 
L 273.872397 295.696777 
L 277.151736 294.784013 
L 280.431074 295.377443 
L 283.710413 295.169875 
L 286.989752 293.759482 
L 290.269091 292.593911 
L 293.54843 289.182355 
L 296.827769 294.004305 
L 300.107107 286.962981 
L 303.386446 286.760736 
L 306.665785 288.085974 
L 309.945124 286.452046 
L 313.224463 282.718495 
L 316.503802 279.022199 
L 319.78314 279.224444 
L 323.062479 273.300791 
L 326.341818 272.483827 
L 329.621157 272.473183 
L 332.900496 279.746024 
L 336.179835 270.480004 
L 339.459174 266.911442 
L 342.738512 264.612234 
L 346.017851 248.395369 
L 349.29719 241.646769 
L 352.576529 234.065238 
L 355.855868 245.715621 
L 359.135207 234.381911 
L 362.414545 240.848433 
L 365.693884 208.183185 
L 368.973223 229.118216 
L 372.252562 198.824026 
L 375.531901 159.450094 
L 378.81124 155.061907 
L 382.090579 95.474108 
L 385.369917 141.788241 
L 388.649256 24.480749 
L 389.272773 -1 
" clip-path="url(#pc5b56f5aa8)" style="fill: none; stroke: #2ca02c; stroke-width: 1.5; stroke-linecap: square"/>
   </g>
   <g id="line2d_16">
    <path d="M 73.832727 305.377932 
L 77.112066 305.84895 
L 80.391405 305.319387 
L 83.670744 301.939764 
L 86.950083 303.291613 
L 90.229421 301.599141 
L 93.50876 300.444215 
L 96.788099 300.327126 
L 100.067438 299.440973 
L 103.346777 293.860604 
L 106.626116 295.145925 
L 109.905455 294.403473 
L 113.184793 294.195905 
L 116.464132 294.155988 
L 119.743471 291.505513 
L 123.02281 289.31275 
L 126.302149 286.917742 
L 129.581488 289.419195 
L 132.860826 288.81246 
L 136.140165 283.63392 
L 139.419504 281.28149 
L 142.698843 279.57039 
L 145.978182 275.55476 
L 149.257521 275.285987 
L 152.53686 286.060861 
L 155.816198 274.455717 
L 159.095537 275.621288 
L 162.374876 274.450395 
L 165.654215 274.405156 
L 168.933554 273.324741 
L 172.212893 269.833352 
L 175.492231 264.513773 
L 178.77157 262.164004 
L 182.050909 254.441434 
L 185.330248 261.368329 
L 188.609587 253.478108 
L 191.888926 247.751378 
L 195.168264 260.490159 
L 198.447603 252.669128 
L 201.726942 243.134335 
L 205.006281 246.982314 
L 208.28562 229.804785 
L 211.564959 244.270633 
L 214.844298 248.547053 
L 218.123636 247.714122 
L 221.402975 239.147977 
L 224.682314 227.875473 
L 227.961653 230.882538 
L 231.240992 229.347072 
L 234.520331 223.06949 
L 237.799669 217.004797 
L 241.079008 214.346339 
L 244.358347 209.548339 
L 247.637686 219.594067 
L 250.917025 205.338447 
L 254.196364 233.719292 
L 257.475702 226.337345 
L 260.755041 177.846417 
L 264.03438 231.292351 
L 267.313719 200.745354 
L 270.593058 211.14235 
L 273.872397 196.516835 
L 277.151736 184.501878 
L 280.431074 173.48218 
L 283.710413 201.389345 
L 286.989752 162.308137 
L 290.269091 170.818399 
L 293.54843 164.868134 
L 296.827769 178.623464 
L 300.107107 144.100754 
L 303.386446 157.025814 
L 306.665785 169.730001 
L 309.945124 140.335269 
L 313.224463 145.308902 
L 316.503802 168.175907 
L 319.78314 82.365431 
L 323.062479 132.04588 
L 326.341818 140.612026 
L 329.621157 102.675099 
L 332.900496 146.873641 
L 336.179835 110.919249 
L 339.459174 98.664791 
L 342.738512 100.559508 
L 346.017851 70.60062 
L 349.29719 99.558927 
L 352.576529 43.356073 
L 355.855868 59.870984 
L 359.135207 49.559144 
L 362.414545 94.492155 
L 365.693884 11.832445 
L 368.973223 55.328452 
L 372.252562 36.320072 
L 374.692743 -1 
" clip-path="url(#pc5b56f5aa8)" style="fill: none; stroke: #d62728; stroke-width: 1.5; stroke-linecap: square"/>
   </g>
   <g id="line2d_17">
    <path d="M 73.832727 303.107996 
L 77.112066 304.018099 
L 80.391405 303.001551 
L 83.670744 301.926459 
L 86.950083 303.528453 
L 90.229421 300.21802 
L 93.50876 298.208874 
L 96.788099 300.425587 
L 100.067438 299.361139 
L 103.346777 291.351168 
L 106.626116 293.554575 
L 109.905455 294.728129 
L 113.184793 293.626426 
L 116.464132 292.623183 
L 119.743471 291.183517 
L 123.02281 289.727885 
L 126.302149 285.283814 
L 129.581488 287.944934 
L 132.860826 289.21695 
L 136.140165 283.333213 
L 139.419504 279.541117 
L 142.698843 279.394756 
L 145.978182 276.100289 
L 149.257521 273.282163 
L 152.53686 285.919822 
L 155.816198 274.719168 
L 159.095537 274.061871 
L 162.374876 274.157672 
L 165.654215 274.551517 
L 168.933554 271.84782 
L 172.212893 269.854641 
L 175.492231 264.034771 
L 178.77157 260.615232 
L 182.050909 255.053491 
L 185.330248 260.245336 
L 188.609587 253.204013 
L 191.888926 247.336243 
L 195.168264 259.117021 
L 198.447603 252.751622 
L 201.726942 242.964023 
L 205.006281 245.731588 
L 208.28562 230.656343 
L 211.564959 243.017245 
L 214.844298 249.007427 
L 218.123636 247.070131 
L 221.402975 238.647686 
L 224.682314 227.521544 
L 227.961653 230.712227 
L 231.240992 228.955887 
L 234.520331 223.064168 
L 237.799669 216.472573 
L 241.079008 214.756151 
L 244.358347 208.079401 
L 247.637686 220.397725 
L 250.917025 204.641234 
L 254.196364 234.238211 
L 257.475702 226.385245 
L 260.755041 177.412654 
L 264.03438 231.923036 
L 267.313719 200.151924 
L 270.593058 211.043889 
L 273.872397 196.724402 
L 277.151736 184.323583 
L 280.431074 173.727003 
L 283.710413 201.942858 
L 286.989752 162.143148 
L 290.269091 171.015322 
L 293.54843 165.091668 
L 296.827769 179.001343 
L 300.107107 144.505244 
L 303.386446 157.784233 
L 306.665785 170.10788 
L 309.945124 141.176183 
L 313.224463 146.101916 
L 316.503802 168.630958 
L 319.78314 83.256906 
L 323.062479 132.870828 
L 326.341818 141.069738 
L 329.621157 103.832686 
L 332.900496 147.177009 
L 336.179835 112.209892 
L 339.459174 99.197015 
L 342.738512 101.333894 
L 346.017851 71.452178 
L 349.29719 100.660631 
L 352.576529 44.657361 
L 355.855868 60.863581 
L 359.135207 50.554403 
L 362.414545 95.269202 
L 365.693884 13.394523 
L 368.973223 56.257183 
L 372.252562 37.310008 
L 374.783794 -1 
" clip-path="url(#pc5b56f5aa8)" style="fill: none; stroke: #9467bd; stroke-width: 1.5; stroke-linecap: square"/>
   </g>
   <g id="line2d_18">
    <path d="M 73.832727 298.653281 
L 77.112066 300.316481 
L 80.391405 298.440392 
L 83.670744 296.444552 
L 86.950083 299.438312 
L 90.229421 299.406378 
L 93.50876 298.679892 
L 96.788099 300.981761 
L 100.067438 299.310578 
L 103.346777 286.537202 
L 106.626116 289.467095 
L 109.905455 290.941356 
L 113.184793 292.09362 
L 116.464132 293.179357 
L 119.743471 291.824847 
L 123.02281 290.465015 
L 126.302149 282.127726 
L 129.581488 284.759574 
L 132.860826 286.334957 
L 136.140165 281.049972 
L 139.419504 280.499121 
L 142.698843 280.397998 
L 145.978182 277.191348 
L 149.257521 269.500712 
L 152.53686 283.418369 
L 155.816198 272.034098 
L 159.095537 275.065114 
L 162.374876 275.179542 
L 165.654215 274.878835 
L 168.933554 268.78487 
L 172.212893 267.00192 
L 175.492231 262.834606 
L 178.77157 262.281093 
L 182.050909 256.30954 
L 185.330248 257.964756 
L 188.609587 249.603517 
L 191.888926 246.160028 
L 195.168264 260.439598 
L 198.447603 254.38555 
L 201.726942 242.602111 
L 205.006281 242.708556 
L 208.28562 226.917469 
L 211.564959 243.770342 
L 214.844298 250.644015 
L 218.123636 245.840694 
L 221.402975 235.864155 
L 224.682314 226.968031 
L 227.961653 233.115218 
L 231.240992 228.357135 
L 234.520331 220.112986 
L 237.799669 216.919642 
L 241.079008 216.84513 
L 244.358347 205.386348 
L 247.637686 218.159724 
L 250.917025 207.116076 
L 254.196364 234.59214 
L 257.475702 224.189821 
L 260.755041 177.657477 
L 264.03438 233.578253 
L 267.313719 198.086895 
L 270.593058 210.90551 
L 273.872397 198.73887 
L 277.151736 182.468782 
L 280.431074 173.405007 
L 283.710413 203.874831 
L 286.989752 159.825312 
L 290.269091 172.433699 
L 293.54843 165.259319 
L 296.827769 179.477683 
L 300.107107 145.899671 
L 303.386446 157.262653 
L 306.665785 172.228792 
L 309.945124 139.190988 
L 313.224463 149.564033 
L 316.503802 167.917778 
L 319.78314 85.670542 
L 323.062479 132.969289 
L 326.341818 144.292355 
L 329.621157 103.005078 
L 332.900496 149.19946 
L 336.179835 114.03542 
L 339.459174 100.083168 
L 342.738512 103.095556 
L 346.017851 73.847186 
L 349.29719 102.576637 
L 352.576529 46.240727 
L 355.855868 63.458173 
L 359.135207 52.403881 
L 362.414545 97.342214 
L 365.693884 16.422877 
L 368.973223 58.042794 
L 372.252562 39.569299 
L 375.002365 -1 
" clip-path="url(#pc5b56f5aa8)" style="fill: none; stroke: #8c564b; stroke-width: 1.5; stroke-linecap: square"/>
   </g>
   <g id="line2d_19">
    <path d="M 73.832727 290.148342 
L 77.112066 284.722318 
L 80.391405 284.948513 
L 83.670744 284.2034 
L 86.950083 280.842405 
L 90.229421 284.211383 
L 93.50876 281.965398 
L 96.788099 282.119743 
L 100.067438 281.853631 
L 103.346777 278.665609 
L 106.626116 278.290391 
L 109.905455 277.771473 
L 113.184793 278.772054 
L 116.464132 276.965153 
L 119.743471 276.305196 
L 123.02281 273.907526 
L 126.302149 275.868772 
L 129.581488 281.835003 
L 132.860826 278.580453 
L 136.140165 269.506034 
L 139.419504 273.316758 
L 142.698843 272.047404 
L 145.978182 266.121089 
L 149.257521 263.350863 
L 152.53686 271.222456 
L 155.816198 270.58911 
L 159.095537 268.100963 
L 162.374876 267.004581 
L 165.654215 263.731404 
L 168.933554 265.421215 
L 172.212893 261.959098 
L 175.492231 259.899391 
L 178.77157 252.586633 
L 182.050909 257.280849 
L 185.330248 258.225546 
L 188.609587 256.910953 
L 191.888926 250.34597 
L 195.168264 262.720178 
L 198.447603 257.954112 
L 201.726942 247.868467 
L 205.006281 251.982559 
L 208.28562 244.885352 
L 211.564959 247.68485 
L 214.844298 250.476365 
L 218.123636 253.148129 
L 221.402975 244.390383 
L 224.682314 239.509889 
L 227.961653 247.296326 
L 231.240992 244.683107 
L 234.520331 242.833628 
L 237.799669 235.44902 
L 241.079008 237.024403 
L 244.358347 236.377751 
L 247.637686 236.420329 
L 250.917025 231.763369 
L 254.196364 250.06123 
L 257.475702 244.355789 
L 260.755041 211.203556 
L 264.03438 246.1414 
L 267.313719 226.190984 
L 270.593058 230.108152 
L 273.872397 228.040462 
L 277.151736 219.681884 
L 280.431074 212.456943 
L 283.710413 244.257327 
L 286.989752 207.704183 
L 290.269091 216.751991 
L 293.54843 211.232828 
L 296.827769 225.560298 
L 300.107107 203.834915 
L 303.386446 207.334287 
L 306.665785 223.657597 
L 309.945124 200.508515 
L 313.224463 198.643069 
L 316.503802 218.726542 
L 319.78314 178.200346 
L 323.062479 194.574217 
L 326.341818 206.703602 
L 329.621157 187.053892 
L 332.900496 211.99657 
L 336.179835 193.193096 
L 339.459174 181.002505 
L 342.738512 191.875841 
L 346.017851 175.299725 
L 349.29719 191.998253 
L 352.576529 166.507384 
L 355.855868 180.965249 
L 359.135207 161.616246 
L 362.414545 201.415956 
L 365.693884 150.250602 
L 368.973223 180.185541 
L 372.252562 170.63212 
L 375.531901 158.673047 
L 378.81124 145.276969 
L 382.090579 108.649313 
L 385.369917 134.403633 
L 388.649256 172.497565 
L 391.928595 130.183096 
L 395.207934 149.047776 
L 398.487273 110.450892 
" clip-path="url(#pc5b56f5aa8)" style="fill: none; stroke: #e377c2; stroke-width: 1.5; stroke-linecap: square"/>
   </g>
   <g id="line2d_20">
    <path d="M 73.832727 304.56629 
L 77.112066 303.728037 
L 80.391405 304.337434 
L 83.670744 304.308161 
L 86.950083 304.411945 
L 90.229421 304.345417 
L 93.50876 303.741343 
L 96.788099 303.549742 
L 100.067438 303.842465 
L 103.346777 303.696104 
L 106.626116 304.140511 
L 109.905455 303.794565 
L 113.184793 303.586998 
L 116.464132 303.92496 
L 119.743471 303.954232 
L 123.02281 301.506002 
L 126.302149 301.663008 
L 129.581488 301.686958 
L 132.860826 301.442135 
L 136.140165 301.660347 
L 139.419504 300.928539 
L 142.698843 301.029661 
L 145.978182 302.301677 
L 149.257521 301.830659 
L 152.53686 302.716812 
L 155.816198 301.479391 
L 159.095537 301.569869 
L 162.374876 301.841303 
L 165.654215 302.144671 
L 168.933554 302.296355 
L 172.212893 301.26384 
L 175.492231 293.594492 
L 178.77157 291.508174 
L 182.050909 295.137942 
L 185.330248 293.730209 
L 188.609587 290.427759 
L 191.888926 292.700356 
L 195.168264 292.756239 
L 198.447603 294.094783 
L 201.726942 294.113411 
L 205.006281 291.721064 
L 208.28562 292.287882 
L 211.564959 293.759482 
L 214.844298 292.695034 
L 218.123636 293.200646 
L 221.402975 293.692954 
L 224.682314 292.322477 
L 227.961653 290.954661 
L 231.240992 293.626426 
L 234.520331 217.273571 
L 237.799669 207.539194 
L 241.079008 217.398643 
L 244.358347 214.245216 
L 247.637686 221.094939 
L 250.917025 210.956072 
L 254.196364 235.821577 
L 257.475702 231.119378 
L 260.755041 205.277242 
L 264.03438 241.505729 
L 267.313719 219.971946 
L 270.593058 234.315383 
L 273.872397 218.452447 
L 277.151736 216.097356 
L 280.431074 213.438897 
L 283.710413 229.291188 
L 286.989752 154.505733 
L 290.269091 139.518305 
L 293.54843 145.803871 
L 296.827769 147.783744 
L 300.107107 132.660599 
L 303.386446 137.8897 
L 306.665785 162.443854 
L 309.945124 134.869329 
L 313.224463 143.919798 
L 316.503802 172.162264 
L 319.78314 91.280183 
L 323.062479 111.4222 
L 326.341818 89.7048 
L 329.621157 45.256113 
L 332.900496 108.806319 
L 336.179835 77.117702 
L 339.459174 79.225309 
L 342.738512 83.86098 
L 346.017851 45.719148 
L 349.29719 39.063686 
L 351.401132 -1 
M 354.894723 -1 
L 355.855868 8.27985 
L 359.135207 16.478761 
L 362.414545 65.491269 
L 364.052 -1 
" clip-path="url(#pc5b56f5aa8)" style="fill: none; stroke: #7f7f7f; stroke-width: 1.5; stroke-linecap: square"/>
   </g>
   <g id="line2d_21">
    <path d="M 73.832727 301.261179 
L 77.112066 298.844882 
L 80.391405 298.834237 
L 83.670744 298.95931 
L 86.950083 300.180764 
L 90.229421 299.866752 
L 93.50876 300.295192 
L 96.788099 297.727212 
L 100.067438 299.041805 
L 103.346777 298.392492 
L 106.626116 299.286628 
L 109.905455 298.493614 
L 113.184793 299.270661 
L 116.464132 299.880058 
L 119.743471 299.550079 
L 123.02281 298.568125 
L 126.302149 299.254694 
L 129.581488 299.864091 
L 132.860826 301.354318 
L 136.140165 300.148831 
L 139.419504 299.103011 
L 142.698843 297.84164 
L 145.978182 298.79166 
L 149.257521 295.217775 
L 152.53686 291.784931 
L 155.816198 286.86452 
L 159.095537 286.805975 
L 162.374876 286.076828 
L 165.654215 289.400567 
L 168.933554 288.509092 
L 172.212893 288.76722 
L 175.492231 287.729384 
L 178.77157 286.989592 
L 182.050909 289.195661 
L 185.330248 285.520654 
L 188.609587 283.11234 
L 191.888926 285.62976 
L 195.168264 288.431919 
L 198.447603 288.309508 
L 201.726942 287.26901 
L 205.006281 286.851214 
L 208.28562 285.267848 
L 211.564959 288.288219 
L 214.844298 286.755414 
L 218.123636 290.270753 
L 221.402975 288.580942 
L 224.682314 286.585102 
L 227.961653 286.159323 
L 231.240992 289.813041 
L 234.520331 286.388179 
L 237.799669 286.65163 
L 241.079008 287.801234 
L 244.358347 286.909759 
L 247.637686 258.94671 
L 250.917025 223.681548 
L 254.196364 233.567608 
L 257.475702 225.757221 
L 260.755041 215.51457 
L 264.03438 234.224905 
L 267.313719 216.102678 
L 270.593058 230.573848 
L 273.872397 219.966624 
L 277.151736 222.806039 
L 280.431074 218.244879 
L 283.710413 225.283542 
L 286.989752 220.166208 
L 290.269091 226.041961 
L 293.54843 228.048445 
L 296.827769 217.901595 
L 300.107107 209.300855 
L 303.386446 215.099436 
L 306.665785 224.104666 
L 309.945124 215.945672 
L 313.224463 224.815185 
L 316.503802 230.33967 
L 319.78314 210.551581 
L 323.062479 219.727123 
L 326.341818 219.298683 
L 329.621157 215.495942 
L 332.900496 234.304739 
L 336.179835 222.774106 
L 339.459174 226.481046 
L 342.738512 54.221426 
L 344.199162 -1 
" clip-path="url(#pc5b56f5aa8)" style="fill: none; stroke: #bcbd22; stroke-width: 1.5; stroke-linecap: square"/>
   </g>
   <g id="patch_3">
    <path d="M 57.6 307.584 
L 57.6 41.472 
" style="fill: none; stroke: #000000; stroke-width: 0.8; stroke-linejoin: miter; stroke-linecap: square"/>
   </g>
   <g id="patch_4">
    <path d="M 414.72 307.584 
L 414.72 41.472 
" style="fill: none; stroke: #000000; stroke-width: 0.8; stroke-linejoin: miter; stroke-linecap: square"/>
   </g>
   <g id="patch_5">
    <path d="M 57.6 307.584 
L 414.72 307.584 
" style="fill: none; stroke: #000000; stroke-width: 0.8; stroke-linejoin: miter; stroke-linecap: square"/>
   </g>
   <g id="patch_6">
    <path d="M 57.6 41.472 
L 414.72 41.472 
" style="fill: none; stroke: #000000; stroke-width: 0.8; stroke-linejoin: miter; stroke-linecap: square"/>
   </g>
   <g id="text_15">
    <!-- Wachttijd in functie van bedieningstijd -->
    <g transform="translate(120.759375 35.472)scale(0.12 -0.12)">
     <defs>
      <path id="DejaVuSans-66" d="M 2375 4863 
L 2375 4384 
L 1825 4384 
Q 1516 4384 1395 4259 
Q 1275 4134 1275 3809 
L 1275 3500 
L 2222 3500 
L 2222 3053 
L 1275 3053 
L 1275 0 
L 697 0 
L 697 3053 
L 147 3053 
L 147 3500 
L 697 3500 
L 697 3744 
Q 697 4328 969 4595 
Q 1241 4863 1831 4863 
L 2375 4863 
z
" transform="scale(0.015625)"/>
      <path id="DejaVuSans-75" d="M 544 1381 
L 544 3500 
L 1119 3500 
L 1119 1403 
Q 1119 906 1312 657 
Q 1506 409 1894 409 
Q 2359 409 2629 706 
Q 2900 1003 2900 1516 
L 2900 3500 
L 3475 3500 
L 3475 0 
L 2900 0 
L 2900 538 
Q 2691 219 2414 64 
Q 2138 -91 1772 -91 
Q 1169 -91 856 284 
Q 544 659 544 1381 
z
M 1991 3584 
L 1991 3584 
z
" transform="scale(0.015625)"/>
      <path id="DejaVuSans-76" d="M 191 3500 
L 800 3500 
L 1894 563 
L 2988 3500 
L 3597 3500 
L 2284 0 
L 1503 0 
L 191 3500 
z
" transform="scale(0.015625)"/>
      <path id="DejaVuSans-62" d="M 3116 1747 
Q 3116 2381 2855 2742 
Q 2594 3103 2138 3103 
Q 1681 3103 1420 2742 
Q 1159 2381 1159 1747 
Q 1159 1113 1420 752 
Q 1681 391 2138 391 
Q 2594 391 2855 752 
Q 3116 1113 3116 1747 
z
M 1159 2969 
Q 1341 3281 1617 3432 
Q 1894 3584 2278 3584 
Q 2916 3584 3314 3078 
Q 3713 2572 3713 1747 
Q 3713 922 3314 415 
Q 2916 -91 2278 -91 
Q 1894 -91 1617 61 
Q 1341 213 1159 525 
L 1159 0 
L 581 0 
L 581 4863 
L 1159 4863 
L 1159 2969 
z
" transform="scale(0.015625)"/>
     </defs>
     <use xlink:href="#DejaVuSans-57"/>
     <use xlink:href="#DejaVuSans-61" x="92.501953"/>
     <use xlink:href="#DejaVuSans-63" x="153.78125"/>
     <use xlink:href="#DejaVuSans-68" x="208.761719"/>
     <use xlink:href="#DejaVuSans-74" x="272.140625"/>
     <use xlink:href="#DejaVuSans-74" x="311.349609"/>
     <use xlink:href="#DejaVuSans-69" x="350.558594"/>
     <use xlink:href="#DejaVuSans-6a" x="378.341797"/>
     <use xlink:href="#DejaVuSans-64" x="406.125"/>
     <use xlink:href="#DejaVuSans-20" x="469.601562"/>
     <use xlink:href="#DejaVuSans-69" x="501.388672"/>
     <use xlink:href="#DejaVuSans-6e" x="529.171875"/>
     <use xlink:href="#DejaVuSans-20" x="592.550781"/>
     <use xlink:href="#DejaVuSans-66" x="624.337891"/>
     <use xlink:href="#DejaVuSans-75" x="659.542969"/>
     <use xlink:href="#DejaVuSans-6e" x="722.921875"/>
     <use xlink:href="#DejaVuSans-63" x="786.300781"/>
     <use xlink:href="#DejaVuSans-74" x="841.28125"/>
     <use xlink:href="#DejaVuSans-69" x="880.490234"/>
     <use xlink:href="#DejaVuSans-65" x="908.273438"/>
     <use xlink:href="#DejaVuSans-20" x="969.796875"/>
     <use xlink:href="#DejaVuSans-76" x="1001.583984"/>
     <use xlink:href="#DejaVuSans-61" x="1060.763672"/>
     <use xlink:href="#DejaVuSans-6e" x="1122.042969"/>
     <use xlink:href="#DejaVuSans-20" x="1185.421875"/>
     <use xlink:href="#DejaVuSans-62" x="1217.208984"/>
     <use xlink:href="#DejaVuSans-65" x="1280.685547"/>
     <use xlink:href="#DejaVuSans-64" x="1342.208984"/>
     <use xlink:href="#DejaVuSans-69" x="1405.685547"/>
     <use xlink:href="#DejaVuSans-65" x="1433.46875"/>
     <use xlink:href="#DejaVuSans-6e" x="1494.992188"/>
     <use xlink:href="#DejaVuSans-69" x="1558.371094"/>
     <use xlink:href="#DejaVuSans-6e" x="1586.154297"/>
     <use xlink:href="#DejaVuSans-67" x="1649.533203"/>
     <use xlink:href="#DejaVuSans-73" x="1713.009766"/>
     <use xlink:href="#DejaVuSans-74" x="1765.109375"/>
     <use xlink:href="#DejaVuSans-69" x="1804.318359"/>
     <use xlink:href="#DejaVuSans-6a" x="1832.101562"/>
     <use xlink:href="#DejaVuSans-64" x="1859.884766"/>
    </g>
   </g>
   <g id="legend_1">
    <g id="patch_7">
     <path d="M 64.6 181.575125 
L 136.1375 181.575125 
Q 138.1375 181.575125 138.1375 179.575125 
L 138.1375 48.472 
Q 138.1375 46.472 136.1375 46.472 
L 64.6 46.472 
Q 62.6 46.472 62.6 48.472 
L 62.6 179.575125 
Q 62.6 181.575125 64.6 181.575125 
z
" style="fill: #ffffff; opacity: 0.8; stroke: #cccccc; stroke-linejoin: miter"/>
    </g>
    <g id="line2d_22">
     <path d="M 66.6 54.570438 
L 76.6 54.570438 
L 86.6 54.570438 
" style="fill: none; stroke: #1f77b4; stroke-width: 1.5; stroke-linecap: square"/>
    </g>
    <g id="text_16">
     <!-- FCFS -->
     <g transform="translate(94.6 58.070438)scale(0.1 -0.1)">
      <defs>
       <path id="DejaVuSans-46" d="M 628 4666 
L 3309 4666 
L 3309 4134 
L 1259 4134 
L 1259 2759 
L 3109 2759 
L 3109 2228 
L 1259 2228 
L 1259 0 
L 628 0 
L 628 4666 
z
" transform="scale(0.015625)"/>
       <path id="DejaVuSans-43" d="M 4122 4306 
L 4122 3641 
Q 3803 3938 3442 4084 
Q 3081 4231 2675 4231 
Q 1875 4231 1450 3742 
Q 1025 3253 1025 2328 
Q 1025 1406 1450 917 
Q 1875 428 2675 428 
Q 3081 428 3442 575 
Q 3803 722 4122 1019 
L 4122 359 
Q 3791 134 3420 21 
Q 3050 -91 2638 -91 
Q 1578 -91 968 557 
Q 359 1206 359 2328 
Q 359 3453 968 4101 
Q 1578 4750 2638 4750 
Q 3056 4750 3426 4639 
Q 3797 4528 4122 4306 
z
" transform="scale(0.015625)"/>
       <path id="DejaVuSans-53" d="M 3425 4513 
L 3425 3897 
Q 3066 4069 2747 4153 
Q 2428 4238 2131 4238 
Q 1616 4238 1336 4038 
Q 1056 3838 1056 3469 
Q 1056 3159 1242 3001 
Q 1428 2844 1947 2747 
L 2328 2669 
Q 3034 2534 3370 2195 
Q 3706 1856 3706 1288 
Q 3706 609 3251 259 
Q 2797 -91 1919 -91 
Q 1588 -91 1214 -16 
Q 841 59 441 206 
L 441 856 
Q 825 641 1194 531 
Q 1563 422 1919 422 
Q 2459 422 2753 634 
Q 3047 847 3047 1241 
Q 3047 1584 2836 1778 
Q 2625 1972 2144 2069 
L 1759 2144 
Q 1053 2284 737 2584 
Q 422 2884 422 3419 
Q 422 4038 858 4394 
Q 1294 4750 2059 4750 
Q 2388 4750 2728 4690 
Q 3069 4631 3425 4513 
z
" transform="scale(0.015625)"/>
      </defs>
      <use xlink:href="#DejaVuSans-46"/>
      <use xlink:href="#DejaVuSans-43" x="57.519531"/>
      <use xlink:href="#DejaVuSans-46" x="127.34375"/>
      <use xlink:href="#DejaVuSans-53" x="183.113281"/>
     </g>
    </g>
    <g id="line2d_23">
     <path d="M 66.6 69.248563 
L 76.6 69.248563 
L 86.6 69.248563 
" style="fill: none; stroke: #ff7f0e; stroke-width: 1.5; stroke-linecap: square"/>
    </g>
    <g id="text_17">
     <!-- SJF -->
     <g transform="translate(94.6 72.748563)scale(0.1 -0.1)">
      <defs>
       <path id="DejaVuSans-4a" d="M 628 4666 
L 1259 4666 
L 1259 325 
Q 1259 -519 939 -900 
Q 619 -1281 -91 -1281 
L -331 -1281 
L -331 -750 
L -134 -750 
Q 284 -750 456 -515 
Q 628 -281 628 325 
L 628 4666 
z
" transform="scale(0.015625)"/>
      </defs>
      <use xlink:href="#DejaVuSans-53"/>
      <use xlink:href="#DejaVuSans-4a" x="63.476562"/>
      <use xlink:href="#DejaVuSans-46" x="92.96875"/>
     </g>
    </g>
    <g id="line2d_24">
     <path d="M 66.6 83.926688 
L 76.6 83.926688 
L 86.6 83.926688 
" style="fill: none; stroke: #2ca02c; stroke-width: 1.5; stroke-linecap: square"/>
    </g>
    <g id="text_18">
     <!-- SRT -->
     <g transform="translate(94.6 87.426688)scale(0.1 -0.1)">
      <defs>
       <path id="DejaVuSans-52" d="M 2841 2188 
Q 3044 2119 3236 1894 
Q 3428 1669 3622 1275 
L 4263 0 
L 3584 0 
L 2988 1197 
Q 2756 1666 2539 1819 
Q 2322 1972 1947 1972 
L 1259 1972 
L 1259 0 
L 628 0 
L 628 4666 
L 2053 4666 
Q 2853 4666 3247 4331 
Q 3641 3997 3641 3322 
Q 3641 2881 3436 2590 
Q 3231 2300 2841 2188 
z
M 1259 4147 
L 1259 2491 
L 2053 2491 
Q 2509 2491 2742 2702 
Q 2975 2913 2975 3322 
Q 2975 3731 2742 3939 
Q 2509 4147 2053 4147 
L 1259 4147 
z
" transform="scale(0.015625)"/>
       <path id="DejaVuSans-54" d="M -19 4666 
L 3928 4666 
L 3928 4134 
L 2272 4134 
L 2272 0 
L 1638 0 
L 1638 4134 
L -19 4134 
L -19 4666 
z
" transform="scale(0.015625)"/>
      </defs>
      <use xlink:href="#DejaVuSans-53"/>
      <use xlink:href="#DejaVuSans-52" x="63.476562"/>
      <use xlink:href="#DejaVuSans-54" x="125.708984"/>
     </g>
    </g>
    <g id="line2d_25">
     <path d="M 66.6 98.604813 
L 76.6 98.604813 
L 86.6 98.604813 
" style="fill: none; stroke: #d62728; stroke-width: 1.5; stroke-linecap: square"/>
    </g>
    <g id="text_19">
     <!-- RR2 -->
     <g transform="translate(94.6 102.104813)scale(0.1 -0.1)">
      <use xlink:href="#DejaVuSans-52"/>
      <use xlink:href="#DejaVuSans-52" x="69.482422"/>
      <use xlink:href="#DejaVuSans-32" x="138.964844"/>
     </g>
    </g>
    <g id="line2d_26">
     <path d="M 66.6 113.282938 
L 76.6 113.282938 
L 86.6 113.282938 
" style="fill: none; stroke: #9467bd; stroke-width: 1.5; stroke-linecap: square"/>
    </g>
    <g id="text_20">
     <!-- RR4 -->
     <g transform="translate(94.6 116.782938)scale(0.1 -0.1)">
      <use xlink:href="#DejaVuSans-52"/>
      <use xlink:href="#DejaVuSans-52" x="69.482422"/>
      <use xlink:href="#DejaVuSans-34" x="138.964844"/>
     </g>
    </g>
    <g id="line2d_27">
     <path d="M 66.6 127.961063 
L 76.6 127.961063 
L 86.6 127.961063 
" style="fill: none; stroke: #8c564b; stroke-width: 1.5; stroke-linecap: square"/>
    </g>
    <g id="text_21">
     <!-- RR8 -->
     <g transform="translate(94.6 131.461063)scale(0.1 -0.1)">
      <use xlink:href="#DejaVuSans-52"/>
      <use xlink:href="#DejaVuSans-52" x="69.482422"/>
      <use xlink:href="#DejaVuSans-38" x="138.964844"/>
     </g>
    </g>
    <g id="line2d_28">
     <path d="M 66.6 142.639188 
L 76.6 142.639188 
L 86.6 142.639188 
" style="fill: none; stroke: #e377c2; stroke-width: 1.5; stroke-linecap: square"/>
    </g>
    <g id="text_22">
     <!-- HRRN -->
     <g transform="translate(94.6 146.139188)scale(0.1 -0.1)">
      <defs>
       <path id="DejaVuSans-48" d="M 628 4666 
L 1259 4666 
L 1259 2753 
L 3553 2753 
L 3553 4666 
L 4184 4666 
L 4184 0 
L 3553 0 
L 3553 2222 
L 1259 2222 
L 1259 0 
L 628 0 
L 628 4666 
z
" transform="scale(0.015625)"/>
       <path id="DejaVuSans-4e" d="M 628 4666 
L 1478 4666 
L 3547 763 
L 3547 4666 
L 4159 4666 
L 4159 0 
L 3309 0 
L 1241 3903 
L 1241 0 
L 628 0 
L 628 4666 
z
" transform="scale(0.015625)"/>
      </defs>
      <use xlink:href="#DejaVuSans-48"/>
      <use xlink:href="#DejaVuSans-52" x="75.195312"/>
      <use xlink:href="#DejaVuSans-52" x="144.677734"/>
      <use xlink:href="#DejaVuSans-4e" x="214.160156"/>
     </g>
    </g>
    <g id="line2d_29">
     <path d="M 66.6 157.317313 
L 76.6 157.317313 
L 86.6 157.317313 
" style="fill: none; stroke: #7f7f7f; stroke-width: 1.5; stroke-linecap: square"/>
    </g>
    <g id="text_23">
     <!-- MLFB5 -->
     <g transform="translate(94.6 160.817313)scale(0.1 -0.1)">
      <defs>
       <path id="DejaVuSans-4d" d="M 628 4666 
L 1569 4666 
L 2759 1491 
L 3956 4666 
L 4897 4666 
L 4897 0 
L 4281 0 
L 4281 4097 
L 3078 897 
L 2444 897 
L 1241 4097 
L 1241 0 
L 628 0 
L 628 4666 
z
" transform="scale(0.015625)"/>
       <path id="DejaVuSans-4c" d="M 628 4666 
L 1259 4666 
L 1259 531 
L 3531 531 
L 3531 0 
L 628 0 
L 628 4666 
z
" transform="scale(0.015625)"/>
       <path id="DejaVuSans-35" d="M 691 4666 
L 3169 4666 
L 3169 4134 
L 1269 4134 
L 1269 2991 
Q 1406 3038 1543 3061 
Q 1681 3084 1819 3084 
Q 2600 3084 3056 2656 
Q 3513 2228 3513 1497 
Q 3513 744 3044 326 
Q 2575 -91 1722 -91 
Q 1428 -91 1123 -41 
Q 819 9 494 109 
L 494 744 
Q 775 591 1075 516 
Q 1375 441 1709 441 
Q 2250 441 2565 725 
Q 2881 1009 2881 1497 
Q 2881 1984 2565 2268 
Q 2250 2553 1709 2553 
Q 1456 2553 1204 2497 
Q 953 2441 691 2322 
L 691 4666 
z
" transform="scale(0.015625)"/>
      </defs>
      <use xlink:href="#DejaVuSans-4d"/>
      <use xlink:href="#DejaVuSans-4c" x="86.279297"/>
      <use xlink:href="#DejaVuSans-46" x="141.992188"/>
      <use xlink:href="#DejaVuSans-42" x="199.511719"/>
      <use xlink:href="#DejaVuSans-35" x="268.115234"/>
     </g>
    </g>
    <g id="line2d_30">
     <path d="M 66.6 171.995438 
L 76.6 171.995438 
L 86.6 171.995438 
" style="fill: none; stroke: #bcbd22; stroke-width: 1.5; stroke-linecap: square"/>
    </g>
    <g id="text_24">
     <!-- MLFB25 -->
     <g transform="translate(94.6 175.495438)scale(0.1 -0.1)">
      <use xlink:href="#DejaVuSans-4d"/>
      <use xlink:href="#DejaVuSans-4c" x="86.279297"/>
      <use xlink:href="#DejaVuSans-46" x="141.992188"/>
      <use xlink:href="#DejaVuSans-42" x="199.511719"/>
      <use xlink:href="#DejaVuSans-32" x="268.115234"/>
      <use xlink:href="#DejaVuSans-35" x="331.738281"/>
     </g>
    </g>
   </g>
  </g>
 </g>
 <defs>
  <clipPath id="pc5b56f5aa8">
   <rect x="57.6" y="41.472" width="357.12" height="266.112"/>
  </clipPath>
 </defs>
</svg>
