<?xml version="1.0" encoding="utf-8" standalone="no"?>
<!DOCTYPE svg PUBLIC "-//W3C//DTD SVG 1.1//EN"
  "http://www.w3.org/Graphics/SVG/1.1/DTD/svg11.dtd">
<svg xmlns:xlink="http://www.w3.org/1999/xlink" width="460.8pt" height="345.6pt" viewBox="0 0 460.8 345.6" xmlns="http://www.w3.org/2000/svg" version="1.1">
 <metadata>
  <rdf:RDF xmlns:dc="http://purl.org/dc/elements/1.1/" xmlns:cc="http://creativecommons.org/ns#" xmlns:rdf="http://www.w3.org/1999/02/22-rdf-syntax-ns#">
   <cc:Work>
    <dc:type rdf:resource="http://purl.org/dc/dcmitype/StillImage"/>
    <dc:date>2022-03-29T15:49:17.829862</dc:date>
    <dc:format>image/svg+xml</dc:format>
    <dc:creator>
     <cc:Agent>
      <dc:title>Matplotlib v3.5.1, https://matplotlib.org/</dc:title>
     </cc:Agent>
    </dc:creator>
   </cc:Work>
  </rdf:RDF>
 </metadata>
 <defs>
  <style type="text/css">*{stroke-linejoin: round; stroke-linecap: butt}</style>
 </defs>
 <g id="figure_1">
  <g id="patch_1">
   <path d="M 0 345.6 
L 460.8 345.6 
L 460.8 0 
L 0 0 
z
" style="fill: #ffffff"/>
  </g>
  <g id="axes_1">
   <g id="patch_2">
    <path d="M 57.6 307.584 
L 414.72 307.584 
L 414.72 41.472 
L 57.6 41.472 
z
" style="fill: #ffffff"/>
   </g>
   <g id="matplotlib.axis_1">
    <g id="xtick_1">
     <g id="line2d_1">
      <defs>
       <path id="m8f1e1e07ed" d="M 0 0 
L 0 3.5 
" style="stroke: #000000; stroke-width: 0.8"/>
      </defs>
      <g>
       <use xlink:href="#m8f1e1e07ed" x="70.553388" y="307.584" style="stroke: #000000; stroke-width: 0.8"/>
      </g>
     </g>
     <g id="text_1">
      <!-- 0 -->
      <g transform="translate(67.372138 322.182437)scale(0.1 -0.1)">
       <defs>
        <path id="DejaVuSans-30" d="M 2034 4250 
Q 1547 4250 1301 3770 
Q 1056 3291 1056 2328 
Q 1056 1369 1301 889 
Q 1547 409 2034 409 
Q 2525 409 2770 889 
Q 3016 1369 3016 2328 
Q 3016 3291 2770 3770 
Q 2525 4250 2034 4250 
z
M 2034 4750 
Q 2819 4750 3233 4129 
Q 3647 3509 3647 2328 
Q 3647 1150 3233 529 
Q 2819 -91 2034 -91 
Q 1250 -91 836 529 
Q 422 1150 422 2328 
Q 422 3509 836 4129 
Q 1250 4750 2034 4750 
z
" transform="scale(0.015625)"/>
       </defs>
       <use xlink:href="#DejaVuSans-30"/>
      </g>
     </g>
    </g>
    <g id="xtick_2">
     <g id="line2d_2">
      <g>
       <use xlink:href="#m8f1e1e07ed" x="136.140165" y="307.584" style="stroke: #000000; stroke-width: 0.8"/>
      </g>
     </g>
     <g id="text_2">
      <!-- 20 -->
      <g transform="translate(129.777665 322.182437)scale(0.1 -0.1)">
       <defs>
        <path id="DejaVuSans-32" d="M 1228 531 
L 3431 531 
L 3431 0 
L 469 0 
L 469 531 
Q 828 903 1448 1529 
Q 2069 2156 2228 2338 
Q 2531 2678 2651 2914 
Q 2772 3150 2772 3378 
Q 2772 3750 2511 3984 
Q 2250 4219 1831 4219 
Q 1534 4219 1204 4116 
Q 875 4013 500 3803 
L 500 4441 
Q 881 4594 1212 4672 
Q 1544 4750 1819 4750 
Q 2544 4750 2975 4387 
Q 3406 4025 3406 3419 
Q 3406 3131 3298 2873 
Q 3191 2616 2906 2266 
Q 2828 2175 2409 1742 
Q 1991 1309 1228 531 
z
" transform="scale(0.015625)"/>
       </defs>
       <use xlink:href="#DejaVuSans-32"/>
       <use xlink:href="#DejaVuSans-30" x="63.623047"/>
      </g>
     </g>
    </g>
    <g id="xtick_3">
     <g id="line2d_3">
      <g>
       <use xlink:href="#m8f1e1e07ed" x="201.726942" y="307.584" style="stroke: #000000; stroke-width: 0.8"/>
      </g>
     </g>
     <g id="text_3">
      <!-- 40 -->
      <g transform="translate(195.364442 322.182437)scale(0.1 -0.1)">
       <defs>
        <path id="DejaVuSans-34" d="M 2419 4116 
L 825 1625 
L 2419 1625 
L 2419 4116 
z
M 2253 4666 
L 3047 4666 
L 3047 1625 
L 3713 1625 
L 3713 1100 
L 3047 1100 
L 3047 0 
L 2419 0 
L 2419 1100 
L 313 1100 
L 313 1709 
L 2253 4666 
z
" transform="scale(0.015625)"/>
       </defs>
       <use xlink:href="#DejaVuSans-34"/>
       <use xlink:href="#DejaVuSans-30" x="63.623047"/>
      </g>
     </g>
    </g>
    <g id="xtick_4">
     <g id="line2d_4">
      <g>
       <use xlink:href="#m8f1e1e07ed" x="267.313719" y="307.584" style="stroke: #000000; stroke-width: 0.8"/>
      </g>
     </g>
     <g id="text_4">
      <!-- 60 -->
      <g transform="translate(260.951219 322.182437)scale(0.1 -0.1)">
       <defs>
        <path id="DejaVuSans-36" d="M 2113 2584 
Q 1688 2584 1439 2293 
Q 1191 2003 1191 1497 
Q 1191 994 1439 701 
Q 1688 409 2113 409 
Q 2538 409 2786 701 
Q 3034 994 3034 1497 
Q 3034 2003 2786 2293 
Q 2538 2584 2113 2584 
z
M 3366 4563 
L 3366 3988 
Q 3128 4100 2886 4159 
Q 2644 4219 2406 4219 
Q 1781 4219 1451 3797 
Q 1122 3375 1075 2522 
Q 1259 2794 1537 2939 
Q 1816 3084 2150 3084 
Q 2853 3084 3261 2657 
Q 3669 2231 3669 1497 
Q 3669 778 3244 343 
Q 2819 -91 2113 -91 
Q 1303 -91 875 529 
Q 447 1150 447 2328 
Q 447 3434 972 4092 
Q 1497 4750 2381 4750 
Q 2619 4750 2861 4703 
Q 3103 4656 3366 4563 
z
" transform="scale(0.015625)"/>
       </defs>
       <use xlink:href="#DejaVuSans-36"/>
       <use xlink:href="#DejaVuSans-30" x="63.623047"/>
      </g>
     </g>
    </g>
    <g id="xtick_5">
     <g id="line2d_5">
      <g>
       <use xlink:href="#m8f1e1e07ed" x="332.900496" y="307.584" style="stroke: #000000; stroke-width: 0.8"/>
      </g>
     </g>
     <g id="text_5">
      <!-- 80 -->
      <g transform="translate(326.537996 322.182437)scale(0.1 -0.1)">
       <defs>
        <path id="DejaVuSans-38" d="M 2034 2216 
Q 1584 2216 1326 1975 
Q 1069 1734 1069 1313 
Q 1069 891 1326 650 
Q 1584 409 2034 409 
Q 2484 409 2743 651 
Q 3003 894 3003 1313 
Q 3003 1734 2745 1975 
Q 2488 2216 2034 2216 
z
M 1403 2484 
Q 997 2584 770 2862 
Q 544 3141 544 3541 
Q 544 4100 942 4425 
Q 1341 4750 2034 4750 
Q 2731 4750 3128 4425 
Q 3525 4100 3525 3541 
Q 3525 3141 3298 2862 
Q 3072 2584 2669 2484 
Q 3125 2378 3379 2068 
Q 3634 1759 3634 1313 
Q 3634 634 3220 271 
Q 2806 -91 2034 -91 
Q 1263 -91 848 271 
Q 434 634 434 1313 
Q 434 1759 690 2068 
Q 947 2378 1403 2484 
z
M 1172 3481 
Q 1172 3119 1398 2916 
Q 1625 2713 2034 2713 
Q 2441 2713 2670 2916 
Q 2900 3119 2900 3481 
Q 2900 3844 2670 4047 
Q 2441 4250 2034 4250 
Q 1625 4250 1398 4047 
Q 1172 3844 1172 3481 
z
" transform="scale(0.015625)"/>
       </defs>
       <use xlink:href="#DejaVuSans-38"/>
       <use xlink:href="#DejaVuSans-30" x="63.623047"/>
      </g>
     </g>
    </g>
    <g id="xtick_6">
     <g id="line2d_6">
      <g>
       <use xlink:href="#m8f1e1e07ed" x="398.487273" y="307.584" style="stroke: #000000; stroke-width: 0.8"/>
      </g>
     </g>
     <g id="text_6">
      <!-- 100 -->
      <g transform="translate(388.943523 322.182437)scale(0.1 -0.1)">
       <defs>
        <path id="DejaVuSans-31" d="M 794 531 
L 1825 531 
L 1825 4091 
L 703 3866 
L 703 4441 
L 1819 4666 
L 2450 4666 
L 2450 531 
L 3481 531 
L 3481 0 
L 794 0 
L 794 531 
z
" transform="scale(0.015625)"/>
       </defs>
       <use xlink:href="#DejaVuSans-31"/>
       <use xlink:href="#DejaVuSans-30" x="63.623047"/>
       <use xlink:href="#DejaVuSans-30" x="127.246094"/>
      </g>
     </g>
    </g>
    <g id="text_7">
     <!-- Bedieningstijd percentiel -->
     <g transform="translate(174.002969 335.860562)scale(0.1 -0.1)">
      <defs>
       <path id="DejaVuSans-42" d="M 1259 2228 
L 1259 519 
L 2272 519 
Q 2781 519 3026 730 
Q 3272 941 3272 1375 
Q 3272 1813 3026 2020 
Q 2781 2228 2272 2228 
L 1259 2228 
z
M 1259 4147 
L 1259 2741 
L 2194 2741 
Q 2656 2741 2882 2914 
Q 3109 3088 3109 3444 
Q 3109 3797 2882 3972 
Q 2656 4147 2194 4147 
L 1259 4147 
z
M 628 4666 
L 2241 4666 
Q 2963 4666 3353 4366 
Q 3744 4066 3744 3513 
Q 3744 3084 3544 2831 
Q 3344 2578 2956 2516 
Q 3422 2416 3680 2098 
Q 3938 1781 3938 1306 
Q 3938 681 3513 340 
Q 3088 0 2303 0 
L 628 0 
L 628 4666 
z
" transform="scale(0.015625)"/>
       <path id="DejaVuSans-65" d="M 3597 1894 
L 3597 1613 
L 953 1613 
Q 991 1019 1311 708 
Q 1631 397 2203 397 
Q 2534 397 2845 478 
Q 3156 559 3463 722 
L 3463 178 
Q 3153 47 2828 -22 
Q 2503 -91 2169 -91 
Q 1331 -91 842 396 
Q 353 884 353 1716 
Q 353 2575 817 3079 
Q 1281 3584 2069 3584 
Q 2775 3584 3186 3129 
Q 3597 2675 3597 1894 
z
M 3022 2063 
Q 3016 2534 2758 2815 
Q 2500 3097 2075 3097 
Q 1594 3097 1305 2825 
Q 1016 2553 972 2059 
L 3022 2063 
z
" transform="scale(0.015625)"/>
       <path id="DejaVuSans-64" d="M 2906 2969 
L 2906 4863 
L 3481 4863 
L 3481 0 
L 2906 0 
L 2906 525 
Q 2725 213 2448 61 
Q 2172 -91 1784 -91 
Q 1150 -91 751 415 
Q 353 922 353 1747 
Q 353 2572 751 3078 
Q 1150 3584 1784 3584 
Q 2172 3584 2448 3432 
Q 2725 3281 2906 2969 
z
M 947 1747 
Q 947 1113 1208 752 
Q 1469 391 1925 391 
Q 2381 391 2643 752 
Q 2906 1113 2906 1747 
Q 2906 2381 2643 2742 
Q 2381 3103 1925 3103 
Q 1469 3103 1208 2742 
Q 947 2381 947 1747 
z
" transform="scale(0.015625)"/>
       <path id="DejaVuSans-69" d="M 603 3500 
L 1178 3500 
L 1178 0 
L 603 0 
L 603 3500 
z
M 603 4863 
L 1178 4863 
L 1178 4134 
L 603 4134 
L 603 4863 
z
" transform="scale(0.015625)"/>
       <path id="DejaVuSans-6e" d="M 3513 2113 
L 3513 0 
L 2938 0 
L 2938 2094 
Q 2938 2591 2744 2837 
Q 2550 3084 2163 3084 
Q 1697 3084 1428 2787 
Q 1159 2491 1159 1978 
L 1159 0 
L 581 0 
L 581 3500 
L 1159 3500 
L 1159 2956 
Q 1366 3272 1645 3428 
Q 1925 3584 2291 3584 
Q 2894 3584 3203 3211 
Q 3513 2838 3513 2113 
z
" transform="scale(0.015625)"/>
       <path id="DejaVuSans-67" d="M 2906 1791 
Q 2906 2416 2648 2759 
Q 2391 3103 1925 3103 
Q 1463 3103 1205 2759 
Q 947 2416 947 1791 
Q 947 1169 1205 825 
Q 1463 481 1925 481 
Q 2391 481 2648 825 
Q 2906 1169 2906 1791 
z
M 3481 434 
Q 3481 -459 3084 -895 
Q 2688 -1331 1869 -1331 
Q 1566 -1331 1297 -1286 
Q 1028 -1241 775 -1147 
L 775 -588 
Q 1028 -725 1275 -790 
Q 1522 -856 1778 -856 
Q 2344 -856 2625 -561 
Q 2906 -266 2906 331 
L 2906 616 
Q 2728 306 2450 153 
Q 2172 0 1784 0 
Q 1141 0 747 490 
Q 353 981 353 1791 
Q 353 2603 747 3093 
Q 1141 3584 1784 3584 
Q 2172 3584 2450 3431 
Q 2728 3278 2906 2969 
L 2906 3500 
L 3481 3500 
L 3481 434 
z
" transform="scale(0.015625)"/>
       <path id="DejaVuSans-73" d="M 2834 3397 
L 2834 2853 
Q 2591 2978 2328 3040 
Q 2066 3103 1784 3103 
Q 1356 3103 1142 2972 
Q 928 2841 928 2578 
Q 928 2378 1081 2264 
Q 1234 2150 1697 2047 
L 1894 2003 
Q 2506 1872 2764 1633 
Q 3022 1394 3022 966 
Q 3022 478 2636 193 
Q 2250 -91 1575 -91 
Q 1294 -91 989 -36 
Q 684 19 347 128 
L 347 722 
Q 666 556 975 473 
Q 1284 391 1588 391 
Q 1994 391 2212 530 
Q 2431 669 2431 922 
Q 2431 1156 2273 1281 
Q 2116 1406 1581 1522 
L 1381 1569 
Q 847 1681 609 1914 
Q 372 2147 372 2553 
Q 372 3047 722 3315 
Q 1072 3584 1716 3584 
Q 2034 3584 2315 3537 
Q 2597 3491 2834 3397 
z
" transform="scale(0.015625)"/>
       <path id="DejaVuSans-74" d="M 1172 4494 
L 1172 3500 
L 2356 3500 
L 2356 3053 
L 1172 3053 
L 1172 1153 
Q 1172 725 1289 603 
Q 1406 481 1766 481 
L 2356 481 
L 2356 0 
L 1766 0 
Q 1100 0 847 248 
Q 594 497 594 1153 
L 594 3053 
L 172 3053 
L 172 3500 
L 594 3500 
L 594 4494 
L 1172 4494 
z
" transform="scale(0.015625)"/>
       <path id="DejaVuSans-6a" d="M 603 3500 
L 1178 3500 
L 1178 -63 
Q 1178 -731 923 -1031 
Q 669 -1331 103 -1331 
L -116 -1331 
L -116 -844 
L 38 -844 
Q 366 -844 484 -692 
Q 603 -541 603 -63 
L 603 3500 
z
M 603 4863 
L 1178 4863 
L 1178 4134 
L 603 4134 
L 603 4863 
z
" transform="scale(0.015625)"/>
       <path id="DejaVuSans-20" transform="scale(0.015625)"/>
       <path id="DejaVuSans-70" d="M 1159 525 
L 1159 -1331 
L 581 -1331 
L 581 3500 
L 1159 3500 
L 1159 2969 
Q 1341 3281 1617 3432 
Q 1894 3584 2278 3584 
Q 2916 3584 3314 3078 
Q 3713 2572 3713 1747 
Q 3713 922 3314 415 
Q 2916 -91 2278 -91 
Q 1894 -91 1617 61 
Q 1341 213 1159 525 
z
M 3116 1747 
Q 3116 2381 2855 2742 
Q 2594 3103 2138 3103 
Q 1681 3103 1420 2742 
Q 1159 2381 1159 1747 
Q 1159 1113 1420 752 
Q 1681 391 2138 391 
Q 2594 391 2855 752 
Q 3116 1113 3116 1747 
z
" transform="scale(0.015625)"/>
       <path id="DejaVuSans-72" d="M 2631 2963 
Q 2534 3019 2420 3045 
Q 2306 3072 2169 3072 
Q 1681 3072 1420 2755 
Q 1159 2438 1159 1844 
L 1159 0 
L 581 0 
L 581 3500 
L 1159 3500 
L 1159 2956 
Q 1341 3275 1631 3429 
Q 1922 3584 2338 3584 
Q 2397 3584 2469 3576 
Q 2541 3569 2628 3553 
L 2631 2963 
z
" transform="scale(0.015625)"/>
       <path id="DejaVuSans-63" d="M 3122 3366 
L 3122 2828 
Q 2878 2963 2633 3030 
Q 2388 3097 2138 3097 
Q 1578 3097 1268 2742 
Q 959 2388 959 1747 
Q 959 1106 1268 751 
Q 1578 397 2138 397 
Q 2388 397 2633 464 
Q 2878 531 3122 666 
L 3122 134 
Q 2881 22 2623 -34 
Q 2366 -91 2075 -91 
Q 1284 -91 818 406 
Q 353 903 353 1747 
Q 353 2603 823 3093 
Q 1294 3584 2113 3584 
Q 2378 3584 2631 3529 
Q 2884 3475 3122 3366 
z
" transform="scale(0.015625)"/>
       <path id="DejaVuSans-6c" d="M 603 4863 
L 1178 4863 
L 1178 0 
L 603 0 
L 603 4863 
z
" transform="scale(0.015625)"/>
      </defs>
      <use xlink:href="#DejaVuSans-42"/>
      <use xlink:href="#DejaVuSans-65" x="68.603516"/>
      <use xlink:href="#DejaVuSans-64" x="130.126953"/>
      <use xlink:href="#DejaVuSans-69" x="193.603516"/>
      <use xlink:href="#DejaVuSans-65" x="221.386719"/>
      <use xlink:href="#DejaVuSans-6e" x="282.910156"/>
      <use xlink:href="#DejaVuSans-69" x="346.289062"/>
      <use xlink:href="#DejaVuSans-6e" x="374.072266"/>
      <use xlink:href="#DejaVuSans-67" x="437.451172"/>
      <use xlink:href="#DejaVuSans-73" x="500.927734"/>
      <use xlink:href="#DejaVuSans-74" x="553.027344"/>
      <use xlink:href="#DejaVuSans-69" x="592.236328"/>
      <use xlink:href="#DejaVuSans-6a" x="620.019531"/>
      <use xlink:href="#DejaVuSans-64" x="647.802734"/>
      <use xlink:href="#DejaVuSans-20" x="711.279297"/>
      <use xlink:href="#DejaVuSans-70" x="743.066406"/>
      <use xlink:href="#DejaVuSans-65" x="806.542969"/>
      <use xlink:href="#DejaVuSans-72" x="868.066406"/>
      <use xlink:href="#DejaVuSans-63" x="906.929688"/>
      <use xlink:href="#DejaVuSans-65" x="961.910156"/>
      <use xlink:href="#DejaVuSans-6e" x="1023.433594"/>
      <use xlink:href="#DejaVuSans-74" x="1086.8125"/>
      <use xlink:href="#DejaVuSans-69" x="1126.021484"/>
      <use xlink:href="#DejaVuSans-65" x="1153.804688"/>
      <use xlink:href="#DejaVuSans-6c" x="1215.328125"/>
     </g>
    </g>
   </g>
   <g id="matplotlib.axis_2">
    <g id="ytick_1">
     <g id="line2d_7">
      <defs>
       <path id="me872fbe2ad" d="M 0 0 
L -3.5 0 
" style="stroke: #000000; stroke-width: 0.8"/>
      </defs>
      <g>
       <use xlink:href="#me872fbe2ad" x="57.6" y="307.584" style="stroke: #000000; stroke-width: 0.8"/>
      </g>
     </g>
     <g id="text_8">
      <!-- 0 -->
      <g transform="translate(44.2375 311.383219)scale(0.1 -0.1)">
       <use xlink:href="#DejaVuSans-30"/>
      </g>
     </g>
    </g>
    <g id="ytick_2">
     <g id="line2d_8">
      <g>
       <use xlink:href="#me872fbe2ad" x="57.6" y="274.32" style="stroke: #000000; stroke-width: 0.8"/>
      </g>
     </g>
     <g id="text_9">
      <!-- 250 -->
      <g transform="translate(31.5125 278.119219)scale(0.1 -0.1)">
       <defs>
        <path id="DejaVuSans-35" d="M 691 4666 
L 3169 4666 
L 3169 4134 
L 1269 4134 
L 1269 2991 
Q 1406 3038 1543 3061 
Q 1681 3084 1819 3084 
Q 2600 3084 3056 2656 
Q 3513 2228 3513 1497 
Q 3513 744 3044 326 
Q 2575 -91 1722 -91 
Q 1428 -91 1123 -41 
Q 819 9 494 109 
L 494 744 
Q 775 591 1075 516 
Q 1375 441 1709 441 
Q 2250 441 2565 725 
Q 2881 1009 2881 1497 
Q 2881 1984 2565 2268 
Q 2250 2553 1709 2553 
Q 1456 2553 1204 2497 
Q 953 2441 691 2322 
L 691 4666 
z
" transform="scale(0.015625)"/>
       </defs>
       <use xlink:href="#DejaVuSans-32"/>
       <use xlink:href="#DejaVuSans-35" x="63.623047"/>
       <use xlink:href="#DejaVuSans-30" x="127.246094"/>
      </g>
     </g>
    </g>
    <g id="ytick_3">
     <g id="line2d_9">
      <g>
       <use xlink:href="#me872fbe2ad" x="57.6" y="241.056" style="stroke: #000000; stroke-width: 0.8"/>
      </g>
     </g>
     <g id="text_10">
      <!-- 500 -->
      <g transform="translate(31.5125 244.855219)scale(0.1 -0.1)">
       <use xlink:href="#DejaVuSans-35"/>
       <use xlink:href="#DejaVuSans-30" x="63.623047"/>
       <use xlink:href="#DejaVuSans-30" x="127.246094"/>
      </g>
     </g>
    </g>
    <g id="ytick_4">
     <g id="line2d_10">
      <g>
       <use xlink:href="#me872fbe2ad" x="57.6" y="207.792" style="stroke: #000000; stroke-width: 0.8"/>
      </g>
     </g>
     <g id="text_11">
      <!-- 750 -->
      <g transform="translate(31.5125 211.591219)scale(0.1 -0.1)">
       <defs>
        <path id="DejaVuSans-37" d="M 525 4666 
L 3525 4666 
L 3525 4397 
L 1831 0 
L 1172 0 
L 2766 4134 
L 525 4134 
L 525 4666 
z
" transform="scale(0.015625)"/>
       </defs>
       <use xlink:href="#DejaVuSans-37"/>
       <use xlink:href="#DejaVuSans-35" x="63.623047"/>
       <use xlink:href="#DejaVuSans-30" x="127.246094"/>
      </g>
     </g>
    </g>
    <g id="ytick_5">
     <g id="line2d_11">
      <g>
       <use xlink:href="#me872fbe2ad" x="57.6" y="174.528" style="stroke: #000000; stroke-width: 0.8"/>
      </g>
     </g>
     <g id="text_12">
      <!-- 1000 -->
      <g transform="translate(25.15 178.327219)scale(0.1 -0.1)">
       <use xlink:href="#DejaVuSans-31"/>
       <use xlink:href="#DejaVuSans-30" x="63.623047"/>
       <use xlink:href="#DejaVuSans-30" x="127.246094"/>
       <use xlink:href="#DejaVuSans-30" x="190.869141"/>
      </g>
     </g>
    </g>
    <g id="ytick_6">
     <g id="line2d_12">
      <g>
       <use xlink:href="#me872fbe2ad" x="57.6" y="141.264" style="stroke: #000000; stroke-width: 0.8"/>
      </g>
     </g>
     <g id="text_13">
      <!-- 1250 -->
      <g transform="translate(25.15 145.063219)scale(0.1 -0.1)">
       <use xlink:href="#DejaVuSans-31"/>
       <use xlink:href="#DejaVuSans-32" x="63.623047"/>
       <use xlink:href="#DejaVuSans-35" x="127.246094"/>
       <use xlink:href="#DejaVuSans-30" x="190.869141"/>
      </g>
     </g>
    </g>
    <g id="ytick_7">
     <g id="line2d_13">
      <g>
       <use xlink:href="#me872fbe2ad" x="57.6" y="108" style="stroke: #000000; stroke-width: 0.8"/>
      </g>
     </g>
     <g id="text_14">
      <!-- 1500 -->
      <g transform="translate(25.15 111.799219)scale(0.1 -0.1)">
       <use xlink:href="#DejaVuSans-31"/>
       <use xlink:href="#DejaVuSans-35" x="63.623047"/>
       <use xlink:href="#DejaVuSans-30" x="127.246094"/>
       <use xlink:href="#DejaVuSans-30" x="190.869141"/>
      </g>
     </g>
    </g>
    <g id="ytick_8">
     <g id="line2d_14">
      <g>
       <use xlink:href="#me872fbe2ad" x="57.6" y="74.736" style="stroke: #000000; stroke-width: 0.8"/>
      </g>
     </g>
     <g id="text_15">
      <!-- 1750 -->
      <g transform="translate(25.15 78.535219)scale(0.1 -0.1)">
       <use xlink:href="#DejaVuSans-31"/>
       <use xlink:href="#DejaVuSans-37" x="63.623047"/>
       <use xlink:href="#DejaVuSans-35" x="127.246094"/>
       <use xlink:href="#DejaVuSans-30" x="190.869141"/>
      </g>
     </g>
    </g>
    <g id="ytick_9">
     <g id="line2d_15">
      <g>
       <use xlink:href="#me872fbe2ad" x="57.6" y="41.472" style="stroke: #000000; stroke-width: 0.8"/>
      </g>
     </g>
     <g id="text_16">
      <!-- 2000 -->
      <g transform="translate(25.15 45.271219)scale(0.1 -0.1)">
       <use xlink:href="#DejaVuSans-32"/>
       <use xlink:href="#DejaVuSans-30" x="63.623047"/>
       <use xlink:href="#DejaVuSans-30" x="127.246094"/>
       <use xlink:href="#DejaVuSans-30" x="190.869141"/>
      </g>
     </g>
    </g>
    <g id="text_17">
     <!-- Wachttijd -->
     <g transform="translate(19.070312 198.007688)rotate(-90)scale(0.1 -0.1)">
      <defs>
       <path id="DejaVuSans-57" d="M 213 4666 
L 850 4666 
L 1831 722 
L 2809 4666 
L 3519 4666 
L 4500 722 
L 5478 4666 
L 6119 4666 
L 4947 0 
L 4153 0 
L 3169 4050 
L 2175 0 
L 1381 0 
L 213 4666 
z
" transform="scale(0.015625)"/>
       <path id="DejaVuSans-61" d="M 2194 1759 
Q 1497 1759 1228 1600 
Q 959 1441 959 1056 
Q 959 750 1161 570 
Q 1363 391 1709 391 
Q 2188 391 2477 730 
Q 2766 1069 2766 1631 
L 2766 1759 
L 2194 1759 
z
M 3341 1997 
L 3341 0 
L 2766 0 
L 2766 531 
Q 2569 213 2275 61 
Q 1981 -91 1556 -91 
Q 1019 -91 701 211 
Q 384 513 384 1019 
Q 384 1609 779 1909 
Q 1175 2209 1959 2209 
L 2766 2209 
L 2766 2266 
Q 2766 2663 2505 2880 
Q 2244 3097 1772 3097 
Q 1472 3097 1187 3025 
Q 903 2953 641 2809 
L 641 3341 
Q 956 3463 1253 3523 
Q 1550 3584 1831 3584 
Q 2591 3584 2966 3190 
Q 3341 2797 3341 1997 
z
" transform="scale(0.015625)"/>
       <path id="DejaVuSans-68" d="M 3513 2113 
L 3513 0 
L 2938 0 
L 2938 2094 
Q 2938 2591 2744 2837 
Q 2550 3084 2163 3084 
Q 1697 3084 1428 2787 
Q 1159 2491 1159 1978 
L 1159 0 
L 581 0 
L 581 4863 
L 1159 4863 
L 1159 2956 
Q 1366 3272 1645 3428 
Q 1925 3584 2291 3584 
Q 2894 3584 3203 3211 
Q 3513 2838 3513 2113 
z
" transform="scale(0.015625)"/>
      </defs>
      <use xlink:href="#DejaVuSans-57"/>
      <use xlink:href="#DejaVuSans-61" x="92.501953"/>
      <use xlink:href="#DejaVuSans-63" x="153.78125"/>
      <use xlink:href="#DejaVuSans-68" x="208.761719"/>
      <use xlink:href="#DejaVuSans-74" x="272.140625"/>
      <use xlink:href="#DejaVuSans-74" x="311.349609"/>
      <use xlink:href="#DejaVuSans-69" x="350.558594"/>
      <use xlink:href="#DejaVuSans-6a" x="378.341797"/>
      <use xlink:href="#DejaVuSans-64" x="406.125"/>
     </g>
    </g>
   </g>
   <g id="line2d_16">
    <path d="M 73.832727 259.289994 
L 77.112066 246.417625 
L 80.391405 252.847955 
L 83.670744 256.69966 
L 86.950083 250.622726 
L 90.229421 257.157639 
L 93.50876 254.746398 
L 96.788099 254.22269 
L 100.067438 256.597207 
L 103.346777 254.82703 
L 106.626116 253.006292 
L 109.905455 256.678903 
L 113.184793 254.542024 
L 116.464132 251.613994 
L 119.743471 253.515098 
L 123.02281 249.921787 
L 126.302149 256.19591 
L 129.581488 254.197143 
L 132.860826 252.167773 
L 136.140165 252.409668 
L 139.419504 254.130349 
L 142.698843 252.496155 
L 145.978182 253.239938 
L 149.257521 253.44857 
L 152.53686 253.63538 
L 155.816198 251.462842 
L 159.095537 255.107512 
L 162.374876 248.460833 
L 165.654215 252.476729 
L 168.933554 252.698932 
L 172.212893 256.114214 
L 175.492231 251.43836 
L 178.77157 252.86472 
L 182.050909 252.549377 
L 185.330248 253.226632 
L 188.609587 257.080732 
L 191.888926 244.776778 
L 195.168264 251.010718 
L 198.447603 255.192136 
L 201.726942 252.668329 
L 205.006281 252.400887 
L 208.28562 253.603713 
L 211.564959 260.036438 
L 214.844298 252.295773 
L 218.123636 253.44857 
L 221.402975 251.62517 
L 224.682314 250.473171 
L 227.961653 249.146869 
L 231.240992 250.880589 
L 234.520331 251.648854 
L 237.799669 256.706845 
L 241.079008 249.546303 
L 244.358347 257.770761 
L 247.637686 253.169418 
L 250.917025 249.335543 
L 254.196364 251.979898 
L 257.475702 253.137485 
L 260.755041 256.451111 
L 264.03438 249.865638 
L 267.313719 250.61155 
L 270.593058 250.578818 
L 273.872397 250.761903 
L 277.151736 258.154228 
L 280.431074 251.457786 
L 283.710413 256.433548 
L 286.989752 258.955758 
L 290.269091 247.492451 
L 293.54843 254.087505 
L 296.827769 254.984302 
L 300.107107 255.870189 
L 303.386446 257.077007 
L 306.665785 254.816119 
L 309.945124 255.248285 
L 313.224463 256.204692 
L 316.503802 252.852213 
L 319.78314 258.459991 
L 323.062479 259.545196 
L 326.341818 252.6183 
L 329.621157 252.041103 
L 332.900496 252.374009 
L 336.179835 255.505615 
L 339.459174 254.963811 
L 342.738512 255.440152 
L 346.017851 251.75796 
L 349.29719 258.297929 
L 352.576529 253.697384 
L 355.855868 254.423338 
L 359.135207 260.157519 
L 362.414545 251.003 
L 365.693884 256.070039 
L 368.973223 252.444529 
L 372.252562 249.18173 
L 375.531901 252.083681 
L 378.81124 250.257355 
L 382.090579 257.3362 
L 385.369917 258.459193 
L 388.649256 250.796764 
L 391.928595 251.227333 
L 395.207934 256.081216 
L 398.487273 253.871954 
" clip-path="url(#p4a7c11548a)" style="fill: none; stroke: #1f77b4; stroke-width: 1.5; stroke-linecap: square"/>
   </g>
   <g id="line2d_17">
    <path d="M 73.832727 298.038563 
L 77.112066 296.949632 
L 80.391405 296.475155 
L 83.670744 296.950164 
L 86.950083 297.123936 
L 90.229421 296.20851 
L 93.50876 296.937657 
L 96.788099 297.3967 
L 100.067438 297.423312 
L 103.346777 297.201906 
L 106.626116 297.162256 
L 109.905455 296.891088 
L 113.184793 297.443536 
L 116.464132 295.398465 
L 119.743471 296.806996 
L 123.02281 295.956236 
L 126.302149 297.114888 
L 129.581488 296.808061 
L 132.860826 296.290207 
L 136.140165 295.147256 
L 139.419504 296.729824 
L 142.698843 296.475687 
L 145.978182 296.369508 
L 149.257521 295.791513 
L 152.53686 296.286215 
L 155.816198 296.120427 
L 159.095537 295.932818 
L 162.374876 295.830897 
L 165.654215 296.855695 
L 168.933554 297.225324 
L 172.212893 296.152095 
L 175.492231 295.988702 
L 178.77157 296.628701 
L 182.050909 295.356686 
L 185.330248 294.69593 
L 188.609587 295.489742 
L 191.888926 295.102017 
L 195.168264 295.944261 
L 198.447603 294.684753 
L 201.726942 293.889344 
L 205.006281 296.034207 
L 208.28562 295.298407 
L 211.564959 294.827389 
L 214.844298 294.640578 
L 218.123636 294.71642 
L 221.402975 295.18664 
L 224.682314 294.528545 
L 227.961653 294.55968 
L 231.240992 293.544729 
L 234.520331 294.009095 
L 237.799669 294.555955 
L 241.079008 293.266376 
L 244.358347 293.649843 
L 247.637686 294.082808 
L 250.917025 293.388521 
L 254.196364 293.272497 
L 257.475702 292.589387 
L 260.755041 291.914261 
L 264.03438 290.975684 
L 267.313719 290.743102 
L 270.593058 292.14019 
L 273.872397 290.639851 
L 277.151736 290.833314 
L 280.431074 289.875311 
L 283.710413 290.069306 
L 286.989752 288.601699 
L 290.269091 287.556943 
L 293.54843 287.398873 
L 296.827769 287.344852 
L 300.107107 288.027163 
L 303.386446 286.328038 
L 306.665785 285.686176 
L 309.945124 286.755946 
L 313.224463 284.943723 
L 316.503802 284.809071 
L 319.78314 284.588198 
L 323.062479 282.130121 
L 326.341818 280.971736 
L 329.621157 281.754903 
L 332.900496 277.35554 
L 336.179835 278.562091 
L 339.459174 277.088097 
L 342.738512 274.542204 
L 346.017851 272.023187 
L 349.29719 272.927436 
L 352.576529 272.711353 
L 355.855868 270.428378 
L 359.135207 266.109646 
L 362.414545 263.178423 
L 365.693884 257.454886 
L 368.973223 255.180693 
L 372.252562 247.488459 
L 375.531901 244.414067 
L 378.81124 235.11984 
L 382.090579 228.355805 
L 385.369917 219.623606 
L 388.649256 200.116532 
L 391.928595 172.57394 
L 395.207934 159.026444 
L 398.487273 104.990007 
" clip-path="url(#p4a7c11548a)" style="fill: none; stroke: #ff7f0e; stroke-width: 1.5; stroke-linecap: square"/>
   </g>
   <g id="line2d_18">
    <path d="M 73.832727 307.583202 
L 77.112066 307.583202 
L 80.391405 307.580008 
L 83.670744 307.579742 
L 86.950083 307.574154 
L 90.229421 307.569098 
L 93.50876 307.556324 
L 96.788099 307.549672 
L 100.067438 307.539027 
L 103.346777 307.533173 
L 106.626116 307.541688 
L 109.905455 307.504699 
L 113.184793 307.488466 
L 116.464132 307.451476 
L 119.743471 307.478087 
L 123.02281 307.441896 
L 126.302149 307.432848 
L 129.581488 307.415817 
L 132.860826 307.321347 
L 136.140165 307.36978 
L 139.419504 307.362063 
L 142.698843 307.300857 
L 145.978182 307.221289 
L 149.257521 307.186695 
L 152.53686 307.168333 
L 155.816198 307.083443 
L 159.095537 307.097015 
L 162.374876 307.119368 
L 165.654215 306.919518 
L 168.933554 306.923776 
L 172.212893 306.956774 
L 175.492231 306.720999 
L 178.77157 306.742022 
L 182.050909 306.735103 
L 185.330248 306.752666 
L 188.609587 306.546163 
L 191.888926 306.444775 
L 195.168264 306.533922 
L 198.447603 306.409648 
L 201.726942 306.235877 
L 205.006281 306.41976 
L 208.28562 305.93517 
L 211.564959 305.947411 
L 214.844298 305.979345 
L 218.123636 305.396293 
L 221.402975 305.608118 
L 224.682314 305.264834 
L 227.961653 305.211612 
L 231.240992 305.241682 
L 234.520331 305.144551 
L 237.799669 305.2329 
L 241.079008 304.347546 
L 244.358347 304.481932 
L 247.637686 304.32333 
L 250.917025 304.438556 
L 254.196364 304.287405 
L 257.475702 303.81133 
L 260.755041 303.750923 
L 264.03438 303.545218 
L 267.313719 302.758591 
L 270.593058 302.961368 
L 273.872397 302.260696 
L 277.151736 301.558958 
L 280.431074 302.475714 
L 283.710413 301.059998 
L 286.989752 301.069844 
L 290.269091 300.709795 
L 293.54843 299.742744 
L 296.827769 299.530653 
L 300.107107 298.503726 
L 303.386446 297.722954 
L 306.665785 298.254379 
L 309.945124 297.183279 
L 313.224463 296.662231 
L 316.503802 296.474356 
L 319.78314 295.749201 
L 323.062479 293.323058 
L 326.341818 292.612805 
L 329.621157 291.187509 
L 332.900496 289.944766 
L 336.179835 288.157558 
L 339.459174 287.411912 
L 342.738512 286.435281 
L 346.017851 283.366477 
L 349.29719 279.825325 
L 352.576529 277.620853 
L 355.855868 276.684405 
L 359.135207 272.696717 
L 362.414545 269.14625 
L 365.693884 260.116804 
L 368.973223 257.529663 
L 372.252562 247.76974 
L 375.531901 245.129376 
L 378.81124 233.158594 
L 382.090579 219.696254 
L 385.369917 202.142442 
L 388.649256 182.050188 
L 391.928595 146.171638 
L 395.207934 97.283138 
L 398.169447 -1 
" clip-path="url(#p4a7c11548a)" style="fill: none; stroke: #2ca02c; stroke-width: 1.5; stroke-linecap: square"/>
   </g>
   <g id="line2d_19">
    <path d="M 73.832727 306.764375 
L 77.112066 306.548292 
L 80.391405 306.522745 
L 83.670744 305.746497 
L 86.950083 305.27468 
L 90.229421 304.645325 
L 93.50876 304.320935 
L 96.788099 303.529251 
L 100.067438 303.165476 
L 103.346777 302.657469 
L 106.626116 301.572264 
L 109.905455 301.663806 
L 113.184793 300.396315 
L 116.464132 300.152024 
L 119.743471 299.180981 
L 123.02281 298.537523 
L 126.302149 298.705439 
L 129.581488 297.156401 
L 132.860826 296.423263 
L 136.140165 295.757717 
L 139.419504 295.516619 
L 142.698843 294.796786 
L 145.978182 293.798334 
L 149.257521 293.693752 
L 152.53686 292.437703 
L 155.816198 291.074944 
L 159.095537 291.537713 
L 162.374876 289.29838 
L 165.654215 288.710539 
L 168.933554 288.950306 
L 172.212893 289.233183 
L 175.492231 287.094973 
L 178.77157 287.097368 
L 182.050909 285.863939 
L 185.330248 286.290782 
L 188.609587 285.746317 
L 191.888926 280.319229 
L 195.168264 281.4526 
L 198.447603 282.408474 
L 201.726942 280.324285 
L 205.006281 280.572035 
L 208.28562 278.071647 
L 211.564959 280.692052 
L 214.844298 275.744498 
L 218.123636 275.697662 
L 221.402975 274.239634 
L 224.682314 272.885922 
L 227.961653 272.162896 
L 231.240992 271.994181 
L 234.520331 269.14625 
L 237.799669 272.391752 
L 241.079008 267.397096 
L 244.358347 270.858415 
L 247.637686 266.580132 
L 250.917025 263.591429 
L 254.196364 263.781699 
L 257.475702 263.89799 
L 260.755041 265.311843 
L 264.03438 259.54147 
L 267.313719 257.648615 
L 270.593058 255.630688 
L 273.872397 254.092295 
L 277.151736 258.226345 
L 280.431074 253.046474 
L 283.710413 254.813458 
L 286.989752 255.961998 
L 290.269091 246.089775 
L 293.54843 248.367161 
L 296.827769 248.468816 
L 300.107107 245.950066 
L 303.386446 246.65473 
L 306.665785 241.922993 
L 309.945124 241.922195 
L 313.224463 239.361399 
L 316.503802 237.586698 
L 319.78314 238.637574 
L 323.062479 235.48255 
L 326.341818 224.820773 
L 329.621157 224.174919 
L 332.900496 221.594963 
L 336.179835 220.024636 
L 339.459174 218.148547 
L 342.738512 219.164562 
L 346.017851 212.021584 
L 349.29719 210.9747 
L 352.576529 204.679554 
L 355.855868 203.026999 
L 359.135207 205.871736 
L 362.414545 186.305585 
L 365.693884 188.035313 
L 368.973223 183.876248 
L 372.252562 170.334873 
L 375.531901 168.662093 
L 378.81124 154.910756 
L 382.090579 157.113098 
L 385.369917 148.664309 
L 388.649256 116.909164 
L 391.928595 106.458945 
L 395.207934 86.715298 
L 398.487273 9.712597 
" clip-path="url(#p4a7c11548a)" style="fill: none; stroke: #d62728; stroke-width: 1.5; stroke-linecap: square"/>
   </g>
   <g id="line2d_20">
    <path d="M 73.832727 305.906962 
L 77.112066 305.481981 
L 80.391405 305.768584 
L 83.670744 305.86944 
L 86.950083 305.157591 
L 90.229421 303.756511 
L 93.50876 303.730698 
L 96.788099 303.682 
L 100.067438 302.906283 
L 103.346777 301.79021 
L 106.626116 301.238559 
L 109.905455 301.815224 
L 113.184793 299.753921 
L 116.464132 299.269863 
L 119.743471 299.340649 
L 123.02281 298.491751 
L 126.302149 297.890072 
L 129.581488 297.036917 
L 132.860826 296.529708 
L 136.140165 294.918932 
L 139.419504 295.21405 
L 142.698843 295.003821 
L 145.978182 292.969927 
L 149.257521 293.343549 
L 152.53686 292.690244 
L 155.816198 290.265963 
L 159.095537 291.232748 
L 162.374876 289.512068 
L 165.654215 287.880269 
L 168.933554 288.889898 
L 172.212893 289.368101 
L 175.492231 286.306217 
L 178.77157 287.20328 
L 182.050909 285.741793 
L 185.330248 285.621244 
L 188.609587 286.057402 
L 191.888926 279.769175 
L 195.168264 281.251153 
L 198.447603 282.432424 
L 201.726942 279.83251 
L 205.006281 280.879927 
L 208.28562 277.386675 
L 211.564959 280.882854 
L 214.844298 275.45071 
L 218.123636 275.61703 
L 221.402975 274.22553 
L 224.682314 272.554879 
L 227.961653 272.315112 
L 231.240992 271.560152 
L 234.520331 269.412362 
L 237.799669 271.947345 
L 241.079008 267.639258 
L 244.358347 270.608802 
L 247.637686 266.686311 
L 250.917025 263.461034 
L 254.196364 263.636135 
L 257.475702 264.115137 
L 260.755041 264.973082 
L 264.03438 259.766335 
L 267.313719 257.477239 
L 270.593058 255.642929 
L 273.872397 254.25276 
L 277.151736 257.964756 
L 280.431074 253.291031 
L 283.710413 254.934805 
L 286.989752 255.779711 
L 290.269091 246.191429 
L 293.54843 248.617572 
L 296.827769 248.608791 
L 300.107107 245.945542 
L 303.386446 246.707154 
L 306.665785 241.920066 
L 309.945124 242.116456 
L 313.224463 239.567369 
L 316.503802 237.704319 
L 319.78314 238.840085 
L 323.062479 235.724712 
L 326.341818 224.958353 
L 329.621157 224.440233 
L 332.900496 221.939046 
L 336.179835 220.386815 
L 339.459174 218.40774 
L 342.738512 219.444246 
L 346.017851 212.272528 
L 349.29719 211.406599 
L 352.576529 205.028959 
L 355.855868 203.458366 
L 359.135207 206.240833 
L 362.414545 186.830092 
L 365.693884 188.551304 
L 368.973223 184.407674 
L 372.252562 170.83543 
L 375.531901 169.203897 
L 378.81124 155.611428 
L 382.090579 157.688167 
L 385.369917 149.413148 
L 388.649256 117.733313 
L 391.928595 107.395127 
L 395.207934 87.793584 
L 398.487273 10.96838 
" clip-path="url(#p4a7c11548a)" style="fill: none; stroke: #9467bd; stroke-width: 1.5; stroke-linecap: square"/>
   </g>
   <g id="line2d_21">
    <path d="M 73.832727 304.264253 
L 77.112066 303.420146 
L 80.391405 303.94412 
L 83.670744 304.170315 
L 86.950083 303.771413 
L 90.229421 304.029542 
L 93.50876 303.980577 
L 96.788099 303.965941 
L 100.067438 302.342658 
L 103.346777 300.132598 
L 106.626116 299.390944 
L 109.905455 300.150427 
L 113.184793 299.635767 
L 116.464132 299.625388 
L 119.743471 299.679675 
L 123.02281 298.427618 
L 126.302149 296.297126 
L 129.581488 295.292553 
L 132.860826 294.986524 
L 136.140165 295.355621 
L 139.419504 295.653401 
L 142.698843 295.442906 
L 145.978182 291.395343 
L 149.257521 291.741022 
L 152.53686 291.045405 
L 155.816198 290.736449 
L 159.095537 291.759384 
L 162.374876 289.937049 
L 165.654215 286.256986 
L 168.933554 287.356827 
L 172.212893 288.164211 
L 175.492231 286.898582 
L 178.77157 287.719538 
L 182.050909 285.484463 
L 185.330248 284.239325 
L 188.609587 284.704489 
L 191.888926 279.921924 
L 195.168264 281.952358 
L 198.447603 282.544457 
L 201.726942 278.44101 
L 205.006281 279.510781 
L 208.28562 278.141102 
L 211.564959 281.558513 
L 214.844298 274.851692 
L 218.123636 274.309622 
L 221.402975 273.71566 
L 224.682314 273.332991 
L 227.961653 272.593465 
L 231.240992 270.314216 
L 234.520331 268.506517 
L 237.799669 272.883261 
L 241.079008 268.024855 
L 244.358347 269.505768 
L 247.637686 266.189214 
L 250.917025 264.454962 
L 254.196364 263.284601 
L 257.475702 262.985492 
L 260.755041 265.751194 
L 264.03438 260.265029 
L 267.313719 256.40401 
L 270.593058 255.625632 
L 273.872397 255.326256 
L 277.151736 257.421356 
L 280.431074 252.855938 
L 283.710413 256.080684 
L 286.989752 255.287936 
L 290.269091 246.157101 
L 293.54843 249.625073 
L 296.827769 247.719711 
L 300.107107 247.216759 
L 303.386446 246.493466 
L 306.665785 242.564589 
L 309.945124 242.547558 
L 313.224463 239.670621 
L 316.503802 238.344851 
L 319.78314 238.825981 
L 323.062479 236.697884 
L 326.341818 225.259592 
L 329.621157 224.938927 
L 332.900496 222.793 
L 336.179835 220.453343 
L 339.459174 219.499065 
L 342.738512 220.187763 
L 346.017851 212.646947 
L 349.29719 212.17859 
L 352.576529 206.060675 
L 355.855868 204.352769 
L 359.135207 207.115809 
L 362.414545 187.578132 
L 365.693884 189.777548 
L 368.973223 185.561004 
L 372.252562 171.616202 
L 375.531901 170.482831 
L 378.81124 156.941456 
L 382.090579 159.253171 
L 385.369917 150.691816 
L 388.649256 119.615789 
L 391.928595 109.150668 
L 395.207934 89.916625 
L 398.487273 13.470631 
" clip-path="url(#p4a7c11548a)" style="fill: none; stroke: #8c564b; stroke-width: 1.5; stroke-linecap: square"/>
   </g>
   <g id="line2d_22">
    <path d="M 73.832727 297.301965 
L 77.112066 296.339437 
L 80.391405 296.121492 
L 83.670744 294.835639 
L 86.950083 295.69864 
L 90.229421 294.867306 
L 93.50876 295.902482 
L 96.788099 295.793642 
L 100.067438 293.643191 
L 103.346777 294.412254 
L 106.626116 293.601943 
L 109.905455 293.551382 
L 113.184793 293.135183 
L 116.464132 291.205871 
L 119.743471 291.232482 
L 123.02281 290.804042 
L 126.302149 291.98824 
L 129.581488 290.9842 
L 132.860826 289.950354 
L 136.140165 288.809266 
L 139.419504 290.323443 
L 142.698843 289.729748 
L 145.978182 288.749923 
L 149.257521 287.77276 
L 152.53686 287.774357 
L 155.816198 287.031904 
L 159.095537 286.952603 
L 162.374876 287.125842 
L 165.654215 286.097053 
L 168.933554 286.095456 
L 172.212893 286.49968 
L 175.492231 284.264339 
L 178.77157 284.811732 
L 182.050909 283.959641 
L 185.330248 283.274403 
L 188.609587 284.029895 
L 191.888926 280.411836 
L 195.168264 281.599494 
L 198.447603 282.557231 
L 201.726942 280.413166 
L 205.006281 281.605082 
L 208.28562 280.311778 
L 211.564959 282.131186 
L 214.844298 279.137426 
L 218.123636 279.047746 
L 221.402975 277.38561 
L 224.682314 276.866426 
L 227.961653 276.397004 
L 231.240992 276.500522 
L 234.520331 275.796655 
L 237.799669 277.510417 
L 241.079008 273.755843 
L 244.358347 276.631183 
L 247.637686 275.438469 
L 250.917025 272.425815 
L 254.196364 272.175936 
L 257.475702 272.878205 
L 260.755041 274.587709 
L 264.03438 270.500761 
L 267.313719 271.085409 
L 270.593058 270.863737 
L 273.872397 267.47693 
L 277.151736 271.660743 
L 280.431074 267.987333 
L 283.710413 269.865285 
L 286.989752 271.666065 
L 290.269091 263.130523 
L 293.54843 265.621065 
L 296.827769 266.201987 
L 300.107107 266.526644 
L 303.386446 264.85759 
L 306.665785 262.55439 
L 309.945124 263.363637 
L 313.224463 263.073575 
L 316.503802 260.812155 
L 319.78314 263.55577 
L 323.062479 263.223396 
L 326.341818 257.256632 
L 329.621157 257.369464 
L 332.900496 255.702006 
L 336.179835 256.154929 
L 339.459174 256.508592 
L 342.738512 255.384535 
L 346.017851 250.894959 
L 349.29719 255.626696 
L 352.576529 251.431441 
L 355.855868 250.83056 
L 359.135207 253.799838 
L 362.414545 242.743682 
L 365.693884 247.101266 
L 368.973223 243.536164 
L 372.252562 238.536984 
L 375.531901 237.73918 
L 378.81124 234.380048 
L 382.090579 241.519301 
L 385.369917 238.575304 
L 388.649256 224.510753 
L 391.928595 224.690112 
L 395.207934 227.460338 
L 398.487273 211.074492 
" clip-path="url(#p4a7c11548a)" style="fill: none; stroke: #e377c2; stroke-width: 1.5; stroke-linecap: square"/>
   </g>
   <g id="line2d_23">
    <path d="M 73.832727 306.087386 
L 77.112066 305.912284 
L 80.391405 306.01527 
L 83.670744 306.000367 
L 86.950083 305.945016 
L 90.229421 305.959652 
L 93.50876 305.691944 
L 96.788099 305.669324 
L 100.067438 305.731062 
L 103.346777 305.812492 
L 106.626116 305.7449 
L 109.905455 305.762729 
L 113.184793 305.635794 
L 116.464132 305.611312 
L 119.743471 305.693008 
L 123.02281 304.654107 
L 126.302149 304.66688 
L 129.581488 304.54846 
L 132.860826 304.649849 
L 136.140165 304.376286 
L 139.419504 304.745117 
L 142.698843 304.679121 
L 145.978182 304.65118 
L 149.257521 304.596361 
L 152.53686 304.718506 
L 155.816198 304.663155 
L 159.095537 304.728618 
L 162.374876 304.529566 
L 165.654215 304.466764 
L 168.933554 304.515729 
L 172.212893 301.290451 
L 175.492231 300.586851 
L 178.77157 301.13451 
L 182.050909 300.488656 
L 185.330248 301.263308 
L 188.609587 301.338884 
L 191.888926 300.217222 
L 195.168264 300.437562 
L 198.447603 300.573545 
L 201.726942 301.291782 
L 205.006281 301.219133 
L 208.28562 300.376889 
L 211.564959 300.638477 
L 214.844298 300.603882 
L 218.123636 299.840673 
L 221.402975 301.365229 
L 224.682314 300.239309 
L 227.961653 300.453529 
L 231.240992 276.016996 
L 234.520331 267.135508 
L 237.799669 270.694756 
L 241.079008 267.995316 
L 244.358347 272.113665 
L 247.637686 269.110325 
L 250.917025 267.747832 
L 254.196364 269.3626 
L 257.475702 270.315014 
L 260.755041 271.50693 
L 264.03438 268.104688 
L 267.313719 267.082818 
L 270.593058 267.709246 
L 273.872397 267.5235 
L 277.151736 269.883913 
L 280.431074 269.000687 
L 283.710413 270.820627 
L 286.989752 256.825797 
L 290.269091 235.29095 
L 293.54843 236.387597 
L 296.827769 240.007785 
L 300.107107 238.19024 
L 303.386446 241.118802 
L 306.665785 238.569449 
L 309.945124 242.244988 
L 313.224463 240.033065 
L 316.503802 239.961481 
L 319.78314 242.43792 
L 323.062479 241.22232 
L 326.341818 204.376452 
L 329.621157 205.412693 
L 332.900496 205.507695 
L 336.179835 203.771846 
L 339.459174 206.298846 
L 342.738512 210.406284 
L 346.017851 207.624882 
L 349.29719 195.889609 
L 352.576529 176.915025 
L 355.855868 180.736659 
L 359.135207 187.416336 
L 362.414545 171.399321 
L 365.693884 166.768706 
L 368.973223 152.123232 
L 372.252562 143.05174 
L 375.531901 146.713974 
L 378.81124 114.572168 
L 382.090579 126.830085 
L 385.369917 110.587141 
L 388.649256 76.43619 
L 391.928595 61.301336 
L 395.207934 31.665507 
L 396.575148 -1 
" clip-path="url(#p4a7c11548a)" style="fill: none; stroke: #7f7f7f; stroke-width: 1.5; stroke-linecap: square"/>
   </g>
   <g id="line2d_24">
    <path d="M 73.832727 303.495455 
L 77.112066 302.658533 
L 80.391405 303.190757 
L 83.670744 303.138333 
L 86.950083 303.225884 
L 90.229421 303.513285 
L 93.50876 303.47736 
L 96.788099 303.06116 
L 100.067438 303.36506 
L 103.346777 303.554532 
L 106.626116 303.432387 
L 109.905455 303.439572 
L 113.184793 302.948063 
L 116.464132 303.085111 
L 119.743471 303.346166 
L 123.02281 303.123963 
L 126.302149 303.299065 
L 129.581488 303.628245 
L 132.860826 303.246641 
L 136.140165 303.119439 
L 139.419504 303.655655 
L 142.698843 303.567305 
L 145.978182 302.359689 
L 149.257521 297.734663 
L 152.53686 297.583777 
L 155.816198 297.80811 
L 159.095537 297.643386 
L 162.374876 297.404152 
L 165.654215 297.361041 
L 168.933554 297.874105 
L 172.212893 297.45631 
L 175.492231 297.309416 
L 178.77157 297.763935 
L 182.050909 297.25779 
L 185.330248 298.263693 
L 188.609587 298.613364 
L 191.888926 297.308883 
L 195.168264 297.279079 
L 198.447603 297.969373 
L 201.726942 297.944891 
L 205.006281 297.824609 
L 208.28562 297.199245 
L 211.564959 297.936376 
L 214.844298 297.996251 
L 218.123636 296.714123 
L 221.402975 298.052666 
L 224.682314 297.327245 
L 227.961653 297.154805 
L 231.240992 297.382064 
L 234.520331 297.346671 
L 237.799669 297.873041 
L 241.079008 297.316601 
L 244.358347 297.989864 
L 247.637686 272.393083 
L 250.917025 263.510531 
L 254.196364 265.24292 
L 257.475702 265.626919 
L 260.755041 267.551441 
L 264.03438 263.987403 
L 267.313719 261.660254 
L 270.593058 260.747224 
L 273.872397 263.838913 
L 277.151736 265.387951 
L 280.431074 264.332018 
L 283.710413 269.380429 
L 286.989752 265.81985 
L 290.269091 263.057608 
L 293.54843 264.471195 
L 296.827769 265.512757 
L 300.107107 266.436964 
L 303.386446 265.452084 
L 306.665785 266.287143 
L 309.945124 267.883283 
L 313.224463 267.474801 
L 316.503802 265.723518 
L 319.78314 269.708013 
L 323.062479 265.984574 
L 326.341818 262.906456 
L 329.621157 264.284384 
L 332.900496 264.975477 
L 336.179835 262.826889 
L 339.459174 263.975428 
L 342.738512 263.801923 
L 346.017851 143.098576 
L 349.29719 143.734052 
L 352.576529 150.100781 
L 355.855868 153.744653 
L 359.135207 154.693076 
L 362.414545 134.86374 
L 365.693884 148.484151 
L 368.973223 149.800873 
L 372.252562 136.434067 
L 375.531901 146.097658 
L 378.81124 142.580988 
L 382.090579 151.595798 
L 385.369917 154.299496 
L 387.633103 -1 
" clip-path="url(#p4a7c11548a)" style="fill: none; stroke: #bcbd22; stroke-width: 1.5; stroke-linecap: square"/>
   </g>
   <g id="patch_3">
    <path d="M 57.6 307.584 
L 57.6 41.472 
" style="fill: none; stroke: #000000; stroke-width: 0.8; stroke-linejoin: miter; stroke-linecap: square"/>
   </g>
   <g id="patch_4">
    <path d="M 414.72 307.584 
L 414.72 41.472 
" style="fill: none; stroke: #000000; stroke-width: 0.8; stroke-linejoin: miter; stroke-linecap: square"/>
   </g>
   <g id="patch_5">
    <path d="M 57.6 307.584 
L 414.72 307.584 
" style="fill: none; stroke: #000000; stroke-width: 0.8; stroke-linejoin: miter; stroke-linecap: square"/>
   </g>
   <g id="patch_6">
    <path d="M 57.6 41.472 
L 414.72 41.472 
" style="fill: none; stroke: #000000; stroke-width: 0.8; stroke-linejoin: miter; stroke-linecap: square"/>
   </g>
   <g id="text_18">
    <!-- Wachttijd in functie van bedieningstijd -->
    <g transform="translate(120.759375 35.472)scale(0.12 -0.12)">
     <defs>
      <path id="DejaVuSans-66" d="M 2375 4863 
L 2375 4384 
L 1825 4384 
Q 1516 4384 1395 4259 
Q 1275 4134 1275 3809 
L 1275 3500 
L 2222 3500 
L 2222 3053 
L 1275 3053 
L 1275 0 
L 697 0 
L 697 3053 
L 147 3053 
L 147 3500 
L 697 3500 
L 697 3744 
Q 697 4328 969 4595 
Q 1241 4863 1831 4863 
L 2375 4863 
z
" transform="scale(0.015625)"/>
      <path id="DejaVuSans-75" d="M 544 1381 
L 544 3500 
L 1119 3500 
L 1119 1403 
Q 1119 906 1312 657 
Q 1506 409 1894 409 
Q 2359 409 2629 706 
Q 2900 1003 2900 1516 
L 2900 3500 
L 3475 3500 
L 3475 0 
L 2900 0 
L 2900 538 
Q 2691 219 2414 64 
Q 2138 -91 1772 -91 
Q 1169 -91 856 284 
Q 544 659 544 1381 
z
M 1991 3584 
L 1991 3584 
z
" transform="scale(0.015625)"/>
      <path id="DejaVuSans-76" d="M 191 3500 
L 800 3500 
L 1894 563 
L 2988 3500 
L 3597 3500 
L 2284 0 
L 1503 0 
L 191 3500 
z
" transform="scale(0.015625)"/>
      <path id="DejaVuSans-62" d="M 3116 1747 
Q 3116 2381 2855 2742 
Q 2594 3103 2138 3103 
Q 1681 3103 1420 2742 
Q 1159 2381 1159 1747 
Q 1159 1113 1420 752 
Q 1681 391 2138 391 
Q 2594 391 2855 752 
Q 3116 1113 3116 1747 
z
M 1159 2969 
Q 1341 3281 1617 3432 
Q 1894 3584 2278 3584 
Q 2916 3584 3314 3078 
Q 3713 2572 3713 1747 
Q 3713 922 3314 415 
Q 2916 -91 2278 -91 
Q 1894 -91 1617 61 
Q 1341 213 1159 525 
L 1159 0 
L 581 0 
L 581 4863 
L 1159 4863 
L 1159 2969 
z
" transform="scale(0.015625)"/>
     </defs>
     <use xlink:href="#DejaVuSans-57"/>
     <use xlink:href="#DejaVuSans-61" x="92.501953"/>
     <use xlink:href="#DejaVuSans-63" x="153.78125"/>
     <use xlink:href="#DejaVuSans-68" x="208.761719"/>
     <use xlink:href="#DejaVuSans-74" x="272.140625"/>
     <use xlink:href="#DejaVuSans-74" x="311.349609"/>
     <use xlink:href="#DejaVuSans-69" x="350.558594"/>
     <use xlink:href="#DejaVuSans-6a" x="378.341797"/>
     <use xlink:href="#DejaVuSans-64" x="406.125"/>
     <use xlink:href="#DejaVuSans-20" x="469.601562"/>
     <use xlink:href="#DejaVuSans-69" x="501.388672"/>
     <use xlink:href="#DejaVuSans-6e" x="529.171875"/>
     <use xlink:href="#DejaVuSans-20" x="592.550781"/>
     <use xlink:href="#DejaVuSans-66" x="624.337891"/>
     <use xlink:href="#DejaVuSans-75" x="659.542969"/>
     <use xlink:href="#DejaVuSans-6e" x="722.921875"/>
     <use xlink:href="#DejaVuSans-63" x="786.300781"/>
     <use xlink:href="#DejaVuSans-74" x="841.28125"/>
     <use xlink:href="#DejaVuSans-69" x="880.490234"/>
     <use xlink:href="#DejaVuSans-65" x="908.273438"/>
     <use xlink:href="#DejaVuSans-20" x="969.796875"/>
     <use xlink:href="#DejaVuSans-76" x="1001.583984"/>
     <use xlink:href="#DejaVuSans-61" x="1060.763672"/>
     <use xlink:href="#DejaVuSans-6e" x="1122.042969"/>
     <use xlink:href="#DejaVuSans-20" x="1185.421875"/>
     <use xlink:href="#DejaVuSans-62" x="1217.208984"/>
     <use xlink:href="#DejaVuSans-65" x="1280.685547"/>
     <use xlink:href="#DejaVuSans-64" x="1342.208984"/>
     <use xlink:href="#DejaVuSans-69" x="1405.685547"/>
     <use xlink:href="#DejaVuSans-65" x="1433.46875"/>
     <use xlink:href="#DejaVuSans-6e" x="1494.992188"/>
     <use xlink:href="#DejaVuSans-69" x="1558.371094"/>
     <use xlink:href="#DejaVuSans-6e" x="1586.154297"/>
     <use xlink:href="#DejaVuSans-67" x="1649.533203"/>
     <use xlink:href="#DejaVuSans-73" x="1713.009766"/>
     <use xlink:href="#DejaVuSans-74" x="1765.109375"/>
     <use xlink:href="#DejaVuSans-69" x="1804.318359"/>
     <use xlink:href="#DejaVuSans-6a" x="1832.101562"/>
     <use xlink:href="#DejaVuSans-64" x="1859.884766"/>
    </g>
   </g>
   <g id="legend_1">
    <g id="patch_7">
     <path d="M 64.6 181.575125 
L 136.1375 181.575125 
Q 138.1375 181.575125 138.1375 179.575125 
L 138.1375 48.472 
Q 138.1375 46.472 136.1375 46.472 
L 64.6 46.472 
Q 62.6 46.472 62.6 48.472 
L 62.6 179.575125 
Q 62.6 181.575125 64.6 181.575125 
z
" style="fill: #ffffff; opacity: 0.8; stroke: #cccccc; stroke-linejoin: miter"/>
    </g>
    <g id="line2d_25">
     <path d="M 66.6 54.570438 
L 76.6 54.570438 
L 86.6 54.570438 
" style="fill: none; stroke: #1f77b4; stroke-width: 1.5; stroke-linecap: square"/>
    </g>
    <g id="text_19">
     <!-- FCFS -->
     <g transform="translate(94.6 58.070438)scale(0.1 -0.1)">
      <defs>
       <path id="DejaVuSans-46" d="M 628 4666 
L 3309 4666 
L 3309 4134 
L 1259 4134 
L 1259 2759 
L 3109 2759 
L 3109 2228 
L 1259 2228 
L 1259 0 
L 628 0 
L 628 4666 
z
" transform="scale(0.015625)"/>
       <path id="DejaVuSans-43" d="M 4122 4306 
L 4122 3641 
Q 3803 3938 3442 4084 
Q 3081 4231 2675 4231 
Q 1875 4231 1450 3742 
Q 1025 3253 1025 2328 
Q 1025 1406 1450 917 
Q 1875 428 2675 428 
Q 3081 428 3442 575 
Q 3803 722 4122 1019 
L 4122 359 
Q 3791 134 3420 21 
Q 3050 -91 2638 -91 
Q 1578 -91 968 557 
Q 359 1206 359 2328 
Q 359 3453 968 4101 
Q 1578 4750 2638 4750 
Q 3056 4750 3426 4639 
Q 3797 4528 4122 4306 
z
" transform="scale(0.015625)"/>
       <path id="DejaVuSans-53" d="M 3425 4513 
L 3425 3897 
Q 3066 4069 2747 4153 
Q 2428 4238 2131 4238 
Q 1616 4238 1336 4038 
Q 1056 3838 1056 3469 
Q 1056 3159 1242 3001 
Q 1428 2844 1947 2747 
L 2328 2669 
Q 3034 2534 3370 2195 
Q 3706 1856 3706 1288 
Q 3706 609 3251 259 
Q 2797 -91 1919 -91 
Q 1588 -91 1214 -16 
Q 841 59 441 206 
L 441 856 
Q 825 641 1194 531 
Q 1563 422 1919 422 
Q 2459 422 2753 634 
Q 3047 847 3047 1241 
Q 3047 1584 2836 1778 
Q 2625 1972 2144 2069 
L 1759 2144 
Q 1053 2284 737 2584 
Q 422 2884 422 3419 
Q 422 4038 858 4394 
Q 1294 4750 2059 4750 
Q 2388 4750 2728 4690 
Q 3069 4631 3425 4513 
z
" transform="scale(0.015625)"/>
      </defs>
      <use xlink:href="#DejaVuSans-46"/>
      <use xlink:href="#DejaVuSans-43" x="57.519531"/>
      <use xlink:href="#DejaVuSans-46" x="127.34375"/>
      <use xlink:href="#DejaVuSans-53" x="183.113281"/>
     </g>
    </g>
    <g id="line2d_26">
     <path d="M 66.6 69.248563 
L 76.6 69.248563 
L 86.6 69.248563 
" style="fill: none; stroke: #ff7f0e; stroke-width: 1.5; stroke-linecap: square"/>
    </g>
    <g id="text_20">
     <!-- SJF -->
     <g transform="translate(94.6 72.748563)scale(0.1 -0.1)">
      <defs>
       <path id="DejaVuSans-4a" d="M 628 4666 
L 1259 4666 
L 1259 325 
Q 1259 -519 939 -900 
Q 619 -1281 -91 -1281 
L -331 -1281 
L -331 -750 
L -134 -750 
Q 284 -750 456 -515 
Q 628 -281 628 325 
L 628 4666 
z
" transform="scale(0.015625)"/>
      </defs>
      <use xlink:href="#DejaVuSans-53"/>
      <use xlink:href="#DejaVuSans-4a" x="63.476562"/>
      <use xlink:href="#DejaVuSans-46" x="92.96875"/>
     </g>
    </g>
    <g id="line2d_27">
     <path d="M 66.6 83.926688 
L 76.6 83.926688 
L 86.6 83.926688 
" style="fill: none; stroke: #2ca02c; stroke-width: 1.5; stroke-linecap: square"/>
    </g>
    <g id="text_21">
     <!-- SRT -->
     <g transform="translate(94.6 87.426688)scale(0.1 -0.1)">
      <defs>
       <path id="DejaVuSans-52" d="M 2841 2188 
Q 3044 2119 3236 1894 
Q 3428 1669 3622 1275 
L 4263 0 
L 3584 0 
L 2988 1197 
Q 2756 1666 2539 1819 
Q 2322 1972 1947 1972 
L 1259 1972 
L 1259 0 
L 628 0 
L 628 4666 
L 2053 4666 
Q 2853 4666 3247 4331 
Q 3641 3997 3641 3322 
Q 3641 2881 3436 2590 
Q 3231 2300 2841 2188 
z
M 1259 4147 
L 1259 2491 
L 2053 2491 
Q 2509 2491 2742 2702 
Q 2975 2913 2975 3322 
Q 2975 3731 2742 3939 
Q 2509 4147 2053 4147 
L 1259 4147 
z
" transform="scale(0.015625)"/>
       <path id="DejaVuSans-54" d="M -19 4666 
L 3928 4666 
L 3928 4134 
L 2272 4134 
L 2272 0 
L 1638 0 
L 1638 4134 
L -19 4134 
L -19 4666 
z
" transform="scale(0.015625)"/>
      </defs>
      <use xlink:href="#DejaVuSans-53"/>
      <use xlink:href="#DejaVuSans-52" x="63.476562"/>
      <use xlink:href="#DejaVuSans-54" x="125.708984"/>
     </g>
    </g>
    <g id="line2d_28">
     <path d="M 66.6 98.604813 
L 76.6 98.604813 
L 86.6 98.604813 
" style="fill: none; stroke: #d62728; stroke-width: 1.5; stroke-linecap: square"/>
    </g>
    <g id="text_22">
     <!-- RR2 -->
     <g transform="translate(94.6 102.104813)scale(0.1 -0.1)">
      <use xlink:href="#DejaVuSans-52"/>
      <use xlink:href="#DejaVuSans-52" x="69.482422"/>
      <use xlink:href="#DejaVuSans-32" x="138.964844"/>
     </g>
    </g>
    <g id="line2d_29">
     <path d="M 66.6 113.282938 
L 76.6 113.282938 
L 86.6 113.282938 
" style="fill: none; stroke: #9467bd; stroke-width: 1.5; stroke-linecap: square"/>
    </g>
    <g id="text_23">
     <!-- RR4 -->
     <g transform="translate(94.6 116.782938)scale(0.1 -0.1)">
      <use xlink:href="#DejaVuSans-52"/>
      <use xlink:href="#DejaVuSans-52" x="69.482422"/>
      <use xlink:href="#DejaVuSans-34" x="138.964844"/>
     </g>
    </g>
    <g id="line2d_30">
     <path d="M 66.6 127.961063 
L 76.6 127.961063 
L 86.6 127.961063 
" style="fill: none; stroke: #8c564b; stroke-width: 1.5; stroke-linecap: square"/>
    </g>
    <g id="text_24">
     <!-- RR8 -->
     <g transform="translate(94.6 131.461063)scale(0.1 -0.1)">
      <use xlink:href="#DejaVuSans-52"/>
      <use xlink:href="#DejaVuSans-52" x="69.482422"/>
      <use xlink:href="#DejaVuSans-38" x="138.964844"/>
     </g>
    </g>
    <g id="line2d_31">
     <path d="M 66.6 142.639188 
L 76.6 142.639188 
L 86.6 142.639188 
" style="fill: none; stroke: #e377c2; stroke-width: 1.5; stroke-linecap: square"/>
    </g>
    <g id="text_25">
     <!-- HRRN -->
     <g transform="translate(94.6 146.139188)scale(0.1 -0.1)">
      <defs>
       <path id="DejaVuSans-48" d="M 628 4666 
L 1259 4666 
L 1259 2753 
L 3553 2753 
L 3553 4666 
L 4184 4666 
L 4184 0 
L 3553 0 
L 3553 2222 
L 1259 2222 
L 1259 0 
L 628 0 
L 628 4666 
z
" transform="scale(0.015625)"/>
       <path id="DejaVuSans-4e" d="M 628 4666 
L 1478 4666 
L 3547 763 
L 3547 4666 
L 4159 4666 
L 4159 0 
L 3309 0 
L 1241 3903 
L 1241 0 
L 628 0 
L 628 4666 
z
" transform="scale(0.015625)"/>
      </defs>
      <use xlink:href="#DejaVuSans-48"/>
      <use xlink:href="#DejaVuSans-52" x="75.195312"/>
      <use xlink:href="#DejaVuSans-52" x="144.677734"/>
      <use xlink:href="#DejaVuSans-4e" x="214.160156"/>
     </g>
    </g>
    <g id="line2d_32">
     <path d="M 66.6 157.317313 
L 76.6 157.317313 
L 86.6 157.317313 
" style="fill: none; stroke: #7f7f7f; stroke-width: 1.5; stroke-linecap: square"/>
    </g>
    <g id="text_26">
     <!-- MLFB5 -->
     <g transform="translate(94.6 160.817313)scale(0.1 -0.1)">
      <defs>
       <path id="DejaVuSans-4d" d="M 628 4666 
L 1569 4666 
L 2759 1491 
L 3956 4666 
L 4897 4666 
L 4897 0 
L 4281 0 
L 4281 4097 
L 3078 897 
L 2444 897 
L 1241 4097 
L 1241 0 
L 628 0 
L 628 4666 
z
" transform="scale(0.015625)"/>
       <path id="DejaVuSans-4c" d="M 628 4666 
L 1259 4666 
L 1259 531 
L 3531 531 
L 3531 0 
L 628 0 
L 628 4666 
z
" transform="scale(0.015625)"/>
      </defs>
      <use xlink:href="#DejaVuSans-4d"/>
      <use xlink:href="#DejaVuSans-4c" x="86.279297"/>
      <use xlink:href="#DejaVuSans-46" x="141.992188"/>
      <use xlink:href="#DejaVuSans-42" x="199.511719"/>
      <use xlink:href="#DejaVuSans-35" x="268.115234"/>
     </g>
    </g>
    <g id="line2d_33">
     <path d="M 66.6 171.995438 
L 76.6 171.995438 
L 86.6 171.995438 
" style="fill: none; stroke: #bcbd22; stroke-width: 1.5; stroke-linecap: square"/>
    </g>
    <g id="text_27">
     <!-- MLFB25 -->
     <g transform="translate(94.6 175.495438)scale(0.1 -0.1)">
      <use xlink:href="#DejaVuSans-4d"/>
      <use xlink:href="#DejaVuSans-4c" x="86.279297"/>
      <use xlink:href="#DejaVuSans-46" x="141.992188"/>
      <use xlink:href="#DejaVuSans-42" x="199.511719"/>
      <use xlink:href="#DejaVuSans-32" x="268.115234"/>
      <use xlink:href="#DejaVuSans-35" x="331.738281"/>
     </g>
    </g>
   </g>
  </g>
 </g>
 <defs>
  <clipPath id="p4a7c11548a">
   <rect x="57.6" y="41.472" width="357.12" height="266.112"/>
  </clipPath>
 </defs>
</svg>
